# 3ds Max Wavefront OBJ Exporter v0.97b - (c)2007 guruware
# File Created: 26.05.2016 00:04:09

mtllib Grapefruit_01.mtl

#
# object Grapefruit_01
#

v  0.0351 -0.0414 -0.0185
v  0.0428 -0.0393 -0.0020
v  0.0306 -0.0474 0.0012
v  0.0197 -0.0498 -0.0094
v  0.0259 -0.0458 -0.0214
v  0.0403 -0.0098 -0.0387
v  0.0379 -0.0278 -0.0328
v  0.0253 -0.0174 -0.0489
v  0.0250 -0.0349 -0.0387
v  0.0444 -0.0312 -0.0166
v  0.0519 -0.0236 -0.0027
v  0.0502 -0.0255 0.0076
v  0.0466 -0.0187 -0.0257
v  0.0534 -0.0095 -0.0115
v  0.0502 -0.0191 -0.0151
v  -0.0302 -0.0428 -0.0220
v  -0.0251 -0.0346 -0.0368
v  -0.0126 -0.0466 -0.0299
v  0.0079 -0.0484 -0.0282
v  0.0017 -0.0500 -0.0054
v  -0.0154 -0.0508 -0.0127
v  0.0077 -0.0501 0.0178
v  -0.0145 -0.0506 0.0102
v  -0.0279 -0.0483 -0.0070
v  -0.0374 -0.0331 -0.0271
v  -0.0445 -0.0333 -0.0125
v  -0.0363 -0.0437 0.0011
v  -0.0260 -0.0470 0.0168
v  -0.0463 -0.0336 0.0022
v  0.0006 -0.0400 -0.0417
v  0.0119 -0.0294 -0.0491
v  -0.0143 -0.0281 -0.0474
v  0.0120 -0.0140 -0.0547
v  -0.0035 -0.0157 -0.0545
v  -0.0348 -0.0188 -0.0394
v  -0.0451 -0.0189 -0.0280
v  -0.0161 -0.0022 -0.0525
v  -0.0234 -0.0136 -0.0486
v  -0.0394 -0.0036 -0.0380
v  -0.0500 0.0016 -0.0232
v  -0.0532 -0.0184 -0.0074
v  -0.0512 -0.0130 -0.0191
v  -0.0532 -0.0185 0.0067
v  -0.0481 -0.0263 0.0160
v  -0.0553 -0.0071 0.0001
v  -0.0550 -0.0044 -0.0108
v  -0.0547 0.0089 -0.0041
v  0.0361 -0.0388 0.0184
v  0.0220 -0.0464 0.0181
v  0.0255 -0.0339 0.0380
v  0.0464 -0.0196 0.0250
v  0.0437 -0.0310 0.0194
v  0.0350 -0.0252 0.0375
v  0.0553 -0.0024 0.0000
v  0.0530 -0.0082 0.0119
v  0.0460 -0.0095 0.0298
v  0.0203 -0.0147 0.0498
v  0.0364 -0.0082 0.0416
v  0.0393 0.0028 0.0388
v  0.0213 0.0007 0.0507
v  0.0129 -0.0431 0.0325
v  -0.0103 -0.0481 0.0255
v  -0.0007 -0.0418 0.0376
v  -0.0406 -0.0275 0.0293
v  -0.0384 -0.0375 0.0194
v  -0.0242 -0.0389 0.0327
v  -0.0234 -0.0257 0.0439
v  0.0127 -0.0277 0.0469
v  -0.0005 -0.0272 0.0490
v  -0.0399 -0.0138 0.0370
v  -0.0471 -0.0132 0.0289
v  -0.0007 -0.0072 0.0551
v  -0.0087 -0.0178 0.0517
v  -0.0041 0.0114 0.0545
v  -0.0265 -0.0040 0.0486
v  -0.0169 0.0075 0.0519
v  -0.0415 0.0038 0.0379
v  -0.0275 0.0153 0.0458
v  -0.0518 -0.0121 0.0192
v  -0.0546 -0.0043 0.0115
v  -0.0500 -0.0024 0.0261
v  -0.0519 0.0029 0.0206
v  -0.0500 0.0122 0.0226
v  -0.0534 0.0093 0.0128
v  0.0237 -0.0016 -0.0513
v  0.0375 0.0071 -0.0395
v  0.0213 0.0110 -0.0498
v  0.0482 0.0011 -0.0269
v  0.0522 0.0138 -0.0032
v  0.0297 0.0265 -0.0360
v  0.0465 0.0148 -0.0225
v  0.0393 0.0189 -0.0316
v  0.0421 0.0267 -0.0177
v  0.0294 0.0395 -0.0178
v  0.0362 0.0381 -0.0049
v  0.0035 0.0064 -0.0551
v  0.0084 0.0270 -0.0454
v  -0.0177 0.0149 -0.0482
v  -0.0063 0.0234 -0.0471
v  -0.0279 0.0054 -0.0460
v  -0.0371 0.0109 -0.0379
v  -0.0451 0.0120 -0.0282
v  -0.0308 0.0265 -0.0339
v  -0.0300 0.0367 -0.0221
v  -0.0417 0.0260 -0.0219
v  -0.0338 0.0391 -0.0127
v  0.0118 0.0374 -0.0343
v  0.0176 0.0435 -0.0228
v  -0.0108 0.0376 -0.0329
v  0.0042 0.0487 -0.0164
v  0.0155 0.0503 -0.0020
v  -0.0169 0.0466 -0.0139
v  -0.0014 0.0481 0.0007
v  -0.0503 0.0153 -0.0164
v  -0.0540 0.0089 -0.0106
v  -0.0515 0.0202 -0.0049
v  -0.0467 0.0255 -0.0129
v  -0.0525 0.0168 0.0054
v  -0.0466 0.0288 0.0031
v  -0.0381 0.0382 0.0009
v  0.0482 0.0117 0.0216
v  0.0458 0.0272 0.0046
v  0.0360 0.0306 0.0249
v  0.0317 0.0209 0.0391
v  0.0305 0.0420 0.0094
v  -0.0116 0.0447 0.0306
v  -0.0297 0.0414 0.0191
v  -0.0312 0.0307 0.0338
v  -0.0186 0.0340 0.0399
v  0.0088 0.0162 0.0517
v  0.0057 0.0288 0.0470
v  0.0215 0.0363 0.0329
v  0.0082 0.0429 0.0326
v  -0.0038 0.0387 0.0403
v  -0.0129 0.0239 0.0488
v  -0.0406 0.0173 0.0343
v  0.0180 0.0464 0.0176
v  0.0010 0.0497 0.0213
v  -0.0065 0.0508 0.0098
v  -0.0236 0.0470 0.0051
v  -0.0161 0.0482 0.0159
v  -0.0493 0.0199 0.0165
v  -0.0425 0.0249 0.0261
v  -0.0418 0.0319 0.0145
# 144 vertices

vn 0.5847 -0.7495 -0.3103
vn 0.7209 -0.6928 -0.0168
vn 0.4072 -0.9116 0.0556
vn 0.1890 -0.9785 -0.0825
vn 0.3922 -0.8669 -0.3076
vn 0.7339 -0.1058 -0.6710
vn 0.6838 -0.4639 -0.5632
vn 0.4894 -0.2602 -0.8323
vn 0.4352 -0.6324 -0.6408
vn 0.8046 -0.5073 -0.3086
vn 0.9395 -0.3375 -0.0594
vn 0.9104 -0.3757 0.1734
vn 0.8615 -0.2660 -0.4326
vn 0.9708 -0.0714 -0.2291
vn 0.9149 -0.2902 -0.2807
vn -0.5015 -0.7846 -0.3646
vn -0.4468 -0.5957 -0.6675
vn -0.2185 -0.8566 -0.4675
vn 0.1183 -0.9219 -0.3689
vn 0.0303 -0.9992 -0.0264
vn -0.1323 -0.9824 -0.1316
vn 0.1021 -0.9729 0.2075
vn -0.1137 -0.9895 0.0889
vn -0.4087 -0.9068 -0.1034
vn -0.6624 -0.5566 -0.5014
vn -0.7761 -0.5828 -0.2406
vn -0.5976 -0.8017 0.0138
vn -0.3846 -0.8833 0.2682
vn -0.8082 -0.5880 0.0335
vn -0.0192 -0.7133 -0.7005
vn 0.1768 -0.5116 -0.8409
vn -0.2898 -0.4753 -0.8307
vn 0.1724 -0.1591 -0.9721
vn -0.1222 -0.2132 -0.9693
vn -0.6166 -0.2931 -0.7306
vn -0.8039 -0.2867 -0.5211
vn -0.3080 0.0473 -0.9502
vn -0.4533 -0.1783 -0.8733
vn -0.7074 -0.0139 -0.7067
vn -0.8775 0.0557 -0.4763
vn -0.9380 -0.3125 -0.1500
vn -0.9008 -0.2000 -0.3855
vn -0.9508 -0.2911 0.1056
vn -0.8469 -0.4503 0.2828
vn -0.9977 -0.0657 0.0152
vn -0.9785 -0.0330 -0.2038
vn -0.9874 0.1575 -0.0169
vn 0.5593 -0.7496 0.3540
vn 0.3366 -0.8888 0.3111
vn 0.4154 -0.6317 0.6545
vn 0.8545 -0.2792 0.4380
vn 0.7533 -0.5478 0.3639
vn 0.6153 -0.4158 0.6698
vn 0.9989 0.0449 0.0119
vn 0.9664 -0.0660 0.2484
vn 0.8577 -0.0801 0.5079
vn 0.3393 -0.2287 0.9124
vn 0.6364 -0.1035 0.7644
vn 0.7133 0.1432 0.6861
vn 0.3783 0.0773 0.9224
vn 0.2240 -0.8246 0.5195
vn -0.1270 -0.9119 0.3902
vn -0.0198 -0.7608 0.6487
vn -0.6776 -0.4792 0.5578
vn -0.6417 -0.6864 0.3422
vn -0.3867 -0.6961 0.6050
vn -0.3935 -0.4422 0.8060
vn 0.2138 -0.4767 0.8527
vn -0.0228 -0.4752 0.8796
vn -0.6514 -0.2282 0.7236
vn -0.8198 -0.2166 0.5300
vn -0.0003 -0.1077 0.9942
vn -0.1979 -0.2846 0.9380
vn -0.0474 0.1811 0.9823
vn -0.4478 -0.0811 0.8905
vn -0.3072 0.0968 0.9467
vn -0.7084 0.0742 0.7019
vn -0.4870 0.2862 0.8252
vn -0.9301 -0.1875 0.3158
vn -0.9859 -0.0221 0.1660
vn -0.8847 -0.0056 0.4661
vn -0.9441 0.0602 0.3240
vn -0.8820 0.2360 0.4079
vn -0.9775 0.1574 0.1402
vn 0.4357 0.0628 -0.8979
vn 0.6826 0.2181 -0.6975
vn 0.3794 0.3196 -0.8683
vn 0.8920 0.0986 -0.4411
vn 0.9497 0.3069 -0.0615
vn 0.5195 0.5670 -0.6393
vn 0.8678 0.3268 -0.3745
vn 0.7245 0.4131 -0.5517
vn 0.7722 0.5548 -0.3097
vn 0.5410 0.7699 -0.3385
vn 0.6620 0.7421 -0.1046
vn 0.0155 0.2063 -0.9784
vn 0.1270 0.5851 -0.8009
vn -0.3426 0.3682 -0.8643
vn -0.1606 0.5333 -0.8305
vn -0.5114 0.1708 -0.8422
vn -0.6349 0.2808 -0.7197
vn -0.7839 0.2726 -0.5579
vn -0.5022 0.5565 -0.6619
vn -0.4680 0.7431 -0.4782
vn -0.7001 0.5383 -0.4692
vn -0.5581 0.7861 -0.2656
vn 0.1666 0.7634 -0.6241
vn 0.3040 0.8476 -0.4349
vn -0.1969 0.7664 -0.6115
vn -0.0054 0.9572 -0.2894
vn 0.2340 0.9700 -0.0662
vn -0.2411 0.9290 -0.2808
vn -0.0705 0.9772 -0.2005
vn -0.8749 0.3180 -0.3654
vn -0.9563 0.1787 -0.2316
vn -0.9060 0.4118 -0.0977
vn -0.7908 0.5476 -0.2736
vn -0.9460 0.3117 0.0893
vn -0.8107 0.5844 0.0346
vn -0.6428 0.7657 -0.0206
vn 0.8873 0.2692 0.3745
vn 0.8382 0.5377 0.0912
vn 0.6805 0.6001 0.4205
vn 0.5794 0.4092 0.7049
vn 0.5713 0.8030 0.1697
vn -0.2245 0.8506 0.4754
vn -0.5306 0.7903 0.3064
vn -0.5484 0.5919 0.5907
vn -0.3829 0.6073 0.6961
vn 0.2446 0.2771 0.9292
vn 0.1847 0.5181 0.8352
vn 0.4414 0.6899 0.5738
vn 0.2273 0.8044 0.5488
vn -0.0267 0.7114 0.7023
vn -0.2402 0.4240 0.8732
vn -0.6996 0.3311 0.6332
vn 0.3695 0.8831 0.2891
vn 0.0525 0.9559 0.2889
vn -0.0818 0.9965 -0.0153
vn -0.3805 0.9248 0.0008
vn -0.2781 0.9395 0.1999
vn -0.8723 0.4185 0.2528
vn -0.7312 0.5208 0.4406
vn -0.7216 0.6474 0.2454
# 144 vertex normals

vt 0.6379 0.9603 0.0000
vt 0.7144 0.9380 0.0000
vt 0.7293 0.9878 0.0000
vt 0.1308 0.1316 0.0000
vt 0.1194 0.2013 0.0000
vt 0.0445 0.1971 0.0000
vt 0.0662 0.2318 0.0000
vt 0.5615 0.8336 0.0000
vt 0.5801 0.9013 0.0000
vt 0.4981 0.8557 0.0000
vt 0.5302 0.9332 0.0000
vt 0.6515 0.9128 0.0000
vt 0.0163 0.3087 0.0000
vt 0.7054 0.8778 0.0000
vt 0.7450 0.8775 0.0000
vt 0.6160 0.8673 0.0000
vt 0.6700 0.8298 0.0000
vt 0.6579 0.8648 0.0000
vt 0.2177 0.3494 0.0000
vt 0.1848 0.3976 0.0000
vt 0.1517 0.3396 0.0000
vt 0.1023 0.2904 0.0000
vt 0.1752 0.2362 0.0000
vt 0.2000 0.2962 0.0000
vt 0.2303 0.1627 0.0000
vt 0.2568 0.2363 0.0000
vt 0.2393 0.3058 0.0000
vt 0.2362 0.3886 0.0000
vt 0.2808 0.3677 0.0000
vt 0.2746 0.3078 0.0000
vt 0.2984 0.2506 0.0000
vt 0.3079 0.3388 0.0000
vt 0.0938 0.3653 0.0000
vt 0.0452 0.4119 0.0000
vt 0.1412 0.4285 0.0000
vt 0.0566 0.4973 0.0000
vt 0.1099 0.4832 0.0000
vt 0.4401 0.8306 0.0000
vt 0.4548 0.9042 0.0000
vt 0.2251 0.4507 0.0000
vt 0.2706 0.4329 0.0000
vt 0.1751 0.5241 0.0000
vt 0.1855 0.4787 0.0000
vt 0.2637 0.4917 0.0000
vt 0.3300 0.4820 0.0000
vt 0.3282 0.4011 0.0000
vt 0.3102 0.4373 0.0000
vt 0.3574 0.3687 0.0000
vt 0.3554 0.3285 0.0000
vt 0.3734 0.4100 0.0000
vt 0.3537 0.4403 0.0000
vt 0.4023 0.4596 0.0000
vt 0.2014 0.0589 0.0000
vt 0.2131 0.1162 0.0000
vt 0.2954 0.0614 0.0000
vt 0.8101 0.8448 0.0000
vt 0.7971 0.8921 0.0000
vt 0.8025 0.9332 0.0000
vt 0.2969 0.0166 0.0000
vt 0.8775 0.8499 0.0000
vt 0.7080 0.8051 0.0000
vt 0.7507 0.8155 0.0000
vt 0.8207 0.8040 0.0000
vt 0.3934 0.0449 0.0000
vt 0.8708 0.7751 0.0000
vt 0.9415 0.7609 0.0000
vt 0.8450 0.7452 0.0000
vt 0.9118 0.7031 0.0000
vt 0.2797 0.1195 0.0000
vt 0.2919 0.1946 0.0000
vt 0.3201 0.1507 0.0000
vt 0.3778 0.2856 0.0000
vt 0.3349 0.2836 0.0000
vt 0.3493 0.2238 0.0000
vt 0.4039 0.2141 0.0000
vt 0.3597 0.0883 0.0000
vt 0.3891 0.1339 0.0000
vt 0.4290 0.2868 0.0000
vt 0.4165 0.3196 0.0000
vt 0.4765 0.1325 0.0000
vt 0.4349 0.1607 0.0000
vt 0.9474 0.5926 0.0000
vt 0.9920 0.6719 0.0000
vt 0.4790 0.2385 0.0000
vt 0.5254 0.2198 0.0000
vt 0.5539 0.1792 0.0000
vt 0.4835 0.3155 0.0000
vt 0.5405 0.2819 0.0000
vt 0.4010 0.3504 0.0000
vt 0.4039 0.3872 0.0000
vt 0.4411 0.3487 0.0000
vt 0.4435 0.3762 0.0000
vt 0.4739 0.3896 0.0000
vt 0.4428 0.4140 0.0000
vt 0.4872 0.7898 0.0000
vt 0.5522 0.7739 0.0000
vt 0.4919 0.7371 0.0000
vt 0.6079 0.7993 0.0000
vt 0.6915 0.7574 0.0000
vt 0.5574 0.6985 0.0000
vt 0.6218 0.7546 0.0000
vt 0.5822 0.7365 0.0000
vt 0.6306 0.7136 0.0000
vt 0.6203 0.6542 0.0000
vt 0.6679 0.6678 0.0000
vt 0.4268 0.7224 0.0000
vt 0.1207 0.5791 0.0000
vt 0.4927 0.6500 0.0000
vt 0.2180 0.5805 0.0000
vt 0.2086 0.6318 0.0000
vt 0.4486 0.6211 0.0000
vt 0.2336 0.5360 0.0000
vt 0.2855 0.5358 0.0000
vt 0.3299 0.5188 0.0000
vt 0.3113 0.5900 0.0000
vt 0.3721 0.6149 0.0000
vt 0.3733 0.5558 0.0000
vt 0.4312 0.5931 0.0000
vt 0.5444 0.6223 0.0000
vt 0.5933 0.6180 0.0000
vt 0.5156 0.5408 0.0000
vt 0.6054 0.5636 0.0000
vt 0.6629 0.5869 0.0000
vt 0.5527 0.4417 0.0000
vt 0.6014 0.4866 0.0000
vt 0.2929 0.6706 0.0000
vt 0.6040 0.4132 0.0000
vt 0.6650 0.5300 0.0000
vt 0.3792 0.5034 0.0000
vt 0.3841 0.4730 0.0000
vt 0.4265 0.4900 0.0000
vt 0.4118 0.5265 0.0000
vt 0.4464 0.4533 0.0000
vt 0.4741 0.4920 0.0000
vt 0.4908 0.5396 0.0000
vt 0.7749 0.7432 0.0000
vt 0.7067 0.7092 0.0000
vt 0.7710 0.6688 0.0000
vt 0.8284 0.6754 0.0000
vt 0.7109 0.6365 0.0000
vt 0.7845 0.4988 0.0000
vt 0.7453 0.4280 0.0000
vt 0.8249 0.4228 0.0000
vt 0.8399 0.4797 0.0000
vt 0.9042 0.6212 0.0000
vt 0.8654 0.5799 0.0000
vt 0.7941 0.6168 0.0000
vt 0.7897 0.5682 0.0000
vt 0.8262 0.5342 0.0000
vt 0.5904 0.2460 0.0000
vt 0.5177 0.3505 0.0000
vt 0.5747 0.3597 0.0000
vt 0.8959 0.5129 0.0000
vt 0.7323 0.5917 0.0000
vt 0.7446 0.5359 0.0000
vt 0.7001 0.5105 0.0000
vt 0.6807 0.4520 0.0000
vt 0.6741 0.3881 0.0000
vt 0.7252 0.4774 0.0000
vt 0.4832 0.4265 0.0000
vt 0.5256 0.3978 0.0000
vt 0.5240 0.4597 0.0000
vt 0.7437 0.3702 0.0000
# 163 texture coords

g Grapefruit_01
usemtl _Grapefruit_01default
s 1
f 1/1/1 2/2/2 3/3/3 
f 3/4/3 4/5/4 1/6/1 
f 1/6/1 4/5/4 5/7/5 
f 6/8/6 7/9/7 8/10/8 
f 7/9/7 9/11/9 8/10/8 
f 10/12/10 1/1/1 7/9/7 
f 1/6/1 5/7/5 9/13/9 
f 7/9/7 1/1/1 9/11/9 
f 2/2/2 11/14/11 12/15/12 
f 10/12/10 11/14/11 2/2/2 
f 1/1/1 10/12/10 2/2/2 
f 6/8/6 13/16/13 7/9/7 
f 10/12/10 7/9/7 13/16/13 
f 14/17/14 15/18/15 13/16/13 
f 10/12/10 13/16/13 15/18/15 
f 15/18/15 11/14/11 10/12/10 
f 14/17/14 11/14/11 15/18/15 
f 16/19/16 17/20/17 18/21/18 
f 4/5/4 19/22/19 5/7/5 
f 4/5/4 20/23/20 19/22/19 
f 21/24/21 19/22/19 20/23/20 
f 21/24/21 18/21/18 19/22/19 
f 22/25/22 20/23/20 4/5/4 
f 22/25/22 4/5/4 3/4/3 
f 21/24/21 20/23/20 23/26/23 
f 24/27/24 18/21/18 21/24/21 
f 16/19/16 18/21/18 24/27/24 
f 25/28/25 16/19/16 26/29/26 
f 16/19/16 24/27/24 26/29/26 
f 24/27/24 27/30/27 26/29/26 
f 28/31/28 24/27/24 23/26/23 
f 23/26/23 24/27/24 21/24/21 
f 27/30/27 29/32/29 26/29/26 
f 9/13/9 19/22/19 30/33/30 
f 31/34/31 9/13/9 30/33/30 
f 18/21/18 30/33/30 19/22/19 
f 32/35/32 31/34/31 30/33/30 
f 33/36/33 31/34/31 34/37/34 
f 34/37/34 31/34/31 32/35/32 
f 33/38/33 8/10/8 31/39/31 
f 9/11/9 31/39/31 8/10/8 
f 18/21/18 17/20/17 30/33/30 
f 17/20/17 32/35/32 30/33/30 
f 25/28/25 17/20/17 16/19/16 
f 35/40/35 32/35/32 17/20/17 
f 35/40/35 17/20/17 25/28/25 
f 36/41/36 35/40/35 25/28/25 
f 37/42/37 34/37/34 38/43/38 
f 34/37/34 32/35/32 38/43/38 
f 32/35/32 35/40/35 38/43/38 
f 39/44/39 38/43/38 35/40/35 
f 35/40/35 36/41/36 39/44/39 
f 40/45/40 39/44/39 36/41/36 
f 19/22/19 9/13/9 5/7/5 
f 36/41/36 25/28/25 26/29/26 
f 41/46/41 42/47/42 26/29/26 
f 36/41/36 26/29/26 42/47/42 
f 43/48/43 41/46/41 29/32/29 
f 43/48/43 29/32/29 44/49/44 
f 41/46/41 26/29/26 29/32/29 
f 45/50/45 41/46/41 43/48/43 
f 46/51/46 42/47/42 41/46/41 
f 42/47/42 40/45/40 36/41/36 
f 40/45/40 42/47/42 46/51/46 
f 41/46/41 45/50/45 46/51/46 
f 47/52/47 46/51/46 45/50/45 
f 48/53/48 49/54/49 3/4/3 
f 50/55/50 49/54/49 48/53/48 
f 12/15/12 51/56/51 52/57/52 
f 2/2/2 12/15/12 52/57/52 
f 52/57/52 48/58/48 2/2/2 
f 3/3/3 2/2/2 48/58/48 
f 53/59/53 50/55/50 48/53/48 
f 52/57/52 51/56/51 53/60/53 
f 52/57/52 53/60/53 48/58/48 
f 14/17/14 54/61/54 11/14/11 
f 11/14/11 54/61/54 55/62/55 
f 51/56/51 12/15/12 55/62/55 
f 55/62/55 12/15/12 11/14/11 
f 56/63/56 51/56/51 55/62/55 
f 51/56/51 56/63/56 53/60/53 
f 53/59/53 57/64/57 50/55/50 
f 58/65/58 57/66/57 53/60/53 
f 58/65/58 59/67/59 60/68/60 
f 59/67/59 58/65/58 56/63/56 
f 53/60/53 56/63/56 58/65/58 
f 3/4/3 49/54/49 22/25/22 
f 61/69/61 22/25/22 49/54/49 
f 23/26/23 20/23/20 22/25/22 
f 62/70/62 23/26/23 22/25/22 
f 63/71/63 22/25/22 61/69/61 
f 49/54/49 50/55/50 61/69/61 
f 22/25/22 63/71/63 62/70/62 
f 24/27/24 28/31/28 27/30/27 
f 62/70/62 28/31/28 23/26/23 
f 64/72/64 44/49/44 65/73/65 
f 27/30/27 28/31/28 65/73/65 
f 29/32/29 27/30/27 65/73/65 
f 66/74/66 65/73/65 28/31/28 
f 29/32/29 65/73/65 44/49/44 
f 66/74/66 62/70/62 63/71/63 
f 62/70/62 66/74/66 28/31/28 
f 66/74/66 63/71/63 67/75/67 
f 66/74/66 64/72/64 65/73/65 
f 67/75/67 64/72/64 66/74/66 
f 61/69/61 50/55/50 63/71/63 
f 63/71/63 50/55/50 68/76/68 
f 63/71/63 69/77/69 67/75/67 
f 69/77/69 63/71/63 68/76/68 
f 70/78/70 64/72/64 67/75/67 
f 70/78/70 71/79/71 64/72/64 
f 68/76/68 50/55/50 57/64/57 
f 57/64/57 69/77/69 68/76/68 
f 72/80/72 69/77/69 57/64/57 
f 73/81/73 69/77/69 72/80/72 
f 60/68/60 57/66/57 58/65/58 
f 74/82/74 72/83/72 60/68/60 
f 60/68/60 72/83/72 57/66/57 
f 69/77/69 73/81/73 67/75/67 
f 75/84/75 67/75/67 73/81/73 
f 70/78/70 67/75/67 75/84/75 
f 76/85/76 75/84/75 72/80/72 
f 72/80/72 74/86/74 76/85/76 
f 72/80/72 75/84/75 73/81/73 
f 77/87/77 70/78/70 75/84/75 
f 77/87/77 75/84/75 78/88/78 
f 78/88/78 75/84/75 76/85/76 
f 79/89/79 43/48/43 44/49/44 
f 79/89/79 44/49/44 71/79/71 
f 71/79/71 44/49/44 64/72/64 
f 80/90/80 43/48/43 79/89/79 
f 80/90/80 79/89/79 81/91/81 
f 80/90/80 45/50/45 43/48/43 
f 82/92/82 80/90/80 81/91/81 
f 82/92/82 83/93/83 84/94/84 
f 80/90/80 82/92/82 84/94/84 
f 77/87/77 83/93/83 81/91/81 
f 82/92/82 81/91/81 83/93/83 
f 81/91/81 79/89/79 71/79/71 
f 81/91/81 71/79/71 77/87/77 
f 70/78/70 77/87/77 71/79/71 
f 85/95/85 6/8/6 8/10/8 
f 85/95/85 86/96/86 6/8/6 
f 87/97/87 86/96/86 85/95/85 
f 88/98/88 14/17/14 13/16/13 
f 13/16/13 6/8/6 88/98/88 
f 88/98/88 6/8/6 86/96/86 
f 14/17/14 88/98/88 54/61/54 
f 89/99/89 54/61/54 88/98/88 
f 87/97/87 90/100/90 86/96/86 
f 91/101/91 88/98/88 86/96/86 
f 90/100/90 92/102/92 86/96/86 
f 92/102/92 91/101/91 86/96/86 
f 88/98/88 91/101/91 89/99/89 
f 91/101/91 92/102/92 93/103/93 
f 93/103/93 89/99/89 91/101/91 
f 93/103/93 92/102/92 90/100/90 
f 93/103/93 94/104/94 95/105/95 
f 93/103/93 90/100/90 94/104/94 
f 85/95/85 33/38/33 96/106/96 
f 33/36/33 34/37/34 96/107/96 
f 96/107/96 34/37/34 37/42/37 
f 85/95/85 8/10/8 33/38/33 
f 96/106/96 87/97/87 85/95/85 
f 87/97/87 96/106/96 97/108/97 
f 90/100/90 87/97/87 97/108/97 
f 96/107/96 98/109/98 99/110/99 
f 96/106/96 99/111/99 97/108/97 
f 38/43/38 100/112/100 37/42/37 
f 96/107/96 37/42/37 98/109/98 
f 98/109/98 37/42/37 100/112/100 
f 100/112/100 39/44/39 101/113/101 
f 39/44/39 100/112/100 38/43/38 
f 102/114/102 101/113/101 39/44/39 
f 99/110/99 98/109/98 103/115/103 
f 98/109/98 100/112/100 103/115/103 
f 100/112/100 101/113/101 103/115/103 
f 102/114/102 103/115/103 101/113/101 
f 104/116/104 103/115/103 105/117/105 
f 105/117/105 103/115/103 102/114/102 
f 105/117/105 106/118/106 104/116/104 
f 107/119/107 90/100/90 97/108/97 
f 94/104/94 90/100/90 108/120/108 
f 90/100/90 107/119/107 108/120/108 
f 109/121/109 107/119/107 97/108/97 
f 107/119/107 110/122/110 108/120/108 
f 110/122/110 107/119/107 109/121/109 
f 108/120/108 111/123/111 94/104/94 
f 111/123/111 108/120/108 110/122/110 
f 99/111/99 109/121/109 97/108/97 
f 109/121/109 104/124/104 112/125/112 
f 109/126/109 99/110/99 103/115/103 
f 109/126/109 103/115/103 104/116/104 
f 112/125/112 104/124/104 106/127/106 
f 110/122/110 109/121/109 112/125/112 
f 112/125/112 113/128/113 110/122/110 
f 102/114/102 40/45/40 114/129/114 
f 102/114/102 39/44/39 40/45/40 
f 40/45/40 46/51/46 115/130/115 
f 40/45/40 115/130/115 114/129/114 
f 114/129/114 116/131/116 117/132/117 
f 115/130/115 47/52/47 116/131/116 
f 116/131/116 114/129/114 115/130/115 
f 118/133/118 116/131/116 47/52/47 
f 115/130/115 46/51/46 47/52/47 
f 105/117/105 114/129/114 117/132/117 
f 105/117/105 102/114/102 114/129/114 
f 116/131/116 119/134/119 117/132/117 
f 119/134/119 120/135/120 117/132/117 
f 105/117/105 117/132/117 106/118/106 
f 106/118/106 117/132/117 120/135/120 
f 55/62/55 121/136/121 56/63/56 
f 121/136/121 55/62/55 54/61/54 
f 56/63/56 121/136/121 59/67/59 
f 121/136/121 54/61/54 89/99/89 
f 122/137/122 121/136/121 89/99/89 
f 122/137/122 89/99/89 93/103/93 
f 121/136/121 122/137/122 123/138/123 
f 123/138/123 124/139/124 121/136/121 
f 125/140/125 123/138/123 122/137/122 
f 121/136/121 124/139/124 59/67/59 
f 122/137/122 93/103/93 95/105/95 
f 122/137/122 95/105/95 125/140/125 
f 126/141/126 127/142/127 128/143/128 
f 126/141/126 128/143/128 129/144/129 
f 124/139/124 60/68/60 59/67/59 
f 124/139/124 130/145/130 60/68/60 
f 131/146/131 130/145/130 124/139/124 
f 74/82/74 130/145/130 131/146/131 
f 130/145/130 74/82/74 60/68/60 
f 132/147/132 131/146/131 124/139/124 
f 132/147/132 124/139/124 123/138/123 
f 133/148/133 131/146/131 132/147/132 
f 131/146/131 133/148/133 134/149/134 
f 135/150/135 78/88/78 76/85/76 
f 136/151/136 77/87/77 78/88/78 
f 78/88/78 135/150/135 128/152/128 
f 78/88/78 128/152/128 136/151/136 
f 74/86/74 135/150/135 76/85/76 
f 135/153/135 74/82/74 131/146/131 
f 134/149/134 135/153/135 131/146/131 
f 134/149/134 129/144/129 135/153/135 
f 126/141/126 129/144/129 134/149/134 
f 129/144/129 128/143/128 135/153/135 
f 111/123/111 125/140/125 95/105/95 
f 95/105/95 94/104/94 111/123/111 
f 137/154/137 125/140/125 111/123/111 
f 132/147/132 123/138/123 137/154/137 
f 125/140/125 137/154/137 123/138/123 
f 138/155/138 111/123/111 139/156/139 
f 138/155/138 133/148/133 137/154/137 
f 138/155/138 137/154/137 111/123/111 
f 111/123/111 110/122/110 113/128/113 
f 139/156/139 111/123/111 113/128/113 
f 112/125/112 140/157/140 139/156/139 
f 112/125/112 139/156/139 113/128/113 
f 120/158/120 127/142/127 140/157/140 
f 140/157/140 106/127/106 120/158/120 
f 112/125/112 106/127/106 140/157/140 
f 141/159/141 140/157/140 127/142/127 
f 141/159/141 139/156/139 140/157/140 
f 126/141/126 138/155/138 141/159/141 
f 138/155/138 139/156/139 141/159/141 
f 141/159/141 127/142/127 126/141/126 
f 137/154/137 133/148/133 132/147/132 
f 126/141/126 133/148/133 138/155/138 
f 126/141/126 134/149/134 133/148/133 
f 84/94/84 142/160/142 118/133/118 
f 83/93/83 142/160/142 84/94/84 
f 136/151/136 83/93/83 77/87/77 
f 143/161/143 83/93/83 136/151/136 
f 143/161/143 136/151/136 128/152/128 
f 83/93/83 143/161/143 142/160/142 
f 142/160/142 144/162/144 119/134/119 
f 120/135/120 119/134/119 144/162/144 
f 119/134/119 116/131/116 118/133/118 
f 144/162/144 142/160/142 143/161/143 
f 119/134/119 118/133/118 142/160/142 
f 127/142/127 120/158/120 144/163/144 
f 144/162/144 143/161/143 128/152/128 
f 144/163/144 128/143/128 127/142/127 
f 45/50/45 80/90/80 47/52/47 
f 118/133/118 80/90/80 84/94/84 
f 118/133/118 47/52/47 80/90/80 
# 0 polygons - 284 triangles

