# 3ds Max Wavefront OBJ Exporter v0.97b - (c)2007 guruware
# File Created: 25.05.2016 23:45:24

mtllib Clementine_03.mtl

#
# object Clementine_03
#

v  0.0375 -0.0094 0.0077
v  0.0344 -0.0144 0.0146
v  0.0354 -0.0213 0.0039
v  0.0057 -0.0111 0.0377
v  -0.0029 -0.0172 0.0364
v  0.0056 -0.0245 0.0347
v  -0.0053 -0.0074 0.0356
v  0.0220 -0.0244 0.0266
v  0.0212 -0.0308 0.0175
v  0.0320 -0.0264 0.0077
v  0.0162 -0.0348 0.0076
v  0.0064 -0.0329 0.0256
v  -0.0004 -0.0328 0.0009
v  -0.0045 -0.0356 0.0175
v  0.0148 -0.0146 0.0347
v  0.0245 -0.0149 0.0289
v  0.0136 -0.0043 0.0342
v  0.0258 -0.0030 0.0266
v  0.0357 -0.0027 -0.0009
v  0.0355 -0.0173 -0.0106
v  0.0278 -0.0289 -0.0120
v  0.0211 -0.0332 -0.0075
v  0.0290 -0.0229 -0.0186
v  0.0071 -0.0346 -0.0123
v  0.0081 -0.0333 -0.0220
v  0.0182 -0.0259 -0.0282
v  0.0066 -0.0246 -0.0337
v  0.0337 -0.0108 -0.0164
v  0.0248 -0.0150 -0.0285
v  0.0216 -0.0031 -0.0291
v  0.0166 -0.0140 -0.0339
v  -0.0002 -0.0179 -0.0377
v  -0.0158 -0.0200 0.0330
v  -0.0121 -0.0114 0.0353
v  -0.0108 -0.0308 0.0278
v  -0.0167 -0.0351 0.0129
v  -0.0174 -0.0271 0.0278
v  -0.0279 -0.0252 0.0212
v  -0.0132 -0.0357 -0.0130
v  -0.0247 -0.0338 0.0038
v  -0.0337 -0.0261 0.0063
v  -0.0300 -0.0136 0.0233
v  -0.0205 -0.0072 0.0308
v  -0.0362 -0.0189 0.0086
v  -0.0375 -0.0131 -0.0077
v  -0.0369 -0.0066 0.0048
v  -0.0016 -0.0281 -0.0325
v  -0.0150 -0.0320 -0.0241
v  -0.0266 -0.0307 -0.0157
v  -0.0241 -0.0085 -0.0300
v  -0.0148 -0.0198 -0.0341
v  -0.0247 -0.0180 -0.0292
v  -0.0192 -0.0268 -0.0283
v  0.0048 -0.0049 -0.0360
v  -0.0034 -0.0037 -0.0360
v  -0.0132 -0.0094 -0.0352
v  -0.0321 -0.0271 -0.0094
v  -0.0339 -0.0165 -0.0174
v  0.0011 0.0006 0.0340
v  0.0137 0.0065 0.0275
v  0.0223 0.0090 0.0161
v  0.0304 0.0015 0.0144
v  0.0308 0.0053 0.0018
v  0.0014 0.0097 0.0264
v  0.0181 0.0146 -0.0031
v  0.0121 0.0139 0.0160
v  -0.0078 0.0133 0.0175
v  0.0059 0.0164 0.0069
v  0.0015 0.0151 -0.0013
v  -0.0013 0.0148 0.0020
v  0.0314 0.0009 -0.0137
v  0.0247 0.0014 -0.0221
v  0.0193 0.0063 -0.0209
v  0.0072 0.0085 -0.0249
v  -0.0015 0.0142 -0.0102
v  0.0089 0.0158 -0.0056
v  -0.0022 0.0112 -0.0225
v  -0.0156 -0.0003 0.0307
v  -0.0259 0.0033 0.0204
v  -0.0257 -0.0029 0.0255
v  -0.0127 0.0080 0.0252
v  -0.0328 -0.0049 0.0162
v  -0.0294 0.0054 0.0062
v  -0.0198 0.0107 0.0137
v  -0.0045 0.0144 -0.0013
v  -0.0149 0.0133 0.0063
v  -0.0221 0.0113 -0.0033
v  -0.0333 0.0001 -0.0074
v  -0.0184 0.0048 -0.0245
v  -0.0176 -0.0010 -0.0298
v  -0.0311 -0.0031 -0.0182
v  -0.0110 0.0128 -0.0157
v  -0.0062 0.0222 -0.0006
v  -0.0229 0.0079 -0.0146
v  -0.0060 0.0271 -0.0040
v  -0.0109 0.0347 -0.0001
v  -0.0128 0.0357 -0.0015
v  -0.0137 0.0345 -0.0005
# 98 vertices

vn 0.9774 0.1022 0.1852
vn 0.8801 -0.1593 0.4472
vn 0.9192 -0.3904 0.0514
vn 0.0887 0.0464 0.9950
vn -0.1220 -0.1932 0.9735
vn 0.1324 -0.4983 0.8569
vn -0.1548 0.2161 0.9640
vn 0.5646 -0.5379 0.6260
vn 0.4626 -0.8223 0.3315
vn 0.7330 -0.6529 0.1910
vn 0.2234 -0.9726 0.0649
vn 0.1615 -0.8641 0.4767
vn 0.0102 -0.9999 -0.0040
vn -0.0328 -0.9900 0.1369
vn 0.4087 -0.1345 0.9027
vn 0.6684 -0.1354 0.7314
vn 0.3423 0.3084 0.8875
vn 0.6784 0.3288 0.6570
vn 0.9362 0.3465 -0.0583
vn 0.9380 -0.2359 -0.2539
vn 0.6273 -0.7381 -0.2484
vn 0.3452 -0.9321 -0.1095
vn 0.7488 -0.4548 -0.4822
vn 0.0579 -0.9976 -0.0373
vn 0.1711 -0.9162 -0.3625
vn 0.4459 -0.6160 -0.6494
vn 0.2349 -0.5348 -0.8117
vn 0.8912 0.0666 -0.4488
vn 0.6867 -0.1231 -0.7165
vn 0.5323 0.3963 -0.7480
vn 0.4044 -0.0644 -0.9123
vn 0.0134 -0.1780 -0.9839
vn -0.3973 -0.2904 0.8706
vn -0.2830 0.0697 0.9566
vn -0.2169 -0.7560 0.6175
vn -0.2288 -0.9545 0.1910
vn -0.4385 -0.6109 0.6591
vn -0.6667 -0.5343 0.5197
vn -0.0989 -0.9876 -0.1218
vn -0.4448 -0.8924 0.0765
vn -0.8094 -0.5722 0.1324
vn -0.7833 -0.0557 0.6192
vn -0.5224 0.1491 0.8395
vn -0.9522 -0.2048 0.2266
vn -0.9850 -0.0160 -0.1716
vn -0.9560 0.2612 0.1339
vn -0.0132 -0.6928 -0.7210
vn -0.2217 -0.8582 -0.4630
vn -0.5802 -0.7438 -0.3319
vn -0.6159 0.2141 -0.7582
vn -0.3259 -0.2756 -0.9043
vn -0.6494 -0.2280 -0.7254
vn -0.4451 -0.5853 -0.6777
vn 0.1699 0.3510 -0.9208
vn -0.0851 0.4166 -0.9051
vn -0.3086 0.1531 -0.9388
vn -0.8036 -0.5685 -0.1761
vn -0.8777 -0.1580 -0.4525
vn -0.0263 0.4802 0.8768
vn 0.3174 0.6750 0.6660
vn 0.5447 0.7651 0.3433
vn 0.7880 0.5118 0.3423
vn 0.7366 0.6757 0.0291
vn -0.0032 0.7929 0.6093
vn 0.3797 0.9180 -0.1149
vn 0.2300 0.9192 0.3197
vn -0.1582 0.9422 0.2952
vn 0.0028 0.9986 0.0536
vn 0.0947 0.9892 -0.1115
vn -0.0885 0.9346 0.3446
vn 0.7773 0.5160 -0.3599
vn 0.6340 0.5471 -0.5465
vn 0.4170 0.7656 -0.4898
vn 0.1781 0.7859 -0.5922
vn -0.0426 0.9838 -0.1739
vn 0.0703 0.9937 -0.0874
vn -0.0114 0.8637 -0.5038
vn -0.3479 0.4596 0.8172
vn -0.6416 0.6096 0.4656
vn -0.6541 0.3394 0.6760
vn -0.2920 0.7385 0.6077
vn -0.8768 0.3106 0.3671
vn -0.7284 0.6734 0.1265
vn -0.4376 0.8616 0.2573
vn -0.4129 0.8961 -0.1625
vn -0.2288 0.9724 0.0457
vn -0.4221 0.8988 -0.1181
vn -0.8331 0.5268 -0.1687
vn -0.4159 0.6802 -0.6035
vn -0.3835 0.5234 -0.7609
vn -0.7925 0.4032 -0.4575
vn -0.2567 0.9378 -0.2338
vn -0.9398 -0.3095 0.1450
vn -0.5228 0.7940 -0.3103
vn 0.2524 0.2510 -0.9345
vn 0.4752 0.6524 0.5905
vn -0.3551 0.8392 -0.4119
vn -0.9463 0.0982 0.3082
# 98 vertex normals

vt 0.7316 0.3030 -0.4080
vt 0.7079 0.2749 -0.4080
vt 0.7706 0.2483 -0.4080
vt 0.5115 0.2113 -0.4080
vt 0.4837 0.1575 -0.4080
vt 0.5551 0.1373 -0.4080
vt 0.4455 0.2190 -0.4080
vt 0.6450 0.1830 -0.4080
vt 0.6992 0.1587 -0.4080
vt 0.7584 0.2209 -0.4080
vt 0.7561 0.1211 -0.4080
vt 0.6241 0.0903 -0.4080
vt 0.7877 0.0210 -0.4080
vt 0.6533 0.0122 -0.4080
vt 0.5666 0.2111 -0.4080
vt 0.6240 0.2253 -0.4080
vt 0.5388 0.2616 -0.4080
vt 0.6056 0.2796 -0.4080
vt 0.7502 0.3415 -0.4080
vt 0.8396 0.2899 -0.4080
vt 0.8750 0.2201 -0.4080
vt 0.8561 0.1642 -0.4080
vt 0.8979 0.2711 -0.4080
vt 0.8929 0.0831 -0.4080
vt 0.9747 0.1363 -0.4080
vt 0.9833 0.2676 -0.4080
vt 0.0365 0.8190 -0.4067
vt 0.1171 0.8922 -0.4067
vt 0.0513 0.9282 -0.4067
vt 0.8478 0.3297 -0.4080
vt 0.9330 0.3456 -0.4080
vt 0.8967 0.4246 -0.4080
vt 0.1360 0.9865 -0.4067
vt 0.9756 0.3874 -0.4080
vt 0.1874 0.8994 -0.4067
vt 0.4370 0.0852 -0.4080
vt 0.4153 0.1745 -0.4080
vt 0.5375 0.0253 0.4080
vt 0.1577 0.5217 -0.4067
vt 0.1024 0.4741 -0.4067
vt 0.1962 0.4106 0.4067
vt 0.0461 0.5989 -0.4067
vt 0.2474 0.4307 -0.4067
vt 0.2652 0.4961 -0.4067
vt 0.1233 0.6905 -0.4067
vt 0.1819 0.5772 -0.4067
vt 0.2453 0.5795 -0.4067
vt 0.3087 0.3985 -0.4067
vt 0.3386 0.5061 -0.4067
vt 0.3960 0.4529 -0.4067
vt 0.2850 0.5821 -0.4067
vt 0.3015 0.6701 -0.4067
vt 0.3471 0.6191 -0.4067
vt 0.0100 0.7221 -0.4067
vt 0.1290 0.8482 -0.4067
vt 0.1575 0.7556 -0.4067
vt 0.1945 0.6889 -0.4067
vt 0.2917 0.8000 -0.4067
vt 0.2134 0.8238 -0.4067
vt 0.2501 0.7794 -0.4067
vt 0.1962 0.7717 -0.4067
vt 0.2582 0.9609 -0.4067
vt 0.2861 0.9149 -0.4067
vt 0.2673 0.8554 -0.4067
vt 0.2212 0.6611 -0.4067
vt 0.2768 0.7062 -0.4067
vt 0.4728 0.2860 -0.4080
vt 0.5475 0.3341 -0.4080
vt 0.6198 0.3698 -0.4080
vt 0.6576 0.3294 -0.4080
vt 0.7160 0.3737 -0.4080
vt 0.4898 0.3681 -0.4080
vt 0.6975 0.4599 -0.4080
vt 0.5810 0.4101 -0.4080
vt 0.4728 0.4530 -0.4080
vt 0.5977 0.4777 -0.4080
vt 0.6393 0.5386 -0.4080
vt 0.5831 0.5273 -0.4080
vt 0.8061 0.3853 -0.4080
vt 0.8469 0.4254 -0.4080
vt 0.8236 0.4649 -0.4080
vt 0.8339 0.5382 0.1763
vt 0.7013 0.5715 -0.4080
vt 0.6950 0.5077 -0.4080
vt 0.4019 0.9612 0.1757
vt 0.4211 0.8984 -0.4067
vt 0.5010 0.8621 -0.4067
vt 0.9650 0.5043 -0.4080
vt 0.4624 0.4586 -0.4067
vt 0.3923 0.3920 -0.4067
vt 0.3754 0.2741 -0.4080
vt 0.4466 0.5496 -0.4067
vt 0.4119 0.5053 -0.4067
vt 0.4020 0.3728 -0.4080
vt 0.3779 0.5626 -0.4067
vt 0.4261 0.6362 -0.4067
vt 0.5325 0.5312 -0.4067
vt 0.5726 0.6159 -0.4067
vt 0.4970 0.6146 -0.4067
vt 0.5820 0.7392 -0.4067
vt 0.5491 0.7754 -0.4067
vt 0.5149 0.6822 -0.4067
vt 0.4553 0.7141 -0.4067
vt 0.3679 0.6947 -0.4067
vt 0.3726 0.8209 -0.4067
vt 0.3294 0.8336 -0.4067
vt 0.3387 0.7424 -0.4067
vt 0.4512 0.8256 -0.4067
vt 0.7627 0.7338 -0.4719
vt 0.7102 0.7898 -0.4719
vt 0.6781 0.7597 -0.4719
vt 0.4096 0.7662 -0.4067
vt 0.7676 0.6584 -0.4719
vt 0.6480 0.7200 0.3004
vt 0.6455 0.6582 -0.4719
vt 0.7220 0.6300 -0.4719
vt 0.6394 0.5789 -0.4080
vt 0.8582 0.6546 -0.4719
vt 0.8718 0.6346 0.4719
vt 0.8624 0.6144 -0.4719
vt 0.8813 0.6589 -0.4719
# 121 texture coords

g Clementine_03
usemtl _Clementine_03default
s 1
f 1/1/1 2/2/2 3/3/3 
f 4/4/4 5/5/5 6/6/6 
f 7/7/7 5/5/5 4/4/4 
f 8/8/8 9/9/9 10/10/10 
f 10/10/10 9/9/9 11/11/11 
f 6/6/6 12/12/12 8/8/8 
f 13/13/13 11/11/11 14/14/14 
f 12/12/12 11/11/11 9/9/9 
f 11/11/11 12/12/12 14/14/14 
f 9/9/9 8/8/8 12/12/12 
f 15/15/15 8/8/8 16/16/16 
f 17/17/17 15/15/15 16/16/16 
f 16/16/16 18/18/18 17/17/17 
f 18/18/18 16/16/16 2/2/2 
f 2/2/2 10/10/10 3/3/3 
f 16/16/16 8/8/8 2/2/2 
f 18/18/18 2/2/2 1/1/1 
f 8/8/8 10/10/10 2/2/2 
f 6/6/6 8/8/8 15/15/15 
f 4/4/4 6/6/6 15/15/15 
f 17/17/17 4/4/4 15/15/15 
f 19/19/19 1/1/1 20/20/20 
f 20/20/20 1/1/1 3/3/3 
f 3/3/3 21/21/21 20/20/20 
f 22/22/22 21/21/21 10/10/10 
f 10/10/10 11/11/11 22/22/22 
f 3/3/3 10/10/10 21/21/21 
f 20/20/20 21/21/21 23/23/23 
f 11/11/11 13/13/13 24/24/24 
f 24/24/24 22/22/22 11/11/11 
f 24/24/24 25/25/25 22/22/22 
f 23/23/23 21/21/21 26/26/26 
f 25/25/25 26/26/26 21/21/21 
f 22/22/22 25/25/25 21/21/21 
f 25/27/25 27/28/27 26/29/26 
f 19/19/19 20/20/20 28/30/28 
f 29/31/29 28/30/28 23/23/23 
f 30/32/30 28/30/28 29/31/29 
f 28/30/28 20/20/20 23/23/23 
f 23/23/23 26/26/26 29/31/29 
f 31/33/31 26/29/26 27/28/27 
f 29/31/29 26/26/26 31/34/31 
f 27/28/27 32/35/32 31/33/31 
f 6/6/6 5/5/5 33/36/33 
f 34/37/34 33/36/33 5/5/5 
f 7/7/7 34/37/34 5/5/5 
f 35/38/35 14/14/14 12/12/12 
f 12/12/12 6/6/6 35/38/35 
f 36/39/36 14/40/14 35/41/35 
f 36/39/36 13/42/13 14/40/14 
f 35/41/35 37/43/37 38/44/38 
f 35/41/35 38/44/38 36/39/36 
f 39/45/39 36/39/36 40/46/40 
f 40/46/40 36/39/36 38/44/38 
f 38/44/38 41/47/41 40/46/40 
f 13/42/13 36/39/36 39/45/39 
f 6/6/6 33/36/33 35/38/35 
f 37/43/37 35/41/35 33/48/33 
f 38/44/38 37/43/37 33/48/33 
f 42/49/42 38/44/38 33/48/33 
f 42/49/42 33/48/33 43/50/43 
f 44/51/44 41/47/41 38/44/38 
f 42/49/42 44/51/44 38/44/38 
f 41/47/41 44/51/44 45/52/45 
f 44/51/44 46/53/46 45/52/45 
f 13/42/13 39/45/39 24/54/24 
f 25/27/25 47/55/47 27/28/27 
f 47/55/47 25/27/25 48/56/48 
f 39/45/39 48/56/48 25/27/25 
f 39/45/39 25/27/25 24/54/24 
f 39/45/39 40/46/40 49/57/49 
f 39/45/39 49/57/49 48/56/48 
f 50/58/50 51/59/51 52/60/52 
f 48/56/48 53/61/53 47/55/47 
f 52/60/52 51/59/51 53/61/53 
f 53/61/53 48/56/48 49/57/49 
f 32/35/32 27/28/27 47/55/47 
f 54/62/54 31/33/31 32/35/32 
f 55/63/55 32/35/32 56/64/56 
f 56/64/56 32/35/32 51/59/51 
f 53/61/53 51/59/51 47/55/47 
f 32/35/32 47/55/47 51/59/51 
f 57/65/57 49/57/49 40/46/40 
f 57/65/57 40/46/40 41/47/41 
f 57/65/57 45/52/45 58/66/58 
f 58/66/58 49/57/49 57/65/57 
f 45/52/45 57/65/57 41/47/41 
f 49/57/49 52/60/52 53/61/53 
f 52/60/52 49/57/49 58/66/58 
f 4/4/4 17/17/17 59/67/59 
f 7/7/7 4/4/4 59/67/59 
f 60/68/60 18/18/18 61/69/61 
f 60/68/60 17/17/17 18/18/18 
f 61/69/61 18/18/18 62/70/62 
f 62/70/62 18/18/18 1/1/1 
f 61/69/61 62/70/62 63/71/63 
f 64/72/64 59/67/59 60/68/60 
f 17/17/17 60/68/60 59/67/59 
f 61/69/61 65/73/65 66/74/66 
f 66/74/66 60/68/60 61/69/61 
f 66/74/66 67/75/67 64/72/64 
f 66/74/66 64/72/64 60/68/60 
f 68/76/68 69/77/69 70/78/70 
f 65/73/65 68/76/68 66/74/66 
f 66/74/66 68/76/68 67/75/67 
f 67/75/67 68/76/68 70/78/70 
f 63/71/63 62/70/62 19/19/19 
f 62/70/62 1/1/1 19/19/19 
f 19/19/19 71/79/71 63/71/63 
f 71/79/71 19/19/19 28/30/28 
f 28/30/28 72/80/72 71/79/71 
f 72/80/72 28/30/28 30/32/30 
f 73/81/73 71/79/71 72/80/72 
f 73/81/73 30/32/30 74/82/74 
f 30/32/30 73/81/73 72/80/72 
f 65/73/65 63/71/63 71/79/71 
f 65/73/65 61/69/61 63/71/63 
f 65/73/65 71/79/71 73/81/73 
f 69/77/69 68/76/68 65/73/65 
f 75/83/75 69/77/69 76/84/76 
f 65/73/65 76/84/76 69/77/69 
f 75/83/75 76/84/76 74/82/74 
f 74/85/74 77/86/77 75/87/75 
f 73/81/73 74/82/74 65/73/65 
f 74/82/74 76/84/76 65/73/65 
f 30/32/30 29/31/29 31/34/31 
f 31/34/31 54/88/54 30/32/30 
f 30/32/30 54/88/54 74/82/74 
f 78/89/78 43/50/43 34/90/34 
f 33/48/33 34/90/34 43/50/43 
f 78/91/78 34/37/34 7/7/7 
f 79/92/79 80/93/80 78/89/78 
f 59/67/59 81/94/81 78/91/78 
f 78/91/78 7/7/7 59/67/59 
f 80/93/80 43/50/43 78/89/78 
f 79/92/79 82/95/82 80/93/80 
f 82/95/82 42/49/42 80/93/80 
f 42/49/42 43/50/43 80/93/80 
f 83/96/83 46/53/46 79/92/79 
f 64/72/64 67/75/67 81/94/81 
f 64/72/64 81/94/81 59/67/59 
f 81/97/81 79/92/79 78/89/78 
f 81/97/81 67/98/67 84/99/84 
f 70/100/70 85/101/85 86/102/86 
f 67/98/67 86/102/86 84/99/84 
f 70/100/70 86/102/86 67/98/67 
f 85/101/85 87/103/87 86/102/86 
f 84/99/84 79/92/79 81/97/81 
f 88/104/88 83/96/83 87/103/87 
f 83/96/83 79/92/79 84/99/84 
f 87/103/87 83/96/83 84/99/84 
f 87/103/87 84/99/84 86/102/86 
f 82/95/82 44/51/44 42/49/42 
f 82/95/82 79/92/79 46/53/46 
f 82/95/82 46/53/46 44/51/44 
f 83/96/83 88/104/88 46/53/46 
f 77/86/77 55/63/55 89/105/89 
f 55/63/55 77/86/77 74/85/74 
f 90/106/90 89/105/89 55/63/55 
f 90/106/90 56/64/56 50/58/50 
f 89/105/89 50/58/50 91/107/91 
f 89/105/89 90/106/90 50/58/50 
f 85/101/85 75/87/75 92/108/92 
f 93/109/93 85/110/85 70/111/70 
f 92/108/92 94/112/94 85/101/85 
f 95/113/95 69/114/69 85/115/85 
f 77/86/77 92/108/92 75/87/75 
f 95/113/95 85/115/85 93/116/93 
f 85/117/85 69/77/69 75/83/75 
f 77/86/77 89/105/89 92/108/92 
f 85/101/85 94/112/94 87/103/87 
f 91/107/91 88/104/88 94/112/94 
f 88/104/88 87/103/87 94/112/94 
f 92/108/92 89/105/89 94/112/94 
f 94/112/94 89/105/89 91/107/91 
f 54/62/54 32/35/32 55/63/55 
f 54/62/54 55/63/55 74/85/74 
f 56/64/56 51/59/51 50/58/50 
f 90/106/90 55/63/55 56/64/56 
f 45/52/45 91/107/91 58/66/58 
f 45/52/45 88/104/88 91/107/91 
f 88/104/88 45/52/45 46/53/46 
f 50/58/50 52/60/52 58/66/58 
f 91/107/91 50/58/50 58/66/58 
f 96/118/96 70/111/70 69/114/69 
f 69/114/69 95/113/95 96/118/96 
f 97/119/97 96/118/96 95/113/95 
f 98/120/98 97/119/97 95/113/95 
f 93/116/93 98/120/98 95/113/95 
f 96/118/96 93/109/93 70/111/70 
f 98/121/98 93/109/93 96/118/96 
f 97/119/97 98/121/98 96/118/96 
# 0 polygons - 192 triangles

