# 3ds Max Wavefront OBJ Exporter v0.97b - (c)2007 guruware
# File Created: 25.05.2016 23:09:08

mtllib Avocado_01.mtl

#
# object Avocado_01
#

v  -0.0052 0.0637 -0.0006
v  -0.0119 0.0544 0.0124
v  -0.0033 0.0543 0.0088
v  -0.0172 0.0556 0.0032
v  0.0046 0.0603 0.0083
v  0.0063 0.0058 0.0348
v  0.0176 -0.0070 0.0336
v  0.0124 0.0109 0.0314
v  0.0064 -0.0074 0.0380
v  -0.0031 0.0168 0.0298
v  -0.0024 -0.0008 0.0356
v  -0.0117 0.0069 0.0314
v  -0.0060 -0.0192 0.0375
v  -0.0121 -0.0064 0.0344
v  0.0190 0.0197 0.0232
v  0.0180 0.0395 0.0156
v  0.0140 0.0296 0.0214
v  0.0162 0.0511 0.0086
v  0.0226 0.0422 0.0045
v  0.0254 0.0252 0.0146
v  0.0274 0.0276 -0.0056
v  0.0294 0.0225 0.0071
v  0.0322 0.0079 0.0165
v  0.0230 0.0060 0.0266
v  0.0361 -0.0116 0.0150
v  0.0277 -0.0106 0.0269
v  0.0366 -0.0006 0.0055
v  0.0319 0.0147 -0.0052
v  -0.0011 0.0518 0.0169
v  0.0038 0.0308 0.0253
v  0.0095 0.0430 0.0190
v  0.0067 0.0210 0.0290
v  -0.0111 0.0433 0.0181
v  -0.0043 0.0351 0.0227
v  -0.0097 0.0316 0.0214
v  -0.0113 0.0204 0.0259
v  -0.0184 0.0377 0.0142
v  0.0114 0.0589 -0.0023
v  0.0134 -0.0180 0.0363
v  0.0258 -0.0250 0.0271
v  0.0061 -0.0257 0.0366
v  0.0145 -0.0293 0.0330
v  0.0071 -0.0407 0.0317
v  -0.0135 -0.0329 0.0337
v  -0.0192 -0.0233 0.0328
v  -0.0044 -0.0376 0.0344
v  -0.0073 -0.0481 0.0281
v  -0.0179 -0.0474 0.0243
v  0.0349 -0.0256 0.0150
v  0.0258 -0.0385 0.0216
v  0.0384 -0.0173 -0.0008
v  0.0356 -0.0326 0.0032
v  0.0287 -0.0452 0.0078
v  0.0320 -0.0409 -0.0020
v  0.0210 -0.0470 0.0207
v  0.0195 -0.0563 0.0061
v  0.0237 -0.0520 -0.0062
v  0.0116 -0.0540 0.0199
v  0.0064 -0.0606 0.0107
v  0.0033 -0.0526 0.0243
v  -0.0043 -0.0603 0.0138
v  -0.0128 -0.0587 0.0137
v  0.0000 -0.0637 0.0029
v  0.0075 -0.0628 -0.0066
v  0.0148 -0.0595 -0.0024
v  -0.0098 -0.0623 0.0018
v  -0.0036 -0.0607 -0.0083
v  -0.0202 -0.0050 0.0302
v  -0.0202 0.0227 0.0179
v  -0.0193 0.0104 0.0247
v  -0.0232 0.0375 0.0056
v  -0.0252 0.0216 0.0094
v  -0.0264 0.0226 0.0010
v  -0.0283 0.0095 0.0141
v  -0.0279 -0.0017 0.0211
v  -0.0318 -0.0100 0.0182
v  -0.0259 -0.0163 0.0267
v  -0.0301 0.0122 -0.0033
v  -0.0248 0.0214 -0.0092
v  -0.0338 -0.0031 0.0091
v  -0.0353 -0.0027 0.0010
v  -0.0360 -0.0008 -0.0054
v  -0.0384 -0.0073 -0.0027
v  -0.0362 -0.0106 -0.0069
v  -0.0358 -0.0156 0.0087
v  -0.0243 -0.0364 0.0250
v  -0.0328 -0.0240 0.0174
v  -0.0281 -0.0420 0.0156
v  -0.0330 -0.0362 0.0094
v  -0.0365 -0.0245 -0.0015
v  -0.0326 -0.0408 0.0005
v  -0.0273 -0.0496 0.0044
v  -0.0343 -0.0341 -0.0068
v  -0.0207 -0.0564 0.0039
v  -0.0267 -0.0494 -0.0066
v  -0.0182 -0.0571 -0.0078
v  0.0055 0.0610 -0.0082
v  -0.0119 0.0580 -0.0090
v  -0.0016 0.0575 -0.0132
v  0.0193 0.0473 -0.0083
v  0.0242 0.0219 -0.0168
v  0.0200 0.0346 -0.0149
v  0.0329 0.0045 -0.0153
v  0.0374 -0.0070 -0.0068
v  0.0330 -0.0111 -0.0215
v  0.0257 0.0096 -0.0228
v  0.0169 0.0168 -0.0264
v  0.0110 0.0403 -0.0202
v  -0.0172 0.0444 -0.0138
v  -0.0109 0.0422 -0.0195
v  -0.0197 0.0483 -0.0070
v  -0.0024 0.0380 -0.0232
v  0.0063 0.0267 -0.0261
v  -0.0055 0.0287 -0.0244
v  -0.0121 0.0254 -0.0233
v  -0.0029 0.0151 -0.0309
v  0.0084 0.0135 -0.0308
v  0.0213 -0.0056 -0.0319
v  0.0069 0.0028 -0.0354
v  -0.0139 0.0142 -0.0275
v  -0.0159 0.0005 -0.0320
v  -0.0046 -0.0083 -0.0379
v  0.0355 -0.0199 -0.0160
v  0.0342 -0.0317 -0.0120
v  0.0304 -0.0309 -0.0212
v  0.0272 -0.0453 -0.0134
v  0.0240 -0.0244 -0.0305
v  0.0157 -0.0445 -0.0271
v  0.0108 -0.0168 -0.0375
v  0.0156 -0.0295 -0.0340
v  0.0005 -0.0406 -0.0338
v  -0.0003 -0.0311 -0.0367
v  -0.0114 -0.0418 -0.0303
v  0.0191 -0.0528 -0.0150
v  0.0094 -0.0560 -0.0191
v  -0.0075 -0.0538 -0.0213
v  0.0030 -0.0484 -0.0278
v  -0.0073 -0.0244 -0.0380
v  -0.0235 0.0349 -0.0061
v  -0.0192 0.0269 -0.0181
v  -0.0213 0.0168 -0.0198
v  -0.0285 0.0075 -0.0166
v  -0.0308 -0.0035 -0.0203
v  -0.0332 -0.0150 -0.0187
v  -0.0237 0.0040 -0.0255
v  -0.0234 -0.0093 -0.0304
v  -0.0315 -0.0297 -0.0185
v  -0.0232 -0.0399 -0.0241
v  -0.0260 -0.0455 -0.0163
v  -0.0239 -0.0280 -0.0289
v  -0.0170 -0.0267 -0.0341
v  -0.0180 -0.0489 -0.0212
# 152 vertices

vn -0.1794 0.9807 0.0776
vn -0.3913 0.6641 0.6371
vn -0.1337 0.8327 0.5373
vn -0.7686 0.6129 0.1830
vn 0.1456 0.8490 0.5079
vn 0.1004 0.2780 0.9553
vn 0.4797 0.1200 0.8692
vn 0.3772 0.3234 0.8678
vn 0.1128 0.1187 0.9865
vn -0.1693 0.3490 0.9217
vn -0.1627 0.2205 0.9617
vn -0.3675 0.3006 0.8801
vn -0.1653 -0.0300 0.9858
vn -0.3306 0.1502 0.9317
vn 0.5396 0.3604 0.7609
vn 0.6399 0.3960 0.6586
vn 0.3851 0.3266 0.8632
vn 0.6914 0.5930 0.4127
vn 0.8873 0.4323 0.1606
vn 0.7793 0.3475 0.5215
vn 0.9173 0.3295 -0.2237
vn 0.9277 0.3388 0.1567
vn 0.8481 0.2724 0.4545
vn 0.6008 0.2749 0.7506
vn 0.9278 0.0264 0.3721
vn 0.6966 0.0363 0.7165
vn 0.9774 0.1910 0.0901
vn 0.9337 0.3207 -0.1593
vn -0.0261 0.6274 0.7783
vn 0.1184 0.3617 0.9247
vn 0.3450 0.4341 0.8322
vn 0.1876 0.3949 0.8994
vn -0.4250 0.3138 0.8490
vn -0.2330 0.3159 0.9197
vn -0.4475 0.2829 0.8484
vn -0.4165 0.3802 0.8258
vn -0.7245 0.2758 0.6317
vn 0.6131 0.7883 -0.0519
vn 0.3717 -0.0800 0.9249
vn 0.6578 -0.1833 0.7306
vn 0.1417 -0.1929 0.9709
vn 0.4189 -0.2857 0.8619
vn 0.2549 -0.4431 0.8595
vn -0.3630 -0.2699 0.8918
vn -0.5368 -0.0708 0.8408
vn -0.0729 -0.3635 0.9287
vn -0.1575 -0.6039 0.7813
vn -0.5093 -0.5745 0.6408
vn 0.8996 -0.1997 0.3884
vn 0.7014 -0.3815 0.6020
vn 0.9982 -0.0592 -0.0077
vn 0.9496 -0.3022 0.0829
vn 0.8129 -0.5406 0.2167
vn 0.8779 -0.4758 -0.0535
vn 0.5797 -0.5611 0.5909
vn 0.5874 -0.7868 0.1896
vn 0.7092 -0.6925 -0.1320
vn 0.3448 -0.7306 0.5894
vn 0.2423 -0.9097 0.3373
vn 0.1185 -0.6989 0.7054
vn -0.0674 -0.8928 0.4454
vn -0.3879 -0.8242 0.4126
vn 0.0145 -0.9976 0.0675
vn 0.1951 -0.9559 -0.2197
vn 0.4898 -0.8708 -0.0429
vn -0.2789 -0.9602 -0.0164
vn -0.1517 -0.9239 -0.3514
vn -0.5839 0.1881 0.7897
vn -0.7091 0.3124 0.6322
vn -0.6367 0.3219 0.7007
vn -0.9318 0.2807 0.2300
vn -0.9085 0.2758 0.3140
vn -0.9693 0.2458 0.0112
vn -0.8652 0.3201 0.3860
vn -0.7754 0.2441 0.5824
vn -0.8674 0.1268 0.4811
vn -0.7321 0.0253 0.6807
vn -0.9276 0.3703 -0.0500
vn -0.9050 0.2883 -0.3126
vn -0.9361 0.2407 0.2563
vn -0.9136 0.3294 0.2385
vn -0.9431 0.3094 -0.1217
vn -0.9977 0.0349 -0.0583
vn -0.9678 -0.0366 -0.2490
vn -0.9749 0.0063 0.2225
vn -0.6933 -0.2936 0.6581
vn -0.8889 -0.1080 0.4453
vn -0.7857 -0.4586 0.4152
vn -0.9276 -0.2831 0.2437
vn -0.9940 -0.1065 -0.0239
vn -0.9238 -0.3828 0.0057
vn -0.7731 -0.6120 0.1668
vn -0.9485 -0.2641 -0.1751
vn -0.6176 -0.7755 0.1311
vn -0.7739 -0.6050 -0.1869
vn -0.4796 -0.8319 -0.2791
vn 0.3099 0.8474 -0.4311
vn -0.5029 0.7163 -0.4837
vn -0.0319 0.6697 -0.7419
vn 0.7803 0.5051 -0.3688
vn 0.7637 0.3557 -0.5388
vn 0.7337 0.3296 -0.5942
vn 0.8837 0.2682 -0.3836
vn 0.9800 0.1250 -0.1550
vn 0.8341 0.0742 -0.5465
vn 0.6886 0.3141 -0.6536
vn 0.4771 0.3470 -0.8074
vn 0.3946 0.4201 -0.8172
vn -0.7084 0.3333 -0.6221
vn -0.4005 0.3530 -0.8456
vn -0.8831 0.3867 -0.2658
vn -0.0762 0.3304 -0.9408
vn 0.1235 0.3330 -0.9348
vn -0.2142 0.2803 -0.9357
vn -0.4415 0.3026 -0.8447
vn -0.1334 0.3573 -0.9244
vn 0.2056 0.3564 -0.9114
vn 0.5301 0.1619 -0.8323
vn 0.1617 0.2657 -0.9504
vn -0.4445 0.3742 -0.8139
vn -0.4000 0.2643 -0.8776
vn -0.1462 0.1345 -0.9801
vn 0.9299 -0.0935 -0.3557
vn 0.9211 -0.2995 -0.2487
vn 0.7778 -0.3055 -0.5493
vn 0.7625 -0.5336 -0.3658
vn 0.6129 -0.1538 -0.7750
vn 0.4479 -0.5182 -0.7286
vn 0.2474 -0.0087 -0.9689
vn 0.3688 -0.2626 -0.8916
vn 0.0034 -0.4493 -0.8934
vn -0.0016 -0.2557 -0.9668
vn -0.3085 -0.4824 -0.8199
vn 0.5649 -0.7086 -0.4229
vn 0.2196 -0.7996 -0.5590
vn -0.1949 -0.7816 -0.5926
vn 0.0530 -0.6510 -0.7573
vn -0.1931 -0.1437 -0.9706
vn -0.9460 0.2246 -0.2336
vn -0.7255 0.2416 -0.6444
vn -0.7123 0.3721 -0.5951
vn -0.8249 0.3813 -0.4174
vn -0.8431 0.2030 -0.4979
vn -0.8976 0.0020 -0.4407
vn -0.6516 0.3315 -0.6823
vn -0.6015 0.1012 -0.7925
vn -0.8709 -0.2063 -0.4461
vn -0.6246 -0.4065 -0.6668
vn -0.7374 -0.5249 -0.4252
vn -0.6687 -0.1913 -0.7185
vn -0.4330 -0.1773 -0.8838
vn -0.4580 -0.6549 -0.6011
# 152 vertex normals

vt 0.3322 0.2486 0.0000
vt 0.3038 0.1707 0.0000
vt 0.3418 0.1856 0.0000
vt 0.2708 0.2466 0.0000
vt 0.3723 0.2076 0.0000
vt 0.6347 0.0224 0.0000
vt 0.7040 0.0717 0.0000
vt 0.6075 0.0592 0.0000
vt 0.7170 0.0174 0.0000
vt 0.5379 0.5300 0.0000
vt 0.5607 0.6062 0.0000
vt 0.4884 0.5439 0.0000
vt 0.4732 0.4861 0.0000
vt 0.5009 0.6072 0.0000
vt 0.3966 0.5153 0.0000
vt 0.4452 0.5699 0.0000
vt 0.5605 0.1129 0.0000
vt 0.4748 0.1653 0.0000
vt 0.5037 0.1161 0.0000
vt 0.4303 0.2058 0.0000
vt 0.4714 0.2240 0.0000
vt 0.5469 0.1718 0.0000
vt 0.5400 0.2735 0.0000
vt 0.5611 0.2124 0.0000
vt 0.6295 0.1730 0.0000
vt 0.6355 0.1107 0.0000
vt 0.7179 0.1914 0.0000
vt 0.7173 0.1261 0.0000
vt 0.6677 0.2306 0.0000
vt 0.5944 0.2762 0.0000
vt 0.3715 0.1518 0.0000
vt 0.4672 0.0715 0.0000
vt 0.4394 0.1382 0.0000
vt 0.6045 0.5810 0.0000
vt 0.6356 0.6269 0.0000
vt 0.3376 0.1028 0.0000
vt 0.3993 0.0715 0.0000
vt 0.5994 0.6931 0.0000
vt 0.6279 0.6779 0.0000
vt 0.6382 0.7416 0.0000
vt 0.5541 0.6551 0.0000
vt 0.5938 0.7607 0.0000
vt 0.3936 0.2561 0.0000
vt 0.6692 0.8030 0.0000
vt 0.5437 0.0507 0.0000
vt 0.7668 0.0598 0.0000
vt 0.7849 0.1347 0.0000
vt 0.8168 0.0391 0.0000
vt 0.8236 0.0863 0.0000
vt 0.8951 0.0877 0.0000
vt 0.3230 0.5319 0.0000
vt 0.3604 0.5670 0.0000
vt 0.3715 0.4508 0.0000
vt 0.3036 0.4921 0.0000
vt 0.2405 0.5105 0.0000
vt 0.2748 0.4397 0.0000
vt 0.2452 0.5560 0.0000
vt 0.7766 0.2002 0.0000
vt 0.8451 0.1710 0.0000
vt 0.7349 0.2662 0.0000
vt 0.8026 0.2558 0.0000
vt 0.8664 0.2418 0.0000
vt 0.8391 0.2837 0.0000
vt 0.8891 0.1777 0.0000
vt 0.9277 0.2548 0.0000
vt 0.8977 0.3122 0.0000
vt 0.9454 0.1806 0.0000
vt 0.9888 0.2299 0.0000
vt 0.9678 0.1398 0.0000
vt 0.1022 0.5250 0.0000
vt 0.1900 0.4789 0.0000
vt 0.1503 0.5462 0.0000
vt 0.1744 0.5720 0.0000
vt 0.0959 0.5798 0.0000
vt 0.9838 0.3302 0.0000
vt 0.9508 0.3003 0.0000
vt 0.0415 0.6064 0.0000
vt 0.1258 0.6068 0.0000
vt 0.0823 0.6426 0.0000
vt 0.4360 0.6103 0.0000
vt 0.5359 0.7145 0.0000
vt 0.4958 0.6594 0.0000
vt 0.5672 0.8071 0.0000
vt 0.6436 0.8582 0.0000
vt 0.5078 0.7574 0.0000
vt 0.4931 0.8012 0.0000
vt 0.4634 0.7174 0.0000
vt 0.4282 0.6663 0.0000
vt 0.3885 0.6650 0.0000
vt 0.3801 0.6118 0.0000
vt 0.4389 0.7998 0.0000
vt 0.4645 0.8481 0.0000
vt 0.3984 0.7155 0.0000
vt 0.3845 0.7488 0.0000
vt 0.3781 0.7765 0.0000
vt 0.3564 0.7543 0.0000
vt 0.3362 0.7654 0.0000
vt 0.3475 0.6918 0.0000
vt 0.2915 0.5842 0.0000
vt 0.3340 0.6430 0.0000
vt 0.2577 0.6160 0.0000
vt 0.2728 0.6509 0.0000
vt 0.2958 0.7178 0.0000
vt 0.2400 0.6798 0.0000
vt 0.2050 0.6450 0.0000
vt 0.2523 0.7217 0.0000
vt 0.1720 0.6270 0.0000
vt 0.1848 0.6880 0.0000
vt 0.1420 0.6672 0.0000
vt 0.3720 0.2804 0.0000
vt 0.3174 0.3021 0.0000
vt 0.3607 0.3109 0.0000
vt 0.4507 0.2824 0.0000
vt 0.5522 0.3340 0.0000
vt 0.4962 0.3212 0.0000
vt 0.6372 0.3224 0.0000
vt 0.6923 0.2879 0.0000
vt 0.7020 0.3558 0.0000
vt 0.6034 0.3645 0.0000
vt 0.5581 0.3967 0.0000
vt 0.4516 0.3549 0.0000
vt 0.2945 0.3689 0.0000
vt 0.3509 0.3973 0.0000
vt 0.2661 0.3235 0.0000
vt 0.4111 0.4040 0.0000
vt 0.4881 0.4174 0.0000
vt 0.4346 0.4499 0.0000
vt 0.4513 0.9809 0.0000
vt 0.4440 0.9460 0.0000
vt 0.5251 0.9625 0.0000
vt 0.5509 0.9240 0.0000
vt 0.5241 0.4882 0.0000
vt 0.5561 0.4434 0.0000
vt 0.6668 0.4198 0.0000
vt 0.6084 0.4741 0.0000
vt 0.3848 0.9356 0.0000
vt 0.3729 0.9897 0.0000
vt 0.3131 0.9181 0.0000
vt 0.2418 0.9566 0.0000
vt 0.6491 0.5416 0.0000
vt 0.7416 0.3361 0.0000
vt 0.7945 0.3248 0.0000
vt 0.7900 0.3672 0.0000
vt 0.8604 0.3408 0.0000
vt 0.7571 0.4154 0.0000
vt 0.8616 0.4266 0.0000
vt 0.7119 0.4797 0.0000
vt 0.7806 0.4532 0.0000
vt 0.8505 0.5114 0.0000
vt 0.7864 0.5306 0.0000
vt 0.1014 0.8795 0.0000
vt 0.0637 0.8209 0.0000
vt 0.1196 0.7998 0.0000
vt 0.9042 0.3602 0.0000
vt 0.9364 0.4028 0.0000
vt 0.0117 0.6876 0.0000
vt 0.0878 0.7242 0.0000
vt 0.9011 0.4722 0.0000
vt 0.0383 0.7611 0.0000
vt 0.7376 0.5673 0.0000
vt 0.5298 0.8587 0.0000
vt 0.5863 0.8934 0.0000
vt 0.4671 0.9044 0.0000
vt 0.4185 0.8910 0.0000
vt 0.3878 0.8465 0.0000
vt 0.3346 0.8362 0.0000
vt 0.2950 0.8051 0.0000
vt 0.3497 0.8822 0.0000
vt 0.2804 0.8728 0.0000
vt 0.2380 0.7759 0.0000
vt 0.1741 0.7736 0.0000
vt 0.1777 0.7311 0.0000
vt 0.2075 0.8237 0.0000
vt 0.1858 0.8558 0.0000
vt 0.1640 0.8987 0.0000
vt 0.1371 0.7404 0.0000
# 176 texture coords

g Avocado_01
usemtl _Avocado_01default
s 1
f 1/1/1 2/2/2 3/3/3 
f 1/1/1 4/4/4 2/2/2 
f 5/5/5 1/1/1 3/3/3 
f 6/6/6 7/7/7 8/8/8 
f 9/9/9 7/7/7 6/6/6 
f 6/10/6 10/11/10 11/12/11 
f 11/12/11 9/13/9 6/10/6 
f 12/14/12 11/12/11 10/11/10 
f 9/13/9 11/12/11 13/15/13 
f 14/16/14 11/12/11 12/14/12 
f 15/17/15 16/18/16 17/19/17 
f 18/20/18 16/18/16 19/21/19 
f 20/22/20 16/18/16 15/17/15 
f 21/23/21 19/21/19 22/24/22 
f 19/21/19 20/22/20 22/24/22 
f 20/22/20 19/21/19 16/18/16 
f 20/22/20 15/17/15 23/25/23 
f 15/17/15 24/26/24 23/25/23 
f 25/27/25 23/25/23 26/28/26 
f 26/28/26 24/26/24 7/7/7 
f 24/26/24 26/28/26 23/25/23 
f 22/24/22 23/25/23 27/29/27 
f 22/24/22 20/22/20 23/25/23 
f 27/29/27 28/30/28 22/24/22 
f 25/27/25 27/29/27 23/25/23 
f 29/31/29 30/32/30 31/33/31 
f 10/11/10 32/34/32 30/35/30 
f 17/19/17 30/32/30 15/17/15 
f 30/32/30 17/19/17 31/33/31 
f 31/33/31 17/19/17 16/18/16 
f 33/36/33 34/37/34 29/31/29 
f 34/37/34 30/32/30 29/31/29 
f 35/38/35 34/39/34 33/40/33 
f 35/38/35 10/11/10 34/39/34 
f 10/11/10 35/38/35 36/41/36 
f 10/11/10 30/35/30 34/39/34 
f 33/40/33 37/42/37 35/38/35 
f 5/5/5 31/33/31 18/20/18 
f 5/5/5 3/3/3 29/31/29 
f 31/33/31 16/18/16 18/20/18 
f 5/5/5 29/31/29 31/33/31 
f 38/43/38 5/5/5 18/20/18 
f 33/36/33 29/31/29 2/2/2 
f 33/40/33 2/44/2 37/42/37 
f 3/3/3 2/2/2 29/31/29 
f 6/6/6 8/8/8 32/45/32 
f 15/17/15 8/8/8 24/26/24 
f 15/17/15 30/32/30 32/45/32 
f 10/11/10 6/10/6 32/34/32 
f 32/45/32 8/8/8 15/17/15 
f 7/7/7 24/26/24 8/8/8 
f 36/41/36 12/14/12 10/11/10 
f 7/7/7 39/46/39 40/47/40 
f 41/48/41 39/46/39 9/9/9 
f 40/47/40 39/46/39 42/49/42 
f 39/46/39 7/7/7 9/9/9 
f 42/49/42 39/46/39 41/48/41 
f 41/48/41 43/50/43 42/49/42 
f 14/16/14 13/15/13 11/12/11 
f 44/51/44 13/15/13 45/52/45 
f 41/53/41 9/13/9 13/15/13 
f 44/51/44 46/54/46 13/15/13 
f 41/53/41 13/15/13 46/54/46 
f 47/55/47 46/54/46 44/51/44 
f 46/54/46 43/56/43 41/53/41 
f 48/57/48 47/55/47 44/51/44 
f 40/47/40 26/28/26 7/7/7 
f 25/27/25 26/28/26 49/58/49 
f 49/58/49 26/28/26 40/47/40 
f 42/49/42 50/59/50 40/47/40 
f 49/58/49 40/47/40 50/59/50 
f 27/29/27 25/27/25 51/60/51 
f 51/60/51 25/27/25 49/58/49 
f 52/61/52 51/60/51 49/58/49 
f 53/62/53 49/58/49 50/59/50 
f 53/62/53 52/61/52 49/58/49 
f 52/61/52 53/62/53 54/63/54 
f 53/62/53 50/59/50 55/64/55 
f 55/64/55 56/65/56 53/62/53 
f 57/66/57 54/63/54 53/62/53 
f 56/65/56 57/66/57 53/62/53 
f 55/64/55 50/59/50 42/49/42 
f 55/64/55 42/49/42 43/50/43 
f 58/67/58 56/65/56 55/64/55 
f 56/65/56 58/67/58 59/68/59 
f 60/69/60 55/64/55 43/50/43 
f 60/69/60 58/67/58 55/64/55 
f 59/70/59 60/71/60 61/72/61 
f 62/73/62 61/72/61 47/55/47 
f 59/68/59 58/67/58 60/69/60 
f 61/72/61 60/71/60 47/55/47 
f 47/55/47 43/56/43 46/54/46 
f 60/71/60 43/56/43 47/55/47 
f 59/70/59 61/72/61 63/74/63 
f 64/75/64 65/76/65 59/68/59 
f 59/68/59 65/76/65 56/65/56 
f 64/77/64 59/70/59 63/74/63 
f 63/74/63 61/72/61 66/78/66 
f 66/78/66 61/72/61 62/73/62 
f 67/79/67 63/74/63 66/78/66 
f 68/80/68 14/16/14 12/14/12 
f 35/38/35 37/42/37 69/81/69 
f 36/41/36 35/38/35 69/81/69 
f 70/82/70 36/41/36 69/81/69 
f 71/83/71 37/42/37 2/44/2 
f 71/83/71 2/44/2 4/84/4 
f 37/42/37 71/83/71 72/85/72 
f 72/85/72 69/81/69 37/42/37 
f 73/86/73 72/85/72 71/83/71 
f 70/82/70 12/14/12 36/41/36 
f 70/82/70 69/81/69 74/87/74 
f 74/87/74 75/88/75 70/82/70 
f 74/87/74 76/89/76 75/88/75 
f 76/89/76 77/90/77 75/88/75 
f 12/14/12 70/82/70 68/80/68 
f 77/90/77 68/80/68 75/88/75 
f 75/88/75 68/80/68 70/82/70 
f 73/86/73 74/87/74 72/85/72 
f 78/91/78 73/86/73 79/92/79 
f 78/91/78 74/87/74 73/86/73 
f 74/87/74 69/81/69 72/85/72 
f 78/91/78 80/93/80 74/87/74 
f 81/94/81 80/93/80 78/91/78 
f 82/95/82 83/96/83 81/94/81 
f 83/96/83 84/97/84 85/98/85 
f 80/93/80 76/89/76 74/87/74 
f 76/89/76 80/93/80 85/98/85 
f 81/94/81 83/96/83 85/98/85 
f 80/93/80 81/94/81 85/98/85 
f 68/80/68 45/52/45 14/16/14 
f 45/52/45 13/15/13 14/16/14 
f 45/52/45 68/80/68 77/90/77 
f 86/99/86 48/57/48 44/51/44 
f 44/51/44 45/52/45 86/99/86 
f 86/99/86 45/52/45 77/90/77 
f 87/100/87 86/99/86 77/90/77 
f 88/101/88 48/57/48 86/99/86 
f 87/100/87 77/90/77 76/89/76 
f 76/89/76 85/98/85 87/100/87 
f 87/100/87 89/102/89 88/101/88 
f 88/101/88 86/99/86 87/100/87 
f 90/103/90 87/100/87 85/98/85 
f 85/98/85 84/97/84 90/103/90 
f 89/102/89 91/104/91 92/105/92 
f 88/101/88 89/102/89 92/105/92 
f 89/102/89 93/106/93 91/104/91 
f 93/106/93 89/102/89 90/103/90 
f 90/103/90 89/102/89 87/100/87 
f 48/57/48 62/73/62 47/55/47 
f 94/107/94 62/73/62 48/57/48 
f 94/107/94 48/57/48 88/101/88 
f 94/107/94 88/101/88 92/105/92 
f 95/108/95 94/107/94 92/105/92 
f 95/108/95 96/109/96 94/107/94 
f 66/78/66 62/73/62 94/107/94 
f 96/109/96 66/78/66 94/107/94 
f 95/108/95 92/105/92 91/104/91 
f 97/110/97 5/5/5 38/43/38 
f 1/1/1 5/5/5 97/110/97 
f 98/111/98 1/1/1 99/112/99 
f 99/112/99 1/1/1 97/110/97 
f 4/4/4 1/1/1 98/111/98 
f 100/113/100 18/20/18 19/21/19 
f 18/20/18 100/113/100 38/43/38 
f 19/21/19 21/23/21 100/113/100 
f 101/114/101 102/115/102 21/23/21 
f 21/23/21 102/115/102 100/113/100 
f 101/114/101 21/23/21 28/30/28 
f 103/116/103 101/114/101 28/30/28 
f 22/24/22 28/30/28 21/23/21 
f 103/116/103 28/30/28 104/117/104 
f 27/29/27 104/117/104 28/30/28 
f 103/116/103 104/117/104 105/118/105 
f 106/119/106 101/114/101 103/116/103 
f 101/114/101 106/119/106 107/120/107 
f 103/116/103 105/118/105 106/119/106 
f 108/121/108 97/110/97 100/113/100 
f 108/121/108 100/113/100 102/115/102 
f 100/113/100 97/110/97 38/43/38 
f 109/122/109 98/111/98 110/123/110 
f 111/124/111 4/4/4 98/111/98 
f 109/122/109 111/124/111 98/111/98 
f 97/110/97 108/121/108 99/112/99 
f 108/121/108 102/115/102 101/114/101 
f 112/125/112 108/121/108 113/126/113 
f 113/126/113 108/121/108 107/120/107 
f 98/111/98 99/112/99 110/123/110 
f 112/125/112 99/112/99 108/121/108 
f 110/123/110 99/112/99 112/125/112 
f 113/126/113 114/127/114 112/125/112 
f 114/128/114 115/129/115 110/130/110 
f 114/127/114 110/123/110 112/125/112 
f 109/131/109 110/130/110 115/129/115 
f 107/120/107 108/121/108 101/114/101 
f 116/132/116 113/126/113 117/133/117 
f 117/133/117 113/126/113 107/120/107 
f 107/120/107 106/119/106 118/134/118 
f 118/134/118 119/135/119 107/120/107 
f 107/120/107 119/135/119 117/133/117 
f 120/136/120 115/129/115 116/137/116 
f 116/137/116 115/129/115 114/128/114 
f 113/126/113 116/132/116 114/127/114 
f 117/133/117 119/135/119 116/132/116 
f 121/138/121 116/137/116 122/139/122 
f 122/140/122 116/132/116 119/135/119 
f 51/60/51 104/117/104 27/29/27 
f 123/141/123 105/118/105 104/117/104 
f 104/117/104 51/60/51 123/141/123 
f 124/142/124 52/61/52 54/63/54 
f 124/142/124 125/143/125 123/141/123 
f 126/144/126 124/142/124 54/63/54 
f 125/143/125 124/142/124 126/144/126 
f 124/142/124 51/60/51 52/61/52 
f 51/60/51 124/142/124 123/141/123 
f 106/119/106 105/118/105 118/134/118 
f 118/134/118 105/118/105 127/145/127 
f 125/143/125 105/118/105 123/141/123 
f 125/143/125 127/145/127 105/118/105 
f 125/143/125 128/146/128 127/145/127 
f 54/63/54 57/66/57 126/144/126 
f 128/146/128 125/143/125 126/144/126 
f 118/134/118 127/145/127 129/147/129 
f 127/145/127 130/148/130 129/147/129 
f 131/149/131 132/150/132 130/148/130 
f 131/149/131 130/148/130 128/146/128 
f 130/148/130 127/145/127 128/146/128 
f 132/151/132 131/152/131 133/153/133 
f 134/154/134 126/144/126 57/66/57 
f 57/66/57 56/65/56 65/76/65 
f 134/154/134 57/66/57 65/76/65 
f 135/155/135 134/154/134 64/75/64 
f 134/154/134 65/76/65 64/75/64 
f 64/77/64 67/79/67 135/156/135 
f 136/157/136 135/156/135 67/79/67 
f 63/74/63 67/79/67 64/77/64 
f 131/149/131 128/146/128 137/158/137 
f 126/144/126 134/154/134 128/146/128 
f 128/146/128 134/154/134 135/155/135 
f 128/146/128 135/155/135 137/158/137 
f 136/157/136 131/152/131 137/159/137 
f 131/152/131 136/157/136 133/153/133 
f 137/159/137 135/156/135 136/157/136 
f 129/147/129 122/140/122 119/135/119 
f 118/134/118 129/147/129 119/135/119 
f 130/148/130 132/150/132 129/147/129 
f 129/147/129 132/150/132 138/160/138 
f 122/140/122 129/147/129 138/160/138 
f 139/161/139 4/84/4 111/162/111 
f 71/83/71 4/84/4 139/161/139 
f 140/163/140 139/161/139 109/131/109 
f 73/86/73 71/83/71 139/161/139 
f 109/131/109 139/161/139 111/162/111 
f 141/164/141 79/92/79 140/163/140 
f 79/92/79 73/86/73 139/161/139 
f 139/161/139 140/163/140 79/92/79 
f 115/129/115 140/163/140 109/131/109 
f 140/163/140 115/129/115 141/164/141 
f 79/92/79 141/164/141 142/165/142 
f 142/165/142 78/91/78 79/92/79 
f 82/95/82 143/166/143 84/97/84 
f 78/91/78 142/165/142 82/95/82 
f 83/96/83 82/95/82 84/97/84 
f 144/167/144 84/97/84 143/166/143 
f 82/95/82 81/94/81 78/91/78 
f 143/166/143 82/95/82 142/165/142 
f 141/164/141 145/168/145 142/165/142 
f 120/136/120 116/137/116 121/138/121 
f 145/168/145 141/164/141 120/136/120 
f 120/136/120 141/164/141 115/129/115 
f 145/168/145 120/136/120 121/138/121 
f 145/168/145 146/169/146 143/166/143 
f 146/169/146 145/168/145 121/138/121 
f 142/165/142 145/168/145 143/166/143 
f 147/170/147 90/103/90 144/167/144 
f 90/103/90 84/97/84 144/167/144 
f 147/170/147 93/106/93 90/103/90 
f 148/171/148 149/172/149 147/170/147 
f 95/108/95 91/104/91 93/106/93 
f 95/108/95 93/106/93 149/172/149 
f 149/172/149 93/106/93 147/170/147 
f 122/139/122 146/169/146 121/138/121 
f 144/167/144 146/169/146 150/173/150 
f 151/174/151 150/173/150 146/169/146 
f 146/169/146 122/139/122 151/174/151 
f 132/151/132 133/153/133 151/174/151 
f 151/174/151 133/153/133 148/171/148 
f 138/175/138 132/151/132 151/174/151 
f 151/174/151 148/171/148 150/173/150 
f 146/169/146 144/167/144 143/166/143 
f 150/173/150 147/170/147 144/167/144 
f 150/173/150 148/171/148 147/170/147 
f 136/157/136 96/109/96 152/176/152 
f 152/176/152 96/109/96 149/172/149 
f 149/172/149 96/109/96 95/108/95 
f 136/157/136 67/79/67 96/109/96 
f 149/172/149 148/171/148 152/176/152 
f 67/79/67 66/78/66 96/109/96 
f 136/157/136 152/176/152 133/153/133 
f 133/153/133 152/176/152 148/171/148 
f 122/139/122 138/175/138 151/174/151 
# 0 polygons - 300 triangles

