# 3ds Max Wavefront OBJ Exporter v0.97b - (c)2007 guruware
# File Created: 26.05.2016 00:08:28

mtllib Grapefruit_03.mtl

#
# object Grapefruit_03
#

v  -0.0187 0.0393 0.0352
v  -0.0117 0.0269 0.0459
v  -0.0026 0.0373 0.0396
v  0.0071 0.0220 0.0476
v  0.0128 0.0339 0.0393
v  -0.0095 0.0118 0.0518
v  -0.0384 0.0307 0.0271
v  -0.0355 0.0209 0.0372
v  -0.0452 0.0131 0.0295
v  -0.0371 -0.0006 0.0412
v  -0.0212 -0.0025 0.0500
v  -0.0246 0.0204 0.0449
v  -0.0073 -0.0101 0.0520
v  -0.0245 0.0435 0.0263
v  -0.0101 0.0520 0.0209
v  -0.0172 0.0528 0.0048
v  -0.0033 0.0523 0.0134
v  -0.0334 0.0443 0.0030
v  -0.0321 0.0436 0.0160
v  0.0101 0.0488 0.0205
v  -0.0009 0.0458 0.0303
v  0.0192 0.0474 0.0092
v  0.0283 0.0380 0.0227
v  -0.0480 0.0261 0.0084
v  -0.0526 0.0120 0.0094
v  -0.0501 0.0049 0.0215
v  -0.0425 0.0350 0.0002
v  -0.0381 0.0367 -0.0149
v  -0.0468 0.0212 -0.0189
v  -0.0508 0.0180 -0.0040
v  0.0243 0.0173 0.0444
v  0.0367 0.0112 0.0372
v  0.0299 0.0008 0.0454
v  0.0119 0.0017 0.0513
v  0.0143 -0.0135 0.0505
v  -0.0030 -0.0245 0.0489
v  0.0074 -0.0325 0.0445
v  0.0255 -0.0263 0.0417
v  0.0386 -0.0039 0.0379
v  0.0355 -0.0162 0.0389
v  0.0343 -0.0302 0.0328
v  0.0268 0.0296 0.0345
v  0.0425 0.0220 0.0228
v  0.0476 0.0075 0.0246
v  0.0400 0.0308 0.0100
v  0.0510 0.0104 0.0109
v  0.0495 -0.0109 0.0222
v  0.0456 -0.0240 0.0216
v  0.0531 -0.0016 0.0115
v  0.0506 -0.0238 0.0043
v  0.0425 -0.0331 0.0135
v  -0.0488 -0.0138 0.0213
v  -0.0446 -0.0120 0.0318
v  -0.0249 -0.0186 0.0460
v  -0.0353 -0.0275 0.0354
v  -0.0167 -0.0332 0.0426
v  -0.0443 -0.0291 0.0179
v  -0.0384 -0.0341 0.0257
v  -0.0494 -0.0232 0.0086
v  -0.0215 -0.0435 0.0316
v  -0.0387 -0.0394 0.0139
v  -0.0255 -0.0482 0.0187
v  -0.0540 0.0008 0.0034
v  -0.0527 -0.0023 0.0130
v  -0.0534 -0.0114 0.0036
v  -0.0537 -0.0020 -0.0071
v  -0.0528 0.0080 -0.0083
v  -0.0526 -0.0097 -0.0090
v  -0.0515 -0.0202 -0.0029
v  -0.0488 -0.0267 0.0018
v  -0.0458 -0.0252 -0.0178
v  -0.0479 -0.0147 -0.0195
v  -0.0447 -0.0340 -0.0034
v  -0.0342 -0.0450 0.0026
v  -0.0412 -0.0346 -0.0153
v  -0.0350 -0.0365 -0.0249
v  -0.0321 -0.0447 -0.0129
v  -0.0240 -0.0494 -0.0062
v  -0.0161 -0.0490 -0.0202
v  -0.0063 -0.0458 0.0338
v  0.0131 -0.0428 0.0339
v  0.0022 -0.0528 0.0176
v  -0.0105 -0.0522 0.0167
v  0.0261 -0.0429 0.0226
v  0.0389 -0.0380 0.0052
v  0.0138 -0.0499 0.0123
v  0.0334 -0.0396 -0.0082
v  0.0194 -0.0440 -0.0075
v  -0.0082 -0.0521 -0.0058
v  0.0201 -0.0416 -0.0263
v  0.0020 -0.0503 -0.0110
v  -0.0256 0.0493 -0.0073
v  -0.0140 0.0488 -0.0198
v  0.0010 0.0495 -0.0160
v  0.0111 0.0487 -0.0018
v  -0.0013 0.0481 0.0035
v  0.0301 0.0410 0.0024
v  0.0103 0.0401 -0.0311
v  0.0226 0.0426 -0.0169
v  -0.0247 0.0426 -0.0230
v  -0.0359 0.0282 -0.0285
v  -0.0070 0.0383 -0.0341
v  -0.0158 0.0281 -0.0397
v  0.0053 0.0181 -0.0488
v  0.0200 0.0210 -0.0438
v  0.0269 0.0312 -0.0307
v  -0.0191 0.0154 -0.0457
v  0.0176 0.0080 -0.0491
v  0.0474 0.0206 0.0043
v  0.0397 0.0299 -0.0133
v  0.0447 0.0228 -0.0152
v  0.0522 0.0073 0.0003
v  0.0513 0.0086 -0.0113
v  0.0482 -0.0004 -0.0256
v  0.0540 -0.0066 0.0005
v  0.0522 -0.0183 -0.0059
v  0.0518 -0.0083 -0.0173
v  0.0431 -0.0311 -0.0157
v  0.0443 -0.0202 -0.0278
v  0.0375 0.0177 -0.0328
v  0.0354 0.0041 -0.0414
v  0.0376 -0.0091 -0.0403
v  -0.0489 0.0062 -0.0230
v  -0.0397 0.0133 -0.0341
v  -0.0474 -0.0080 -0.0270
v  -0.0264 0.0057 -0.0453
v  -0.0371 0.0019 -0.0390
v  -0.0383 -0.0102 -0.0358
v  -0.0298 -0.0217 -0.0406
v  -0.0200 -0.0109 -0.0483
v  -0.0427 -0.0216 -0.0278
v  -0.0276 -0.0393 -0.0301
v  -0.0173 -0.0335 -0.0411
v  -0.0124 -0.0419 -0.0353
v  -0.0114 -0.0212 -0.0492
v  0.0006 0.0061 -0.0520
v  -0.0102 -0.0040 -0.0518
v  0.0073 -0.0156 -0.0512
v  0.0362 -0.0255 -0.0349
v  0.0276 -0.0314 -0.0373
v  -0.0012 -0.0460 -0.0300
v  0.0016 -0.0344 -0.0436
v  0.0138 -0.0359 -0.0395
v  0.0206 -0.0078 -0.0493
v  0.0254 -0.0204 -0.0454
# 145 vertices

vn -0.3045 0.6596 0.6872
vn -0.1413 0.4604 0.8764
vn 0.0240 0.6401 0.7679
vn 0.1536 0.3711 0.9158
vn 0.2920 0.6271 0.7222
vn -0.1024 0.1857 0.9773
vn -0.7044 0.5256 0.4771
vn -0.6150 0.3543 0.7044
vn -0.8297 0.2208 0.5127
vn -0.6381 0.0103 0.7699
vn -0.3401 -0.0150 0.9403
vn -0.4173 0.3330 0.8456
vn -0.0828 -0.1254 0.9886
vn -0.4421 0.7559 0.4829
vn -0.1068 0.9349 0.3386
vn -0.1634 0.9865 0.0133
vn 0.1283 0.9906 -0.0467
vn -0.6226 0.7823 0.0204
vn -0.5963 0.7627 0.2505
vn 0.2962 0.9024 0.3130
vn 0.0943 0.8019 0.5899
vn 0.3974 0.9165 0.0452
vn 0.5632 0.7319 0.3836
vn -0.8815 0.4532 0.1327
vn -0.9658 0.2094 0.1529
vn -0.9259 0.0727 0.3706
vn -0.7996 0.5995 -0.0339
vn -0.6999 0.6434 -0.3101
vn -0.8542 0.3861 -0.3483
vn -0.9329 0.3464 -0.0988
vn 0.4274 0.3420 0.8369
vn 0.6863 0.2777 0.6723
vn 0.5036 0.0464 0.8627
vn 0.1847 0.0800 0.9795
vn 0.2414 -0.1821 0.9532
vn -0.0423 -0.3590 0.9324
vn 0.1446 -0.5270 0.8375
vn 0.4201 -0.4236 0.8025
vn 0.7327 -0.0163 0.6804
vn 0.6384 -0.2279 0.7352
vn 0.6115 -0.5447 0.5739
vn 0.5348 0.5718 0.6221
vn 0.7816 0.4779 0.4009
vn 0.8674 0.1982 0.4565
vn 0.7560 0.6416 0.1299
vn 0.9418 0.2944 0.1620
vn 0.8996 -0.1386 0.4141
vn 0.8197 -0.4052 0.4049
vn 0.9824 0.0292 0.1846
vn 0.9041 -0.4209 0.0734
vn 0.7256 -0.6499 0.2262
vn -0.9166 -0.2162 0.3364
vn -0.8101 -0.1719 0.5604
vn -0.4087 -0.2636 0.8738
vn -0.6212 -0.4127 0.6662
vn -0.2525 -0.5174 0.8176
vn -0.8542 -0.4314 0.2902
vn -0.7076 -0.5550 0.4373
vn -0.9198 -0.3469 0.1836
vn -0.3570 -0.7470 0.5609
vn -0.7168 -0.6684 0.1987
vn -0.4034 -0.8784 0.2564
vn -0.9987 0.0315 0.0412
vn -0.9718 -0.0458 0.2313
vn -0.9839 -0.1607 0.0782
vn -0.9870 -0.0221 -0.1589
vn -0.9748 0.1563 -0.1588
vn -0.9598 -0.1282 -0.2499
vn -0.9485 -0.3037 -0.0901
vn -0.8937 -0.4451 0.0559
vn -0.8664 -0.3804 -0.3234
vn -0.9227 -0.2309 -0.3086
vn -0.8134 -0.5770 -0.0740
vn -0.5778 -0.8161 0.0113
vn -0.7661 -0.5773 -0.2827
vn -0.6588 -0.5877 -0.4697
vn -0.5395 -0.8112 -0.2255
vn -0.3068 -0.9480 -0.0847
vn -0.1870 -0.9333 -0.3065
vn -0.0523 -0.8009 0.5966
vn 0.2713 -0.7684 0.5796
vn 0.1195 -0.9749 0.1878
vn -0.1427 -0.9733 0.1798
vn 0.4701 -0.8252 0.3130
vn 0.6100 -0.7922 0.0154
vn 0.3294 -0.9439 0.0256
vn 0.4559 -0.8743 -0.1667
vn 0.3231 -0.9342 -0.1510
vn -0.0253 -0.9937 -0.1095
vn 0.3663 -0.8721 -0.3244
vn 0.1971 -0.9647 -0.1745
vn -0.4302 0.8859 -0.1739
vn -0.1352 0.8969 -0.4210
vn 0.1427 0.9595 -0.2429
vn 0.2053 0.9750 -0.0852
vn 0.0518 0.9821 -0.1812
vn 0.5885 0.8084 -0.0138
vn 0.2146 0.7634 -0.6093
vn 0.4505 0.8442 -0.2903
vn -0.4196 0.7233 -0.5483
vn -0.5872 0.5158 -0.6238
vn -0.0875 0.6886 -0.7198
vn -0.2715 0.5379 -0.7981
vn 0.0475 0.4189 -0.9068
vn 0.3543 0.4746 -0.8058
vn 0.5183 0.6468 -0.5595
vn -0.3164 0.3520 -0.8809
vn 0.2913 0.1787 -0.9398
vn 0.8806 0.4718 0.0450
vn 0.7128 0.6613 -0.2337
vn 0.8259 0.4904 -0.2784
vn 0.9728 0.2313 -0.0119
vn 0.9488 0.2520 -0.1903
vn 0.8775 0.1085 -0.4671
vn 0.9994 -0.0327 0.0122
vn 0.9432 -0.3010 -0.1404
vn 0.9518 -0.0970 -0.2910
vn 0.7254 -0.6367 -0.2615
vn 0.8280 -0.3339 -0.4504
vn 0.6928 0.4275 -0.5807
vn 0.6157 0.1810 -0.7669
vn 0.6681 -0.0931 -0.7382
vn -0.8961 0.1198 -0.4273
vn -0.6754 0.2806 -0.6820
vn -0.8628 -0.1218 -0.4906
vn -0.4437 0.1516 -0.8833
vn -0.6435 0.0312 -0.7648
vn -0.6551 -0.1574 -0.7390
vn -0.5539 -0.3030 -0.7755
vn -0.4035 -0.1146 -0.9078
vn -0.7721 -0.3424 -0.5354
vn -0.4823 -0.6756 -0.5576
vn -0.3110 -0.5326 -0.7872
vn -0.1753 -0.7649 -0.6198
vn -0.1935 -0.3099 -0.9309
vn -0.0161 0.1483 -0.9888
vn -0.1783 0.0119 -0.9839
vn 0.1021 -0.2132 -0.9717
vn 0.6426 -0.4884 -0.5903
vn 0.4561 -0.6480 -0.6100
vn 0.0881 -0.8938 -0.4397
vn 0.0500 -0.5872 -0.8079
vn 0.2522 -0.6883 -0.6802
vn 0.3136 -0.0410 -0.9487
vn 0.3908 -0.3251 -0.8611
# 145 vertex normals

vt 0.7745 0.7178 0.0000
vt 0.7161 0.7231 0.0000
vt 0.7393 0.6779 0.0000
vt 0.6710 0.6748 0.0000
vt 0.7059 0.6416 0.0000
vt 0.6652 0.7409 0.0000
vt 0.7983 0.7908 0.0000
vt 0.7502 0.7998 0.0000
vt 0.7616 0.8440 0.0000
vt 0.6882 0.8459 0.0000
vt 0.6437 0.7993 0.0000
vt 0.7219 0.7692 0.0000
vt 0.5960 0.7691 0.0000
vt 0.8068 0.7246 0.0000
vt 0.8151 0.6647 0.0000
vt 0.8681 0.6734 0.0000
vt 0.8228 0.6373 0.0000
vt 0.8864 0.7401 0.0000
vt 0.8423 0.7446 0.0000
vt 0.7810 0.6066 0.0000
vt 0.7724 0.6531 0.0000
vt 0.7936 0.5630 0.0000
vt 0.7260 0.5656 0.0000
vt 0.8569 0.8337 0.0000
vt 0.8257 0.8864 0.0000
vt 0.7668 0.8839 0.0000
vt 0.8968 0.7923 0.0000
vt 0.9568 0.7645 0.0000
vt 0.9533 0.8634 0.0000
vt 0.8874 0.8760 0.0000
vt 0.6390 0.6237 0.0000
vt 0.6151 0.5791 0.0000
vt 0.5826 0.6232 0.0000
vt 0.6014 0.6880 0.0000
vt 0.5549 0.6997 0.0000
vt 0.5464 0.7792 0.0000
vt 0.5021 0.7561 0.0000
vt 0.4951 0.6736 0.0000
vt 0.5610 0.5856 0.0000
vt 0.5180 0.6130 0.0000
vt 0.4607 0.6338 0.0000
vt 0.6875 0.5968 0.0000
vt 0.6627 0.5289 0.0000
vt 0.6057 0.5220 0.0000
vt 0.7185 0.5038 0.0000
vt 0.6344 0.4721 0.0000
vt 0.5332 0.5143 0.0000
vt 0.4689 0.5518 0.0000
vt 0.5854 0.4665 0.0000
vt 0.0968 0.4081 0.0000
vt 0.0233 0.4393 0.0000
vt 0.0338 0.3730 0.0000
vt 0.0744 0.3457 0.0000
vt 0.7119 0.9314 0.0000
vt 0.6861 0.8994 0.0000
vt 0.6065 0.8426 0.0000
vt 0.6103 0.9058 0.0000
vt 0.5459 0.8460 0.0000
vt 0.6655 0.9729 0.0000
vt 0.6144 0.9529 0.0000
vt 0.7160 0.9895 0.0000
vt 0.5255 0.9037 0.0000
vt 0.2650 0.0136 0.0000
vt 0.2927 0.0565 0.0000
vt 0.2231 0.0808 0.0000
vt 0.3272 0.0195 0.0000
vt 0.1741 0.0517 0.0000
vt 0.8191 0.9358 0.0000
vt 0.7761 0.9233 0.0000
vt 0.7726 0.9729 0.0000
vt 0.5195 0.0772 0.0000
vt 0.5021 0.1125 0.0000
vt 0.4609 0.0621 0.0000
vt 0.8880 0.9199 0.0000
vt 0.4654 0.1090 0.0000
vt 0.5441 0.1369 0.0000
vt 0.4167 0.0819 0.0000
vt 0.3907 0.0404 0.0000
vt 0.3778 0.0677 0.0000
vt 0.4049 0.1421 0.0000
vt 0.4473 0.1509 0.0000
vt 0.3569 0.0960 0.0000
vt 0.2909 0.1029 0.0000
vt 0.3649 0.1409 0.0000
vt 0.3578 0.1810 0.0000
vt 0.3151 0.1489 0.0000
vt 0.2739 0.1520 0.0000
vt 0.2845 0.2016 0.0000
vt 0.4736 0.8386 0.0000
vt 0.4443 0.7459 0.0000
vt 0.1365 0.1724 0.0000
vt 0.0533 0.1872 0.0000
vt 0.1088 0.1038 0.0000
vt 0.1763 0.1303 0.0000
vt 0.0103 0.2925 0.0000
vt 0.0713 0.2571 0.0000
vt 0.1071 0.3352 0.0000
vt 0.1256 0.2249 0.0000
vt 0.1566 0.3347 0.0000
vt 0.1764 0.2841 0.0000
vt 0.2285 0.1917 0.0000
vt 0.2334 0.3175 0.0000
vt 0.2187 0.2304 0.0000
vt 0.9155 0.6938 0.0000
vt 0.9417 0.6271 0.0000
vt 0.9053 0.5748 0.0000
vt 0.8440 0.5643 0.0000
vt 0.8484 0.6142 0.0000
vt 0.7798 0.5167 0.0000
vt 0.9355 0.5076 0.0000
vt 0.8550 0.4963 0.0000
vt 0.9750 0.6733 0.0000
vt 0.5827 0.2207 0.0000
vt 0.6340 0.2874 0.0000
vt 0.5759 0.2948 0.0000
vt 0.9896 0.5773 0.0000
vt 0.6144 0.3626 0.0000
vt 0.5256 0.3778 0.0000
vt 0.5437 0.4377 0.0000
vt 0.4392 0.4268 0.0000
vt 0.4885 0.5204 0.0000
vt 0.4002 0.4817 0.0000
vt 0.8687 0.4320 0.0000
vt 0.3922 0.5508 0.0000
vt 0.4904 0.3430 0.0000
vt 0.3796 0.4376 0.0000
vt 0.6900 0.4639 0.0000
vt 0.7791 0.4412 0.0000
vt 0.7515 0.4117 0.0000
vt 0.6377 0.4337 0.0000
vt 0.6676 0.3941 0.0000
vt 0.2755 0.5870 0.0000
vt 0.1959 0.5471 0.0000
vt 0.2360 0.4982 0.0000
vt 0.5812 0.4213 0.0000
vt 0.1142 0.4852 0.0000
vt 0.1356 0.4405 0.0000
vt 0.1867 0.4777 0.0000
vt 0.1700 0.3879 0.0000
vt 0.2178 0.4252 0.0000
vt 0.3247 0.5256 0.0000
vt 0.3136 0.4743 0.0000
vt 0.2791 0.4468 0.0000
vt 0.5219 0.1906 0.0000
vt 0.5274 0.2566 0.0000
vt 0.4697 0.1847 0.0000
vt 0.4758 0.3012 0.0000
vt 0.4854 0.2537 0.0000
vt 0.4521 0.2243 0.0000
vt 0.4061 0.2389 0.0000
vt 0.4137 0.2959 0.0000
vt 0.4204 0.1786 0.0000
vt 0.3439 0.2039 0.0000
vt 0.3510 0.2551 0.0000
vt 0.3165 0.2473 0.0000
vt 0.3728 0.3010 0.0000
vt 0.4212 0.3885 0.0000
vt 0.4155 0.3387 0.0000
vt 0.3478 0.3615 0.0000
vt 0.2429 0.3964 0.0000
vt 0.2598 0.3673 0.0000
vt 0.2769 0.2577 0.0000
vt 0.3117 0.3046 0.0000
vt 0.2834 0.3268 0.0000
vt 0.3357 0.4081 0.0000
vt 0.2935 0.3962 0.0000
# 166 texture coords

g Grapefruit_03
usemtl _Grapefruit_03default
s 1
f 1/1/1 2/2/2 3/3/3 
f 4/4/4 3/3/3 2/2/2 
f 4/4/4 5/5/5 3/3/3 
f 6/6/6 4/4/4 2/2/2 
f 7/7/7 8/8/8 1/1/1 
f 8/8/8 9/9/9 10/10/10 
f 7/7/7 9/9/9 8/8/8 
f 11/11/11 6/6/6 12/12/12 
f 10/10/10 11/11/11 12/12/12 
f 6/6/6 11/11/11 13/13/13 
f 1/1/1 12/12/12 2/2/2 
f 1/1/1 8/8/8 12/12/12 
f 2/2/2 12/12/12 6/6/6 
f 12/12/12 8/8/8 10/10/10 
f 14/14/14 1/1/1 15/15/15 
f 16/16/16 15/15/15 17/17/17 
f 18/18/18 19/19/19 16/16/16 
f 19/19/19 14/14/14 15/15/15 
f 15/15/15 16/16/16 19/19/19 
f 20/20/20 21/21/21 5/5/5 
f 1/1/1 3/3/3 21/21/21 
f 15/15/15 1/1/1 21/21/21 
f 3/3/3 5/5/5 21/21/21 
f 17/17/17 15/15/15 20/20/20 
f 20/20/20 15/15/15 21/21/21 
f 22/22/22 20/20/20 23/23/23 
f 20/20/20 5/5/5 23/23/23 
f 1/1/1 14/14/14 7/7/7 
f 19/19/19 24/24/24 7/7/7 
f 14/14/14 19/19/19 7/7/7 
f 25/25/25 9/9/9 24/24/24 
f 25/25/25 26/26/26 9/9/9 
f 24/24/24 9/9/9 7/7/7 
f 19/19/19 18/18/18 27/27/27 
f 27/27/27 24/24/24 19/19/19 
f 27/27/27 18/18/18 28/28/28 
f 29/29/29 24/24/24 27/27/27 
f 30/30/30 24/24/24 29/29/29 
f 5/5/5 4/4/4 31/31/31 
f 32/32/32 31/31/31 33/33/33 
f 34/34/34 13/13/13 35/35/35 
f 36/36/36 35/35/35 13/13/13 
f 13/13/13 34/34/34 6/6/6 
f 4/4/4 6/6/6 34/34/34 
f 31/31/31 4/4/4 34/34/34 
f 34/34/34 35/35/35 33/33/33 
f 31/31/31 34/34/34 33/33/33 
f 37/37/37 35/35/35 36/36/36 
f 37/37/37 38/38/38 35/35/35 
f 39/39/39 33/33/33 40/40/40 
f 35/35/35 38/38/38 40/40/40 
f 35/35/35 40/40/40 33/33/33 
f 41/41/41 40/40/40 38/38/38 
f 23/23/23 5/5/5 42/42/42 
f 42/42/42 5/5/5 31/31/31 
f 42/42/42 31/31/31 32/32/32 
f 43/43/43 42/42/42 32/32/32 
f 43/43/43 23/23/23 42/42/42 
f 43/43/43 32/32/32 44/44/44 
f 45/45/45 23/23/23 43/43/43 
f 46/46/46 43/43/43 44/44/44 
f 39/39/39 32/32/32 33/33/33 
f 39/39/39 47/47/47 44/44/44 
f 32/32/32 39/39/39 44/44/44 
f 39/39/39 40/40/40 47/47/47 
f 48/48/48 47/47/47 40/40/40 
f 48/48/48 40/40/40 41/41/41 
f 46/46/46 44/44/44 49/49/49 
f 49/49/49 44/44/44 47/47/47 
f 50/50/50 47/51/47 48/52/48 
f 48/52/48 51/53/51 50/50/50 
f 52/54/52 53/55/53 26/26/26 
f 53/55/53 10/10/10 9/9/9 
f 26/26/26 53/55/53 9/9/9 
f 54/56/54 10/10/10 55/57/55 
f 11/11/11 10/10/10 54/56/54 
f 11/11/11 54/56/54 13/13/13 
f 54/56/54 55/57/55 56/58/56 
f 10/10/10 53/55/53 55/57/55 
f 57/59/57 58/60/58 52/54/52 
f 53/55/53 52/54/52 58/60/58 
f 58/60/58 55/57/55 53/55/53 
f 59/61/59 57/59/57 52/54/52 
f 56/58/56 55/57/55 60/62/60 
f 55/57/55 58/60/58 60/62/60 
f 58/63/58 61/64/61 62/65/62 
f 57/66/57 61/64/61 58/63/58 
f 60/67/60 58/63/58 62/65/62 
f 63/68/63 64/69/64 25/25/25 
f 64/69/64 26/26/26 25/25/25 
f 52/54/52 64/69/64 65/70/65 
f 65/70/65 59/61/59 52/54/52 
f 64/69/64 52/54/52 26/26/26 
f 63/71/63 66/72/66 65/73/65 
f 63/68/63 65/70/65 64/69/64 
f 67/74/67 63/68/63 25/25/25 
f 25/25/25 24/24/24 30/30/30 
f 30/30/30 67/74/67 25/25/25 
f 65/73/65 66/72/66 68/75/68 
f 66/72/66 63/71/63 67/76/67 
f 69/77/69 59/78/59 65/73/65 
f 70/79/70 59/78/59 69/77/69 
f 71/80/71 68/75/68 72/81/72 
f 68/75/68 71/80/71 69/77/69 
f 69/77/69 65/73/65 68/75/68 
f 73/82/73 61/64/61 70/79/70 
f 70/79/70 61/64/61 57/66/57 
f 57/66/57 59/78/59 70/79/70 
f 61/64/61 74/83/74 62/65/62 
f 73/82/73 74/83/74 61/64/61 
f 69/77/69 73/82/73 70/79/70 
f 71/80/71 73/82/73 69/77/69 
f 73/82/73 71/80/71 75/84/75 
f 71/80/71 76/85/76 75/84/75 
f 77/86/77 73/82/73 75/84/75 
f 78/87/78 74/83/74 77/86/77 
f 73/82/73 77/86/77 74/83/74 
f 76/85/76 77/86/77 75/84/75 
f 79/88/79 78/87/78 77/86/77 
f 54/56/54 36/36/36 13/13/13 
f 56/58/56 36/36/36 54/56/54 
f 37/37/37 36/36/36 56/58/56 
f 56/58/56 80/89/80 37/37/37 
f 56/58/56 60/62/60 80/89/80 
f 81/90/81 37/37/37 80/89/80 
f 82/91/82 81/92/81 80/93/80 
f 81/90/81 38/38/38 37/37/37 
f 41/41/41 38/38/38 81/90/81 
f 60/67/60 62/65/62 83/94/83 
f 83/94/83 80/93/80 60/67/60 
f 82/91/82 80/93/80 83/94/83 
f 51/53/51 41/95/41 84/96/84 
f 85/97/85 51/53/51 84/96/84 
f 41/95/41 81/92/81 84/96/84 
f 48/52/48 41/95/41 51/53/51 
f 85/97/85 84/96/84 86/98/86 
f 81/92/81 82/91/82 84/96/84 
f 86/98/86 84/96/84 82/91/82 
f 50/50/50 51/53/51 85/97/85 
f 87/99/87 86/98/86 88/100/88 
f 87/99/87 85/97/85 86/98/86 
f 78/87/78 62/65/62 74/83/74 
f 62/65/62 78/87/78 83/94/83 
f 89/101/89 82/91/82 83/94/83 
f 89/101/89 83/94/83 78/87/78 
f 90/102/90 88/100/88 91/103/91 
f 91/103/91 82/91/82 89/101/89 
f 91/103/91 86/98/86 82/91/82 
f 79/88/79 89/101/89 78/87/78 
f 88/100/88 86/98/86 91/103/91 
f 92/104/92 16/16/16 93/105/93 
f 92/104/92 18/18/18 16/16/16 
f 93/105/93 16/16/16 94/106/94 
f 95/107/95 17/17/17 20/20/20 
f 22/22/22 95/107/95 20/20/20 
f 16/16/16 17/17/17 96/108/96 
f 96/108/96 17/17/17 95/107/95 
f 95/107/95 22/22/22 97/109/97 
f 93/105/93 94/106/94 98/110/98 
f 95/107/95 97/109/97 99/111/99 
f 95/107/95 99/111/99 94/106/94 
f 99/111/99 98/110/98 94/106/94 
f 28/28/28 18/18/18 92/104/92 
f 28/28/28 92/104/92 100/112/100 
f 100/112/100 92/104/92 93/105/93 
f 27/27/27 28/28/28 29/29/29 
f 29/113/29 28/114/28 101/115/101 
f 93/105/93 102/116/102 100/112/100 
f 100/117/100 103/118/103 101/115/101 
f 28/114/28 100/117/100 101/115/101 
f 103/118/103 100/117/100 102/119/102 
f 102/116/102 93/105/93 98/110/98 
f 104/120/104 98/121/98 105/122/105 
f 98/110/98 99/111/99 106/123/106 
f 98/121/98 104/120/104 102/119/102 
f 105/122/105 98/121/98 106/124/106 
f 104/120/104 107/125/107 103/118/103 
f 102/119/102 104/120/104 103/118/103 
f 108/126/108 104/120/104 105/122/105 
f 22/22/22 23/23/23 97/109/97 
f 97/109/97 23/23/23 45/45/45 
f 45/45/45 43/43/43 109/127/109 
f 110/128/110 97/109/97 45/45/45 
f 43/43/43 46/46/46 109/127/109 
f 97/109/97 110/128/110 99/111/99 
f 111/129/111 110/128/110 109/127/109 
f 110/128/110 45/45/45 109/127/109 
f 112/130/112 109/127/109 46/46/46 
f 111/129/111 109/127/109 113/131/113 
f 111/132/111 113/133/113 114/134/114 
f 113/131/113 112/130/112 115/135/115 
f 109/127/109 112/130/112 113/131/113 
f 112/130/112 49/49/49 115/135/115 
f 49/49/49 47/47/47 115/135/115 
f 49/49/49 112/130/112 46/46/46 
f 115/136/115 47/51/47 50/50/50 
f 115/136/115 50/50/50 116/137/116 
f 114/134/114 113/133/113 117/138/117 
f 113/133/113 115/136/115 117/138/117 
f 118/139/118 117/138/117 116/137/116 
f 117/138/117 115/136/115 116/137/116 
f 114/134/114 117/138/117 119/140/119 
f 106/123/106 99/111/99 110/128/110 
f 106/124/106 120/141/120 105/122/105 
f 110/128/110 111/129/111 106/123/106 
f 106/124/106 111/132/111 120/141/120 
f 114/134/114 121/142/121 120/141/120 
f 120/141/120 111/132/111 114/134/114 
f 121/142/121 105/122/105 120/141/120 
f 108/126/108 105/122/105 121/142/121 
f 121/142/121 114/134/114 122/143/122 
f 29/29/29 67/74/67 30/30/30 
f 29/113/29 123/144/123 67/76/67 
f 124/145/124 123/144/123 29/113/29 
f 123/144/123 66/72/66 67/76/67 
f 125/146/125 66/72/66 123/144/123 
f 125/146/125 72/81/72 66/72/66 
f 125/146/125 123/144/123 124/145/124 
f 66/72/66 72/81/72 68/75/68 
f 101/115/101 107/125/107 124/145/124 
f 124/145/124 29/113/29 101/115/101 
f 124/145/124 126/147/126 127/148/127 
f 124/145/124 107/125/107 126/147/126 
f 107/125/107 101/115/101 103/118/103 
f 128/149/128 125/146/125 127/148/127 
f 124/145/124 127/148/127 125/146/125 
f 129/150/129 128/149/128 130/151/130 
f 126/147/126 130/151/130 127/148/127 
f 127/148/127 130/151/130 128/149/128 
f 131/152/131 72/81/72 125/146/125 
f 71/80/71 72/81/72 131/152/131 
f 132/153/132 131/152/131 129/150/129 
f 132/153/132 76/85/76 131/152/131 
f 131/152/131 128/149/128 129/150/129 
f 131/152/131 76/85/76 71/80/71 
f 128/149/128 131/152/131 125/146/125 
f 132/153/132 77/86/77 76/85/76 
f 133/154/133 134/155/134 132/153/132 
f 77/86/77 132/153/132 79/88/79 
f 129/150/129 135/156/135 133/154/133 
f 129/150/129 133/154/133 132/153/132 
f 129/150/129 130/151/130 135/156/135 
f 136/157/136 107/125/107 104/120/104 
f 107/125/107 136/157/136 137/158/137 
f 137/158/137 126/147/126 107/125/107 
f 137/158/137 130/151/130 126/147/126 
f 137/158/137 135/156/135 130/151/130 
f 137/158/137 136/157/136 138/159/138 
f 135/156/135 137/158/137 138/159/138 
f 118/139/118 85/97/85 87/99/87 
f 85/97/85 118/139/118 50/50/50 
f 116/137/116 50/50/50 118/139/118 
f 90/102/90 87/99/87 88/100/88 
f 90/102/90 118/139/118 87/99/87 
f 119/140/119 118/139/118 139/160/139 
f 117/138/117 118/139/118 119/140/119 
f 139/160/139 118/139/118 140/161/140 
f 90/102/90 140/161/140 118/139/118 
f 89/101/89 79/88/79 91/103/91 
f 141/162/141 91/103/91 79/88/79 
f 141/162/141 90/102/90 91/103/91 
f 134/155/134 79/88/79 132/153/132 
f 134/155/134 141/162/141 79/88/79 
f 135/156/135 142/163/142 133/154/133 
f 134/155/134 133/154/133 142/163/142 
f 141/162/141 134/155/134 142/163/142 
f 143/164/143 90/102/90 141/162/141 
f 141/162/141 142/163/142 143/164/143 
f 143/164/143 140/161/140 90/102/90 
f 136/157/136 144/165/144 138/159/138 
f 108/126/108 121/142/121 144/165/144 
f 136/157/136 108/126/108 144/165/144 
f 136/157/136 104/120/104 108/126/108 
f 121/142/121 122/143/122 144/165/144 
f 144/165/144 122/143/122 145/166/145 
f 145/166/145 139/160/139 140/161/140 
f 144/165/144 145/166/145 138/159/138 
f 138/159/138 145/166/145 142/163/142 
f 138/159/138 142/163/142 135/156/135 
f 143/164/143 142/163/142 145/166/145 
f 145/166/145 140/161/140 143/164/143 
f 119/140/119 139/160/139 122/143/122 
f 122/143/122 114/134/114 119/140/119 
f 145/166/145 122/143/122 139/160/139 
f 16/16/16 96/108/96 94/106/94 
f 95/107/95 94/106/94 96/108/96 
# 0 polygons - 286 triangles

