# 3ds Max Wavefront OBJ Exporter v0.97b - (c)2007 guruware
# File Created: 26.05.2016 03:26:39

mtllib Turnip_03.mtl

#
# object Turnip_03
#

v  -0.0091 0.0313 0.0350
v  0.0028 0.0289 0.0368
v  0.0030 0.0426 0.0244
v  0.0114 0.0341 0.0310
v  0.0115 0.0171 0.0414
v  0.0236 0.0217 0.0308
v  -0.0063 0.0204 0.0413
v  -0.0220 0.0181 0.0382
v  -0.0043 0.0034 0.0458
v  0.0030 0.0497 0.0060
v  0.0097 0.0465 0.0144
v  -0.0112 0.0469 0.0163
v  0.0207 0.0365 0.0217
v  0.0239 0.0392 0.0099
v  0.0164 0.0456 0.0061
v  -0.0118 0.0490 0.0000
v  0.0047 0.0476 -0.0079
v  0.0261 0.0367 -0.0006
v  0.0131 0.0441 -0.0134
v  0.0250 0.0336 -0.0163
v  -0.0120 0.0417 0.0247
v  -0.0092 0.0451 0.0184
v  -0.0266 0.0280 0.0300
v  -0.0312 0.0370 0.0150
v  -0.0269 0.0430 0.0035
v  -0.0360 0.0201 0.0286
v  -0.0413 0.0294 0.0131
v  0.0355 0.0078 0.0226
v  0.0280 0.0044 0.0340
v  0.0156 -0.0037 0.0418
v  0.0258 -0.0127 0.0350
v  0.0362 -0.0058 0.0272
v  0.0303 0.0281 0.0120
v  0.0304 0.0302 0.0014
v  0.0336 0.0237 -0.0129
v  0.0356 0.0226 0.0001
v  0.0401 0.0163 -0.0046
v  0.0388 0.0123 -0.0204
v  0.0432 0.0098 -0.0100
v  0.0400 0.0133 0.0055
v  0.0358 0.0208 0.0070
v  0.0431 0.0075 0.0081
v  0.0452 -0.0115 0.0162
v  0.0442 0.0113 -0.0011
v  0.0478 -0.0027 0.0081
v  0.0423 -0.0257 0.0114
v  0.0500 -0.0141 0.0037
v  0.0386 -0.0167 0.0231
v  0.0459 -0.0248 0.0032
v  0.0501 -0.0175 -0.0064
v  0.0499 -0.0054 -0.0037
v  0.0479 0.0018 -0.0056
v  0.0476 0.0036 -0.0001
v  0.0493 -0.0017 -0.0016
v  0.0493 -0.0032 -0.0093
v  0.0487 -0.0075 -0.0135
v  0.0448 -0.0283 -0.0035
v  0.0432 -0.0269 -0.0155
v  0.0461 -0.0193 -0.0183
v  -0.0217 -0.0005 0.0414
v  -0.0299 -0.0144 0.0348
v  -0.0085 -0.0145 0.0416
v  0.0075 -0.0137 0.0416
v  -0.0124 -0.0269 0.0335
v  0.0016 -0.0258 0.0351
v  -0.0353 0.0015 0.0339
v  -0.0423 0.0005 0.0271
v  -0.0456 0.0150 0.0171
v  -0.0471 0.0213 0.0020
v  -0.0474 0.0061 0.0138
v  -0.0495 -0.0004 0.0113
v  -0.0449 -0.0046 0.0180
v  -0.0406 -0.0180 0.0179
v  -0.0448 -0.0168 0.0100
v  -0.0227 -0.0313 0.0253
v  -0.0378 -0.0186 0.0244
v  -0.0334 -0.0352 0.0082
v  -0.0401 -0.0229 0.0073
v  -0.0224 -0.0384 0.0158
v  0.0173 -0.0224 0.0346
v  0.0304 -0.0233 0.0276
v  0.0105 -0.0318 0.0297
v  0.0233 -0.0351 0.0217
v  0.0073 -0.0427 0.0145
v  0.0353 -0.0311 0.0157
v  0.0369 -0.0257 0.0202
v  0.0385 -0.0328 0.0056
v  0.0251 -0.0398 0.0121
v  0.0392 -0.0341 -0.0025
v  0.0247 -0.0425 0.0035
v  0.0347 -0.0378 -0.0076
v  0.0321 -0.0393 -0.0060
v  0.0395 -0.0328 -0.0112
v  0.0299 -0.0405 -0.0067
v  -0.0035 -0.0348 0.0259
v  -0.0060 -0.0416 0.0151
v  -0.0163 -0.0439 0.0039
v  0.0031 -0.0455 -0.0023
v  0.0166 -0.0445 -0.0070
v  -0.0051 0.0439 -0.0191
v  0.0128 0.0378 -0.0241
v  -0.0164 0.0329 -0.0296
v  -0.0037 0.0300 -0.0354
v  0.0159 0.0274 -0.0335
v  -0.0400 0.0320 -0.0082
v  -0.0268 0.0387 -0.0149
v  -0.0379 0.0113 -0.0284
v  -0.0288 0.0297 -0.0257
v  -0.0420 0.0218 -0.0147
v  -0.0243 0.0192 -0.0353
v  -0.0132 0.0109 -0.0416
v  0.0086 0.0162 -0.0426
v  0.0305 0.0189 -0.0281
v  0.0255 0.0089 -0.0390
v  0.0358 0.0047 -0.0308
v  0.0442 -0.0035 -0.0218
v  0.0364 -0.0124 -0.0326
v  0.0377 -0.0252 -0.0258
v  0.0274 -0.0054 -0.0396
v  0.0211 -0.0277 -0.0349
v  0.0122 0.0022 -0.0458
v  -0.0068 -0.0012 -0.0446
v  0.0150 -0.0096 -0.0437
v  0.0041 -0.0143 -0.0427
v  -0.0487 0.0129 0.0034
v  -0.0468 0.0156 0.0054
v  -0.0492 0.0125 -0.0033
v  -0.0508 0.0077 0.0049
v  -0.0439 0.0153 -0.0127
v  -0.0522 0.0059 -0.0059
v  -0.0523 0.0016 0.0029
v  -0.0434 0.0084 -0.0191
v  -0.0477 0.0064 -0.0156
v  -0.0416 0.0008 -0.0232
v  -0.0470 -0.0059 -0.0164
v  -0.0423 -0.0066 -0.0207
v  -0.0494 -0.0071 -0.0121
v  -0.0481 -0.0149 0.0023
v  -0.0451 -0.0164 -0.0104
v  -0.0412 -0.0159 -0.0161
v  -0.0374 -0.0136 -0.0202
v  -0.0397 -0.0232 -0.0050
v  -0.0434 -0.0207 -0.0031
v  -0.0318 -0.0382 -0.0043
v  -0.0381 -0.0308 -0.0002
v  -0.0374 -0.0194 -0.0204
v  -0.0299 -0.0321 -0.0206
v  -0.0350 -0.0271 -0.0200
v  -0.0200 -0.0368 -0.0222
v  -0.0382 -0.0043 -0.0262
v  -0.0319 -0.0073 -0.0337
v  -0.0133 -0.0147 -0.0391
v  -0.0243 -0.0237 -0.0318
v  0.0084 -0.0359 -0.0287
v  0.0045 -0.0443 -0.0127
v  -0.0057 -0.0403 -0.0210
v  -0.0040 -0.0294 -0.0342
v  0.0315 -0.0380 -0.0142
v  0.0352 -0.0367 -0.0100
v  0.0170 -0.0397 -0.0217
v  0.0295 -0.0401 -0.0111
v  0.0122 -0.0269 -0.0370
v  -0.0096 -0.0445 -0.0068
v  0.0409 0.0246 0.0014
v  0.0420 0.0199 -0.0019
v  0.0432 0.0205 0.0055
v  0.0409 0.0224 0.0058
v  0.0423 0.0242 0.0022
v  0.0432 0.0216 0.0003
v  0.0439 0.0222 0.0042
v  0.0422 0.0236 0.0053
# 171 vertices

vn -0.1549 0.5855 0.7957
vn 0.0945 0.5454 0.8328
vn 0.1202 0.8111 0.5724
vn 0.3341 0.6240 0.7064
vn 0.3171 0.2964 0.9009
vn 0.6606 0.4070 0.6309
vn -0.0962 0.3562 0.9294
vn -0.3706 0.3148 0.8738
vn -0.0434 0.0253 0.9988
vn 0.1108 0.9908 0.0785
vn 0.2740 0.8969 0.3472
vn -0.1882 0.9111 0.3667
vn 0.6028 0.6358 0.4821
vn 0.7102 0.6799 0.1823
vn 0.4843 0.8733 0.0533
vn -0.2152 0.9719 -0.0954
vn 0.1378 0.9622 -0.2349
vn 0.7558 0.6492 -0.0855
vn 0.3825 0.8634 -0.3292
vn 0.6689 0.6660 -0.3301
vn -0.2243 0.7714 0.5957
vn -0.0524 0.7646 0.6423
vn -0.4574 0.5726 0.6803
vn -0.5428 0.7475 0.3827
vn -0.4978 0.8667 0.0310
vn -0.6468 0.3759 0.6636
vn -0.7557 0.5808 0.3028
vn 0.8022 0.3364 0.4931
vn 0.6446 0.1597 0.7476
vn 0.3526 -0.0754 0.9327
vn 0.5157 -0.2164 0.8290
vn 0.7340 0.0408 0.6780
vn 0.8305 0.4844 0.2751
vn 0.8248 0.5652 0.0149
vn 0.7924 0.5749 -0.2042
vn 0.5481 0.8266 -0.1280
vn 0.8443 0.4872 -0.2233
vn 0.8255 0.4374 -0.3569
vn 0.8633 0.4472 -0.2341
vn 0.8589 0.3279 0.3932
vn 0.6605 0.5677 0.4914
vn 0.8128 0.4630 0.3535
vn 0.8617 -0.0531 0.5045
vn 0.8367 0.5425 0.0741
vn 0.9139 0.2273 0.3364
vn 0.7903 -0.4800 0.3808
vn 0.9671 -0.1302 0.2184
vn 0.7095 -0.2267 0.6673
vn 0.8515 -0.4762 0.2194
vn 0.9687 -0.2301 -0.0935
vn 0.9936 0.1125 -0.0033
vn 0.9192 0.3583 -0.1631
vn 0.9240 0.3672 0.1059
vn 0.9773 0.2063 0.0484
vn 0.9443 0.2536 -0.2102
vn 0.9435 0.0691 -0.3239
vn 0.8152 -0.5792 0.0036
vn 0.7556 -0.5641 -0.3332
vn 0.8632 -0.2520 -0.4374
vn -0.3537 -0.0409 0.9345
vn -0.4973 -0.3636 0.7876
vn -0.1277 -0.3640 0.9226
vn 0.1544 -0.3383 0.9283
vn -0.1795 -0.6243 0.7602
vn 0.0247 -0.5894 0.8074
vn -0.6041 0.0180 0.7967
vn -0.8322 -0.0474 0.5525
vn -0.9024 0.2161 0.3729
vn -0.9717 0.2314 -0.0472
vn -0.9213 0.0953 0.3771
vn -0.9150 -0.0632 0.3983
vn -0.8885 -0.2038 0.4112
vn -0.8950 -0.3741 0.2428
vn -0.6439 -0.5561 0.5254
vn -0.3791 -0.6986 0.6068
vn -0.7360 -0.4476 0.5078
vn -0.6477 -0.7111 0.2736
vn -0.8626 -0.4858 0.1420
vn -0.3477 -0.8288 0.4384
vn 0.2955 -0.4876 0.8216
vn 0.5152 -0.4415 0.7346
vn 0.1377 -0.6912 0.7095
vn 0.3361 -0.7304 0.5946
vn 0.0525 -0.9284 0.3678
vn 0.5863 -0.6777 0.4439
vn 0.6515 -0.4921 0.5774
vn 0.6470 -0.7233 0.2413
vn 0.3740 -0.8559 0.3572
vn 0.6556 -0.7519 0.0709
vn 0.3341 -0.9307 0.1490
vn 0.5923 -0.8016 -0.0823
vn 0.5124 -0.8575 0.0486
vn 0.6748 -0.6949 -0.2484
vn 0.3986 -0.9156 -0.0534
vn -0.0739 -0.7831 0.6175
vn -0.0938 -0.9117 0.3999
vn -0.2290 -0.9686 0.0966
vn 0.0055 -0.9993 0.0364
vn 0.1606 -0.9809 -0.1093
vn -0.0802 0.8715 -0.4839
vn 0.3253 0.7507 -0.5750
vn -0.2782 0.6703 -0.6880
vn -0.0535 0.5946 -0.8023
vn 0.3762 0.5972 -0.7084
vn -0.7434 0.6218 -0.2465
vn -0.4362 0.8128 -0.3863
vn -0.7133 0.1912 -0.6742
vn -0.5358 0.5779 -0.6155
vn -0.8293 0.3571 -0.4298
vn -0.4239 0.3283 -0.8441
vn -0.2725 0.2004 -0.9410
vn 0.1154 0.3728 -0.9207
vn 0.6730 0.5113 -0.5345
vn 0.5108 0.2724 -0.8153
vn 0.7390 0.2422 -0.6286
vn 0.8571 0.1714 -0.4857
vn 0.6526 -0.1393 -0.7448
vn 0.6020 -0.5058 -0.6179
vn 0.4793 -0.0489 -0.8763
vn 0.3161 -0.5570 -0.7679
vn 0.1770 0.0509 -0.9828
vn -0.2019 -0.0527 -0.9780
vn 0.2119 -0.2086 -0.9548
vn -0.0606 -0.3204 -0.9453
vn -0.8540 0.5059 0.1225
vn -0.9846 0.0389 -0.1703
vn -0.7591 0.6451 -0.0871
vn -0.8519 0.3511 0.3886
vn -0.9017 0.3069 -0.3047
vn -0.9619 0.1941 -0.1926
vn -0.9887 -0.0537 0.1403
vn -0.7999 0.2471 -0.5468
vn -0.8159 0.2361 -0.5277
vn -0.7826 -0.0852 -0.6167
vn -0.7501 -0.2077 -0.6277
vn -0.5642 -0.2770 -0.7778
vn -0.9068 -0.2564 -0.3348
vn -0.8869 -0.4505 0.1024
vn -0.7007 -0.6161 -0.3597
vn -0.4626 -0.6567 -0.5956
vn -0.9124 -0.2545 -0.3205
vn -0.8424 -0.5067 -0.1833
vn -0.6564 -0.7528 -0.0488
vn -0.5555 -0.8221 -0.1237
vn -0.8837 -0.4677 -0.0100
vn -0.9223 -0.1870 -0.3380
vn -0.5399 -0.6741 -0.5041
vn -0.7762 -0.4512 -0.4406
vn -0.3043 -0.8032 -0.5121
vn -0.8216 -0.2039 -0.5322
vn -0.5917 -0.1578 -0.7906
vn -0.2677 -0.3194 -0.9090
vn -0.4209 -0.4586 -0.7827
vn 0.0253 -0.7831 -0.6214
vn 0.0051 -0.9595 -0.2815
vn -0.1114 -0.8713 -0.4780
vn -0.1466 -0.5955 -0.7899
vn 0.4689 -0.7879 -0.3992
vn 0.6118 -0.7608 -0.2165
vn 0.1947 -0.8570 -0.4773
vn 0.3698 -0.8978 -0.2392
vn 0.0608 -0.5377 -0.8410
vn -0.1945 -0.9671 -0.1640
vn -0.0070 0.9639 -0.2662
vn 0.7260 0.1542 -0.6701
vn 0.7666 -0.1264 0.6296
vn -0.0143 0.5469 0.8371
vn 0.5443 0.8181 -0.1858
vn 0.8713 0.1355 -0.4717
vn 0.9483 0.1810 0.2607
vn 0.2014 0.6767 0.7081
# 171 vertex normals

vt 0.5499 0.4300 0.0000
vt 0.4999 0.4105 0.0000
vt 0.5362 0.3506 0.0000
vt 0.4880 0.3583 0.0000
vt 0.4472 0.4283 0.0000
vt 0.4088 0.3631 0.0000
vt 0.5225 0.4623 0.0000
vt 0.5840 0.5007 0.0000
vt 0.4876 0.5123 0.0000
vt 0.5857 0.2970 0.0000
vt 0.5357 0.3106 0.0000
vt 0.6032 0.3750 0.0000
vt 0.4589 0.3076 0.0000
vt 0.4719 0.2609 0.0000
vt 0.5224 0.2761 0.0000
vt 0.6433 0.3433 0.0000
vt 0.6135 0.2608 0.0000
vt 0.4860 0.2207 0.0000
vt 0.5965 0.2293 0.0000
vt 0.5542 0.1787 0.0000
vt 0.5876 0.3962 0.0000
vt 0.5976 0.3696 0.0000
vt 0.6227 0.4792 0.0000
vt 0.6844 0.4414 0.0000
vt 0.6944 0.3982 0.0000
vt 0.6425 0.5255 0.0000
vt 0.7025 0.4974 0.0000
vt 0.3150 0.3632 0.0000
vt 0.3557 0.4194 0.0000
vt 0.3940 0.4910 0.0000
vt 0.3380 0.4956 0.0000
vt 0.3025 0.4371 0.0000
vt 0.3989 0.2593 0.0000
vt 0.4445 0.2128 0.0000
vt 0.4967 0.1418 0.0000
vt 0.4041 0.1866 0.0000
vt 0.4274 0.1263 0.0000
vt 0.0520 0.4353 0.0000
vt 0.1555 0.3423 0.0000
vt 0.1181 0.4062 0.0000
vt 0.2429 0.3159 0.0000
vt 0.3268 0.2459 0.0000
vt 0.2261 0.3659 0.0000
vt 0.2437 0.4568 0.0000
vt 0.1717 0.3709 0.0000
vt 0.2143 0.4215 0.0000
vt 0.2436 0.5301 0.0000
vt 0.1943 0.4832 0.0000
vt 0.2790 0.4867 0.0000
vt 0.2128 0.5336 0.0000
vt 0.1636 0.5206 0.0000
vt 0.1571 0.4619 0.0000
vt 0.1465 0.4347 0.0000
vt 0.1776 0.4101 0.0000
vt 0.1693 0.4382 0.0000
vt 0.1344 0.4686 0.0000
vt 0.1212 0.5020 0.0000
vt 0.1950 0.5608 0.0000
vt 0.1618 0.5977 0.0000
vt 0.1390 0.5738 0.0000
vt 0.5518 0.5640 0.0000
vt 0.5629 0.6353 0.0000
vt 0.4762 0.5818 0.0000
vt 0.4155 0.5414 0.0000
vt 0.4702 0.6407 0.0000
vt 0.4199 0.6010 0.0000
vt 0.6141 0.5966 0.0000
vt 0.6496 0.6128 0.0000
vt 0.7025 0.5631 0.0000
vt 0.7625 0.5237 0.0000
vt 0.7071 0.6058 0.0000
vt 0.7094 0.6443 0.0000
vt 0.6638 0.6521 0.0000
vt 0.6092 0.7000 0.0000
vt 0.6375 0.7166 0.0000
vt 0.5034 0.6917 0.0000
vt 0.5959 0.6786 0.0000
vt 0.5231 0.7578 0.0000
vt 0.5985 0.7501 0.0000
vt 0.4797 0.7234 0.0000
vt 0.3625 0.5515 0.0000
vt 0.3090 0.5268 0.0000
vt 0.3805 0.6023 0.0000
vt 0.3213 0.5928 0.0000
vt 0.3557 0.6767 0.0000
vt 0.2676 0.5626 0.0000
vt 0.2787 0.5318 0.0000
vt 0.2374 0.5747 0.0000
vt 0.2961 0.6199 0.0000
vt 0.2160 0.5881 0.0000
vt 0.2788 0.6413 0.0000
vt 0.2160 0.6251 0.0000
vt 0.2265 0.6321 0.0000
vt 0.1924 0.6104 0.0000
vt 0.2321 0.6446 0.0000
vt 0.4204 0.6554 0.0000
vt 0.4048 0.6961 0.0000
vt 0.4265 0.7462 0.0000
vt 0.3282 0.7367 0.0000
vt 0.2779 0.6973 0.0000
vt 0.6805 0.2803 0.0000
vt 0.6353 0.2022 0.0000
vt 0.7686 0.2896 0.0000
vt 0.7440 0.2281 0.0000
vt 0.6664 0.1581 0.0000
vt 0.7708 0.4438 0.0000
vt 0.7511 0.3652 0.0000
vt 0.8921 0.4000 0.0000
vt 0.8024 0.3516 0.0000
vt 0.8184 0.4577 0.0000
vt 0.8423 0.3074 0.0000
vt 0.8449 0.2304 0.0000
vt 0.7535 0.1460 0.0000
vt 0.5329 0.0648 0.0000
vt 0.5993 0.0971 0.0000
vt 0.6999 0.0682 0.0000
vt 0.6300 0.0242 0.0000
vt 0.0856 0.5191 0.0000
vt 0.0143 0.5568 0.0000
vt 0.0735 0.6321 0.0000
vt 0.1322 0.6452 0.0000
vt 0.0312 0.6982 0.0000
vt 0.7342 0.0085 0.0000
vt 0.1475 0.7487 0.0000
vt 0.7953 0.0971 0.0000
vt 0.8718 0.1765 0.0000
vt 0.8251 0.0482 0.0000
vt 0.8964 0.0945 0.0000
vt 0.0834 0.8237 0.0000
vt 0.7622 0.5725 0.0000
vt 0.7517 0.5566 0.0000
vt 0.7922 0.5593 0.0000
vt 0.7548 0.6087 0.0000
vt 0.8287 0.5007 0.0000
vt 0.8110 0.5923 0.0000
vt 0.7543 0.6615 0.0000
vt 0.8775 0.4798 0.0000
vt 0.8640 0.5289 0.0000
vt 0.9203 0.4704 0.0000
vt 0.9127 0.5637 0.0000
vt 0.9439 0.5128 0.0000
vt 0.8812 0.6103 0.0000
vt 0.7128 0.7975 0.0000
vt 0.6604 0.7383 0.0000
vt 0.6474 0.8131 0.0000
vt 0.6669 0.8877 0.0000
vt 0.6244 0.8587 0.0000
vt 0.6994 0.8442 0.0000
vt 0.5930 0.9025 0.0000
vt 0.5851 0.8091 0.0000
vt 0.6183 0.7852 0.0000
vt 0.4855 0.7992 0.0000
vt 0.5457 0.7896 0.0000
vt 0.5410 0.8993 0.0000
vt 0.4476 0.8715 0.0000
vt 0.4900 0.8833 0.0000
vt 0.3885 0.8576 0.0000
vt 0.9589 0.4296 0.0000
vt 0.9694 0.3155 0.0000
vt 0.9519 0.1843 0.0000
vt 0.5488 0.9777 0.0000
vt 0.9935 0.4923 0.0000
vt 0.4656 0.9939 0.0000
vt 0.3951 0.9245 0.0000
vt 0.3098 0.9603 0.0000
vt 0.2336 0.7926 0.0000
vt 0.3033 0.7553 0.0000
vt 0.3233 0.8112 0.0000
vt 0.2750 0.8681 0.0000
vt 0.2164 0.6543 0.0000
vt 0.2095 0.6286 0.0000
vt 0.2283 0.7377 0.0000
vt 0.2255 0.6563 0.0000
vt 0.1826 0.8103 0.0000
vt 0.3779 0.7684 0.0000
vt 0.1756 0.8965 0.0000
vt 0.3745 0.1773 0.0000
vt 0.3914 0.1487 0.0000
vt 0.2356 0.2786 0.0000
vt 0.2520 0.2631 0.0000
vt 0.3494 0.1901 0.0000
vt 0.1935 0.2969 0.0000
vt 0.3682 0.1731 0.0000
vt 0.3737 0.1568 0.0000
vt 0.2277 0.2706 0.0000
vt 0.2397 0.2607 0.0000
vt 0.3530 0.1779 0.0000
vt 0.2066 0.2808 0.0000
vt 0.3541 0.1647 0.0000
# 189 texture coords

g Turnip_03
usemtl _Turnip_03default
s 1
f 1/1/1 2/2/2 3/3/3 
f 4/4/4 3/3/3 2/2/2 
f 4/4/4 2/2/2 5/5/5 
f 6/6/6 4/4/4 5/5/5 
f 7/7/7 5/5/5 2/2/2 
f 7/7/7 1/1/1 8/8/8 
f 7/7/7 2/2/2 1/1/1 
f 9/9/9 5/5/5 7/7/7 
f 10/10/10 3/3/3 11/11/11 
f 10/10/10 12/12/12 3/3/3 
f 11/11/11 3/3/3 13/13/13 
f 4/4/4 13/13/13 3/3/3 
f 13/13/13 14/14/14 11/11/11 
f 11/11/11 14/14/14 15/15/15 
f 12/12/12 10/10/10 16/16/16 
f 15/15/15 17/17/17 10/10/10 
f 15/15/15 18/18/18 19/19/19 
f 15/15/15 19/19/19 17/17/17 
f 10/10/10 11/11/11 15/15/15 
f 20/20/20 19/19/19 18/18/18 
f 15/15/15 14/14/14 18/18/18 
f 12/12/12 21/21/21 22/22/22 
f 1/1/1 21/21/21 23/23/23 
f 24/24/24 23/23/23 21/21/21 
f 8/8/8 1/1/1 23/23/23 
f 25/25/25 24/24/24 12/12/12 
f 12/12/12 16/16/16 25/25/25 
f 12/12/12 24/24/24 21/21/21 
f 23/23/23 24/24/24 26/26/26 
f 27/27/27 24/24/24 25/25/25 
f 26/26/26 24/24/24 27/27/27 
f 3/3/3 21/21/21 1/1/1 
f 12/12/12 22/22/22 3/3/3 
f 3/3/3 22/22/22 21/21/21 
f 4/4/4 6/6/6 13/13/13 
f 28/28/28 6/6/6 29/29/29 
f 6/6/6 5/5/5 29/29/29 
f 29/29/29 5/5/5 30/30/30 
f 30/30/30 31/31/31 29/29/29 
f 31/31/31 32/32/32 29/29/29 
f 29/29/29 32/32/32 28/28/28 
f 14/14/14 13/13/13 33/33/33 
f 20/20/20 18/18/18 34/34/34 
f 35/35/35 20/20/20 34/34/34 
f 14/14/14 33/33/33 18/18/18 
f 35/35/35 34/34/34 36/36/36 
f 36/36/36 37/37/37 35/35/35 
f 38/38/38 37/39/37 39/40/39 
f 33/33/33 6/6/6 28/28/28 
f 33/33/33 13/13/13 6/6/6 
f 28/28/28 40/41/40 41/42/41 
f 40/41/40 28/28/28 42/43/42 
f 41/42/41 33/33/33 28/28/28 
f 28/28/28 32/32/32 43/44/43 
f 44/45/44 39/40/39 37/39/37 
f 42/43/42 28/28/28 45/46/45 
f 46/47/46 47/48/47 43/44/43 
f 48/49/48 43/44/43 32/32/32 
f 47/48/47 45/46/45 43/44/43 
f 45/46/45 28/28/28 43/44/43 
f 46/47/46 49/50/49 47/48/47 
f 50/51/50 51/52/51 47/48/47 
f 52/53/52 53/54/53 54/55/54 
f 55/56/55 51/52/51 56/57/56 
f 57/58/57 50/51/50 49/50/49 
f 49/50/49 50/51/50 47/48/47 
f 58/59/58 50/51/50 57/58/57 
f 58/59/58 59/60/59 50/51/50 
f 8/8/8 60/61/60 9/9/9 
f 8/8/8 9/9/9 7/7/7 
f 30/30/30 5/5/5 9/9/9 
f 61/62/61 62/63/62 60/61/60 
f 9/9/9 62/63/62 63/64/63 
f 62/63/62 64/65/64 65/66/65 
f 9/9/9 60/61/60 62/63/62 
f 66/67/66 8/8/8 26/26/26 
f 66/67/66 60/61/60 8/8/8 
f 26/26/26 67/68/67 66/67/66 
f 26/26/26 8/8/8 23/23/23 
f 26/26/26 27/27/27 68/69/68 
f 68/69/68 69/70/69 70/71/70 
f 68/69/68 67/68/67 26/26/26 
f 71/72/71 72/73/72 70/71/70 
f 72/73/72 67/68/67 68/69/68 
f 68/69/68 70/71/70 72/73/72 
f 72/73/72 73/74/73 67/68/67 
f 71/72/71 74/75/74 72/73/72 
f 67/68/67 61/62/61 66/67/66 
f 66/67/66 61/62/61 60/61/60 
f 62/63/62 61/62/61 64/65/64 
f 75/76/75 64/65/64 61/62/61 
f 67/68/67 73/74/73 76/77/76 
f 67/68/67 76/77/76 61/62/61 
f 77/78/77 76/77/76 73/74/73 
f 73/74/73 72/73/72 78/79/78 
f 76/77/76 75/76/75 61/62/61 
f 76/77/76 77/78/77 79/80/79 
f 79/80/79 75/76/75 76/77/76 
f 9/9/9 63/64/63 30/30/30 
f 31/31/31 30/30/30 63/64/63 
f 31/31/31 63/64/63 80/81/80 
f 31/31/31 81/82/81 32/32/32 
f 31/31/31 80/81/80 81/82/81 
f 48/49/48 32/32/32 81/82/81 
f 80/81/80 63/64/63 65/66/65 
f 65/66/65 82/83/82 80/81/80 
f 62/63/62 65/66/65 63/64/63 
f 81/82/81 80/81/80 82/83/82 
f 82/83/82 83/84/83 81/82/81 
f 83/84/83 82/83/82 84/85/84 
f 83/84/83 85/86/85 81/82/81 
f 86/87/86 81/82/81 85/86/85 
f 86/87/86 43/44/43 48/49/48 
f 46/47/46 43/44/43 86/87/86 
f 86/87/86 48/49/48 81/82/81 
f 85/86/85 46/47/46 86/87/86 
f 87/88/87 46/47/46 85/86/85 
f 83/84/83 88/89/88 85/86/85 
f 88/89/88 83/84/83 84/85/84 
f 87/88/87 85/86/85 88/89/88 
f 87/88/87 89/90/89 57/58/57 
f 87/88/87 49/50/49 46/47/46 
f 87/88/87 57/58/57 49/50/49 
f 90/91/90 89/90/89 87/88/87 
f 91/92/91 89/90/89 92/93/92 
f 57/58/57 89/90/89 93/94/93 
f 90/91/90 87/88/87 88/89/88 
f 90/91/90 94/95/94 92/93/92 
f 90/91/90 88/89/88 84/85/84 
f 90/91/90 92/93/92 89/90/89 
f 95/96/95 65/66/65 64/65/64 
f 64/65/64 75/76/75 95/96/95 
f 82/83/82 65/66/65 95/96/95 
f 84/85/84 82/83/82 95/96/95 
f 96/97/96 84/85/84 95/96/95 
f 95/96/95 75/76/75 96/97/96 
f 79/80/79 97/98/97 96/97/96 
f 79/80/79 96/97/96 75/76/75 
f 96/97/96 97/98/97 98/99/98 
f 96/97/96 98/99/98 84/85/84 
f 90/91/90 84/85/84 98/99/98 
f 99/100/99 90/91/90 98/99/98 
f 16/16/16 10/10/10 17/17/17 
f 100/101/100 16/16/16 17/17/17 
f 19/19/19 100/101/100 17/17/17 
f 101/102/101 19/19/19 20/20/20 
f 102/103/102 100/101/100 103/104/103 
f 103/104/103 100/101/100 101/102/101 
f 104/105/104 103/104/103 101/102/101 
f 101/102/101 100/101/100 19/19/19 
f 105/106/105 25/25/25 106/107/106 
f 106/107/106 25/25/25 16/16/16 
f 69/70/69 27/27/27 105/106/105 
f 105/106/105 27/27/27 25/25/25 
f 107/108/107 105/106/105 108/109/108 
f 109/110/109 69/70/69 105/106/105 
f 109/110/109 105/106/105 107/108/107 
f 108/109/108 105/106/105 106/107/106 
f 100/101/100 106/107/106 16/16/16 
f 108/109/108 106/107/106 102/103/102 
f 102/103/102 106/107/106 100/101/100 
f 102/103/102 110/111/110 108/109/108 
f 103/104/103 111/112/111 110/111/110 
f 103/104/103 112/113/112 111/112/111 
f 112/113/112 103/104/103 104/105/104 
f 110/111/110 102/103/102 103/104/103 
f 110/111/110 107/108/107 108/109/108 
f 38/114/38 35/35/35 37/37/37 
f 38/114/38 113/115/113 35/35/35 
f 113/115/113 20/20/20 35/35/35 
f 104/105/104 101/102/101 20/20/20 
f 104/105/104 20/20/20 113/115/113 
f 104/105/104 113/115/113 114/116/114 
f 114/116/114 112/113/112 104/105/104 
f 114/116/114 113/115/113 115/117/115 
f 38/114/38 115/117/115 113/115/113 
f 55/56/55 116/118/116 52/53/52 
f 56/57/56 116/118/116 55/56/55 
f 116/118/116 39/40/39 52/53/52 
f 116/118/116 38/38/38 39/40/39 
f 115/119/115 38/38/38 116/118/116 
f 117/120/117 116/118/116 59/60/59 
f 56/57/56 59/60/59 116/118/116 
f 118/121/118 59/60/59 58/59/58 
f 50/51/50 59/60/59 56/57/56 
f 117/120/117 59/60/59 118/121/118 
f 117/120/117 119/122/119 115/119/115 
f 115/119/115 116/118/116 117/120/117 
f 119/123/119 114/116/114 115/117/115 
f 119/122/119 117/120/117 120/124/120 
f 121/125/121 112/113/112 114/116/114 
f 121/125/121 122/126/122 111/112/111 
f 112/113/112 121/125/121 111/112/111 
f 114/116/114 119/123/119 123/127/123 
f 122/126/122 123/127/123 124/128/124 
f 122/126/122 121/125/121 123/127/123 
f 114/116/114 123/127/123 121/125/121 
f 119/122/119 120/124/120 123/129/123 
f 68/69/68 27/27/27 69/70/69 
f 125/130/125 70/71/70 126/131/126 
f 127/132/127 128/133/128 125/130/125 
f 129/134/129 126/131/126 69/70/69 
f 129/134/129 125/130/125 126/131/126 
f 126/131/126 70/71/70 69/70/69 
f 127/132/127 125/130/125 129/134/129 
f 128/133/128 130/135/130 131/136/131 
f 71/72/71 125/130/125 128/133/128 
f 71/72/71 128/133/128 131/136/131 
f 70/71/70 125/130/125 71/72/71 
f 71/72/71 131/136/131 74/75/74 
f 129/134/129 132/137/132 133/138/133 
f 129/134/129 69/70/69 109/110/109 
f 129/134/129 109/110/109 132/137/132 
f 107/108/107 132/137/132 109/110/109 
f 129/134/129 133/138/133 127/132/127 
f 132/137/132 134/139/134 133/138/133 
f 135/140/135 133/138/133 136/141/136 
f 133/138/133 137/142/137 130/135/130 
f 130/135/130 128/133/128 127/132/127 
f 130/135/130 127/132/127 133/138/133 
f 137/143/137 138/144/138 131/136/131 
f 131/136/131 130/135/130 137/142/137 
f 133/138/133 135/140/135 137/142/137 
f 139/145/139 136/146/136 140/147/140 
f 135/148/135 139/145/139 137/143/137 
f 133/138/133 134/139/134 136/141/136 
f 136/146/136 139/145/139 135/148/135 
f 136/146/136 141/149/141 140/147/140 
f 131/136/131 138/144/138 74/75/74 
f 78/79/78 72/73/72 74/75/74 
f 142/150/142 78/79/78 74/75/74 
f 74/75/74 138/144/138 143/151/143 
f 142/150/142 74/75/74 143/151/143 
f 78/79/78 77/78/77 73/74/73 
f 144/152/144 77/78/77 145/153/145 
f 78/79/78 145/153/145 77/78/77 
f 140/147/140 143/151/143 139/145/139 
f 143/151/143 140/147/140 142/150/142 
f 145/153/145 78/79/78 142/150/142 
f 137/143/137 139/145/139 138/144/138 
f 141/149/141 142/150/142 140/147/140 
f 146/154/146 142/150/142 141/149/141 
f 139/145/139 143/151/143 138/144/138 
f 146/154/146 145/153/145 142/150/142 
f 147/155/147 144/152/144 148/156/148 
f 146/154/146 148/156/148 145/153/145 
f 144/152/144 145/153/145 148/156/148 
f 147/155/147 149/157/149 144/152/144 
f 134/139/134 132/137/132 107/108/107 
f 134/139/134 107/108/107 150/158/150 
f 151/159/151 107/108/107 110/111/110 
f 150/158/150 107/108/107 151/159/151 
f 111/112/111 151/159/151 110/111/110 
f 151/159/151 122/126/122 152/160/152 
f 151/159/151 111/112/111 122/126/122 
f 146/154/146 141/149/141 150/161/150 
f 136/141/136 134/139/134 141/162/141 
f 151/163/151 146/154/146 150/161/150 
f 150/158/150 141/162/141 134/139/134 
f 148/156/148 151/163/151 153/164/153 
f 146/154/146 151/163/151 148/156/148 
f 153/164/153 151/163/151 152/165/152 
f 153/164/153 147/155/147 148/156/148 
f 154/166/154 155/167/155 156/168/156 
f 156/168/156 157/169/157 154/166/154 
f 118/121/118 93/94/93 158/170/158 
f 118/121/118 58/59/58 93/94/93 
f 93/94/93 58/59/58 57/58/57 
f 93/94/93 89/90/89 159/171/159 
f 159/171/159 89/90/89 91/92/91 
f 158/170/158 93/94/93 159/171/159 
f 160/172/160 161/173/161 99/100/99 
f 90/91/90 99/100/99 94/95/94 
f 158/170/158 161/173/161 160/172/160 
f 155/167/155 160/172/160 99/100/99 
f 155/167/155 99/100/99 98/99/98 
f 161/173/161 94/95/94 99/100/99 
f 118/121/118 158/170/158 120/124/120 
f 118/121/118 120/124/120 117/120/117 
f 120/124/120 158/170/158 160/172/160 
f 162/174/162 120/124/120 154/166/154 
f 160/172/160 154/166/154 120/124/120 
f 154/166/154 160/172/160 155/167/155 
f 97/98/97 79/80/79 77/78/77 
f 144/152/144 97/98/97 77/78/77 
f 155/167/155 98/99/98 163/175/163 
f 163/175/163 98/99/98 97/98/97 
f 149/157/149 97/98/97 144/152/144 
f 97/98/97 149/157/149 163/175/163 
f 156/168/156 163/175/163 149/157/149 
f 156/168/156 155/167/155 163/175/163 
f 149/157/149 157/169/157 156/168/156 
f 152/160/152 122/126/122 124/128/124 
f 162/174/162 124/176/124 123/129/123 
f 152/165/152 124/176/124 157/169/157 
f 123/129/123 120/124/120 162/174/162 
f 152/165/152 157/169/157 153/164/153 
f 147/155/147 153/164/153 149/157/149 
f 149/157/149 153/164/153 157/169/157 
f 154/166/154 157/169/157 162/174/162 
f 157/169/157 124/176/124 162/174/162 
f 41/42/41 36/36/36 34/34/34 33/33/33 
f 18/18/18 33/33/33 34/34/34 
f 40/41/40 42/43/42 44/45/44 37/39/37 
f 45/46/45 54/55/54 53/54/53 42/43/42 
f 44/45/44 53/54/53 52/53/52 39/40/39 
f 51/52/51 54/55/54 45/46/45 47/48/47 
f 51/52/51 55/56/55 52/53/52 54/55/54 
f 50/51/50 56/57/56 51/52/51 
f 42/43/42 53/54/53 44/45/44 
f 91/92/91 92/93/92 94/95/94 161/173/161 
f 159/171/159 91/92/91 161/173/161 158/170/158 
f 164/177/164 165/178/165 37/37/37 36/36/36 
f 166/179/166 167/180/167 41/42/41 40/41/40 
f 167/181/167 164/177/164 36/36/36 41/42/41 
f 165/182/165 166/179/166 40/41/40 37/39/37 
f 168/183/168 169/184/169 165/178/165 164/177/164 
f 170/185/170 171/186/171 167/180/167 166/179/166 
f 171/187/171 168/183/168 164/177/164 167/181/167 
f 169/188/169 170/185/170 166/179/166 165/182/165 
f 170/189/170 169/184/169 168/183/168 171/187/171 
# 17 polygons - 304 triangles

