# 3ds Max Wavefront OBJ Exporter v0.97b - (c)2007 guruware
# File Created: 25.05.2016 23:42:05

mtllib Clementine_01.mtl

#
# object Clementine_01
#

v  -0.0077 -0.0189 -0.0320
v  -0.0149 -0.0252 -0.0192
v  -0.0217 -0.0190 -0.0244
v  0.0026 -0.0077 -0.0366
v  0.0039 -0.0195 -0.0320
v  -0.0155 -0.0096 -0.0348
v  0.0252 -0.0237 -0.0161
v  0.0160 -0.0278 -0.0146
v  0.0155 -0.0232 -0.0249
v  0.0350 -0.0069 -0.0157
v  0.0347 -0.0168 -0.0022
v  0.0297 -0.0129 -0.0236
v  0.0168 -0.0133 -0.0322
v  -0.0001 -0.0268 -0.0219
v  -0.0078 -0.0263 -0.0124
v  0.0005 -0.0249 -0.0044
v  0.0180 -0.0287 -0.0003
v  -0.0026 -0.0295 0.0094
v  -0.0168 -0.0293 -0.0009
v  -0.0108 -0.0290 0.0095
v  -0.0179 -0.0245 0.0175
v  -0.0290 -0.0207 0.0070
v  -0.0261 -0.0227 -0.0121
v  -0.0298 -0.0118 -0.0216
v  -0.0246 -0.0022 -0.0287
v  -0.0353 -0.0010 -0.0156
v  -0.0311 0.0061 -0.0206
v  -0.0342 -0.0135 -0.0084
v  -0.0323 -0.0192 -0.0005
v  -0.0376 -0.0066 -0.0035
v  -0.0346 -0.0109 0.0083
v  -0.0278 -0.0144 0.0189
v  -0.0362 0.0059 -0.0028
v  -0.0365 0.0007 0.0072
v  -0.0325 0.0120 0.0090
v  -0.0292 0.0075 0.0160
v  -0.0302 -0.0012 0.0199
v  0.0020 -0.0282 0.0211
v  0.0101 -0.0297 0.0093
v  0.0205 -0.0256 0.0180
v  0.0122 -0.0212 0.0273
v  0.0296 -0.0231 -0.0018
v  0.0258 -0.0263 0.0038
v  0.0306 -0.0192 0.0111
v  0.0376 -0.0080 0.0022
v  0.0294 -0.0132 0.0213
v  0.0348 -0.0007 0.0136
v  0.0070 -0.0118 0.0346
v  0.0216 -0.0112 0.0293
v  0.0266 0.0051 0.0262
v  0.0295 -0.0032 0.0239
v  0.0084 -0.0017 0.0363
v  0.0186 0.0132 0.0285
v  -0.0010 -0.0212 0.0308
v  -0.0160 -0.0164 0.0283
v  -0.0250 -0.0064 0.0263
v  -0.0034 -0.0133 0.0352
v  -0.0144 -0.0060 0.0336
v  -0.0046 0.0012 0.0366
v  -0.0190 0.0042 0.0307
v  -0.0108 0.0171 0.0285
v  -0.0221 0.0112 0.0260
v  -0.0258 0.0116 0.0188
v  0.0008 0.0113 0.0347
v  -0.0054 0.0121 -0.0319
v  0.0056 0.0076 -0.0335
v  -0.0122 0.0011 -0.0362
v  0.0113 -0.0007 -0.0355
v  -0.0159 0.0106 -0.0306
v  0.0301 -0.0003 -0.0240
v  0.0239 0.0092 -0.0245
v  0.0334 0.0059 -0.0139
v  0.0110 0.0155 -0.0243
v  0.0008 0.0206 -0.0193
v  -0.0171 0.0215 -0.0207
v  0.0097 0.0199 -0.0169
v  0.0137 0.0243 -0.0108
v  0.0262 0.0177 -0.0119
v  0.0006 0.0211 -0.0037
v  -0.0247 0.0100 -0.0259
v  -0.0299 0.0151 -0.0136
v  -0.0310 0.0151 -0.0067
v  -0.0101 0.0254 -0.0127
v  -0.0220 0.0245 -0.0044
v  -0.0012 0.0215 0.0007
v  -0.0264 0.0208 0.0096
v  -0.0170 0.0250 0.0057
v  -0.0304 0.0173 0.0017
v  0.0372 0.0025 0.0032
v  0.0329 0.0130 0.0004
v  0.0312 0.0131 0.0120
v  0.0202 0.0232 0.0002
v  0.0136 0.0236 0.0081
v  0.0029 0.0202 -0.0002
v  0.0256 0.0202 0.0096
v  0.0171 0.0218 0.0191
v  0.0034 0.0206 0.0271
v  -0.0137 0.0242 0.0181
v  -0.0227 0.0178 0.0201
v  0.0013 0.0264 0.0133
v  -0.0285 0.0138 0.0131
v  -0.0000 0.0297 -0.0022
v  0.0009 0.0291 -0.0049
v  0.0025 0.0291 -0.0029
# 104 vertices

vn -0.1661 -0.6182 -0.7683
vn -0.2394 -0.9051 -0.3515
vn -0.5101 -0.6337 -0.5815
vn 0.0606 -0.1263 -0.9901
vn 0.0784 -0.6095 -0.7889
vn -0.3796 -0.2529 -0.8899
vn 0.5665 -0.7513 -0.3385
vn 0.1415 -0.9724 -0.1854
vn 0.2965 -0.7554 -0.5843
vn 0.9453 -0.0946 -0.3121
vn 0.8822 -0.4680 -0.0516
vn 0.7192 -0.3415 -0.6051
vn 0.4016 -0.3178 -0.8589
vn -0.0397 -0.9538 -0.2978
vn 0.0606 -0.9965 -0.0570
vn 0.0107 -0.9944 -0.1056
vn 0.1331 -0.9894 -0.0574
vn 0.0043 -0.9987 -0.0516
vn -0.2248 -0.9734 -0.0438
vn -0.1860 -0.9657 0.1810
vn -0.4300 -0.8022 0.4142
vn -0.6651 -0.7034 0.2509
vn -0.5905 -0.7623 -0.2650
vn -0.7684 -0.3386 -0.5431
vn -0.6539 0.0087 -0.7565
vn -0.9244 0.0339 -0.3800
vn -0.8097 0.2638 -0.5242
vn -0.8744 -0.4226 -0.2384
vn -0.7760 -0.6303 0.0247
vn -0.9877 -0.1485 -0.0482
vn -0.9027 -0.3026 0.3059
vn -0.7325 -0.4464 0.5140
vn -0.9549 0.2921 -0.0535
vn -0.9548 0.1001 0.2800
vn -0.8598 0.3894 0.3305
vn -0.8164 0.3008 0.4930
vn -0.8412 0.0583 0.5376
vn -0.0048 -0.9142 0.4053
vn 0.0713 -0.9974 0.0070
vn 0.4265 -0.8002 0.4217
vn 0.2902 -0.6419 0.7098
vn 0.6936 -0.7183 -0.0541
vn 0.5108 -0.8554 0.0861
vn 0.7907 -0.5416 0.2853
vn 0.9862 -0.1495 0.0706
vn 0.7628 -0.3675 0.5321
vn 0.9283 0.0620 0.3667
vn 0.2013 -0.3190 0.9261
vn 0.5046 -0.2931 0.8121
vn 0.6773 0.2443 0.6939
vn 0.7783 -0.0251 0.6274
vn 0.2335 0.0117 0.9723
vn 0.4581 0.4918 0.7405
vn -0.0573 -0.6734 0.7371
vn -0.4543 -0.5332 0.7137
vn -0.6941 -0.1545 0.7031
vn -0.1105 -0.3343 0.9360
vn -0.4158 -0.1395 0.8987
vn -0.1552 0.1027 0.9825
vn -0.5150 0.1909 0.8357
vn -0.2736 0.6001 0.7517
vn -0.6352 0.3709 0.6775
vn -0.8154 0.3383 0.4697
vn 0.0086 0.4166 0.9091
vn 0.0011 0.6113 -0.7914
vn 0.1721 0.4683 -0.8667
vn -0.2383 0.1714 -0.9560
vn 0.2806 0.1626 -0.9460
vn -0.3273 0.4930 -0.8061
vn 0.7269 0.1742 -0.6643
vn 0.5178 0.5309 -0.6709
vn 0.8785 0.3495 -0.3256
vn 0.2363 0.7504 -0.6173
vn 0.1611 0.9141 -0.3721
vn -0.2838 0.8064 -0.5189
vn -0.0547 0.9124 -0.4056
vn 0.0361 0.9646 -0.2611
vn 0.5947 0.7270 -0.3434
vn 0.0832 0.9522 -0.2939
vn -0.5940 0.4144 -0.6895
vn -0.7569 0.5765 -0.3077
vn -0.8126 0.5716 -0.1138
vn 0.0799 0.9861 -0.1458
vn -0.3667 0.9268 -0.0817
vn 0.0447 0.9990 -0.0062
vn -0.6309 0.7358 0.2461
vn -0.1288 0.9917 -0.0021
vn -0.7957 0.6057 0.0069
vn 0.9805 0.1910 0.0450
vn 0.8270 0.5603 -0.0457
vn 0.8046 0.4996 0.3210
vn 0.3107 0.9503 -0.0201
vn 0.1242 0.9916 -0.0365
vn -0.0094 0.9575 0.2884
vn 0.5632 0.8084 0.1711
vn 0.3843 0.8438 0.3747
vn 0.0812 0.7831 0.6166
vn -0.2470 0.8952 0.3711
vn -0.6220 0.5811 0.5248
vn 0.0697 0.9974 0.0186
vn -0.7749 0.3909 0.4968
vn -0.5423 0.7517 0.3753
vn -0.0928 0.4319 -0.8972
vn 0.8346 0.5357 0.1279
# 104 vertex normals

vt 0.1707 0.8945 0.0000
vt 0.1321 0.7974 0.0000
vt 0.1914 0.8099 0.0000
vt 0.2417 0.9839 0.0000
vt 0.1377 0.9478 0.0000
vt 0.2420 0.8850 0.0000
vt 0.6517 0.1826 0.0000
vt 0.6038 0.1611 0.0000
vt 0.6566 0.1089 0.0000
vt 0.7350 0.2264 0.0000
vt 0.6581 0.2810 0.0000
vt 0.7248 0.1749 0.0000
vt 0.7362 0.0945 0.0000
vt 0.6818 0.0275 0.0000
vt 0.5749 0.0596 0.0000
vt 0.0736 0.8582 0.0000
vt 0.0792 0.7720 0.0000
vt 0.4885 0.1663 0.0000
vt 0.5627 0.2427 0.0000
vt 0.0356 0.5991 0.0000
vt 0.1008 0.6800 0.0000
vt 0.0125 0.7311 0.0000
vt 0.7919 0.0201 0.0000
vt 0.0859 0.6019 0.0000
vt 0.1473 0.5691 0.0000
vt 0.1858 0.6414 0.0000
vt 0.1675 0.7384 0.0000
vt 0.2368 0.7810 0.0000
vt 0.2834 0.8328 0.0000
vt 0.2905 0.7481 0.0000
vt 0.3251 0.7722 0.0000
vt 0.2256 0.7106 0.0000
vt 0.1956 0.6753 0.0000
vt 0.2623 0.6940 0.0000
vt 0.2427 0.6370 0.0000
vt 0.2221 0.5787 0.0000
vt 0.3220 0.6864 0.0000
vt 0.2988 0.6432 0.0000
vt 0.3580 0.6282 0.0000
vt 0.3391 0.5871 0.0000
vt 0.2940 0.5745 0.0000
vt 0.4377 0.3514 0.0000
vt 0.4319 0.2584 0.0000
vt 0.5012 0.2816 0.0000
vt 0.5439 0.3584 0.0000
vt 0.5132 0.4337 0.0000
vt 0.6232 0.2643 0.0000
vt 0.5885 0.2825 0.0000
vt 0.6117 0.3412 0.0000
vt 0.6900 0.3105 0.0000
vt 0.6191 0.4049 0.0000
vt 0.7008 0.3790 0.0000
vt 0.5508 0.5309 0.0000
vt 0.6000 0.4595 0.0000
vt 0.7047 0.4657 0.0000
vt 0.6671 0.4343 0.0000
vt 0.6328 0.5691 0.0000
vt 0.7470 0.5112 0.0000
vt 0.0667 0.4863 0.0000
vt 0.1474 0.4388 0.0000
vt 0.2023 0.5037 0.0000
vt 0.2677 0.5387 0.0000
vt 0.0986 0.3810 0.0000
vt 0.2114 0.4217 0.0000
vt 0.2663 0.4711 0.0000
vt 0.3106 0.4140 0.0000
vt 0.3277 0.4961 0.0000
vt 0.4182 0.4823 0.0000
vt 0.3662 0.5248 0.0000
vt 0.3634 0.5690 0.0000
vt 0.2025 0.3641 0.0000
vt 0.2930 0.3423 0.0000
vt 0.3954 0.3995 0.0000
vt 0.7377 0.6187 0.0000
vt 0.3972 0.9028 0.0000
vt 0.3877 0.9788 0.0000
vt 0.3094 0.9036 0.0000
vt 0.8962 0.0899 0.0000
vt 0.8263 0.0831 0.0000
vt 0.3624 0.8563 0.0000
vt 0.7880 0.1974 0.0000
vt 0.8504 0.2003 0.0000
vt 0.7967 0.2568 0.0000
vt 0.9370 0.2012 0.0000
vt 0.4995 0.8573 0.0000
vt 0.4276 0.7974 0.0000
vt 0.4972 0.9426 0.0000
vt 0.9609 0.2761 0.0000
vt 0.9318 0.3122 0.0000
vt 0.8591 0.2911 0.0000
vt 0.9906 0.3913 0.0000
vt 0.5642 0.7684 0.0000
vt 0.5439 0.8845 0.0000
vt 0.3477 0.8087 0.0000
vt 0.3776 0.7396 0.0000
vt 0.3755 0.7081 0.0000
vt 0.4851 0.7671 0.0000
vt 0.4465 0.6995 0.0000
vt 0.5671 0.6876 0.0000
vt 0.4120 0.6231 0.0000
vt 0.4690 0.6415 0.0000
vt 0.3889 0.6646 0.0000
vt 0.7334 0.3305 0.0000
vt 0.7936 0.3402 0.0000
vt 0.7742 0.3981 0.0000
vt 0.8778 0.3730 0.0000
vt 0.8872 0.4367 0.0000
vt 0.9688 0.4268 0.0000
vt 0.8224 0.4088 0.0000
vt 0.8235 0.4820 0.0000
vt 0.5008 0.4506 0.0000
vt 0.4620 0.5589 0.0000
vt 0.4003 0.5606 0.0000
vt 0.5582 0.5757 0.0000
vt 0.5941 0.6722 0.0000
vt 0.9186 0.5171 0.0000
vt 0.8240 0.5781 0.0000
vt 0.3718 0.6050 0.0000
vt 0.6134 0.6912 0.0000
vt 0.6187 0.6439 0.0000
vt 0.6974 0.6777 0.0000
vt 0.6906 0.7052 0.0000
vt 0.5935 0.7284 0.0000
vt 0.6842 0.7293 0.0000
vt 0.6331 0.6028 0.0000
vt 0.7078 0.6541 0.0000
vt 0.7143 0.6972 0.0000
# 127 texture coords

g Clementine_01
usemtl _Clementine_01default
s 1
f 1/1/1 2/2/2 3/3/3 
f 4/4/4 5/5/5 1/1/1 
f 3/3/3 6/6/6 1/1/1 
f 4/4/4 1/1/1 6/6/6 
f 7/7/7 8/8/8 9/9/9 
f 10/10/10 11/11/11 12/12/12 
f 7/7/7 12/12/12 11/11/11 
f 13/13/13 12/12/12 9/9/9 
f 12/12/12 7/7/7 9/9/9 
f 5/14/5 9/9/9 14/15/14 
f 14/15/14 9/9/9 8/8/8 
f 5/5/5 14/16/14 1/1/1 
f 14/16/14 2/2/2 1/1/1 
f 14/16/14 15/17/15 2/2/2 
f 16/18/16 14/15/14 8/8/8 
f 8/8/8 17/19/17 16/18/16 
f 7/7/7 17/19/17 8/8/8 
f 18/20/18 19/21/19 16/22/16 
f 15/17/15 14/16/14 16/22/16 
f 19/21/19 15/17/15 16/22/16 
f 4/23/4 13/13/13 5/14/5 
f 13/13/13 9/9/9 5/14/5 
f 19/21/19 20/24/20 21/25/21 
f 21/25/21 22/26/22 19/21/19 
f 23/27/23 24/28/24 3/3/3 
f 6/6/6 24/28/24 25/29/25 
f 3/3/3 24/28/24 6/6/6 
f 24/28/24 26/30/26 25/29/25 
f 27/31/27 25/29/25 26/30/26 
f 19/21/19 2/2/2 15/17/15 
f 3/3/3 2/2/2 23/27/23 
f 19/21/19 23/27/23 2/2/2 
f 24/28/24 23/27/23 28/32/28 
f 29/33/29 23/27/23 19/21/19 
f 30/34/30 28/32/28 29/33/29 
f 23/27/23 29/33/29 28/32/28 
f 18/20/18 20/24/20 19/21/19 
f 31/35/31 29/33/29 22/26/22 
f 29/33/29 19/21/19 22/26/22 
f 26/30/26 24/28/24 28/32/28 
f 26/30/26 28/32/28 30/34/30 
f 31/35/31 30/34/30 29/33/29 
f 22/26/22 32/36/32 31/35/31 
f 33/37/33 26/30/26 30/34/30 
f 33/37/33 34/38/34 35/39/35 
f 34/38/34 30/34/30 31/35/31 
f 34/38/34 36/40/36 35/39/35 
f 34/38/34 33/37/33 30/34/30 
f 31/35/31 37/41/37 34/38/34 
f 38/42/38 18/43/18 39/44/39 
f 40/45/40 41/46/41 38/42/38 
f 40/45/40 38/42/38 39/44/39 
f 7/7/7 42/47/42 43/48/43 
f 11/11/11 44/49/44 42/47/42 
f 11/11/11 42/47/42 7/7/7 
f 45/50/45 11/11/11 10/10/10 
f 46/51/46 44/49/44 45/50/45 
f 45/50/45 44/49/44 11/11/11 
f 39/44/39 16/18/16 17/19/17 
f 17/19/17 40/45/40 39/44/39 
f 17/19/17 7/7/7 43/48/43 
f 16/18/16 39/44/39 18/43/18 
f 43/48/43 40/45/40 17/19/17 
f 43/48/43 42/47/42 44/49/44 
f 44/49/44 46/51/46 40/45/40 
f 44/49/44 40/45/40 43/48/43 
f 47/52/47 46/51/46 45/50/45 
f 48/53/48 41/46/41 49/54/49 
f 41/46/41 40/45/40 49/54/49 
f 46/51/46 49/54/49 40/45/40 
f 50/55/50 51/56/51 47/52/47 
f 51/56/51 49/54/49 46/51/46 
f 47/52/47 51/56/51 46/51/46 
f 51/56/51 50/55/50 49/54/49 
f 49/54/49 50/55/50 52/57/52 
f 53/58/53 52/57/52 50/55/50 
f 48/53/48 49/54/49 52/57/52 
f 20/24/20 18/20/18 38/59/38 
f 21/25/21 20/24/20 38/59/38 
f 54/60/54 21/25/21 38/59/38 
f 55/61/55 21/25/21 54/60/54 
f 21/25/21 55/61/55 32/36/32 
f 21/25/21 32/36/32 22/26/22 
f 56/62/56 32/36/32 55/61/55 
f 38/59/38 41/63/41 54/60/54 
f 57/64/57 58/65/58 55/61/55 
f 54/60/54 57/64/57 55/61/55 
f 58/65/58 56/62/56 55/61/55 
f 59/66/59 60/67/60 58/65/58 
f 60/67/60 59/66/59 61/68/61 
f 37/41/37 31/35/31 32/36/32 
f 37/41/37 32/36/32 56/62/56 
f 36/40/36 37/41/37 62/69/62 
f 36/40/36 34/38/34 37/41/37 
f 62/69/62 63/70/63 36/40/36 
f 60/67/60 37/41/37 56/62/56 
f 62/69/62 37/41/37 60/67/60 
f 58/65/58 60/67/60 56/62/56 
f 48/71/48 57/64/57 54/60/54 
f 48/71/48 59/66/59 57/64/57 
f 41/63/41 48/71/48 54/60/54 
f 59/66/59 48/71/48 52/72/52 
f 57/64/57 59/66/59 58/65/58 
f 64/73/64 59/66/59 52/72/52 
f 64/74/64 52/57/52 53/58/53 
f 65/75/65 66/76/66 67/77/67 
f 4/4/4 6/6/6 67/77/67 
f 66/76/66 4/4/4 67/77/67 
f 66/78/66 68/79/68 4/23/4 
f 65/75/65 67/77/67 69/80/69 
f 68/79/68 70/81/70 13/13/13 
f 68/79/68 71/82/71 70/81/70 
f 12/12/12 70/81/70 10/10/10 
f 70/81/70 12/12/12 13/13/13 
f 71/82/71 72/83/72 70/81/70 
f 66/78/66 71/82/71 68/79/68 
f 68/79/68 13/13/13 4/23/4 
f 73/84/73 71/82/71 66/78/66 
f 74/85/74 65/75/65 75/86/75 
f 65/75/65 73/87/73 66/76/66 
f 73/87/73 65/75/65 74/85/74 
f 76/88/76 77/89/77 73/84/73 
f 71/82/71 77/89/77 78/90/78 
f 71/82/71 73/84/73 77/89/77 
f 77/89/77 76/88/76 79/91/79 
f 79/92/79 76/93/76 74/85/74 
f 76/93/76 73/87/73 74/85/74 
f 80/94/80 25/29/25 27/31/27 
f 67/77/67 80/94/80 69/80/69 
f 25/29/25 67/77/67 6/6/6 
f 80/94/80 67/77/67 25/29/25 
f 81/95/81 26/30/26 33/37/33 
f 27/31/27 26/30/26 81/95/81 
f 81/95/81 80/94/80 27/31/27 
f 81/95/81 33/37/33 82/96/82 
f 69/80/69 80/94/80 75/86/75 
f 75/86/75 83/97/83 74/85/74 
f 75/86/75 65/75/65 69/80/69 
f 81/95/81 75/86/75 80/94/80 
f 75/86/75 84/98/84 83/97/83 
f 75/86/75 81/95/81 84/98/84 
f 81/95/81 82/96/82 84/98/84 
f 79/92/79 74/85/74 83/97/83 
f 79/92/79 83/97/83 85/99/85 
f 84/98/84 86/100/86 87/101/87 
f 85/99/85 83/97/83 84/98/84 
f 82/96/82 88/102/88 84/98/84 
f 84/98/84 87/101/87 85/99/85 
f 86/100/86 88/102/88 35/39/35 
f 88/102/88 82/96/82 33/37/33 
f 33/37/33 35/39/35 88/102/88 
f 84/98/84 88/102/88 86/100/86 
f 45/50/45 72/83/72 89/103/89 
f 90/104/90 89/103/89 72/83/72 
f 72/83/72 10/10/10 70/81/70 
f 72/83/72 45/50/45 10/10/10 
f 47/52/47 45/50/45 89/103/89 
f 71/82/71 78/90/78 72/83/72 
f 91/105/91 89/103/89 90/104/90 
f 92/106/92 90/104/90 78/90/78 
f 90/104/90 72/83/72 78/90/78 
f 92/106/92 78/90/78 77/89/77 
f 92/106/92 77/89/77 79/91/79 
f 93/107/93 79/91/79 94/108/94 
f 95/109/95 90/104/90 92/106/92 
f 95/109/95 91/105/91 90/104/90 
f 91/105/91 95/109/95 96/110/96 
f 93/107/93 95/109/95 92/106/92 
f 79/91/79 93/107/93 92/106/92 
f 93/107/93 96/110/96 95/109/95 
f 91/105/91 50/55/50 47/52/47 
f 89/103/89 91/105/91 47/52/47 
f 91/105/91 53/58/53 50/55/50 
f 91/105/91 96/110/96 53/58/53 
f 97/111/97 61/68/61 64/73/64 
f 98/112/98 99/113/99 61/68/61 
f 85/99/85 100/114/100 94/115/94 
f 86/100/86 98/112/98 87/101/87 
f 100/114/100 85/99/85 87/101/87 
f 87/101/87 98/112/98 100/114/100 
f 93/107/93 94/108/94 100/116/100 
f 93/107/93 100/116/100 96/110/96 
f 97/117/97 96/110/96 100/116/100 
f 98/112/98 97/111/97 100/114/100 
f 97/111/97 98/112/98 61/68/61 
f 98/112/98 86/100/86 99/113/99 
f 99/113/99 63/70/63 62/69/62 
f 99/113/99 101/118/101 63/70/63 
f 36/40/36 101/118/101 35/39/35 
f 101/118/101 99/113/99 86/100/86 
f 86/100/86 35/39/35 101/118/101 
f 36/40/36 63/70/63 101/118/101 
f 60/67/60 61/68/61 62/69/62 
f 99/113/99 62/69/62 61/68/61 
f 53/58/53 96/110/96 97/117/97 
f 97/117/97 64/74/64 53/58/53 
f 59/66/59 64/73/64 61/68/61 
f 79/119/79 85/120/85 102/121/102 103/122/103 
f 94/123/94 79/119/79 103/122/103 104/124/104 
f 85/120/85 94/125/94 104/126/104 102/121/102 
f 102/121/102 104/127/104 103/122/103 
# 3 polygons - 198 triangles

