# 3ds Max Wavefront OBJ Exporter v0.97b - (c)2007 guruware
# File Created: 26.05.2016 01:13:12

mtllib Mango_02.mtl

#
# object Mango_02
#

v  0.0295 -0.0129 -0.0383
v  0.0108 0.0005 -0.0446
v  0.0336 -0.0022 -0.0368
v  0.0085 -0.0106 -0.0437
v  0.0002 -0.0204 -0.0402
v  0.0189 0.0104 -0.0392
v  -0.0089 -0.0015 -0.0476
v  -0.0189 -0.0161 -0.0433
v  -0.0045 0.0140 -0.0445
v  0.0037 0.0228 -0.0377
v  0.0203 0.0174 -0.0346
v  0.0286 -0.0317 -0.0217
v  0.0306 -0.0223 -0.0323
v  0.0440 -0.0240 -0.0203
v  0.0334 -0.0358 -0.0065
v  0.0439 -0.0108 -0.0325
v  0.0512 0.0047 -0.0210
v  0.0517 -0.0116 -0.0244
v  0.0390 0.0087 -0.0291
v  0.0388 0.0213 -0.0194
v  0.0544 -0.0186 -0.0100
v  0.0592 -0.0068 -0.0113
v  0.0575 0.0062 -0.0079
v  0.0122 -0.0301 -0.0308
v  0.0002 -0.0382 -0.0215
v  -0.0097 -0.0385 -0.0218
v  -0.0042 -0.0315 -0.0315
v  0.0101 -0.0355 -0.0243
v  0.0181 -0.0376 -0.0147
v  0.0104 -0.0401 -0.0130
v  -0.0007 -0.0418 -0.0094
v  0.0153 0.0251 -0.0303
v  -0.0103 0.0278 -0.0343
v  -0.0010 0.0320 -0.0278
v  0.0508 0.0174 -0.0073
v  0.0270 0.0303 -0.0171
v  0.0374 0.0299 -0.0041
v  0.0256 0.0359 -0.0055
v  0.0137 0.0328 -0.0210
v  0.0147 0.0387 -0.0056
v  0.0013 0.0386 -0.0128
v  -0.0030 0.0364 -0.0207
v  0.0266 0.0361 0.0063
v  0.0021 0.0405 -0.0029
v  0.0111 0.0404 0.0046
v  0.0038 0.0403 0.0044
v  -0.0211 -0.0302 -0.0321
v  -0.0318 -0.0183 -0.0390
v  -0.0292 0.0001 -0.0442
v  -0.0234 0.0130 -0.0432
v  -0.0165 0.0201 -0.0401
v  -0.0394 0.0087 -0.0369
v  -0.0360 0.0216 -0.0318
v  -0.0486 -0.0154 -0.0289
v  -0.0360 -0.0239 -0.0325
v  -0.0467 -0.0015 -0.0337
v  -0.0532 0.0111 -0.0223
v  -0.0459 0.0226 -0.0222
v  -0.0166 -0.0384 -0.0197
v  -0.0252 -0.0380 -0.0163
v  -0.0329 -0.0333 -0.0215
v  -0.0166 -0.0416 -0.0088
v  -0.0338 -0.0377 -0.0043
v  -0.0439 -0.0284 -0.0183
v  -0.0545 -0.0186 -0.0160
v  -0.0575 -0.0021 -0.0197
v  -0.0486 -0.0277 -0.0041
v  -0.0527 -0.0220 0.0085
v  -0.0596 -0.0114 -0.0044
v  -0.0604 -0.0042 -0.0108
v  -0.0572 0.0160 -0.0077
v  -0.0602 -0.0064 0.0063
v  -0.0599 0.0064 0.0025
v  -0.0560 0.0188 0.0085
v  -0.0169 0.0342 -0.0250
v  -0.0220 0.0278 -0.0324
v  -0.0284 0.0330 -0.0228
v  -0.0199 0.0378 -0.0173
v  -0.0141 0.0402 -0.0103
v  -0.0375 0.0294 -0.0215
v  -0.0323 0.0354 -0.0149
v  -0.0344 0.0374 -0.0042
v  -0.0251 0.0399 -0.0049
v  -0.0099 0.0411 -0.0034
v  -0.0163 0.0411 0.0002
v  -0.0017 0.0416 0.0079
v  -0.0104 0.0419 0.0065
v  -0.0209 0.0411 0.0040
v  -0.0291 0.0387 0.0069
v  -0.0384 0.0351 0.0065
v  -0.0439 0.0306 -0.0120
v  -0.0482 0.0300 -0.0019
v  -0.0461 0.0296 0.0111
v  0.0494 -0.0260 -0.0016
v  0.0389 -0.0311 0.0131
v  0.0525 -0.0171 0.0158
v  0.0287 -0.0381 0.0024
v  0.0402 -0.0328 0.0020
v  0.0242 -0.0370 0.0149
v  0.0582 -0.0137 0.0039
v  0.0604 -0.0026 0.0034
v  0.0544 -0.0028 0.0189
v  0.0543 0.0137 0.0092
v  0.0424 -0.0024 0.0328
v  0.0427 0.0133 0.0285
v  0.0415 -0.0234 0.0227
v  0.0177 -0.0407 0.0021
v  0.0064 -0.0417 0.0051
v  -0.0073 -0.0417 0.0082
v  0.0155 -0.0391 0.0137
v  0.0087 -0.0336 0.0271
v  0.0232 -0.0283 0.0294
v  0.0026 -0.0390 0.0177
v  0.0364 -0.0155 0.0334
v  0.0203 -0.0070 0.0441
v  0.0038 -0.0244 0.0389
v  -0.0092 -0.0267 0.0351
v  -0.0031 -0.0345 0.0261
v  0.0156 -0.0168 0.0420
v  0.0173 0.0043 0.0451
v  0.0289 0.0106 0.0391
v  0.0001 -0.0100 0.0471
v  -0.0051 0.0058 0.0476
v  0.0455 0.0245 0.0061
v  0.0411 0.0254 0.0176
v  0.0338 0.0323 0.0121
v  0.0288 0.0241 0.0315
v  0.0208 0.0367 0.0159
v  0.0101 0.0384 0.0204
v  0.0190 0.0315 0.0303
v  0.0001 0.0372 0.0265
v  0.0029 0.0276 0.0389
v  0.0129 0.0184 0.0423
v  -0.0177 -0.0392 0.0141
v  -0.0161 -0.0419 -0.0011
v  -0.0274 -0.0390 0.0067
v  -0.0253 -0.0405 0.0001
v  -0.0386 -0.0321 0.0139
v  -0.0398 -0.0342 0.0048
v  -0.0122 -0.0373 0.0200
v  -0.0253 -0.0340 0.0219
v  -0.0220 -0.0256 0.0328
v  -0.0445 -0.0181 0.0284
v  -0.0554 -0.0126 0.0203
v  -0.0400 -0.0269 0.0229
v  -0.0322 -0.0230 0.0318
v  -0.0563 0.0037 0.0182
v  -0.0585 0.0060 0.0215
v  -0.0546 0.0090 0.0220
v  -0.0438 0.0119 0.0336
v  -0.0529 0.0026 0.0258
v  -0.0466 -0.0063 0.0320
v  -0.0581 0.0028 0.0253
v  -0.0195 -0.0147 0.0424
v  -0.0371 -0.0088 0.0373
v  -0.0273 -0.0006 0.0430
v  -0.0158 -0.0000 0.0470
v  -0.0272 0.0137 0.0414
v  -0.0050 0.0408 0.0122
v  -0.0173 0.0381 0.0195
v  -0.0222 0.0387 0.0131
v  -0.0288 0.0359 0.0174
v  -0.0282 0.0321 0.0263
v  -0.0135 0.0361 0.0272
v  -0.0089 0.0322 0.0343
v  -0.0236 0.0289 0.0332
v  -0.0394 0.0243 0.0284
v  -0.0263 0.0205 0.0389
v  -0.0507 0.0225 0.0159
v  -0.0363 0.0321 0.0193
v  -0.0102 0.0190 0.0442
# 171 vertices

vn 0.3076 -0.2732 -0.9114
vn 0.2374 0.0808 -0.9681
vn 0.4313 0.1745 -0.8852
vn 0.1617 -0.2844 -0.9450
vn 0.0790 -0.5202 -0.8504
vn 0.3459 0.3595 -0.8667
vn -0.0057 -0.0398 -0.9992
vn -0.1131 -0.4057 -0.9070
vn 0.0712 0.3805 -0.9220
vn 0.1975 0.6185 -0.7606
vn 0.3859 0.5388 -0.7489
vn 0.3345 -0.8172 -0.4694
vn 0.3352 -0.6095 -0.7184
vn 0.5623 -0.6937 -0.4501
vn 0.3979 -0.8954 -0.1998
vn 0.5843 -0.1655 -0.7945
vn 0.7336 0.3435 -0.5864
vn 0.7752 -0.2357 -0.5861
vn 0.5279 0.4158 -0.7405
vn 0.5432 0.6437 -0.5391
vn 0.8013 -0.5526 -0.2292
vn 0.9526 -0.0800 -0.2936
vn 0.9038 0.3604 -0.2307
vn 0.1712 -0.6982 -0.6951
vn 0.0636 -0.9002 -0.4307
vn -0.0390 -0.9009 -0.4323
vn 0.0240 -0.7255 -0.6878
vn 0.1618 -0.8486 -0.5037
vn 0.2441 -0.9132 -0.3264
vn 0.1535 -0.9599 -0.2347
vn 0.0400 -0.9901 -0.1345
vn 0.3185 0.6964 -0.6431
vn -0.0076 0.7237 -0.6901
vn 0.1298 0.8133 -0.5672
vn 0.7458 0.6144 -0.2576
vn 0.3848 0.7928 -0.4727
vn 0.5480 0.8139 -0.1931
vn 0.3418 0.9146 -0.2163
vn 0.2458 0.8433 -0.4779
vn 0.2059 0.9544 -0.2160
vn 0.1198 0.9529 -0.2787
vn 0.0872 0.9051 -0.4162
vn 0.3602 0.9323 0.0322
vn 0.0832 0.9891 -0.1211
vn 0.1595 0.9872 0.0025
vn 0.0593 0.9871 -0.1487
vn -0.1542 -0.7366 -0.6585
vn -0.3594 -0.4135 -0.8366
vn -0.3451 0.0072 -0.9385
vn -0.2453 0.3693 -0.8963
vn -0.1205 0.5721 -0.8113
vn -0.5451 0.2953 -0.7847
vn -0.4558 0.5613 -0.6908
vn -0.6873 -0.3692 -0.6256
vn -0.4329 -0.6302 -0.6445
vn -0.6605 0.0112 -0.7507
vn -0.7922 0.3265 -0.5156
vn -0.6484 0.5618 -0.5138
vn -0.1582 -0.9080 -0.3879
vn -0.2582 -0.9140 -0.3131
vn -0.3668 -0.8327 -0.4148
vn -0.1124 -0.9833 -0.1431
vn -0.4109 -0.9079 -0.0827
vn -0.5789 -0.7420 -0.3382
vn -0.8205 -0.4931 -0.2892
vn -0.8966 -0.0018 -0.4429
vn -0.6966 -0.7159 -0.0463
vn -0.7746 -0.6068 0.1783
vn -0.9381 -0.3450 -0.0312
vn -0.9791 -0.0513 -0.1969
vn -0.8955 0.4022 -0.1908
vn -0.9771 -0.1435 0.1574
vn -0.9849 0.1555 0.0766
vn -0.8837 0.4349 0.1730
vn -0.0817 0.8501 -0.5202
vn -0.2175 0.7046 -0.6754
vn -0.2916 0.8103 -0.5083
vn -0.1287 0.9262 -0.3543
vn -0.0278 0.9765 -0.2136
vn -0.4449 0.7423 -0.5010
vn -0.3392 0.8820 -0.3272
vn -0.3713 0.9232 -0.0993
vn -0.1991 0.9713 -0.1297
vn 0.0139 0.9945 -0.1033
vn -0.0569 0.9950 -0.0825
vn 0.0681 0.9961 0.0568
vn -0.0225 0.9991 0.0352
vn -0.1562 0.9857 0.0636
vn -0.2950 0.9434 0.1515
vn -0.4352 0.8883 0.1469
vn -0.5844 0.7531 -0.3023
vn -0.6737 0.7361 -0.0652
vn -0.6081 0.7508 0.2580
vn 0.6873 -0.7260 -0.0205
vn 0.5045 -0.7958 0.3348
vn 0.7781 -0.4573 0.4306
vn 0.3112 -0.9490 0.0513
vn 0.5333 -0.8443 0.0525
vn 0.2845 -0.8913 0.3531
vn 0.9120 -0.3843 0.1433
vn 0.9887 0.0524 0.1407
vn 0.8551 0.0065 0.5184
vn 0.8585 0.4597 0.2274
vn 0.6397 -0.0372 0.7677
vn 0.6696 0.3740 0.6416
vn 0.5478 -0.6286 0.5521
vn 0.1700 -0.9854 0.0128
vn 0.0695 -0.9938 0.0870
vn -0.0338 -0.9852 0.1678
vn 0.1445 -0.9450 0.2935
vn 0.1062 -0.8257 0.5540
vn 0.3033 -0.7211 0.6229
vn 0.0369 -0.9311 0.3630
vn 0.5120 -0.4063 0.7569
vn 0.3280 -0.1523 0.9323
vn 0.0366 -0.6513 0.7579
vn -0.1289 -0.7132 0.6890
vn -0.0484 -0.8254 0.5624
vn 0.2381 -0.4727 0.8485
vn 0.2646 0.1094 0.9581
vn 0.4495 0.2552 0.8561
vn 0.0169 -0.2650 0.9641
vn 0.0046 0.1257 0.9921
vn 0.6828 0.7290 0.0488
vn 0.6232 0.6841 0.3789
vn 0.4841 0.8545 0.1886
vn 0.4610 0.5851 0.6672
vn 0.3078 0.9208 0.2397
vn 0.1668 0.9433 0.2871
vn 0.3115 0.7553 0.5767
vn 0.0439 0.9038 0.4257
vn 0.1000 0.6318 0.7687
vn 0.2286 0.4038 0.8858
vn -0.1550 -0.9390 0.3070
vn -0.0622 -0.9976 0.0293
vn -0.2819 -0.9362 0.2098
vn -0.2315 -0.9716 0.0483
vn -0.4842 -0.8139 0.3212
vn -0.5244 -0.8404 0.1370
vn -0.0947 -0.8758 0.4733
vn -0.2427 -0.8292 0.5034
vn -0.1982 -0.6983 0.6878
vn -0.5643 -0.4995 0.6573
vn -0.8410 -0.3350 0.4248
vn -0.4995 -0.7169 0.4863
vn -0.3390 -0.6070 0.7188
vn -0.9935 -0.0106 0.1133
vn -0.9123 0.3807 -0.1510
vn -0.7819 0.4365 0.4451
vn -0.5862 0.2538 0.7694
vn -0.7085 -0.0358 0.7048
vn -0.6156 -0.1397 0.7756
vn -0.6371 -0.4351 0.6362
vn -0.2392 -0.4251 0.8730
vn -0.4546 -0.2156 0.8642
vn -0.4167 -0.0308 0.9085
vn -0.2048 -0.0308 0.9783
vn -0.3652 0.2288 0.9024
vn -0.0021 0.9735 0.2285
vn -0.1617 0.9414 0.2962
vn -0.1915 0.9525 0.2370
vn -0.3022 0.8997 0.3149
vn -0.3323 0.8056 0.4904
vn -0.1501 0.8899 0.4308
vn -0.0896 0.7435 0.6627
vn -0.2817 0.6911 0.6656
vn -0.5316 0.6037 0.5940
vn -0.3320 0.4899 0.8061
vn -0.7233 0.5614 0.4022
vn -0.4411 0.8117 0.3827
vn -0.1011 0.4046 0.9089
# 171 vertex normals

vt 0.9040 0.2361 0.0000
vt 0.8725 0.3421 0.0000
vt 0.8526 0.2392 0.0000
vt 0.9276 0.3462 0.0000
vt 0.9948 0.3845 0.0000
vt 0.8229 0.3118 0.0000
vt 0.8791 0.4293 0.0000
vt 0.9428 0.4956 0.0000
vt 0.8166 0.4041 0.0000
vt 0.7788 0.3701 0.0000
vt 0.7907 0.3076 0.0000
vt 0.0791 0.7314 0.0000
vt 0.0157 0.7699 0.0000
vt 0.0139 0.6713 0.0000
vt 0.1180 0.6647 0.0000
vt 0.9004 0.1019 0.0000
vt 0.9490 0.1944 0.0000
vt 0.8589 0.1827 0.0000
vt 0.7796 0.1770 0.0000
vt 0.8347 0.1417 0.0000
vt 0.7968 0.2302 0.0000
vt 0.7413 0.2380 0.0000
vt 0.8182 0.0623 0.0000
vt 0.7758 0.1098 0.0000
vt 0.7365 0.1449 0.0000
vt 0.1078 0.8194 0.0000
vt 0.1104 0.9156 0.0000
vt 0.1873 0.8105 0.0000
vt 0.2218 0.8350 0.0000
vt 0.1718 0.8675 0.0000
vt 0.1422 0.7960 0.0000
vt 0.1437 0.7384 0.0000
vt 0.1763 0.7536 0.0000
vt 0.2232 0.7702 0.0000
vt 0.7589 0.3257 0.0000
vt 0.7516 0.4161 0.0000
vt 0.7301 0.3802 0.0000
vt 0.7153 0.1854 0.0000
vt 0.7156 0.2808 0.0000
vt 0.6831 0.2377 0.0000
vt 0.6735 0.2790 0.0000
vt 0.7168 0.3274 0.0000
vt 0.6632 0.3139 0.0000
vt 0.6763 0.3627 0.0000
vt 0.7006 0.3824 0.0000
vt 0.6382 0.2643 0.0000
vt 0.6434 0.3522 0.0000
vt 0.6271 0.3165 0.0000
vt 0.6207 0.3402 0.0000
vt 0.1903 0.9883 0.0000
vt 0.2381 0.9102 0.0000
vt 0.2651 0.9917 0.0000
vt 0.9235 0.5731 0.0000
vt 0.8485 0.5148 0.0000
vt 0.8053 0.4757 0.0000
vt 0.7819 0.4439 0.0000
vt 0.7900 0.5453 0.0000
vt 0.7421 0.5127 0.0000
vt 0.3684 0.9809 0.0000
vt 0.2973 0.9550 0.0000
vt 0.8087 0.6002 0.0000
vt 0.8549 0.6600 0.0000
vt 0.7242 0.6050 0.0000
vt 0.7021 0.5500 0.0000
vt 0.2507 0.8439 0.0000
vt 0.2873 0.8512 0.0000
vt 0.3043 0.8895 0.0000
vt 0.2754 0.8068 0.0000
vt 0.3393 0.8303 0.0000
vt 0.3525 0.9043 0.0000
vt 0.4076 0.9270 0.0000
vt 0.4581 0.9858 0.0000
vt 0.3955 0.8652 0.0000
vt 0.4397 0.8371 0.0000
vt 0.4626 0.9022 0.0000
vt 0.7519 0.6715 0.0000
vt 0.4797 0.9429 0.0000
vt 0.6496 0.6188 0.0000
vt 0.4962 0.8687 0.0000
vt 0.5449 0.8978 0.0000
vt 0.7101 0.7092 0.0000
vt 0.6151 0.6851 0.0000
vt 0.5625 0.6199 0.0000
vt 0.7087 0.4320 0.0000
vt 0.7392 0.4559 0.0000
vt 0.6964 0.4718 0.0000
vt 0.6773 0.4371 0.0000
vt 0.6556 0.4124 0.0000
vt 0.6925 0.5082 0.0000
vt 0.6642 0.4812 0.0000
vt 0.6221 0.4832 0.0000
vt 0.6296 0.4479 0.0000
vt 0.6347 0.3931 0.0000
vt 0.6170 0.4124 0.0000
vt 0.6031 0.3554 0.0000
vt 0.5997 0.3865 0.0000
vt 0.5995 0.4260 0.0000
vt 0.5818 0.4559 0.0000
vt 0.5762 0.4974 0.0000
vt 0.6524 0.5292 0.0000
vt 0.6098 0.5466 0.0000
vt 0.5480 0.5389 0.0000
vt 0.0046 0.5875 0.0000
vt 0.0668 0.5870 0.0000
vt 0.1578 0.5783 0.0000
vt 0.1067 0.4949 0.0000
vt 0.1611 0.6508 0.0000
vt 0.1189 0.6132 0.0000
vt 0.2110 0.6233 0.0000
vt 0.7299 0.0384 0.0000
vt 0.0357 0.5121 0.0000
vt 0.7123 0.0924 0.0000
vt 0.6417 0.0794 0.0000
vt 0.6694 0.1487 0.0000
vt 0.6541 0.0049 0.0000
vt 0.5587 0.0880 0.0000
vt 0.5860 0.1495 0.0000
vt 0.1768 0.5218 0.0000
vt 0.1953 0.6841 0.0000
vt 0.2389 0.7058 0.0000
vt 0.2881 0.7318 0.0000
vt 0.2347 0.6530 0.0000
vt 0.2970 0.6259 0.0000
vt 0.2610 0.5667 0.0000
vt 0.2851 0.6767 0.0000
vt 0.2350 0.4771 0.0000
vt 0.5179 0.0247 0.0000
vt 0.4325 0.1111 0.0000
vt 0.3591 0.5929 0.0000
vt 0.3819 0.6491 0.0000
vt 0.3287 0.6644 0.0000
vt 0.3442 0.5234 0.0000
vt 0.3818 0.0688 0.0000
vt 0.4496 0.1681 0.0000
vt 0.5167 0.1633 0.0000
vt 0.4344 0.5550 0.0000
vt 0.3171 0.1720 0.0000
vt 0.3717 0.2607 0.0000
vt 0.6629 0.1965 0.0000
vt 0.6215 0.1964 0.0000
vt 0.6293 0.2334 0.0000
vt 0.5573 0.2092 0.0000
vt 0.6016 0.2714 0.0000
vt 0.5745 0.3011 0.0000
vt 0.5512 0.2530 0.0000
vt 0.5395 0.3260 0.0000
vt 0.4898 0.2886 0.0000
vt 0.4813 0.2311 0.0000
vt 0.3338 0.7401 0.0000
vt 0.2915 0.7810 0.0000
vt 0.3433 0.7839 0.0000
vt 0.3220 0.7981 0.0000
vt 0.3969 0.7892 0.0000
vt 0.3784 0.8169 0.0000
vt 0.3350 0.7086 0.0000
vt 0.3780 0.7365 0.0000
vt 0.4111 0.6934 0.0000
vt 0.4671 0.7644 0.0000
vt 0.4870 0.8111 0.0000
vt 0.4272 0.7686 0.0000
vt 0.4371 0.7241 0.0000
vt 0.5448 0.8271 0.0000
vt 0.5527 0.8162 0.0000
vt 0.5666 0.8135 0.0000
vt 0.6051 0.8750 0.0000
vt 0.5887 0.7472 0.0000
vt 0.5452 0.7974 0.0000
vt 0.5126 0.7607 0.0000
vt 0.5488 0.8089 0.0000
vt 0.4568 0.6523 0.0000
vt 0.4990 0.7183 0.0000
vt 0.5252 0.6654 0.0000
vt 0.5151 0.6074 0.0000
vt 0.3070 0.2995 0.0000
vt 0.5912 0.6612 0.0000
vt 0.5846 0.3619 0.0000
vt 0.5430 0.3982 0.0000
vt 0.5628 0.4237 0.0000
vt 0.5367 0.4476 0.0000
vt 0.4944 0.4358 0.0000
vt 0.5171 0.3734 0.0000
vt 0.4925 0.3444 0.0000
vt 0.4643 0.4050 0.0000
vt 0.4562 0.4935 0.0000
vt 0.4085 0.4081 0.0000
vt 0.5103 0.5787 0.0000
vt 0.5178 0.4814 0.0000
vt 0.6285 0.8367 0.0000
vt 0.3799 0.5284 0.0000
vt 0.4213 0.3200 0.0000
vt 0.3622 0.4051 0.0000
# 191 texture coords

g Mango_02
usemtl _Mango_02default
s 1
f 1/1/1 2/2/2 3/3/3 
f 4/4/4 1/1/1 5/5/5 
f 1/1/1 4/4/4 2/2/2 
f 3/3/3 2/2/2 6/6/6 
f 7/7/7 2/2/2 4/4/4 
f 7/7/7 4/4/4 8/8/8 
f 9/9/9 2/2/2 7/7/7 
f 5/5/5 8/8/8 4/4/4 
f 2/2/2 9/9/9 6/6/6 
f 9/9/9 10/10/10 6/6/6 
f 10/10/10 11/11/11 6/6/6 
f 12/12/12 13/13/13 14/14/14 
f 12/12/12 14/14/14 15/15/15 
f 14/16/14 13/17/13 16/18/16 
f 17/19/17 18/20/18 16/18/16 
f 18/20/18 14/16/14 16/18/16 
f 16/18/16 19/21/19 17/19/17 
f 13/17/13 1/1/1 16/18/16 
f 1/1/1 3/3/3 16/18/16 
f 11/11/11 19/21/19 6/6/6 
f 19/21/19 3/3/3 6/6/6 
f 19/21/19 16/18/16 3/3/3 
f 20/22/20 17/19/17 19/21/19 
f 21/23/21 14/16/14 18/20/18 
f 22/24/22 21/23/21 18/20/18 
f 17/19/17 22/24/22 18/20/18 
f 17/19/17 23/25/23 22/24/22 
f 13/13/13 12/12/12 24/26/24 
f 1/1/1 13/17/13 5/5/5 
f 13/13/13 24/26/24 5/27/5 
f 25/28/25 26/29/26 27/30/27 
f 28/31/28 25/28/25 27/30/27 
f 5/27/5 24/26/24 27/30/27 
f 27/30/27 24/26/24 28/31/28 
f 12/12/12 28/31/28 24/26/24 
f 12/12/12 15/15/15 29/32/29 
f 12/12/12 29/32/29 28/31/28 
f 30/33/30 28/31/28 29/32/29 
f 30/33/30 25/28/25 28/31/28 
f 25/28/25 31/34/31 26/29/26 
f 30/33/30 31/34/31 25/28/25 
f 11/11/11 10/10/10 32/35/32 
f 10/10/10 9/9/9 33/36/33 
f 10/10/10 33/36/33 34/37/34 
f 32/35/32 10/10/10 34/37/34 
f 11/11/11 20/22/20 19/21/19 
f 35/38/35 23/25/23 17/19/17 
f 20/22/20 35/38/35 17/19/17 
f 20/22/20 36/39/36 37/40/37 
f 35/38/35 20/22/20 37/40/37 
f 37/40/37 36/39/36 38/41/38 
f 36/39/36 32/35/32 39/42/39 
f 36/39/36 20/22/20 32/35/32 
f 32/35/32 20/22/20 11/11/11 
f 39/42/39 32/35/32 34/37/34 
f 40/43/40 39/42/39 41/44/41 
f 42/45/42 39/42/39 34/37/34 
f 42/45/42 41/44/41 39/42/39 
f 43/46/43 37/40/37 38/41/38 
f 39/42/39 40/43/40 36/39/36 
f 38/41/38 36/39/36 40/43/40 
f 41/44/41 44/47/44 40/43/40 
f 40/43/40 44/47/44 45/48/45 
f 45/48/45 44/47/44 46/49/46 
f 8/50/8 47/51/47 48/52/48 
f 47/51/47 8/50/8 5/27/5 
f 48/53/48 49/54/49 8/8/8 
f 7/7/7 8/8/8 49/54/49 
f 7/7/7 49/54/49 50/55/50 
f 9/9/9 7/7/7 50/55/50 
f 50/55/50 51/56/51 9/9/9 
f 52/57/52 50/55/50 49/54/49 
f 53/58/53 50/55/50 52/57/52 
f 54/59/54 48/52/48 55/60/55 
f 56/61/56 48/53/48 54/62/54 
f 56/61/56 49/54/49 48/53/48 
f 49/54/49 56/61/56 52/57/52 
f 56/61/56 57/63/57 52/57/52 
f 57/63/57 53/58/53 52/57/52 
f 53/58/53 57/63/57 58/64/58 
f 26/29/26 47/51/47 27/30/27 
f 26/29/26 59/65/59 47/51/47 
f 47/51/47 59/65/59 60/66/60 
f 47/51/47 5/27/5 27/30/27 
f 61/67/61 55/60/55 47/51/47 
f 61/67/61 47/51/47 60/66/60 
f 55/60/55 48/52/48 47/51/47 
f 62/68/62 59/65/59 26/29/26 
f 62/68/62 26/29/26 31/34/31 
f 59/65/59 62/68/62 60/66/60 
f 60/66/60 63/69/63 61/67/61 
f 63/69/63 60/66/60 62/68/62 
f 63/69/63 64/70/64 61/67/61 
f 54/59/54 55/60/55 64/70/64 
f 64/70/64 65/71/65 54/59/54 
f 61/67/61 64/70/64 55/60/55 
f 66/72/66 54/59/54 65/71/65 
f 63/69/63 67/73/67 64/70/64 
f 67/73/67 65/71/65 64/70/64 
f 68/74/68 69/75/69 67/73/67 
f 65/71/65 67/73/67 69/75/69 
f 56/61/56 54/62/54 66/76/66 
f 57/63/57 56/61/56 66/76/66 
f 70/77/70 66/72/66 65/71/65 
f 71/78/71 58/64/58 57/63/57 
f 71/78/71 57/63/57 66/76/66 
f 65/71/65 69/75/69 70/77/70 
f 70/77/70 72/79/72 73/80/73 
f 72/79/72 70/77/70 69/75/69 
f 70/81/70 71/78/71 66/76/66 
f 70/81/70 73/82/73 71/78/71 
f 74/83/74 71/78/71 73/82/73 
f 75/84/75 34/37/34 33/36/33 
f 76/85/76 33/36/33 51/56/51 
f 76/85/76 75/84/75 33/36/33 
f 9/9/9 51/56/51 33/36/33 
f 77/86/77 75/84/75 76/85/76 
f 50/55/50 76/85/76 51/56/51 
f 76/85/76 50/55/50 53/58/53 
f 77/86/77 76/85/76 53/58/53 
f 78/87/78 42/45/42 75/84/75 
f 41/44/41 42/45/42 79/88/79 
f 34/37/34 75/84/75 42/45/42 
f 78/87/78 79/88/79 42/45/42 
f 77/86/77 53/58/53 80/89/80 
f 81/90/81 78/87/78 77/86/77 
f 75/84/75 77/86/77 78/87/78 
f 82/91/82 83/92/83 81/90/81 
f 83/92/83 78/87/78 81/90/81 
f 84/93/84 44/47/44 41/44/41 
f 84/93/84 41/44/41 79/88/79 
f 85/94/85 84/93/84 79/88/79 
f 86/95/86 44/47/44 84/93/84 
f 86/95/86 46/49/46 44/47/44 
f 86/95/86 85/94/85 87/96/87 
f 85/94/85 86/95/86 84/93/84 
f 87/96/87 85/94/85 88/97/88 
f 79/88/79 78/87/78 83/92/83 
f 89/98/89 82/91/82 90/99/90 
f 88/97/88 83/92/83 82/91/82 
f 89/98/89 88/97/88 82/91/82 
f 85/94/85 79/88/79 83/92/83 
f 83/92/83 88/97/88 85/94/85 
f 81/90/81 91/100/91 82/91/82 
f 91/100/91 80/89/80 58/64/58 
f 58/64/58 80/89/80 53/58/53 
f 81/90/81 80/89/80 91/100/91 
f 81/90/81 77/86/77 80/89/80 
f 91/100/91 58/64/58 71/78/71 
f 71/78/71 92/101/92 91/100/91 
f 92/101/92 82/91/82 91/100/91 
f 82/91/82 92/101/92 90/99/90 
f 93/102/93 90/99/90 92/101/92 
f 92/101/92 71/78/71 74/83/74 
f 93/102/93 92/101/92 74/83/74 
f 14/14/14 21/103/21 94/104/94 
f 94/104/94 15/15/15 14/14/14 
f 95/105/95 94/104/94 96/106/96 
f 97/107/97 15/15/15 98/108/98 
f 98/108/98 15/15/15 94/104/94 
f 98/108/98 94/104/94 95/105/95 
f 99/109/99 97/107/97 95/105/95 
f 95/105/95 97/107/97 98/108/98 
f 22/24/22 100/110/100 21/23/21 
f 94/104/94 21/103/21 100/111/100 
f 100/110/100 22/24/22 101/112/101 
f 96/106/96 94/104/94 100/111/100 
f 101/112/101 22/24/22 23/25/23 
f 100/110/100 101/112/101 102/113/102 
f 102/113/102 101/112/101 103/114/103 
f 96/115/96 100/110/100 102/113/102 
f 104/116/104 102/113/102 105/117/105 
f 106/118/106 95/105/95 96/106/96 
f 107/119/107 15/15/15 97/107/97 
f 15/15/15 30/33/30 29/32/29 
f 15/15/15 107/119/107 30/33/30 
f 108/120/108 31/34/31 30/33/30 
f 30/33/30 107/119/107 108/120/108 
f 108/120/108 109/121/109 31/34/31 
f 110/122/110 108/120/108 107/119/107 
f 107/119/107 97/107/97 99/109/99 
f 110/122/110 107/119/107 99/109/99 
f 99/109/99 111/123/111 110/122/110 
f 95/105/95 106/118/106 99/109/99 
f 112/124/112 99/109/99 106/118/106 
f 113/125/113 108/120/108 110/122/110 
f 108/120/108 113/125/113 109/121/109 
f 111/123/111 113/125/113 110/122/110 
f 102/113/102 104/116/104 96/115/96 
f 114/126/114 106/118/106 96/106/96 
f 106/118/106 114/126/114 112/124/112 
f 96/115/96 104/116/104 114/127/114 
f 115/128/115 114/127/114 104/116/104 
f 111/123/111 99/109/99 112/124/112 
f 116/129/116 111/123/111 112/124/112 
f 116/129/116 117/130/117 111/123/111 
f 118/131/118 113/125/113 111/123/111 
f 112/124/112 119/132/119 116/129/116 
f 114/127/114 115/128/115 119/133/119 
f 119/132/119 112/124/112 114/126/114 
f 120/134/120 115/128/115 104/116/104 
f 120/134/120 104/116/104 121/135/121 
f 122/136/122 116/129/116 119/132/119 
f 122/137/122 115/128/115 120/134/120 
f 122/137/122 120/134/120 123/138/123 
f 119/133/119 115/128/115 122/137/122 
f 124/139/124 103/114/103 35/38/35 
f 103/114/103 23/25/23 35/38/35 
f 124/139/124 125/140/125 103/114/103 
f 23/25/23 103/114/103 101/112/101 
f 124/139/124 35/38/35 37/40/37 
f 126/141/126 125/140/125 124/139/124 
f 126/141/126 37/40/37 43/46/43 
f 37/40/37 126/141/126 124/139/124 
f 102/113/102 103/114/103 105/117/105 
f 105/117/105 103/114/103 125/140/125 
f 125/140/125 127/142/127 105/117/105 
f 43/46/43 128/143/128 126/141/126 
f 43/46/43 38/41/38 40/43/40 
f 43/46/43 40/43/40 45/48/45 
f 128/143/128 43/46/43 45/48/45 
f 129/144/129 128/143/128 45/48/45 
f 129/144/129 45/48/45 86/95/86 
f 86/95/86 45/48/45 46/49/46 
f 130/145/130 126/141/126 128/143/128 
f 127/142/127 125/140/125 130/145/130 
f 130/145/130 128/143/128 129/144/129 
f 125/140/125 126/141/126 130/145/130 
f 130/145/130 131/146/131 132/147/132 
f 130/145/130 129/144/129 131/146/131 
f 121/135/121 104/116/104 105/117/105 
f 105/117/105 127/142/127 121/135/121 
f 121/135/121 127/142/127 133/148/133 
f 133/148/133 120/134/120 121/135/121 
f 123/138/123 120/134/120 133/148/133 
f 130/145/130 133/148/133 127/142/127 
f 133/148/133 130/145/130 132/147/132 
f 109/121/109 62/68/62 31/34/31 
f 134/149/134 135/150/135 109/121/109 
f 109/121/109 135/150/135 62/68/62 
f 136/151/136 135/150/135 134/149/134 
f 136/151/136 137/152/137 135/150/135 
f 137/152/137 62/68/62 135/150/135 
f 63/69/63 62/68/62 137/152/137 
f 136/151/136 63/69/63 137/152/137 
f 138/153/138 139/154/139 136/151/136 
f 109/121/109 140/155/140 134/149/134 
f 140/155/140 109/121/109 113/125/113 
f 141/156/141 140/155/140 142/157/142 
f 140/155/140 113/125/113 118/131/118 
f 141/156/141 138/153/138 136/151/136 
f 141/156/141 136/151/136 134/149/134 
f 141/156/141 134/149/134 140/155/140 
f 136/151/136 139/154/139 63/69/63 
f 139/154/139 67/73/67 63/69/63 
f 138/153/138 68/74/68 139/154/139 
f 67/73/67 139/154/139 68/74/68 
f 143/158/143 144/159/144 145/160/145 
f 145/160/145 138/153/138 141/156/141 
f 68/74/68 138/153/138 145/160/145 
f 145/160/145 146/161/146 143/158/143 
f 146/161/146 145/160/145 141/156/141 
f 144/159/144 68/74/68 145/160/145 
f 72/79/72 69/75/69 68/74/68 
f 68/74/68 144/159/144 72/79/72 
f 144/159/144 147/162/147 72/79/72 
f 148/163/148 149/164/149 147/162/147 
f 74/165/74 73/80/73 147/162/147 
f 147/162/147 73/80/73 72/79/72 
f 149/164/149 74/165/74 147/162/147 
f 150/166/150 151/167/151 152/168/152 
f 151/167/151 144/159/144 152/168/152 
f 143/158/143 152/168/152 144/159/144 
f 151/167/151 147/162/147 144/159/144 
f 153/169/153 148/163/148 147/162/147 
f 153/169/153 147/162/147 151/167/151 
f 153/169/153 151/167/151 149/164/149 
f 153/169/153 149/164/149 148/163/148 
f 111/123/111 117/130/117 118/131/118 
f 142/157/142 118/131/118 117/130/117 
f 118/131/118 142/157/142 140/155/140 
f 154/170/154 142/157/142 117/130/117 
f 142/157/142 146/161/146 141/156/141 
f 154/170/154 117/130/117 116/129/116 
f 116/129/116 122/136/122 154/170/154 
f 155/171/155 146/161/146 154/170/154 
f 155/171/155 154/170/154 156/172/156 
f 142/157/142 154/170/154 146/161/146 
f 154/170/154 122/136/122 157/173/157 
f 156/172/156 154/170/154 157/173/157 
f 122/137/122 123/138/123 157/174/157 
f 146/161/146 155/171/155 143/158/143 
f 143/158/143 155/171/155 152/168/152 
f 156/172/156 158/175/158 155/171/155 
f 158/175/158 152/168/152 155/171/155 
f 158/175/158 150/166/150 152/168/152 
f 131/146/131 86/95/86 159/176/159 
f 160/177/160 159/176/159 87/96/87 
f 87/96/87 159/176/159 86/95/86 
f 161/178/161 87/96/87 88/97/88 
f 162/179/162 161/178/161 89/98/89 
f 160/177/160 161/178/161 162/179/162 
f 163/180/163 160/177/160 162/179/162 
f 87/96/87 161/178/161 160/177/160 
f 88/97/88 89/98/89 161/178/161 
f 131/146/131 129/144/129 86/95/86 
f 159/176/159 160/177/160 164/181/164 
f 165/182/165 131/146/131 164/181/164 
f 131/146/131 165/182/165 132/147/132 
f 131/146/131 159/176/159 164/181/164 
f 166/183/166 167/184/167 168/185/168 
f 166/183/166 165/182/165 164/181/164 
f 164/181/164 163/180/163 166/183/166 
f 160/177/160 163/180/163 164/181/164 
f 167/184/167 93/102/93 169/186/169 
f 167/184/167 170/187/170 93/102/93 
f 162/179/162 89/98/89 170/187/170 
f 170/187/170 89/98/89 90/99/90 
f 170/187/170 90/99/90 93/102/93 
f 169/186/169 93/102/93 74/83/74 
f 169/188/169 74/165/74 149/164/149 
f 168/185/168 167/184/167 150/189/150 
f 167/184/167 163/180/163 170/187/170 
f 163/180/163 167/184/167 166/183/166 
f 162/179/162 170/187/170 163/180/163 
f 150/166/150 149/164/149 151/167/151 
f 169/186/169 150/189/150 167/184/167 
f 150/166/150 169/188/169 149/164/149 
f 133/148/133 132/147/132 171/190/171 
f 171/190/171 123/138/123 133/148/133 
f 165/182/165 171/190/171 132/147/132 
f 157/174/157 171/190/171 158/191/158 
f 158/191/158 171/190/171 168/185/168 
f 156/172/156 157/173/157 158/175/158 
f 157/174/157 123/138/123 171/190/171 
f 171/190/171 166/183/166 168/185/168 
f 171/190/171 165/182/165 166/183/166 
f 168/185/168 150/189/150 158/191/158 
# 0 polygons - 338 triangles

