# 3ds Max Wavefront OBJ Exporter v0.97b - (c)2007 guruware
# File Created: 26.05.2016 22:00:41

mtllib Passionfruit_cut.mtl

#
# object Passionfruit_cut
#

v  0.0351 0.0272 0.0201
v  0.0467 0.0017 0.0051
v  0.0325 0.0173 0.0007
v  0.0497 0.0046 0.0203
v  0.0288 0.0119 0.0185
v  0.0333 0.0012 0.0172
v  0.0185 0.0158 0.0186
v  0.0156 0.0238 0.0202
v  0.0202 0.0341 0.0143
v  -0.0017 0.0354 0.0084
v  0.0094 0.0372 0.0194
v  0.0258 0.0010 0.0181
v  0.0191 0.0081 0.0166
v  0.0109 0.0194 0.0193
v  0.0144 0.0124 0.0147
v  0.0363 0.0037 -0.0054
v  0.0496 -0.0153 0.0187
v  0.0397 -0.0207 0.0024
v  0.0204 -0.0121 -0.0154
v  0.0200 0.0050 -0.0148
v  0.0165 0.0209 -0.0051
v  -0.0015 0.0138 -0.0156
v  -0.0005 0.0005 -0.0209
v  0.0216 -0.0025 0.0132
v  0.0085 0.0001 0.0164
v  0.0077 0.0158 0.0176
v  0.0058 0.0063 0.0157
v  0.0024 0.0176 0.0173
v  -0.0018 0.0130 0.0166
v  0.0079 0.0275 0.0195
v  0.0024 0.0239 0.0206
v  -0.0238 0.0340 0.0206
v  -0.0071 0.0259 0.0200
v  -0.0072 0.0194 0.0154
v  -0.0227 0.0303 0.0048
v  0.0032 0.0054 0.0169
v  -0.0105 0.0099 0.0192
v  -0.0064 0.0003 0.0154
v  -0.0111 0.0045 0.0137
v  -0.0165 0.0194 0.0159
v  -0.0210 0.0111 0.0174
v  -0.0249 0.0178 0.0203
v  -0.0246 0.0222 0.0183
v  -0.0259 0.0052 0.0190
v  -0.0346 0.0086 0.0177
v  -0.0366 0.0235 0.0083
v  -0.0433 0.0110 0.0030
v  -0.0458 0.0161 0.0194
v  0.0006 -0.0228 -0.0152
v  -0.0239 -0.0160 -0.0171
v  -0.0237 0.0098 -0.0143
v  -0.0223 -0.0077 -0.0183
v  -0.0355 -0.0009 -0.0109
v  0.0383 -0.0107 0.0179
v  0.0264 -0.0110 0.0149
v  0.0308 -0.0195 0.0168
v  0.0221 -0.0233 0.0176
v  0.0357 -0.0301 0.0185
v  0.0177 -0.0378 0.0174
v  0.0269 -0.0309 0.0050
v  0.0193 -0.0267 -0.0064
v  0.0161 -0.0089 0.0204
v  0.0111 -0.0054 0.0163
v  0.0120 -0.0214 0.0168
v  0.0051 -0.0068 0.0165
v  -0.0005 -0.0094 0.0195
v  0.0046 -0.0177 0.0186
v  0.0004 -0.0054 0.0152
v  -0.0002 0.0023 0.0142
v  -0.0078 -0.0071 0.0169
v  0.0018 -0.0244 0.0184
v  0.0087 -0.0300 0.0172
v  -0.0107 -0.0172 0.0182
v  -0.0104 -0.0394 0.0158
v  -0.0136 -0.0274 0.0166
v  -0.0143 -0.0030 0.0131
v  -0.0203 0.0072 0.0183
v  -0.0180 -0.0047 0.0161
v  -0.0319 -0.0042 0.0192
v  -0.0260 -0.0039 0.0178
v  -0.0211 -0.0001 0.0141
v  -0.0213 -0.0002 0.0143
v  -0.0250 -0.0228 0.0164
v  -0.0320 -0.0179 0.0165
v  -0.0364 -0.0010 0.0172
v  -0.0497 0.0022 0.0175
v  -0.0430 -0.0244 0.0161
v  -0.0441 -0.0057 -0.0022
v  -0.0447 -0.0100 0.0121
v  -0.0094 -0.0306 -0.0075
v  -0.0309 -0.0268 -0.0039
v  -0.0320 -0.0341 0.0161
# 92 vertices

vn 0.6277 0.6991 -0.3425
vn 0.8602 0.1710 -0.4805
vn 0.5563 0.5994 -0.5756
vn -0.1346 -0.0775 0.9879
vn -0.0390 -0.0795 0.9961
vn -0.0185 -0.0331 0.9993
vn 0.9202 0.3050 -0.2453
vn -0.1578 -0.2638 0.9516
vn -0.0432 -0.0668 0.9968
vn -0.0229 -0.0687 0.9974
vn 0.3501 0.9046 -0.2430
vn -0.0099 0.9127 -0.4086
vn 0.1096 0.9792 -0.1707
vn -0.0004 0.0194 0.9999
vn -0.2485 -0.1800 0.9517
vn -0.3175 -0.1519 0.9360
vn -0.0375 -0.3020 0.9526
vn -0.1522 -0.2292 0.9614
vn 0.6286 0.1945 -0.7530
vn 0.8897 -0.3249 -0.3206
vn 0.6879 -0.4841 -0.5408
vn 0.3873 -0.2370 -0.8909
vn 0.3677 0.2906 -0.8834
vn 0.2695 0.6730 -0.6889
vn 0.0253 0.5570 -0.8301
vn 0.0518 0.0992 -0.9937
vn -0.1082 -0.0125 0.9940
vn 0.0381 0.0354 0.9987
vn 0.0064 -0.3190 0.9477
vn 0.1834 0.0849 0.9794
vn -0.1334 -0.2902 0.9476
vn 0.0356 0.0094 0.9993
vn 0.0114 0.0325 0.9994
vn -0.0333 -0.0970 0.9947
vn -0.3592 0.9181 -0.1679
vn 0.0526 -0.1968 0.9790
vn -0.0548 -0.2629 0.9633
vn -0.0443 -0.1926 0.9803
vn -0.3126 0.8118 -0.4931
vn 0.0685 0.0250 0.9974
vn -0.0241 -0.1557 0.9875
vn -0.0897 -0.0417 0.9951
vn -0.1939 -0.3543 0.9148
vn 0.0935 -0.0591 0.9938
vn 0.2566 -0.0127 0.9665
vn -0.0201 0.1989 0.9798
vn 0.1776 -0.0162 0.9840
vn 0.1357 -0.1266 0.9826
vn -0.0574 -0.0766 0.9954
vn -0.6058 0.6967 -0.3842
vn -0.7772 0.4046 -0.4820
vn -0.8292 0.5236 -0.1954
vn 0.0559 -0.1465 0.9876
vn 0.0837 -0.5267 -0.8459
vn -0.3417 -0.3632 -0.8668
vn -0.3411 0.4517 -0.8243
vn -0.2768 0.0142 -0.9609
vn -0.6189 0.1273 -0.7751
vn -0.1387 -0.0190 0.9901
vn -0.0824 -0.0165 0.9965
vn 0.0223 0.0347 0.9991
vn -0.1085 0.1326 0.9852
vn 0.0325 0.0274 0.9991
vn -0.0738 0.0678 0.9949
vn 0.5665 -0.7875 -0.2429
vn -0.0465 -0.0073 0.9989
vn 0.3576 -0.8439 -0.4000
vn 0.2842 -0.7241 -0.6285
vn 0.1789 -0.9168 -0.3572
vn -0.0693 0.2630 0.9623
vn -0.0520 0.1212 0.9913
vn -0.0170 0.1534 0.9879
vn 0.0495 0.1686 0.9844
vn 0.0529 0.3250 0.9442
vn 0.1755 0.0166 0.9844
vn -0.0390 0.3952 0.9177
vn -0.0031 -0.3939 0.9192
vn -0.2168 0.2828 0.9344
vn -0.0040 -0.1297 0.9915
vn -0.0170 -0.0889 0.9958
vn -0.1088 0.0186 0.9939
vn -0.0259 -0.0623 0.9978
vn -0.0456 -0.0964 0.9943
vn 0.0621 0.1601 0.9851
vn 0.2786 -0.0320 0.9599
vn 0.2577 0.3282 0.9088
vn -0.1412 -0.0845 0.9863
vn 0.2936 -0.0433 0.9549
vn 0.2791 -0.0598 0.9584
vn 0.4720 0.2167 0.8546
vn -0.0292 -0.0290 0.9992
vn -0.0246 -0.0622 0.9978
vn -0.1305 -0.0155 0.9913
vn 0.0236 -0.0846 0.9961
vn -0.0097 -0.0349 0.9993
vn -0.8625 -0.1248 -0.4905
vn -0.9643 0.0471 -0.2606
vn -0.8098 -0.4894 -0.3236
vn -0.9535 -0.2172 -0.2090
vn -0.0559 -0.9284 -0.3673
vn -0.0584 -0.8320 -0.5517
vn -0.5069 -0.6849 -0.5233
vn -0.4270 -0.8430 -0.3271
vn -0.0139 -0.0278 0.9996
# 104 vertex normals

vt 0.5551 0.5835 0.0000
vt 0.3691 0.6272 0.0000
vt 0.4516 0.5353 0.0000
vt 0.6531 0.9683 0.0000
vt 0.6425 0.8409 0.0000
vt 0.6960 0.8817 0.0000
vt 0.4116 0.6965 0.0000
vt 0.6361 0.7768 0.0000
vt 0.5479 0.8530 0.0000
vt 0.5937 0.7485 0.0000
vt 0.5810 0.4716 0.0000
vt 0.5631 0.3348 0.0000
vt 0.6288 0.4063 0.0000
vt 0.5270 0.6941 0.0000
vt 0.7063 0.8416 0.0000
vt 0.6815 0.7902 0.0000
vt 0.6249 0.7284 0.0000
vt 0.6661 0.7573 0.0000
vt 0.3676 0.5563 0.0000
vt 0.2697 0.7130 0.0000
vt 0.2320 0.6088 0.0000
vt 0.2687 0.4725 0.0000
vt 0.3546 0.4644 0.0000
vt 0.4548 0.4419 0.0000
vt 0.3893 0.3491 0.0000
vt 0.3269 0.3633 0.0000
vt 0.7364 0.8188 0.0000
vt 0.7424 0.7419 0.0000
vt 0.6526 0.7151 0.0000
vt 0.7099 0.7182 0.0000
vt 0.6508 0.6829 0.0000
vt 0.6844 0.6667 0.0000
vt 0.5835 0.7000 0.0000
vt 0.6112 0.6742 0.0000
vt 0.5856 0.1805 0.0000
vt 0.5958 0.5116 0.0000
vt 0.6128 0.6184 0.0000
vt 0.6552 0.6269 0.0000
vt 0.5083 0.2138 0.0000
vt 0.7192 0.7049 0.0000
vt 0.7129 0.6227 0.0000
vt 0.7632 0.6601 0.0000
vt 0.7523 0.6257 0.0000
vt 0.6678 0.5761 0.0000
vt 0.7210 0.5624 0.0000
vt 0.6906 0.5282 0.0000
vt 0.6641 0.5237 0.0000
vt 0.7621 0.5412 0.0000
vt 0.7556 0.4886 0.0000
vt 0.4656 0.1334 0.0000
vt 0.3822 0.1020 0.0000
vt 0.4501 0.0366 0.0000
vt 0.7286 0.4154 0.0000
vt 0.2010 0.3776 0.0000
vt 0.2311 0.2519 0.0000
vt 0.3621 0.2371 0.0000
vt 0.2683 0.2564 0.0000
vt 0.3075 0.1776 0.0000
vt 0.7569 0.9262 0.0000
vt 0.7659 0.9952 0.0000
vt 0.7757 0.8593 0.0000
vt 0.8174 0.8955 0.0000
vt 0.8536 0.8527 0.0000
vt 0.8694 0.9388 0.0000
vt 0.1332 0.6487 0.0000
vt 0.9414 0.8496 0.0000
vt 0.1502 0.5540 0.0000
vt 0.1839 0.4862 0.0000
vt 0.0501 0.5309 0.0000
vt 0.7877 0.7963 0.0000
vt 0.7700 0.7635 0.0000
vt 0.8596 0.7928 0.0000
vt 0.7868 0.7336 0.0000
vt 0.8153 0.7079 0.0000
vt 0.8509 0.7467 0.0000
vt 0.7838 0.7053 0.0000
vt 0.7441 0.6908 0.0000
vt 0.8086 0.6636 0.0000
vt 0.8919 0.7410 0.0000
vt 0.9132 0.7875 0.0000
vt 0.8699 0.6611 0.0000
vt 0.9924 0.6937 0.0000
vt 0.9305 0.6589 0.0000
vt 0.7935 0.6200 0.0000
vt 0.7425 0.5681 0.0000
vt 0.8125 0.6013 0.0000
vt 0.8236 0.5224 0.0000
vt 0.8154 0.5553 0.0000
vt 0.7876 0.5803 0.0000
vt 0.7878 0.5817 0.0000
vt 0.9207 0.5875 0.0000
vt 0.9012 0.5408 0.0000
vt 0.8128 0.4914 0.0000
vt 0.8127 0.4132 0.0000
vt 0.9523 0.4880 0.0000
vt 0.2802 0.1215 0.0000
vt 0.3261 0.0100 0.0000
vt 0.1438 0.0671 0.0000
vt 0.2426 0.0575 0.0000
vt 0.0091 0.3269 0.0000
vt 0.1433 0.3289 0.0000
vt 0.1590 0.2056 0.0000
vt 0.0574 0.1609 0.0000
vt 0.9922 0.5640 0.0000
# 104 texture coords

g Passionfruit_cut
usemtl _Passionfruit_cut_Passionfruit_cutdefault
s 1
f 1/1/1 2/2/2 3/3/3 
s 2
f 4/4/4 5/5/5 6/6/6 
s 1
f 2/2/2 1/1/1 4/7/7 
s 2
f 7/8/8 5/5/5 1/9/9 
f 1/9/9 8/10/10 7/8/8 
f 5/5/5 4/4/4 1/9/9 
s 1
f 3/3/3 9/11/11 1/1/1 
f 10/12/12 11/13/13 9/11/11 
f 1/1/1 9/11/11 11/13/13 
s 2
f 8/10/10 1/9/9 11/14/14 
f 12/15/15 5/5/5 7/8/8 
f 12/15/15 6/6/6 5/5/5 
f 12/15/15 7/8/8 13/16/16 
f 14/17/17 7/8/8 8/10/10 
f 13/16/16 7/8/8 15/18/18 
f 7/8/8 14/17/17 15/18/18 
s 1
f 16/19/19 3/3/3 2/2/2 
f 17/20/20 2/2/2 4/7/7 
f 2/2/2 18/21/21 16/19/19 
f 16/19/19 19/22/22 20/23/23 
f 18/21/21 19/22/22 16/19/19 
f 3/3/3 21/24/24 9/11/11 
f 9/11/11 21/24/24 10/12/12 
f 20/23/23 21/24/24 3/3/3 
f 16/19/19 20/23/23 3/3/3 
f 22/25/25 10/12/12 21/24/24 
f 22/25/25 20/23/23 23/26/26 
f 21/24/24 20/23/23 22/25/25 
s 2
f 12/15/15 13/16/16 24/27/27 
f 25/28/28 13/16/16 15/18/18 
f 14/17/17 26/29/29 15/18/18 
f 25/28/28 15/18/18 27/30/30 
f 26/29/29 28/31/31 27/30/30 
f 26/29/29 27/30/30 15/18/18 
f 28/31/31 29/32/32 27/30/30 
f 30/33/33 31/34/34 14/17/17 
s 1
f 11/13/13 10/12/12 32/35/35 
s 2
f 11/14/14 32/36/36 33/37/37 
f 31/34/34 33/37/37 28/31/31 
f 28/31/31 33/37/37 34/38/38 
s 1
f 32/35/35 10/12/12 35/39/39 
f 22/25/25 35/39/39 10/12/12 
s 2
f 27/30/30 29/32/32 36/40/40 
f 37/41/41 38/42/42 29/32/32 
f 38/42/42 36/40/40 29/32/32 
f 37/41/41 29/32/32 34/38/38 
f 29/32/32 28/31/31 34/38/38 
f 38/42/42 37/41/41 39/43/43 
f 37/41/41 34/38/38 40/44/44 
f 37/41/41 40/44/44 41/45/45 
f 40/44/44 42/46/46 41/45/45 
f 32/36/36 40/44/44 33/37/37 
f 40/44/44 32/36/36 43/47/47 
f 40/44/44 43/47/47 42/46/46 
f 33/37/37 40/44/44 34/38/38 
f 41/45/45 42/46/46 44/48/48 
f 44/48/48 42/46/46 45/49/49 
s 1
f 35/39/39 46/50/50 32/35/35 
f 47/51/51 46/50/50 35/39/39 
f 32/35/35 46/50/50 48/52/52 
s 2
f 43/47/47 32/36/36 45/49/49 
f 45/49/49 32/36/36 48/53/53 
s 1
f 46/50/50 47/51/51 48/52/52 
f 19/22/22 23/26/26 20/23/23 
f 23/26/26 49/54/54 50/55/55 
f 19/22/22 49/54/54 23/26/26 
f 23/26/26 51/56/56 22/25/25 
f 35/39/39 22/25/25 51/56/56 
f 47/51/51 35/39/39 51/56/56 
f 52/57/57 51/56/56 23/26/26 
f 53/58/58 47/51/51 51/56/56 
f 53/58/58 51/56/56 52/57/57 
f 52/57/57 23/26/26 50/55/55 
s 2
f 4/4/4 54/59/59 17/60/60 
f 54/59/59 4/4/4 6/6/6 
s 1
f 2/2/2 17/20/20 18/21/21 
s 2
f 55/61/61 56/62/62 54/59/59 
f 54/59/59 6/6/6 12/15/15 
f 54/59/59 12/15/15 55/61/61 
f 56/62/62 57/63/63 58/64/64 
s 1
f 18/21/21 17/20/20 58/65/65 
s 2
f 54/59/59 58/64/64 17/60/60 
f 58/64/64 57/63/63 59/66/66 
f 56/62/62 58/64/64 54/59/59 
s 1
f 60/67/67 18/21/21 58/65/65 
f 61/68/68 18/21/21 60/67/67 
f 60/67/67 58/65/65 59/69/69 
s 2
f 62/70/70 24/27/27 63/71/71 
f 55/61/61 24/27/27 62/70/70 
f 24/27/27 55/61/61 12/15/15 
f 64/72/72 63/71/71 65/73/73 
f 65/73/73 66/74/74 67/75/75 
f 65/73/73 68/76/76 66/74/74 
f 24/27/27 13/16/16 63/71/71 
f 63/71/71 13/16/16 25/28/28 
f 69/77/77 65/73/73 36/40/40 
f 70/78/78 66/74/74 68/76/76 
f 65/73/73 25/28/28 36/40/40 
f 63/71/71 25/28/28 65/73/73 
f 64/72/72 57/63/63 62/70/70 
f 57/63/63 56/62/62 55/61/61 
f 57/63/63 55/61/61 62/70/70 
f 62/70/70 63/71/71 64/72/72 
f 57/63/63 64/72/72 71/79/79 
f 72/80/80 57/63/63 71/79/79 
f 67/75/75 64/72/72 65/73/73 
f 71/79/79 67/75/75 73/81/81 
f 64/72/72 67/75/75 71/79/79 
f 74/82/82 59/66/66 72/80/80 
f 57/63/63 72/80/80 59/66/66 
f 74/82/82 72/80/80 75/83/83 
f 72/80/80 71/79/79 75/83/83 
f 38/42/42 69/77/77 36/40/40 
f 68/76/76 38/42/42 70/78/78 
f 76/84/84 39/43/43 77/85/85 
f 68/76/76 69/77/77 38/42/42 
f 77/85/85 39/43/43 41/45/45 
f 39/43/43 37/41/41 41/45/45 
f 73/81/81 66/74/74 70/78/78 
f 73/81/81 70/78/78 76/84/84 
f 76/84/84 78/86/86 73/81/81 
f 38/42/42 76/84/84 70/78/78 
f 38/42/42 39/43/43 76/84/84 
f 44/48/48 79/87/87 80/88/88 
f 78/86/86 76/84/84 81/89/89 
f 78/86/86 81/89/89 82/90/90 80/88/88 
f 75/83/83 73/81/81 83/91/91 
f 73/81/81 78/86/86 83/91/91 
f 73/81/81 67/75/75 66/74/74 
f 75/83/83 71/79/79 73/81/81 
f 78/86/86 80/88/88 83/91/91 
f 84/92/92 83/91/91 80/88/88 
f 80/88/88 79/87/87 84/92/92 
f 79/87/87 85/93/93 84/92/92 
f 86/94/94 45/49/49 48/53/53 
f 87/95/95 85/93/93 86/94/94 
f 85/93/93 45/49/49 86/94/94 
s 1
f 47/51/51 88/96/96 86/97/97 
s 2
f 85/93/93 44/48/48 45/49/49 
f 44/48/48 85/93/93 79/87/87 
s 1
f 87/98/98 86/97/97 89/99/99 
f 86/97/97 48/52/52 47/51/51 
s 2
f 85/93/93 87/95/95 84/92/92 
s 1
f 19/22/22 18/21/21 61/68/68 
f 49/54/54 19/22/22 61/68/68 
f 61/68/68 60/67/67 59/69/69 
f 74/100/100 61/68/68 59/69/69 
f 90/101/101 61/68/68 74/100/100 
f 90/101/101 49/54/54 61/68/68 
f 50/55/55 49/54/54 90/101/101 
f 90/101/101 91/102/102 50/55/55 
f 50/55/55 53/58/58 52/57/57 
f 91/102/102 88/96/96 50/55/55 
f 88/96/96 53/58/58 50/55/55 
f 90/101/101 74/100/100 91/102/102 
f 91/102/102 87/98/98 88/96/96 
f 91/102/102 92/103/103 87/98/98 
f 89/99/99 86/97/97 88/96/96 
f 87/98/98 89/99/99 88/96/96 
s 2
f 92/104/104 84/92/92 87/95/95 
f 83/91/91 92/104/104 75/83/83 
f 74/82/82 75/83/83 92/104/104 
s 1
f 92/103/103 91/102/102 74/100/100 
s 2
f 83/91/91 84/92/92 92/104/104 
f 28/31/31 26/29/29 14/17/17 31/34/34 
f 33/37/37 31/34/34 30/33/33 
f 8/10/10 11/14/14 30/33/33 
f 30/33/33 14/17/17 8/10/10 
f 30/33/33 11/14/14 33/37/37 
f 27/30/30 36/40/40 25/28/28 
f 65/73/73 69/77/77 68/76/76 
f 43/47/47 45/49/49 42/46/46 
f 44/48/48 82/90/90 81/89/89 77/85/85 
f 77/85/85 41/45/45 44/48/48 
f 81/89/89 76/84/84 77/85/85 
f 44/48/48 80/88/88 82/90/90 
s 1
f 53/58/58 88/96/96 47/51/51 
# 3 polygons - 174 triangles

