# 3ds Max Wavefront OBJ Exporter v0.97b - (c)2007 guruware
# File Created: 25.05.2016 22:55:47

#
# object Apple_04
#

v  -0.0343 -0.0284 -0.0025
v  -0.0393 -0.0146 0.0013
v  -0.0369 -0.0192 -0.0123
v  -0.0407 0.0044 0.0065
v  -0.0408 -0.0011 -0.0106
v  -0.0291 -0.0301 0.0155
v  -0.0254 -0.0392 0.0065
v  -0.0344 -0.0120 0.0170
v  -0.0329 0.0149 -0.0252
v  -0.0352 -0.0117 -0.0220
v  -0.0272 -0.0146 -0.0310
v  -0.0300 -0.0007 -0.0309
v  -0.0213 0.0138 -0.0370
v  -0.0231 -0.0356 -0.0201
v  -0.0309 -0.0322 -0.0110
v  -0.0256 -0.0270 -0.0261
v  -0.0190 -0.0430 -0.0094
v  -0.0080 -0.0366 -0.0287
v  -0.0076 -0.0444 -0.0184
v  -0.0409 0.0081 -0.0034
v  -0.0343 0.0179 0.0176
v  -0.0377 0.0209 0.0058
v  -0.0272 0.0026 0.0289
v  -0.0210 0.0209 0.0301
v  -0.0373 0.0202 -0.0117
v  -0.0262 0.0294 -0.0198
v  -0.0200 0.0230 -0.0328
v  -0.0243 0.0326 0.0138
v  -0.0298 0.0332 0.0014
v  -0.0176 0.0343 -0.0180
v  -0.0077 0.0333 0.0072
v  -0.0031 0.0267 0.0004
v  -0.0028 0.0250 -0.0027
v  -0.0029 0.0293 -0.0081
v  -0.0157 0.0363 -0.0018
v  -0.0118 0.0351 0.0146
v  0.0008 0.0268 -0.0008
v  -0.0154 -0.0369 0.0255
v  -0.0229 -0.0180 0.0297
v  -0.0124 -0.0433 0.0179
v  -0.0010 -0.0424 0.0266
v  -0.0049 -0.0264 0.0369
v  -0.0110 -0.0001 0.0397
v  0.0146 -0.0133 0.0405
v  0.0016 -0.0070 0.0425
v  -0.0095 -0.0443 0.0106
v  -0.0071 -0.0414 -0.0012
v  0.0003 -0.0447 -0.0118
v  0.0015 -0.0392 0.0048
v  0.0050 -0.0451 0.0121
v  0.0168 -0.0449 0.0138
v  0.0018 -0.0378 -0.0019
v  0.0095 -0.0447 -0.0086
v  0.0010 -0.0413 0.0013
v  0.0173 -0.0434 -0.0023
v  0.0119 -0.0371 0.0306
v  0.0216 -0.0334 0.0283
v  0.0165 -0.0256 0.0362
v  0.0259 -0.0194 0.0331
v  0.0240 -0.0380 0.0193
v  0.0287 -0.0297 0.0233
v  0.0296 -0.0366 0.0049
v  0.0345 -0.0189 0.0225
v  0.0343 -0.0263 0.0154
v  0.0312 -0.0138 0.0306
v  -0.0076 0.0186 0.0375
v  0.0093 0.0079 0.0420
v  0.0079 0.0236 0.0368
v  -0.0068 0.0323 0.0283
v  0.0002 0.0382 0.0162
v  0.0049 0.0332 0.0289
v  0.0088 0.0354 -0.0005
v  0.0096 0.0394 0.0167
v  0.0211 0.0288 0.0282
v  0.0244 -0.0045 0.0377
v  0.0236 0.0043 0.0373
v  0.0171 0.0142 0.0379
v  0.0326 -0.0019 0.0307
v  0.0329 0.0068 0.0288
v  0.0272 0.0148 0.0315
v  -0.0182 0.0014 -0.0401
v  -0.0024 0.0136 -0.0424
v  -0.0037 -0.0090 -0.0425
v  -0.0167 -0.0201 -0.0354
v  -0.0016 -0.0259 -0.0360
v  0.0177 -0.0321 -0.0287
v  0.0127 -0.0415 -0.0210
v  0.0179 -0.0010 -0.0395
v  0.0131 -0.0145 -0.0384
v  0.0102 0.0152 -0.0390
v  0.0295 -0.0169 -0.0268
v  -0.0035 0.0282 -0.0356
v  -0.0067 0.0345 -0.0187
v  0.0032 0.0329 -0.0292
v  0.0106 0.0357 -0.0185
v  0.0138 0.0270 -0.0318
v  0.0221 0.0318 -0.0198
v  0.0271 0.0082 -0.0321
v  0.0267 0.0245 -0.0240
v  0.0255 -0.0373 -0.0152
v  0.0329 -0.0299 -0.0114
v  0.0375 -0.0176 -0.0109
v  0.0359 -0.0264 0.0033
v  0.0384 -0.0075 -0.0138
v  0.0405 -0.0046 -0.0050
v  0.0390 -0.0174 0.0006
v  0.0385 -0.0146 0.0139
v  0.0389 -0.0051 0.0200
v  0.0406 -0.0065 0.0080
v  0.0370 0.0000 -0.0187
v  0.0299 0.0298 -0.0095
v  0.0400 0.0070 -0.0062
v  0.0401 0.0112 0.0033
v  0.0409 0.0010 0.0004
v  0.0358 0.0219 -0.0062
v  0.0318 0.0299 0.0061
v  0.0374 0.0190 0.0090
v  0.0324 0.0234 0.0193
v  0.0227 0.0368 -0.0010
v  0.0235 0.0352 0.0140
v  0.0366 -0.0020 0.0239
v  0.0355 -0.0093 0.0255
v  0.0397 0.0018 0.0156
v  0.0377 0.0114 0.0183
v  0.0352 0.0130 -0.0181
v  -0.0017 0.0330 -0.0014
v  -0.0011 0.0315 -0.0043
v  0.0019 0.0332 -0.0022
v  0.0017 0.0451 -0.0059
v  0.0023 0.0445 -0.0091
v  0.0052 0.0440 -0.0063
# 131 vertices

vn -0.8772 -0.4795 0.0262
vn -0.9637 -0.2367 0.1237
vn -0.9119 -0.3208 -0.2561
vn -0.9668 0.0167 0.2548
vn -0.9754 -0.0275 -0.2189
vn -0.7747 -0.4696 0.4234
vn -0.6191 -0.7681 0.1635
vn -0.8613 -0.1732 0.4776
vn -0.7977 0.2712 -0.5386
vn -0.8586 -0.1882 -0.4768
vn -0.6368 -0.2526 -0.7285
vn -0.7413 -0.0216 -0.6709
vn -0.4921 0.2606 -0.8306
vn -0.5582 -0.6751 -0.4824
vn -0.7756 -0.5843 -0.2389
vn -0.6239 -0.4715 -0.6233
vn -0.3765 -0.9187 -0.1189
vn -0.1659 -0.6654 -0.7279
vn -0.1392 -0.9312 -0.3369
vn -0.9913 0.1243 -0.0429
vn -0.8064 0.3150 0.5005
vn -0.8947 0.4086 0.1804
vn -0.6996 0.0184 0.7143
vn -0.5399 0.4126 0.7337
vn -0.8822 0.4022 -0.2450
vn -0.5647 0.7118 -0.4175
vn -0.4501 0.5668 -0.6900
vn -0.4692 0.8106 0.3505
vn -0.5764 0.8154 0.0544
vn -0.2342 0.9232 -0.3047
vn 0.1267 0.9542 -0.2709
vn -0.0883 0.9103 -0.4045
vn 0.0896 0.9959 0.0153
vn 0.1118 0.9444 0.3092
vn 0.0715 0.9974 -0.0015
vn -0.1535 0.9839 0.0916
vn -0.3086 0.9452 -0.1067
vn -0.5013 -0.6011 0.6224
vn -0.6264 -0.2454 0.7399
vn -0.3381 -0.8989 0.2788
vn -0.0809 -0.8261 0.5577
vn -0.2283 -0.3790 0.8968
vn -0.3777 0.0134 0.9258
vn 0.2278 -0.1910 0.9548
vn -0.0884 -0.0919 0.9918
vn -0.0617 -0.9957 -0.0694
vn 0.2103 -0.9770 0.0365
vn -0.0008 -0.9827 0.1851
vn 0.0026 -0.9607 -0.2776
vn -0.0860 -0.9875 -0.1320
vn 0.3071 -0.9367 0.1680
vn 0.0956 -0.9918 0.0848
vn 0.0022 -0.9874 0.1581
vn 0.4992 -0.8662 -0.0217
vn 0.2130 -0.9748 -0.0663
vn 0.2089 -0.6750 0.7077
vn 0.5197 -0.5862 0.6215
vn 0.2885 -0.3897 0.8746
vn 0.5885 -0.3186 0.7431
vn 0.5990 -0.7157 0.3591
vn 0.7346 -0.4882 0.4712
vn 0.7134 -0.6997 0.0394
vn 0.8464 -0.3159 0.4287
vn 0.8653 -0.4375 0.2448
vn 0.7240 -0.2382 0.6474
vn -0.2621 0.3496 0.8995
vn 0.1004 0.1575 0.9824
vn 0.1006 0.4933 0.8641
vn -0.2468 0.7659 0.5937
vn -0.1898 0.9804 0.0534
vn 0.0353 0.7858 0.6175
vn -0.6651 0.7306 -0.1543
vn 0.0651 0.9788 0.1940
vn 0.4584 0.6342 0.6226
vn 0.4889 -0.0378 0.8715
vn 0.4913 0.1509 0.8578
vn 0.3721 0.3149 0.8731
vn 0.7557 0.0246 0.6544
vn 0.7720 0.2080 0.6006
vn 0.6304 0.3357 0.6999
vn -0.4015 -0.0281 -0.9154
vn -0.0103 0.2344 -0.9721
vn -0.0529 -0.1844 -0.9814
vn -0.3622 -0.3667 -0.8569
vn -0.0015 -0.4663 -0.8846
vn 0.4078 -0.5391 -0.7369
vn 0.2498 -0.8447 -0.4733
vn 0.4270 -0.0248 -0.9039
vn 0.3180 -0.2891 -0.9029
vn 0.3181 0.3081 -0.8966
vn 0.7235 -0.2610 -0.6391
vn -0.0826 0.6673 -0.7402
vn 0.0213 0.9977 -0.0638
vn 0.0412 0.8758 -0.4809
vn 0.0382 0.9834 -0.1771
vn 0.3694 0.5802 -0.7258
vn 0.4601 0.7895 -0.4062
vn 0.6715 0.1664 -0.7221
vn 0.6693 0.4909 -0.5577
vn 0.6083 -0.7140 -0.3466
vn 0.8312 -0.4795 -0.2814
vn 0.9280 -0.2556 -0.2709
vn 0.9119 -0.4096 0.0259
vn 0.9373 -0.1088 -0.3312
vn 0.9894 -0.0598 -0.1320
vn 0.9674 -0.2521 -0.0221
vn 0.9527 -0.2414 0.1846
vn 0.9408 -0.0468 0.3357
vn 0.9938 -0.0847 0.0726
vn 0.8972 0.0138 -0.4414
vn 0.7125 0.6598 -0.2387
vn 0.9730 0.1430 -0.1812
vn 0.9789 0.2038 0.0143
vn 0.9994 0.0303 -0.0135
vn 0.8898 0.4193 -0.1800
vn 0.7588 0.6470 0.0755
vn 0.9193 0.3742 0.1219
vn 0.7733 0.4864 0.4067
vn 0.3787 0.9215 -0.0864
vn 0.4972 0.8287 0.2570
vn 0.8819 0.0562 0.4680
vn 0.8602 -0.1416 0.4899
vn 0.9724 0.0754 0.2207
vn 0.9073 0.2370 0.3473
vn 0.8741 0.2627 -0.4085
vn -0.6743 0.3860 0.6296
vn -0.3221 -0.1560 -0.9338
vn 0.9372 -0.1048 0.3328
vn -0.4306 0.8150 0.3878
vn -0.1249 0.4140 -0.9017
vn 0.9470 0.3102 0.0841
# 131 vertex normals

vt 0.7800 0.4297 0.0000
vt 0.7292 0.3762 0.0000
vt 0.7831 0.3618 0.0000
vt 0.6474 0.3215 0.0000
vt 0.7190 0.2926 0.0000
vt 0.7217 0.4915 0.0000
vt 0.7628 0.5176 0.0000
vt 0.6786 0.4117 0.0000
vt 0.7006 0.1849 0.0000
vt 0.7892 0.3041 0.0000
vt 0.8380 0.2872 0.0000
vt 0.7794 0.2299 0.0000
vt 0.7545 0.1335 0.0000
vt 0.8704 0.4324 0.0000
vt 0.8170 0.4299 0.0000
vt 0.8705 0.3611 0.0000
vt 0.8411 0.5165 0.0000
vt 0.9623 0.4024 0.0000
vt 0.9143 0.5258 0.0000
vt 0.6651 0.2807 0.0000
vt 0.5669 0.3039 0.0000
vt 0.5860 0.2644 0.0000
vt 0.5906 0.3891 0.0000
vt 0.5115 0.3345 0.0000
vt 0.6410 0.2112 0.0000
vt 0.6190 0.1371 0.0000
vt 0.6982 0.1033 0.0000
vt 0.4945 0.2443 0.0000
vt 0.5373 0.2057 0.0000
vt 0.5665 0.1032 0.0000
vt 0.3766 0.2226 0.0000
vt 0.3695 0.1633 0.0000
vt 0.3755 0.1420 0.0000
vt 0.4182 0.1144 0.0000
vt 0.4707 0.1662 0.0000
vt 0.4206 0.2522 0.0000
vt 0.3153 0.2124 0.0000
vt 0.2933 0.2281 0.0000
vt 0.6972 0.5719 0.0000
vt 0.6461 0.4773 0.0000
vt 0.7245 0.6048 0.0000
vt 0.6639 0.6427 0.0000
vt 0.6241 0.5591 0.0000
vt 0.5490 0.4480 0.0000
vt 0.5210 0.5572 0.0000
vt 0.5377 0.5012 0.0000
vt 0.7474 0.6125 0.0000
vt 0.8138 0.6007 0.0000
vt 0.8920 0.6030 0.0000
vt 0.7812 0.6628 0.0000
vt 0.7021 0.7121 0.0000
vt 0.6014 0.7470 0.0000
vt 0.8269 0.6465 0.0000
vt 0.8946 0.6613 0.0000
vt 0.8022 0.6453 0.0000
vt 0.5250 0.8294 0.0000
vt 0.8427 0.7331 0.0000
vt 0.6000 0.6514 0.0000
vt 0.5577 0.6692 0.0000
vt 0.5481 0.6126 0.0000
vt 0.5053 0.6178 0.0000
vt 0.5535 0.7154 0.0000
vt 0.5179 0.6814 0.0000
vt 0.4906 0.7561 0.0000
vt 0.4645 0.6526 0.0000
vt 0.4733 0.6881 0.0000
vt 0.4756 0.6124 0.0000
vt 0.4852 0.3783 0.0000
vt 0.4702 0.4617 0.0000
vt 0.4245 0.4092 0.0000
vt 0.4264 0.3229 0.0000
vt 0.3570 0.2973 0.0000
vt 0.3938 0.3598 0.0000
vt 0.2442 0.3113 0.0000
vt 0.3252 0.3446 0.0000
vt 0.3658 0.4321 0.0000
vt 0.4756 0.5522 0.0000
vt 0.4608 0.5212 0.0000
vt 0.4429 0.4660 0.0000
vt 0.4368 0.5696 0.0000
vt 0.4108 0.5373 0.0000
vt 0.4131 0.4922 0.0000
vt 0.8257 0.1759 0.0000
vt 0.8173 0.0601 0.0000
vt 0.9232 0.1806 0.0000
vt 0.9000 0.2882 0.0000
vt 0.9821 0.2923 0.0000
vt 0.3147 0.8419 0.0000
vt 0.3001 0.9724 0.0000
vt 0.2106 0.9036 0.0000
vt 0.3933 0.8766 0.0000
vt 0.0256 0.6691 0.0000
vt 0.1567 0.7165 0.0000
vt 0.0970 0.8219 0.0000
vt 0.1949 0.7994 0.0000
vt 0.0827 0.6302 0.0000
vt 0.2778 0.7569 0.0000
vt 0.6822 0.0149 0.0000
vt 0.0510 0.3922 0.0000
vt 0.0669 0.4746 0.0000
vt 0.0149 0.5311 0.0000
vt 0.5264 0.0623 0.0000
vt 0.1345 0.3192 0.0000
vt 0.1458 0.2816 0.0000
vt 0.1711 0.2838 0.0000
vt 0.1430 0.4118 0.0000
vt 0.0981 0.5433 0.0000
vt 0.1640 0.4895 0.0000
vt 0.1750 0.6494 0.0000
vt 0.1615 0.5489 0.0000
vt 0.3868 0.9851 0.0000
vt 0.4649 0.8943 0.0000
vt 0.4060 0.8174 0.0000
vt 0.3907 0.7733 0.0000
vt 0.3458 0.7229 0.0000
vt 0.4337 0.7180 0.0000
vt 0.3050 0.6796 0.0000
vt 0.3263 0.6531 0.0000
vt 0.3836 0.6990 0.0000
vt 0.4207 0.6531 0.0000
vt 0.4122 0.6010 0.0000
vt 0.3765 0.6351 0.0000
vt 0.2597 0.6601 0.0000
vt 0.2202 0.4986 0.0000
vt 0.2889 0.6055 0.0000
vt 0.3082 0.5748 0.0000
vt 0.3259 0.6232 0.0000
vt 0.2503 0.5352 0.0000
vt 0.2861 0.4752 0.0000
vt 0.3148 0.5299 0.0000
vt 0.3450 0.4894 0.0000
vt 0.2415 0.4322 0.0000
vt 0.3053 0.4203 0.0000
vt 0.4194 0.5858 0.0000
vt 0.4424 0.6119 0.0000
vt 0.3810 0.5840 0.0000
vt 0.3618 0.5461 0.0000
vt 0.2258 0.5981 0.0000
vt 0.7516 0.9448 0.0000
vt 0.7569 0.9154 0.0000
vt 0.8129 0.9156 0.0000
vt 0.8095 0.9424 0.0000
vt 0.7683 0.8832 0.0000
vt 0.8243 0.8867 0.0000
vt 0.7541 0.8493 0.0000
vt 0.8112 0.8556 0.0000
vt 0.9241 0.9183 0.0000
vt 0.9291 0.9450 0.0000
vt 0.9246 0.8872 0.0000
vt 0.9301 0.8541 0.0000
vt 0.9548 0.9231 0.0000
# 151 texture coords

g Apple_04
s 1
f 1/1/1 2/2/2 3/3/3 
f 2/2/2 4/4/4 5/5/5 
f 1/1/1 6/6/6 2/2/2 
f 1/1/1 7/7/7 6/6/6 
f 4/4/4 2/2/2 8/8/8 
f 6/6/6 8/8/8 2/2/2 
f 5/5/5 9/9/9 10/10/10 
f 11/11/11 10/10/10 12/12/12 
f 13/13/13 12/12/12 9/9/9 
f 9/9/9 12/12/12 10/10/10 
f 14/14/14 15/15/15 16/16/16 
f 17/17/17 7/7/7 15/15/15 
f 15/15/15 7/7/7 1/1/1 
f 17/17/17 15/15/15 14/14/14 
f 18/18/18 14/14/14 16/16/16 
f 19/19/19 17/17/17 14/14/14 
f 19/19/19 14/14/14 18/18/18 
f 15/15/15 1/1/1 3/3/3 
f 16/16/16 15/15/15 3/3/3 
f 10/10/10 16/16/16 3/3/3 
f 5/5/5 3/3/3 2/2/2 
f 10/10/10 3/3/3 5/5/5 
f 11/11/11 16/16/16 10/10/10 
f 20/20/20 5/5/5 4/4/4 
f 21/21/21 22/22/22 4/4/4 
f 4/4/4 8/8/8 21/21/21 
f 8/8/8 23/23/23 21/21/21 
f 21/21/21 23/23/23 24/24/24 
f 25/25/25 5/5/5 20/20/20 
f 9/9/9 5/5/5 25/25/25 
f 9/9/9 26/26/26 27/27/27 
f 26/26/26 9/9/9 25/25/25 
f 4/4/4 22/22/22 20/20/20 
f 20/20/20 22/22/22 25/25/25 
f 21/21/21 28/28/28 29/29/29 
f 22/22/22 21/21/21 29/29/29 
f 25/25/25 22/22/22 29/29/29 
f 29/29/29 26/26/26 25/25/25 
f 29/29/29 30/30/30 26/26/26 
f 31/31/31 32/32/32 33/33/33 
f 33/33/33 34/34/34 31/31/31 
f 21/21/21 24/24/24 28/28/28 
f 29/29/29 28/28/28 35/35/35 
f 35/35/35 28/28/28 36/36/36 
f 30/30/30 29/29/29 35/35/35 
f 31/31/31 35/35/35 36/36/36 
f 31/31/31 34/34/34 35/35/35 
f 32/37/32 31/31/31 37/38/37 
f 6/6/6 38/39/38 39/40/39 
f 38/39/38 6/6/6 40/41/40 
f 6/6/6 7/7/7 40/41/40 
f 39/40/39 8/8/8 6/6/6 
f 38/39/38 41/42/41 42/43/42 
f 40/41/40 41/42/41 38/39/38 
f 42/43/42 39/40/39 38/39/38 
f 43/44/43 39/40/39 42/43/42 
f 44/45/44 45/46/45 42/43/42 
f 7/7/7 17/17/17 46/47/46 
f 46/47/46 17/17/17 47/48/47 
f 7/7/7 46/47/46 40/41/40 
f 48/49/48 47/48/47 17/17/17 
f 49/50/49 46/47/46 47/48/47 
f 50/51/50 40/41/40 46/47/46 
f 50/51/50 41/42/41 40/41/40 
f 46/47/46 49/50/49 50/51/50 
f 51/52/51 41/42/41 50/51/50 
f 48/49/48 52/53/52 47/48/47 
f 48/49/48 53/54/53 52/53/52 
f 47/48/47 52/53/52 54/55/54 
f 54/55/54 49/50/49 47/48/47 
f 17/17/17 19/19/19 48/49/48 
f 53/54/53 48/49/48 19/19/19 
f 51/52/51 50/51/50 55/56/55 
f 55/57/55 50/51/50 49/50/49 
f 55/57/55 52/53/52 53/54/53 
f 49/50/49 54/55/54 52/53/52 
f 49/50/49 52/53/52 55/57/55 
f 56/58/56 57/59/57 58/60/58 
f 42/43/42 41/42/41 56/58/56 
f 56/58/56 41/42/41 51/52/51 
f 58/60/58 42/43/42 56/58/56 
f 58/60/58 44/45/44 42/43/42 
f 59/61/59 44/45/44 58/60/58 
f 60/62/60 57/59/57 56/58/56 
f 61/63/61 57/59/57 60/62/60 
f 60/62/60 56/58/56 51/52/51 
f 62/64/62 60/62/60 51/52/51 
f 63/65/63 59/61/59 61/63/61 
f 57/59/57 61/63/61 59/61/59 
f 63/65/63 61/63/61 64/66/64 
f 59/61/59 63/65/63 65/67/65 
f 57/59/57 59/61/59 58/60/58 
f 23/23/23 8/8/8 39/40/39 
f 43/44/43 23/23/23 39/40/39 
f 24/24/24 23/23/23 43/44/43 
f 24/24/24 43/44/43 66/68/66 
f 45/46/45 67/69/67 43/44/43 
f 66/68/66 43/44/43 67/69/67 
f 42/43/42 45/46/45 43/44/43 
f 68/70/68 66/68/66 67/69/67 
f 69/71/69 28/28/28 24/24/24 
f 36/36/36 28/28/28 69/71/69 
f 36/36/36 69/71/69 70/72/70 
f 69/71/69 24/24/24 66/68/66 
f 68/70/68 71/73/71 69/71/69 
f 68/70/68 69/71/69 66/68/66 
f 71/73/71 70/72/70 69/71/69 
f 72/74/72 31/31/31 70/72/70 
f 73/75/73 70/72/70 71/73/71 
f 72/74/72 37/38/37 31/31/31 
f 70/72/70 31/31/31 36/36/36 
f 74/76/74 71/73/71 68/70/68 
f 71/73/71 74/76/74 73/75/73 
f 45/46/45 44/45/44 67/69/67 
f 75/77/75 67/69/67 44/45/44 
f 76/78/76 77/79/77 67/69/67 
f 76/78/76 67/69/67 75/77/75 
f 76/78/76 78/80/78 79/81/79 
f 80/82/80 76/78/76 79/81/79 
f 80/82/80 77/79/77 76/78/76 
f 75/77/75 78/80/78 76/78/76 
f 65/67/65 75/77/75 59/61/59 
f 44/45/44 59/61/59 75/77/75 
f 65/67/65 78/80/78 75/77/75 
f 77/79/77 68/70/68 67/69/67 
f 74/76/74 77/79/77 80/82/80 
f 77/79/77 74/76/74 68/70/68 
f 81/83/81 11/11/11 12/12/12 
f 81/83/81 12/12/12 13/13/13 
f 82/84/82 81/83/81 13/13/13 
f 83/85/83 81/83/81 82/84/82 
f 84/86/84 85/87/85 18/18/18 
f 18/18/18 16/16/16 84/86/84 
f 86/88/86 18/89/18 85/90/85 
f 87/91/87 18/89/18 86/88/86 
f 84/86/84 16/16/16 11/11/11 
f 11/11/11 81/83/81 84/86/84 
f 85/87/85 84/86/84 83/85/83 
f 83/85/83 84/86/84 81/83/81 
f 82/92/82 88/93/88 83/94/83 
f 89/95/89 83/94/83 88/93/88 
f 89/95/89 85/90/85 83/94/83 
f 86/88/86 85/90/85 89/95/89 
f 88/93/88 82/92/82 90/96/90 
f 88/93/88 91/97/91 89/95/89 
f 92/98/92 13/13/13 27/27/27 
f 9/9/9 27/27/27 13/13/13 
f 92/98/92 26/26/26 30/30/30 
f 27/27/27 26/26/26 92/98/92 
f 82/84/82 13/13/13 92/98/92 
f 93/99/93 94/100/94 92/101/92 
f 93/102/93 30/30/30 35/35/35 
f 30/30/30 93/102/93 92/98/92 
f 34/103/34 33/104/33 37/105/37 
f 34/103/34 95/106/95 93/99/93 
f 90/96/90 82/92/82 92/101/92 
f 92/101/92 94/100/94 96/107/96 
f 93/99/93 95/106/95 94/100/94 
f 90/96/90 92/101/92 96/107/96 
f 96/107/96 94/100/94 97/108/97 
f 95/106/95 97/108/97 94/100/94 
f 35/35/35 34/34/34 93/102/93 
f 72/74/72 34/103/34 37/105/37 
f 95/106/95 34/103/34 72/74/72 
f 95/106/95 72/74/72 73/75/73 
f 90/96/90 96/107/96 98/109/98 
f 98/109/98 88/93/88 90/96/90 
f 99/110/99 96/107/96 97/108/97 
f 99/110/99 98/109/98 96/107/96 
f 18/89/18 87/91/87 19/111/19 
f 19/111/19 87/91/87 53/112/53 
f 100/113/100 87/91/87 86/88/86 
f 55/56/55 100/113/100 62/64/62 
f 62/64/62 51/52/51 55/56/55 
f 55/56/55 53/112/53 87/91/87 
f 100/113/100 55/56/55 87/91/87 
f 100/113/100 101/114/101 62/64/62 
f 89/95/89 91/97/91 86/88/86 
f 86/88/86 91/97/91 100/113/100 
f 100/113/100 91/97/91 101/114/101 
f 101/114/101 91/97/91 102/115/102 
f 103/116/103 101/114/101 102/115/102 
f 104/117/104 105/118/105 102/115/102 
f 104/117/104 102/115/102 91/97/91 
f 61/63/61 60/62/60 64/66/64 
f 64/66/64 60/62/60 62/64/62 
f 103/116/103 62/64/62 101/114/101 
f 103/116/103 64/66/64 62/64/62 
f 103/116/103 106/119/106 64/66/64 
f 64/66/64 106/119/106 107/120/107 
f 63/65/63 107/120/107 108/121/108 
f 107/120/107 63/65/63 64/66/64 
f 102/115/102 106/119/106 103/116/103 
f 102/115/102 105/118/105 106/119/106 
f 107/120/107 106/119/106 109/122/109 
f 109/122/109 106/119/106 105/118/105 
f 91/97/91 88/93/88 98/109/98 
f 110/123/110 91/97/91 98/109/98 
f 91/97/91 110/123/110 104/117/104 
f 111/124/111 99/110/99 97/108/97 
f 112/125/112 113/126/113 114/127/114 
f 112/125/112 114/127/114 105/118/105 
f 115/128/115 111/124/111 116/129/116 
f 117/130/117 116/129/116 118/131/118 
f 113/126/113 115/128/115 117/130/117 
f 113/126/113 112/125/112 115/128/115 
f 115/128/115 116/129/116 117/130/117 
f 119/132/119 73/75/73 120/133/120 
f 70/72/70 73/75/73 72/74/72 
f 74/76/74 118/131/118 120/133/120 
f 120/133/120 73/75/73 74/76/74 
f 116/129/116 120/133/120 118/131/118 
f 95/106/95 73/75/73 119/132/119 
f 111/124/111 97/108/97 119/132/119 
f 116/129/116 111/124/111 119/132/119 
f 97/108/97 95/106/95 119/132/119 
f 119/132/119 120/133/120 116/129/116 
f 109/122/109 108/121/108 107/120/107 
f 121/134/121 122/135/122 108/121/108 
f 109/122/109 123/136/123 108/121/108 
f 121/134/121 79/81/79 78/80/78 
f 123/136/123 121/134/121 108/121/108 
f 124/137/124 118/131/118 80/82/80 
f 124/137/124 80/82/80 79/81/79 
f 123/136/123 124/137/124 121/134/121 
f 124/137/124 79/81/79 121/134/121 
f 122/135/122 65/67/65 63/65/63 
f 122/135/122 78/80/78 65/67/65 
f 63/65/63 108/121/108 122/135/122 
f 121/134/121 78/80/78 122/135/122 
f 109/122/109 105/118/105 114/127/114 
f 109/122/109 114/127/114 123/136/123 
f 113/126/113 123/136/123 114/127/114 
f 117/130/117 118/131/118 124/137/124 
f 123/136/123 113/126/113 124/137/124 
f 117/130/117 124/137/124 113/126/113 
f 118/131/118 74/76/74 80/82/80 
f 98/109/98 125/138/125 110/123/110 
f 125/138/125 98/109/98 99/110/99 
f 111/124/111 115/128/115 99/110/99 
f 99/110/99 115/128/115 125/138/125 
f 105/118/105 104/117/104 110/123/110 
f 115/128/115 112/125/112 125/138/125 
f 110/123/110 125/138/125 112/125/112 
f 105/118/105 110/123/110 112/125/112 
f 33/139/33 32/140/32 126/141/126 127/142/127 
f 32/140/32 37/143/37 128/144/128 126/141/126 
f 37/143/37 33/145/33 127/146/127 128/144/128 
f 127/142/127 126/141/126 129/147/129 130/148/130 
f 126/141/126 128/144/128 131/149/131 129/147/129 
f 128/144/128 127/146/127 130/150/130 131/149/131 
f 129/147/129 131/151/131 130/148/130 
# 6 polygons - 246 triangles

