# 3ds Max Wavefront OBJ Exporter v0.97b - (c)2007 guruware
# File Created: 26.05.2016 00:52:33

mtllib Kiwi_02.mtl

#
# object Kiwi_02
#

v  -0.0254 -0.0225 0.0070
v  -0.0283 -0.0176 0.0144
v  -0.0341 -0.0190 -0.0020
v  -0.0186 -0.0267 -0.0016
v  -0.0261 -0.0211 -0.0137
v  0.0211 -0.0236 0.0067
v  0.0143 -0.0214 0.0138
v  0.0057 -0.0266 0.0040
v  0.0124 -0.0265 -0.0044
v  0.0019 -0.0239 0.0141
v  -0.0108 -0.0265 0.0085
v  -0.0177 -0.0201 0.0188
v  -0.0014 -0.0178 0.0227
v  -0.0071 -0.0126 0.0267
v  -0.0296 -0.0107 0.0207
v  -0.0189 -0.0071 0.0272
v  0.0091 -0.0190 0.0190
v  0.0136 -0.0136 0.0233
v  -0.0031 -0.0271 -0.0107
v  -0.0126 -0.0257 -0.0144
v  -0.0378 -0.0092 0.0091
v  -0.0343 -0.0018 0.0197
v  -0.0391 -0.0072 0.0014
v  -0.0392 0.0001 0.0078
v  -0.0397 -0.0048 -0.0040
v  -0.0381 0.0077 0.0129
v  -0.0190 0.0032 0.0282
v  -0.0303 0.0130 0.0204
v  -0.0061 0.0025 0.0298
v  -0.0133 0.0148 0.0256
v  -0.0120 0.0211 0.0197
v  -0.0399 0.0060 0.0033
v  -0.0329 0.0188 0.0066
v  -0.0226 0.0236 0.0086
v  0.0279 -0.0160 0.0145
v  0.0268 -0.0230 -0.0085
v  0.0313 -0.0192 0.0053
v  0.0168 -0.0246 -0.0126
v  0.0338 -0.0182 -0.0016
v  0.0358 -0.0110 0.0080
v  0.0354 -0.0132 -0.0085
v  0.0381 -0.0076 0.0016
v  0.0239 -0.0097 0.0214
v  0.0093 0.0008 0.0276
v  0.0272 0.0015 0.0218
v  0.0334 -0.0021 0.0168
v  0.0187 0.0126 0.0224
v  0.0313 0.0103 0.0167
v  0.0397 0.0001 0.0024
v  0.0402 -0.0040 -0.0030
v  0.0382 0.0072 0.0076
v  0.0257 0.0207 0.0089
v  0.0219 0.0171 0.0172
v  0.0341 0.0141 0.0094
v  -0.0015 0.0141 0.0263
v  0.0050 0.0203 0.0192
v  0.0083 0.0156 0.0236
v  -0.0018 0.0257 0.0097
v  0.0129 0.0266 -0.0035
v  0.0163 0.0226 0.0116
v  -0.0247 -0.0155 -0.0212
v  -0.0372 -0.0121 -0.0120
v  -0.0270 -0.0045 -0.0252
v  -0.0382 -0.0012 -0.0170
v  -0.0002 -0.0184 -0.0240
v  0.0086 -0.0234 -0.0174
v  0.0162 -0.0184 -0.0231
v  -0.0129 -0.0105 -0.0276
v  -0.0187 0.0011 -0.0285
v  0.0062 -0.0039 -0.0298
v  -0.0034 0.0099 -0.0272
v  -0.0195 0.0133 -0.0236
v  -0.0043 0.0013 -0.0298
v  -0.0402 0.0024 -0.0061
v  -0.0333 0.0087 -0.0189
v  -0.0384 0.0112 -0.0047
v  -0.0283 0.0221 -0.0053
v  -0.0111 0.0266 -0.0068
v  -0.0027 0.0199 -0.0191
v  0.0242 -0.0161 -0.0222
v  0.0324 -0.0138 -0.0148
v  0.0339 -0.0056 -0.0159
v  0.0377 -0.0050 -0.0100
v  0.0378 0.0017 -0.0109
v  0.0176 -0.0037 -0.0287
v  0.0285 -0.0003 -0.0241
v  0.0263 0.0088 -0.0237
v  0.0143 0.0078 -0.0279
v  0.0080 0.0160 -0.0224
v  0.0201 0.0183 -0.0183
v  0.0348 0.0059 -0.0155
v  0.0293 0.0176 -0.0137
v  0.0089 0.0230 -0.0143
v  0.0219 0.0239 -0.0097
v  0.0373 0.0126 -0.0032
v  0.0386 0.0037 -0.0061
v  0.0292 0.0215 -0.0036
v  0.0016 0.0271 0.0010
v  0.0005 0.0262 -0.0087
# 99 vertices

vn -0.3366 -0.8943 0.2947
vn -0.4581 -0.7368 0.4972
vn -0.6468 -0.7598 0.0657
vn -0.1823 -0.9830 0.0231
vn -0.4250 -0.8275 -0.3669
vn 0.3768 -0.8857 0.2712
vn 0.3206 -0.8175 0.4784
vn 0.1817 -0.9697 0.1636
vn 0.2120 -0.9757 -0.0559
vn 0.1950 -0.8747 0.4437
vn 0.0041 -0.9593 0.2823
vn -0.1254 -0.7661 0.6304
vn 0.1635 -0.6800 0.7147
vn 0.0840 -0.4308 0.8985
vn -0.4664 -0.4687 0.7502
vn -0.1735 -0.3065 0.9359
vn 0.3015 -0.7352 0.6071
vn 0.3425 -0.4654 0.8162
vn 0.0749 -0.9660 -0.2474
vn -0.1177 -0.8919 -0.4366
vn -0.8279 -0.4255 0.3654
vn -0.6656 -0.1455 0.7320
vn -0.9373 -0.3199 0.1385
vn -0.9443 -0.1436 0.2961
vn -0.9719 -0.2328 0.0358
vn -0.8771 0.1844 0.4435
vn -0.2190 0.0821 0.9723
vn -0.5275 0.4475 0.7221
vn 0.0987 0.0520 0.9938
vn -0.1252 0.5034 0.8549
vn -0.1408 0.8126 0.5656
vn -0.9813 0.1005 0.1643
vn -0.7023 0.6707 0.2386
vn -0.3500 0.8949 0.2771
vn 0.6142 -0.5686 0.5471
vn 0.5158 -0.8203 -0.2471
vn 0.6888 -0.6892 0.2249
vn 0.2326 -0.9079 -0.3488
vn 0.8131 -0.5773 -0.0750
vn 0.9111 -0.2943 0.2887
vn 0.8612 -0.3842 -0.3327
vn 0.9645 -0.2586 0.0539
vn 0.5212 -0.3072 0.7963
vn 0.2889 0.0276 0.9569
vn 0.5469 0.0875 0.8326
vn 0.8216 -0.0553 0.5674
vn 0.3501 0.4485 0.8224
vn 0.6542 0.4418 0.6139
vn 0.9921 0.0883 0.0888
vn 0.9879 -0.0820 -0.1320
vn 0.9343 0.2794 0.2212
vn 0.3904 0.8698 0.3018
vn 0.3629 0.7216 0.5896
vn 0.6982 0.6504 0.2992
vn 0.1176 0.4947 0.8611
vn 0.1044 0.8181 0.5655
vn 0.2195 0.5585 0.7999
vn -0.0421 0.9590 0.2804
vn 0.0695 0.9960 -0.0560
vn 0.1746 0.9154 0.3627
vn -0.4135 -0.5926 -0.6913
vn -0.8128 -0.5085 -0.2844
vn -0.5403 -0.1948 -0.8186
vn -0.8884 -0.0793 -0.4522
vn -0.0384 -0.6288 -0.7766
vn 0.0931 -0.8712 -0.4821
vn 0.1641 -0.6287 -0.7601
vn -0.1910 -0.4023 -0.8954
vn -0.3386 0.0806 -0.9375
vn -0.0334 -0.1203 -0.9922
vn -0.1323 0.4373 -0.8895
vn -0.3769 0.5637 -0.7350
vn -0.1076 0.1042 -0.9887
vn -0.9982 0.0076 -0.0602
vn -0.7257 0.3797 -0.5737
vn -0.9177 0.3851 -0.0976
vn -0.5629 0.8011 -0.2036
vn -0.2455 0.9417 -0.2301
vn -0.1606 0.7494 -0.6423
vn 0.4348 -0.5070 -0.7443
vn 0.7382 -0.3795 -0.5576
vn 0.7608 -0.1211 -0.6376
vn 0.8646 -0.1254 -0.4866
vn 0.8694 0.1452 -0.4722
vn 0.1679 -0.1033 -0.9804
vn 0.5432 0.0150 -0.8394
vn 0.3813 0.4149 -0.8261
vn 0.0422 0.3672 -0.9292
vn -0.0485 0.6613 -0.7486
vn 0.1204 0.7216 -0.6817
vn 0.7522 0.2887 -0.5923
vn 0.5033 0.6808 -0.5321
vn -0.0334 0.8505 -0.5249
vn 0.1931 0.9211 -0.3381
vn 0.8349 0.5207 -0.1784
vn 0.9402 0.2517 -0.2295
vn 0.4874 0.8692 -0.0833
vn -0.0478 0.9957 0.0800
vn -0.0920 0.9436 -0.3181
# 99 vertex normals

vt 0.2509 0.6269 0.0000
vt 0.2042 0.6439 0.0000
vt 0.2506 0.5512 0.0000
vt 0.3115 0.6306 0.0000
vt 0.3255 0.5406 0.0000
vt 0.4728 0.8107 0.0000
vt 0.4057 0.8217 0.0000
vt 0.4071 0.7394 0.0000
vt 0.4709 0.7264 0.0000
vt 0.3487 0.7693 0.0000
vt 0.3108 0.6980 0.0000
vt 0.2362 0.7065 0.0000
vt 0.2873 0.7960 0.0000
vt 0.2302 0.7939 0.0000
vt 0.1582 0.6591 0.0000
vt 0.1551 0.7410 0.0000
vt 0.3540 0.8252 0.0000
vt 0.3474 0.8704 0.0000
vt 0.4167 0.6435 0.0000
vt 0.3796 0.6037 0.0000
vt 0.1684 0.5682 0.0000
vt 0.1144 0.6254 0.0000
vt 0.1813 0.5185 0.0000
vt 0.1283 0.5348 0.0000
vt 0.1946 0.4796 0.0000
vt 0.0811 0.5530 0.0000
vt 0.0880 0.7458 0.0000
vt 0.0251 0.6201 0.0000
vt 0.1490 0.8478 0.0000
vt 0.5064 0.0525 0.0000
vt 0.6214 0.0093 0.0000
vt 0.6228 0.0907 0.0000
vt 0.7114 0.0449 0.0000
vt 0.6015 0.1372 0.0000
vt 0.1151 0.4860 0.0000
vt 0.0092 0.5087 0.0000
vt 0.4994 0.1645 0.0000
vt 0.4240 0.1454 0.0000
vt 0.4629 0.8883 0.0000
vt 0.5668 0.7507 0.0000
vt 0.5305 0.8480 0.0000
vt 0.5207 0.6995 0.0000
vt 0.5852 0.8195 0.0000
vt 0.5347 0.9127 0.0000
vt 0.6542 0.7518 0.0000
vt 0.9800 0.4995 0.0000
vt 0.9255 0.5322 0.0000
vt 0.9220 0.4523 0.0000
vt 0.9639 0.4154 0.0000
vt 0.3965 0.9190 0.0000
vt 0.2612 0.9276 0.0000
vt 0.3847 0.9907 0.0000
vt 0.4566 0.9825 0.0000
vt 0.8907 0.2393 0.0000
vt 0.7993 0.2184 0.0000
vt 0.8119 0.1145 0.0000
vt 0.9277 0.3167 0.0000
vt 0.8500 0.2969 0.0000
vt 0.8804 0.4272 0.0000
vt 0.8850 0.4719 0.0000
vt 0.8568 0.3767 0.0000
vt 0.7690 0.3147 0.0000
vt 0.7862 0.2592 0.0000
vt 0.8250 0.3457 0.0000
vt 0.6953 0.1245 0.0000
vt 0.6967 0.1926 0.0000
vt 0.7386 0.1768 0.0000
vt 0.6231 0.2213 0.0000
vt 0.6593 0.3286 0.0000
vt 0.7303 0.2688 0.0000
vt 0.3503 0.5026 0.0000
vt 0.2591 0.4831 0.0000
vt 0.3531 0.4348 0.0000
vt 0.2677 0.4119 0.0000
vt 0.4747 0.5773 0.0000
vt 0.4965 0.6469 0.0000
vt 0.5555 0.6358 0.0000
vt 0.4253 0.5010 0.0000
vt 0.4052 0.4307 0.0000
vt 0.5429 0.5218 0.0000
vt 0.5118 0.4267 0.0000
vt 0.4189 0.3682 0.0000
vt 0.4942 0.4640 0.0000
vt 0.1780 0.4250 0.0000
vt 0.3151 0.3369 0.0000
vt 0.2692 0.2385 0.0000
vt 0.3291 0.2221 0.0000
vt 0.0893 0.4339 0.0000
vt 0.4206 0.2346 0.0000
vt 0.5228 0.2772 0.0000
vt 0.5369 0.3690 0.0000
vt 0.5997 0.6509 0.0000
vt 0.6440 0.7015 0.0000
vt 0.8517 0.5621 0.0000
vt 0.8688 0.5181 0.0000
vt 0.7015 0.6531 0.0000
vt 0.8255 0.5072 0.0000
vt 0.6015 0.5573 0.0000
vt 0.6784 0.5741 0.0000
vt 0.6845 0.5133 0.0000
vt 0.6083 0.4894 0.0000
vt 0.5898 0.4235 0.0000
vt 0.6683 0.4334 0.0000
vt 0.7659 0.5337 0.0000
vt 0.7254 0.4484 0.0000
vt 0.6135 0.3731 0.0000
vt 0.6959 0.3867 0.0000
vt 0.7997 0.4305 0.0000
vt 0.8352 0.4689 0.0000
vt 0.7458 0.3871 0.0000
vt 0.6147 0.2712 0.0000
vt 0.5815 0.3162 0.0000
# 112 texture coords

g Kiwi_02
usemtl _Kiwi_02default
s 1
f 1/1/1 2/2/2 3/3/3 
f 4/4/4 1/1/1 3/3/3 
f 3/3/3 5/5/5 4/4/4 
f 6/6/6 7/7/7 8/8/8 
f 9/9/9 6/6/6 8/8/8 
f 8/8/8 10/10/10 11/11/11 
f 1/1/1 11/11/11 12/12/12 
f 10/10/10 13/13/13 12/12/12 
f 13/13/13 14/14/14 12/12/12 
f 11/11/11 10/10/10 12/12/12 
f 12/12/12 15/15/15 2/2/2 
f 16/16/16 12/12/12 14/14/14 
f 1/1/1 12/12/12 2/2/2 
f 4/4/4 11/11/11 1/1/1 
f 10/10/10 8/8/8 7/7/7 
f 13/13/13 17/17/17 18/18/18 
f 17/17/17 13/13/13 10/10/10 
f 7/7/7 17/17/17 10/10/10 
f 13/13/13 18/18/18 14/14/14 
f 4/4/4 19/19/19 11/11/11 
f 19/19/19 4/4/4 20/20/20 
f 9/9/9 8/8/8 19/19/19 
f 11/11/11 19/19/19 8/8/8 
f 21/21/21 2/2/2 15/15/15 
f 22/22/22 21/21/21 15/15/15 
f 2/2/2 21/21/21 3/3/3 
f 3/3/3 21/21/21 23/23/23 
f 23/23/23 21/21/21 24/24/24 
f 24/24/24 21/21/21 22/22/22 
f 24/24/24 25/25/25 23/23/23 
f 26/26/26 24/24/24 22/22/22 
f 12/12/12 16/16/16 15/15/15 
f 15/15/15 16/16/16 22/22/22 
f 27/27/27 22/22/22 16/16/16 
f 28/28/28 22/22/22 27/27/27 
f 27/27/27 16/16/16 29/29/29 
f 29/29/29 16/16/16 14/14/14 
f 28/30/28 27/31/27 30/32/30 
f 29/33/29 30/32/30 27/31/27 
f 31/34/31 28/30/28 30/32/30 
f 26/26/26 32/35/32 24/24/24 
f 26/26/26 28/28/28 33/36/33 
f 26/26/26 22/22/22 28/28/28 
f 34/37/34 33/38/33 28/30/28 
f 34/37/34 28/30/28 31/34/31 
f 7/7/7 6/6/6 35/39/35 
f 36/40/36 37/41/37 6/6/6 
f 36/40/36 9/9/9 38/42/38 
f 6/6/6 37/41/37 35/39/35 
f 36/40/36 39/43/39 37/41/37 
f 9/9/9 36/40/36 6/6/6 
f 37/41/37 39/43/39 40/44/40 
f 40/44/40 35/39/35 37/41/37 
f 39/43/39 36/40/36 41/45/41 
f 39/46/39 41/47/41 42/48/42 
f 39/46/39 42/48/42 40/49/40 
f 35/39/35 17/17/17 7/7/7 
f 18/18/18 17/17/17 35/39/35 
f 18/18/18 43/50/43 44/51/44 
f 43/50/43 18/18/18 35/39/35 
f 29/29/29 14/14/14 44/51/44 
f 18/18/18 44/51/44 14/14/14 
f 45/52/45 44/51/44 43/50/43 
f 43/50/43 35/39/35 46/53/46 
f 46/53/46 35/39/35 40/44/40 
f 46/53/46 45/52/45 43/50/43 
f 45/54/45 47/55/47 44/56/44 
f 45/54/45 46/57/46 48/58/48 
f 42/48/42 49/59/49 40/49/40 
f 50/60/50 49/59/49 42/48/42 
f 45/54/45 48/58/48 47/55/47 
f 40/49/40 51/61/51 46/57/46 
f 49/59/49 51/61/51 40/49/40 
f 51/61/51 48/58/48 46/57/46 
f 52/62/52 53/63/53 48/58/48 
f 54/64/54 48/58/48 51/61/51 
f 54/64/54 52/62/52 48/58/48 
f 48/58/48 53/63/53 47/55/47 
f 55/65/55 30/32/30 29/33/29 
f 56/66/56 55/65/55 57/67/57 
f 55/65/55 44/56/44 57/67/57 
f 55/65/55 29/33/29 44/56/44 
f 31/34/31 30/32/30 55/65/55 
f 57/67/57 44/56/44 47/55/47 
f 53/63/53 57/67/57 47/55/47 
f 56/66/56 58/68/58 31/34/31 
f 34/37/34 31/34/31 58/68/58 
f 56/66/56 31/34/31 55/65/55 
f 52/62/52 59/69/59 60/70/60 
f 60/70/60 58/68/58 56/66/56 
f 56/66/56 57/67/57 53/63/53 
f 60/70/60 56/66/56 53/63/53 
f 52/62/52 60/70/60 53/63/53 
f 20/20/20 4/4/4 5/5/5 
f 61/71/61 20/20/20 5/5/5 
f 61/71/61 5/5/5 62/72/62 
f 5/5/5 3/3/3 62/72/62 
f 63/73/63 62/72/62 64/74/64 
f 61/71/61 62/72/62 63/73/63 
f 19/19/19 65/75/65 66/76/66 
f 19/19/19 66/76/66 9/9/9 
f 38/42/38 9/9/9 66/76/66 
f 66/76/66 67/77/67 38/42/38 
f 67/77/67 66/76/66 65/75/65 
f 65/75/65 19/19/19 20/20/20 
f 65/75/65 20/20/20 68/78/68 
f 68/78/68 20/20/20 61/71/61 
f 68/78/68 61/71/61 63/73/63 
f 68/78/68 63/73/63 69/79/69 
f 70/80/70 67/77/67 65/75/65 
f 65/75/65 68/78/68 70/80/70 
f 71/81/71 69/79/69 72/82/72 
f 71/81/71 73/83/73 69/79/69 
f 68/78/68 73/83/73 70/80/70 
f 71/81/71 70/80/70 73/83/73 
f 73/83/73 68/78/68 69/79/69 
f 62/72/62 3/3/3 23/23/23 
f 25/25/25 74/84/74 62/72/62 
f 62/72/62 74/84/74 64/74/64 
f 25/25/25 62/72/62 23/23/23 
f 25/25/25 24/24/24 32/35/32 
f 64/74/64 74/84/74 75/85/75 
f 75/85/75 74/86/74 76/87/76 
f 32/35/32 74/84/74 25/25/25 
f 76/88/76 74/84/74 32/35/32 
f 75/85/75 63/73/63 64/74/64 
f 76/88/76 32/35/32 26/26/26 
f 76/88/76 26/26/26 33/36/33 
f 76/87/76 33/38/33 77/89/77 
f 78/90/78 77/89/77 34/37/34 
f 78/90/78 34/37/34 58/68/58 
f 34/37/34 77/89/77 33/38/33 
f 75/85/75 72/82/72 69/79/69 
f 63/73/63 75/85/75 69/79/69 
f 72/82/72 75/85/75 77/89/77 
f 76/87/76 77/89/77 75/85/75 
f 72/82/72 78/90/78 79/91/79 
f 72/82/72 79/91/79 71/81/71 
f 72/82/72 77/89/77 78/90/78 
f 80/92/80 81/93/81 36/40/36 
f 81/93/81 41/45/41 36/40/36 
f 80/92/80 36/40/36 67/77/67 
f 36/40/36 38/42/38 67/77/67 
f 82/94/82 83/95/83 41/47/41 
f 41/47/41 50/60/50 42/48/42 
f 41/47/41 83/95/83 50/60/50 
f 82/96/82 41/45/41 81/93/81 
f 82/94/82 84/97/84 83/95/83 
f 80/92/80 85/98/85 86/99/86 
f 67/77/67 85/98/85 80/92/80 
f 80/92/80 82/96/82 81/93/81 
f 80/92/80 86/99/86 82/96/82 
f 87/100/87 85/98/85 88/101/88 
f 88/101/88 85/98/85 70/80/70 
f 70/80/70 85/98/85 67/77/67 
f 89/102/89 71/81/71 79/91/79 
f 90/103/90 88/101/88 89/102/89 
f 88/101/88 71/81/71 89/102/89 
f 70/80/70 71/81/71 88/101/88 
f 86/99/86 87/100/87 91/104/91 
f 87/100/87 86/99/86 85/98/85 
f 87/100/87 92/105/92 91/104/91 
f 86/99/86 91/104/91 82/96/82 
f 82/94/82 91/104/91 84/97/84 
f 90/103/90 93/106/93 94/107/94 
f 87/100/87 90/103/90 92/105/92 
f 94/107/94 92/105/92 90/103/90 
f 90/103/90 89/102/89 93/106/93 
f 87/100/87 88/101/88 90/103/90 
f 84/97/84 50/60/50 83/95/83 
f 84/97/84 95/108/95 96/109/96 
f 50/60/50 96/109/96 49/59/49 
f 96/109/96 51/61/51 49/59/49 
f 84/97/84 91/104/91 95/108/95 
f 96/109/96 50/60/50 84/97/84 
f 95/108/95 51/61/51 96/109/96 
f 95/108/95 91/104/91 92/105/92 
f 97/110/97 54/64/54 95/108/95 
f 95/108/95 54/64/54 51/61/51 
f 52/62/52 54/64/54 97/110/97 
f 95/108/95 92/105/92 97/110/97 
f 94/107/94 97/110/97 92/105/92 
f 78/90/78 58/68/58 98/111/98 
f 98/111/98 99/112/99 78/90/78 
f 99/112/99 98/111/98 59/69/59 
f 98/111/98 58/68/58 60/70/60 
f 60/70/60 59/69/59 98/111/98 
f 99/112/99 79/91/79 78/90/78 
f 93/106/93 79/91/79 99/112/99 
f 93/106/93 89/102/89 79/91/79 
f 93/106/93 59/69/59 94/107/94 
f 59/69/59 93/106/93 99/112/99 
f 97/110/97 59/69/59 52/62/52 
f 94/107/94 59/69/59 97/110/97 
# 0 polygons - 194 triangles

