# 3ds Max Wavefront OBJ Exporter v0.97b - (c)2007 guruware
# File Created: 26.05.2016 02:05:01

mtllib Passionfruit_02.mtl

#
# object Passionfruit_02
#

v  0.0213 -0.0116 0.0399
v  0.0160 -0.0265 0.0346
v  0.0308 -0.0205 0.0321
v  0.0306 0.0074 0.0331
v  0.0148 -0.0007 0.0410
v  0.0415 -0.0069 0.0285
v  0.0026 -0.0155 0.0418
v  0.0131 0.0154 0.0348
v  -0.0063 0.0023 0.0417
v  -0.0063 0.0161 0.0356
v  0.0475 -0.0067 0.0189
v  0.0398 -0.0250 0.0190
v  0.0503 -0.0125 0.0049
v  0.0393 -0.0301 0.0019
v  0.0286 -0.0357 0.0134
v  0.0163 -0.0378 0.0200
v  0.0215 -0.0399 0.0021
v  0.0470 0.0087 0.0178
v  0.0396 0.0285 0.0103
v  0.0310 0.0265 0.0222
v  0.0485 0.0161 0.0039
v  0.0511 0.0016 -0.0067
v  0.0482 0.0019 0.0043
v  0.0485 0.0153 -0.0059
v  -0.0121 -0.0104 0.0417
v  -0.0085 -0.0255 0.0363
v  -0.0250 -0.0194 0.0359
v  -0.0339 -0.0097 0.0337
v  -0.0247 0.0101 0.0366
v  -0.0015 -0.0376 0.0239
v  -0.0237 -0.0336 0.0235
v  0.0045 -0.0418 0.0116
v  -0.0132 -0.0417 0.0047
v  -0.0201 -0.0384 0.0164
v  -0.0430 -0.0222 0.0207
v  -0.0482 -0.0045 0.0203
v  -0.0338 -0.0351 0.0061
v  -0.0442 -0.0267 0.0025
v  -0.0508 -0.0104 0.0097
v  -0.0486 -0.0188 -0.0019
v  0.0070 0.0355 0.0207
v  -0.0194 0.0290 0.0251
v  0.0222 0.0393 0.0076
v  0.0366 0.0325 0.0016
v  0.0425 0.0213 -0.0136
v  0.0127 0.0409 -0.0055
v  0.0018 0.0420 0.0063
v  0.0268 0.0344 -0.0130
v  -0.0189 0.0364 0.0147
v  -0.0007 0.0420 -0.0012
v  -0.0194 0.0338 -0.0151
v  -0.0231 0.0370 0.0025
v  -0.0044 0.0393 -0.0125
v  -0.0394 0.0099 0.0281
v  -0.0333 0.0258 0.0206
v  -0.0462 0.0171 0.0129
v  -0.0511 -0.0044 0.0013
v  -0.0503 0.0118 0.0028
v  -0.0370 0.0291 0.0087
v  -0.0298 0.0319 -0.0070
v  -0.0438 0.0220 -0.0019
v  0.0486 -0.0155 -0.0076
v  0.0413 -0.0234 -0.0159
v  0.0470 -0.0092 -0.0197
v  0.0279 -0.0344 -0.0125
v  0.0100 -0.0420 -0.0041
v  0.0298 -0.0264 -0.0263
v  0.0093 -0.0372 -0.0211
v  0.0446 0.0037 -0.0234
v  0.0344 -0.0120 -0.0325
v  0.0306 0.0222 -0.0242
v  0.0296 0.0049 -0.0347
v  0.0167 -0.0016 -0.0408
v  0.0120 -0.0167 -0.0405
v  0.0181 -0.0254 -0.0333
v  -0.0015 -0.0294 -0.0327
v  -0.0070 0.0008 -0.0418
v  -0.0079 -0.0395 -0.0139
v  -0.0247 -0.0350 -0.0167
v  -0.0153 -0.0297 -0.0295
v  -0.0406 -0.0265 -0.0141
v  -0.0285 -0.0208 -0.0316
v  -0.0385 -0.0114 -0.0283
v  -0.0151 -0.0174 -0.0386
v  0.0173 0.0285 -0.0248
v  0.0014 0.0360 -0.0189
v  0.0063 0.0089 -0.0389
v  -0.0016 0.0298 -0.0254
v  -0.0188 0.0205 -0.0279
v  -0.0311 0.0024 -0.0323
v  -0.0384 0.0196 -0.0156
v  -0.0456 0.0024 -0.0179
v  -0.0490 -0.0104 -0.0137
v  -0.0185 -0.0036 -0.0391
# 94 vertices

vn 0.3214 -0.1431 0.9361
vn 0.2239 -0.6169 0.7545
vn 0.4970 -0.4849 0.7196
vn 0.4614 0.3010 0.8345
vn 0.1895 0.1782 0.9656
vn 0.7045 -0.0705 0.7062
vn 0.0317 -0.2583 0.9655
vn 0.1584 0.4793 0.8632
vn -0.0495 0.2101 0.9764
vn -0.0241 0.5059 0.8622
vn 0.9253 -0.1089 0.3634
vn 0.6949 -0.5884 0.4134
vn 0.9645 -0.2342 0.1218
vn 0.6827 -0.7307 -0.0048
vn 0.4491 -0.8468 0.2848
vn 0.2456 -0.8710 0.4256
vn 0.3210 -0.9470 -0.0129
vn 0.8709 0.2341 0.4322
vn 0.6870 0.6584 0.3075
vn 0.4367 0.6123 0.6591
vn 0.9341 0.3377 0.1155
vn 0.9939 0.0606 -0.0920
vn 0.9826 0.0583 0.1761
vn 0.9085 0.3783 -0.1778
vn -0.1945 -0.1185 0.9737
vn -0.1102 -0.5809 0.8065
vn -0.3684 -0.3849 0.8463
vn -0.5209 -0.1124 0.8462
vn -0.3212 0.3168 0.8924
vn -0.0293 -0.8604 0.5088
vn -0.3474 -0.7645 0.5430
vn 0.0394 -0.9818 0.1858
vn -0.1644 -0.9861 0.0223
vn -0.2504 -0.9194 0.3034
vn -0.7202 -0.5045 0.4761
vn -0.8732 -0.0142 0.4871
vn -0.4968 -0.8645 0.0767
vn -0.7673 -0.6409 0.0246
vn -0.9712 -0.1807 0.1554
vn -0.9199 -0.3837 -0.0805
vn 0.0752 0.7841 0.6160
vn -0.2148 0.6863 0.6949
vn 0.3053 0.9282 0.2129
vn 0.6100 0.7911 -0.0451
vn 0.7210 0.5538 -0.4165
vn 0.2022 0.9520 -0.2298
vn -0.0221 0.9794 0.2008
vn 0.3932 0.8261 -0.4036
vn -0.2605 0.8934 0.3659
vn -0.1005 0.9913 -0.0852
vn -0.3427 0.8045 -0.4851
vn -0.3561 0.9341 -0.0257
vn -0.1598 0.9224 -0.3517
vn -0.6434 0.2996 0.7045
vn -0.5084 0.6584 0.5551
vn -0.8305 0.4557 0.3204
vn -0.9984 -0.0168 -0.0542
vn -0.9541 0.2968 -0.0404
vn -0.6100 0.7774 0.1536
vn -0.5095 0.8093 -0.2924
vn -0.7739 0.6008 -0.2001
vn 0.9141 -0.3769 -0.1497
vn 0.7083 -0.6023 -0.3682
vn 0.8606 -0.1979 -0.4692
vn 0.4283 -0.8568 -0.2871
vn 0.1191 -0.9843 -0.1301
vn 0.4725 -0.6505 -0.5946
vn 0.1273 -0.8850 -0.4479
vn 0.7744 0.1932 -0.6025
vn 0.5629 -0.2401 -0.7908
vn 0.4446 0.5495 -0.7074
vn 0.4358 0.2742 -0.8572
vn 0.2326 0.1111 -0.9662
vn 0.1548 -0.3179 -0.9354
vn 0.3008 -0.5951 -0.7452
vn -0.0368 -0.7020 -0.7112
vn -0.1332 0.1993 -0.9708
vn -0.1149 -0.9437 -0.3102
vn -0.3507 -0.8597 -0.3712
vn -0.2218 -0.7343 -0.6416
vn -0.6673 -0.6432 -0.3754
vn -0.4613 -0.4611 -0.7580
vn -0.6702 -0.1576 -0.7253
vn -0.2289 -0.3291 -0.9161
vn 0.2077 0.6537 -0.7277
vn 0.0047 0.8221 -0.5693
vn 0.0592 0.4277 -0.9020
vn -0.0893 0.6467 -0.7575
vn -0.3183 0.5466 -0.7745
vn -0.5133 0.2701 -0.8146
vn -0.6449 0.5383 -0.5426
vn -0.8242 0.2328 -0.5163
vn -0.9192 -0.1482 -0.3648
vn -0.3409 0.0690 -0.9376
vn 0.0796 0.9967 -0.0153
vn 0.0370 0.9882 -0.1484
# 96 vertex normals

vt 0.1909 0.0666 0.0000
vt 0.2140 0.1335 0.0000
vt 0.1477 0.1304 0.0000
vt 0.8273 0.5406 0.0000
vt 0.7780 0.4621 0.0000
vt 0.8509 0.4499 0.0000
vt 0.9185 0.5520 0.0000
vt 0.2435 0.0125 0.0000
vt 0.2840 0.0828 0.0000
vt 0.7329 0.5240 0.0000
vt 0.6582 0.4435 0.0000
vt 0.6383 0.5082 0.0000
vt 0.0282 0.1568 0.0000
vt 0.0732 0.1077 0.0000
vt 0.1025 0.1950 0.0000
vt 0.0173 0.2406 0.0000
vt 0.1015 0.2830 0.0000
vt 0.1575 0.2378 0.0000
vt 0.2096 0.2134 0.0000
vt 0.1838 0.2911 0.0000
vt 0.9526 0.6248 0.0000
vt 0.8865 0.6300 0.0000
vt 0.8034 0.6649 0.0000
vt 0.7834 0.6137 0.0000
vt 0.8638 0.6926 0.0000
vt 0.9113 0.7540 0.0000
vt 0.9187 0.6965 0.0000
vt 0.9813 0.7162 0.0000
vt 0.8617 0.7310 0.0000
vt 0.3608 0.0780 0.0000
vt 0.3207 0.1346 0.0000
vt 0.3969 0.1371 0.0000
vt 0.3550 0.0201 0.0000
vt 0.4576 0.1343 0.0000
vt 0.4724 0.0394 0.0000
vt 0.2779 0.1978 0.0000
vt 0.3675 0.2043 0.0000
vt 0.2539 0.2512 0.0000
vt 0.3209 0.2782 0.0000
vt 0.3488 0.2322 0.0000
vt 0.4557 0.2129 0.0000
vt 0.5251 0.2000 0.0000
vt 0.4005 0.2725 0.0000
vt 0.4455 0.2842 0.0000
vt 0.5139 0.2498 0.0000
vt 0.4779 0.2967 0.0000
vt 0.6772 0.6139 0.0000
vt 0.5702 0.5805 0.0000
vt 0.7238 0.6689 0.0000
vt 0.7814 0.6899 0.0000
vt 0.8254 0.7546 0.0000
vt 0.6904 0.7190 0.0000
vt 0.6481 0.6741 0.0000
vt 0.7471 0.7455 0.0000
vt 0.5672 0.6360 0.0000
vt 0.6406 0.7010 0.0000
vt 0.5593 0.7660 0.0000
vt 0.5444 0.6880 0.0000
vt 0.6225 0.7485 0.0000
vt 0.5481 0.4857 0.0000
vt 0.5524 0.1216 0.0000
vt 0.5055 0.5943 0.0000
vt 0.4637 0.5278 0.0000
vt 0.4286 0.6173 0.0000
vt 0.6230 0.2188 0.0000
vt 0.5382 0.2837 0.0000
vt 0.6048 0.2785 0.0000
vt 0.4832 0.6555 0.0000
vt 0.5141 0.7323 0.0000
vt 0.4390 0.7093 0.0000
vt 0.6484 0.3154 0.0000
vt 0.0235 0.3139 0.0000
vt 0.9591 0.8865 0.0000
vt 0.9148 0.8351 0.0000
vt 0.9714 0.8023 0.0000
vt 0.0759 0.3712 0.0000
vt 0.1517 0.3588 0.0000
vt 0.2285 0.3173 0.0000
vt 0.1479 0.4389 0.0000
vt 0.2384 0.3922 0.0000
vt 0.8659 0.8210 0.0000
vt 0.9060 0.9559 0.0000
vt 0.8627 0.9049 0.0000
vt 0.7757 0.7967 0.0000
vt 0.7986 0.8695 0.0000
vt 0.7605 0.9227 0.0000
vt 0.2591 0.5231 0.0000
vt 0.2132 0.4707 0.0000
vt 0.7836 0.9856 0.0000
vt 0.2963 0.4469 0.0000
vt 0.6500 0.9520 0.0000
vt 0.3040 0.3540 0.0000
vt 0.3706 0.3652 0.0000
vt 0.3492 0.4250 0.0000
vt 0.4361 0.3492 0.0000
vt 0.4171 0.4338 0.0000
vt 0.4743 0.4154 0.0000
vt 0.3772 0.4808 0.0000
vt 0.4036 0.5603 0.0000
vt 0.7180 0.7985 0.0000
vt 0.6452 0.7759 0.0000
vt 0.6963 0.9049 0.0000
vt 0.6404 0.8079 0.0000
vt 0.5718 0.8482 0.0000
vt 0.5167 0.9231 0.0000
vt 0.4687 0.8002 0.0000
vt 0.5467 0.3736 0.0000
vt 0.6192 0.3999 0.0000
vt 0.5063 0.4677 0.0000
vt 0.5054 0.3453 0.0000
vt 0.4359 0.5102 0.0000
vt 0.6962 0.7196 0.0000
# 112 texture coords

g Passionfruit_02
usemtl _Passionfruit_02default
s 1
f 1/1/1 2/2/2 3/3/3 
f 4/4/4 5/5/5 1/6/1 
f 4/4/4 1/6/1 6/7/6 
f 5/8/5 7/9/7 1/1/1 
f 8/10/8 5/5/5 4/4/4 
f 9/11/9 8/10/8 10/12/10 
f 5/5/5 8/10/8 9/11/9 
f 11/13/11 6/14/6 12/15/12 
f 13/16/13 12/15/12 14/17/14 
f 13/16/13 11/13/11 12/15/12 
f 12/15/12 6/14/6 3/3/3 
f 15/18/15 12/15/12 16/19/16 
f 2/2/2 16/19/16 12/15/12 
f 12/15/12 3/3/3 2/2/2 
f 14/17/14 12/15/12 15/18/15 
f 16/19/16 17/20/17 15/18/15 
f 6/7/6 11/21/11 18/22/18 
f 19/23/19 20/24/20 18/22/18 
f 21/25/21 19/23/19 18/22/18 
f 18/22/18 4/4/4 6/7/6 
f 4/4/4 18/22/18 20/24/20 
f 22/26/22 21/25/21 23/27/23 
f 22/26/22 23/27/23 13/28/13 
f 18/22/18 11/21/11 23/27/23 
f 13/28/13 23/27/23 11/21/11 
f 21/25/21 18/22/18 23/27/23 
f 21/25/21 22/26/22 24/29/24 
f 1/1/1 3/3/3 6/14/6 
f 2/2/2 1/1/1 7/9/7 
f 25/30/25 26/31/26 7/9/7 
f 2/2/2 7/9/7 26/31/26 
f 27/32/27 26/31/26 25/30/25 
f 7/9/7 5/8/5 9/33/9 
f 9/33/9 25/30/25 7/9/7 
f 28/34/28 27/32/27 29/35/29 
f 25/30/25 9/33/9 29/35/29 
f 29/35/29 27/32/27 25/30/25 
f 30/36/30 2/2/2 26/31/26 
f 16/19/16 2/2/2 30/36/30 
f 26/31/26 31/37/31 30/36/30 
f 17/20/17 16/19/16 32/38/32 
f 32/38/32 16/19/16 30/36/30 
f 33/39/33 32/38/32 30/36/30 
f 34/40/34 33/39/33 30/36/30 
f 34/40/34 30/36/30 31/37/31 
f 31/37/31 26/31/26 27/32/27 
f 31/37/31 27/32/27 35/41/35 
f 36/42/36 35/41/35 28/34/28 
f 35/41/35 27/32/27 28/34/28 
f 34/40/34 31/37/31 37/43/37 
f 37/43/37 31/37/31 35/41/35 
f 35/41/35 38/44/38 37/43/37 
f 35/41/35 39/45/39 38/44/38 
f 40/46/40 38/44/38 39/45/39 
f 20/24/20 8/10/8 4/4/4 
f 10/12/10 41/47/41 42/48/42 
f 41/47/41 10/12/10 8/10/8 
f 43/49/43 20/24/20 19/23/19 
f 44/50/44 43/49/43 19/23/19 
f 43/49/43 41/47/41 20/24/20 
f 45/51/45 44/50/44 24/29/24 
f 21/25/21 44/50/44 19/23/19 
f 21/25/21 24/29/24 44/50/44 
f 46/52/46 47/53/47 43/49/43 
f 43/49/43 48/54/48 46/52/46 
f 48/54/48 43/49/43 44/50/44 
f 47/53/47 41/47/41 43/49/43 
f 8/10/8 20/24/20 41/47/41 
f 42/48/42 41/47/41 49/55/49 
f 47/53/47 49/55/49 41/47/41 
f 50/56/50 51/57/51 52/58/52 
f 52/58/52 49/55/49 47/53/47 
f 50/56/50 53/59/53 51/57/51 
f 50/56/50 52/58/52 47/53/47 
f 10/12/10 29/60/29 9/11/9 
f 28/34/28 29/35/29 54/61/54 
f 42/48/42 29/60/29 10/12/10 
f 42/48/42 49/55/49 55/62/55 
f 29/60/29 55/62/55 54/63/54 
f 55/62/55 56/64/56 54/63/54 
f 29/60/29 42/48/42 55/62/55 
f 28/34/28 54/61/54 36/42/36 
f 56/65/56 36/42/36 54/61/54 
f 57/66/57 40/46/40 39/45/39 
f 35/41/35 36/42/36 39/45/39 
f 39/45/39 36/42/36 58/67/58 
f 58/67/58 36/42/36 56/65/56 
f 59/68/59 55/62/55 49/55/49 
f 59/68/59 56/64/56 55/62/55 
f 59/68/59 49/55/49 52/58/52 
f 52/58/52 60/69/60 59/68/59 
f 61/70/61 56/64/56 59/68/59 
f 61/71/61 58/67/58 56/65/56 
f 59/68/59 60/69/60 61/70/61 
f 13/16/13 14/17/14 62/72/62 
f 63/73/63 64/74/64 62/75/62 
f 63/76/63 62/72/62 14/17/14 
f 17/20/17 14/17/14 15/18/15 
f 17/20/17 65/77/65 14/17/14 
f 63/76/63 14/17/14 65/77/65 
f 65/77/65 17/20/17 66/78/66 
f 63/76/63 65/77/65 67/79/67 
f 66/78/66 68/80/68 65/77/65 
f 67/79/67 65/77/65 68/80/68 
f 64/74/64 69/81/69 22/26/22 
f 64/74/64 22/26/22 62/75/62 
f 13/28/13 62/75/62 22/26/22 
f 69/81/69 24/29/24 22/26/22 
f 69/81/69 45/51/45 24/29/24 
f 63/73/63 67/82/67 70/83/70 
f 69/81/69 64/74/64 70/83/70 
f 70/83/70 64/74/64 63/73/63 
f 71/84/71 69/81/69 72/85/72 
f 72/85/72 69/81/69 70/83/70 
f 72/85/72 70/83/70 73/86/73 
f 74/87/74 67/79/67 75/88/75 
f 67/82/67 74/89/74 70/83/70 
f 68/80/68 75/88/75 67/79/67 
f 74/87/74 75/88/75 76/90/76 
f 68/80/68 76/90/76 75/88/75 
f 70/83/70 74/89/74 73/86/73 
f 77/91/77 73/86/73 74/89/74 
f 17/20/17 32/38/32 66/78/66 
f 66/78/66 32/38/32 33/39/33 
f 78/92/78 66/78/66 33/39/33 
f 68/80/68 66/78/66 78/92/78 
f 79/93/79 78/92/78 33/39/33 
f 78/92/78 76/90/76 68/80/68 
f 76/90/76 78/92/78 80/94/80 
f 80/94/80 78/92/78 79/93/79 
f 37/43/37 33/39/33 34/40/34 
f 79/93/79 33/39/33 37/43/37 
f 40/46/40 81/95/81 38/44/38 
f 81/95/81 37/43/37 38/44/38 
f 37/43/37 81/95/81 79/93/79 
f 82/96/82 79/93/79 81/95/81 
f 83/97/83 82/96/82 81/95/81 
f 80/94/80 84/98/84 76/90/76 
f 74/87/74 84/98/84 77/99/77 
f 82/96/82 84/98/84 80/94/80 
f 76/90/76 84/98/84 74/87/74 
f 80/94/80 79/93/79 82/96/82 
f 48/54/48 44/50/44 45/51/45 
f 71/84/71 48/54/48 45/51/45 
f 71/84/71 85/100/85 48/54/48 
f 85/100/85 86/101/86 48/54/48 
f 86/101/86 46/52/46 48/54/48 
f 71/84/71 45/51/45 69/81/69 
f 71/84/71 87/102/87 85/100/85 
f 88/103/88 86/101/86 85/100/85 
f 85/100/85 87/102/87 88/103/88 
f 87/102/87 89/104/89 88/103/88 
f 60/69/60 52/58/52 51/57/51 
f 51/57/51 86/101/86 88/103/88 
f 86/101/86 51/57/51 53/59/53 
f 89/104/89 51/57/51 88/103/88 
f 72/85/72 73/86/73 87/102/87 
f 72/85/72 87/102/87 71/84/71 
f 77/91/77 87/102/87 73/86/73 
f 89/104/89 87/102/87 77/91/77 
f 89/104/89 90/105/90 91/106/91 
f 92/107/92 91/108/91 90/109/90 
f 83/97/83 92/107/92 90/109/90 
f 40/46/40 57/66/57 93/110/93 
f 93/110/93 58/67/58 92/107/92 
f 39/45/39 58/67/58 57/66/57 
f 93/110/93 57/66/57 58/67/58 
f 81/95/81 40/46/40 93/110/93 
f 81/95/81 93/110/93 83/97/83 
f 83/97/83 93/110/93 92/107/92 
f 91/106/91 60/69/60 51/57/51 
f 92/107/92 61/71/61 91/108/91 
f 91/106/91 61/70/61 60/69/60 
f 91/106/91 51/57/51 89/104/89 
f 58/67/58 61/71/61 92/107/92 
f 84/98/84 94/111/94 77/99/77 
f 94/111/94 90/109/90 77/99/77 
f 83/97/83 90/109/90 94/111/94 
f 82/96/82 83/97/83 84/98/84 
f 94/111/94 84/98/84 83/97/83 
f 77/91/77 90/105/90 89/104/89 
f 46/52/46 86/101/86 53/59/53 
f 46/112/95 50/56/95 47/53/95 
f 53/59/96 50/56/50 46/112/47 
# 0 polygons - 184 triangles

