# 3ds Max Wavefront OBJ Exporter v0.97b - (c)2007 guruware
# File Created: 25.05.2016 22:45:28

mtllib Apple_01.mtl

#
# object Apple_01
#

v  -0.0376 0.0222 0.0165
v  -0.0313 0.0341 0.0040
v  -0.0400 0.0224 -0.0101
v  -0.0445 0.0064 0.0057
v  -0.0382 0.0130 0.0227
v  -0.0064 0.0283 0.0396
v  -0.0126 0.0367 0.0272
v  -0.0229 0.0277 0.0315
v  0.0014 0.0397 0.0250
v  0.0158 0.0378 0.0157
v  -0.0065 0.0374 0.0107
v  -0.0035 0.0383 -0.0182
v  -0.0074 0.0337 -0.0323
v  -0.0229 0.0364 -0.0177
v  -0.0091 0.0351 0.0010
v  -0.0220 0.0373 0.0097
v  0.0008 0.0216 0.0014
v  -0.0006 0.0244 -0.0035
v  -0.0391 -0.0099 0.0177
v  -0.0238 -0.0100 0.0369
v  0.0095 0.0094 0.0450
v  0.0161 0.0318 0.0332
v  -0.0089 0.0131 0.0437
v  -0.0238 0.0118 0.0386
v  -0.0138 -0.0059 0.0424
v  0.0063 -0.0114 0.0423
v  -0.0020 -0.0283 0.0343
v  -0.0172 -0.0318 0.0282
v  0.0119 -0.0251 0.0335
v  -0.0426 -0.0117 -0.0071
v  -0.0423 0.0073 -0.0156
v  -0.0228 0.0224 -0.0352
v  -0.0087 0.0105 -0.0446
v  -0.0141 -0.0089 -0.0426
v  -0.0247 0.0080 -0.0382
v  -0.0326 -0.0096 -0.0276
v  -0.0305 -0.0307 -0.0188
v  -0.0206 -0.0169 -0.0366
v  -0.0158 -0.0402 -0.0271
v  -0.0089 -0.0365 -0.0313
v  -0.0297 -0.0241 0.0219
v  -0.0325 -0.0371 0.0025
v  -0.0237 -0.0382 0.0166
v  -0.0147 -0.0473 0.0120
v  -0.0208 -0.0475 0.0002
v  -0.0020 -0.0439 0.0239
v  0.0009 -0.0482 0.0186
v  -0.0252 -0.0414 -0.0132
v  -0.0114 -0.0435 -0.0147
v  -0.0099 -0.0455 -0.0020
v  -0.0096 -0.0471 0.0049
v  -0.0057 -0.0372 -0.0089
v  0.0284 0.0334 0.0175
v  0.0190 0.0370 0.0031
v  0.0357 0.0222 0.0223
v  0.0337 0.0319 -0.0001
v  0.0188 0.0314 -0.0293
v  0.0221 0.0374 -0.0094
v  0.0069 0.0351 -0.0135
v  0.0088 0.0311 0.0059
v  0.0029 0.0223 -0.0008
v  0.0333 0.0296 -0.0167
v  0.0437 0.0091 0.0037
v  0.0381 0.0130 -0.0239
v  0.0366 -0.0160 -0.0169
v  0.0231 0.0180 0.0383
v  0.0367 0.0095 0.0276
v  0.0286 -0.0024 0.0356
v  0.0396 -0.0074 0.0153
v  0.0317 -0.0206 0.0220
v  0.0195 -0.0239 0.0306
v  0.0375 -0.0173 0.0028
v  0.0090 -0.0334 0.0293
v  0.0074 0.0119 -0.0442
v  0.0024 0.0242 -0.0405
v  0.0079 -0.0066 -0.0438
v  0.0186 0.0196 -0.0383
v  0.0259 0.0004 -0.0368
v  0.0131 -0.0198 -0.0379
v  0.0284 -0.0229 -0.0247
v  -0.0049 -0.0389 -0.0018
v  0.0126 -0.0450 0.0011
v  0.0063 -0.0406 -0.0028
v  0.0130 -0.0436 -0.0113
v  0.0016 -0.0488 0.0060
v  0.0248 -0.0392 0.0014
v  0.0202 -0.0393 -0.0162
v  0.0094 -0.0401 -0.0260
v  0.0156 -0.0445 0.0107
v  0.0147 -0.0385 0.0211
v  -0.0009 -0.0419 -0.0178
v  0.0005 -0.0372 -0.0074
v  0.0025 0.0354 -0.0019
v  0.0017 0.0352 -0.0039
v  0.0041 0.0351 -0.0031
v  0.0050 0.0440 -0.0062
v  0.0039 0.0428 -0.0076
v  0.0063 0.0430 -0.0074
v  0.0086 0.0509 -0.0156
v  0.0064 0.0492 -0.0165
v  0.0092 0.0485 -0.0160
v  0.0095 0.0566 -0.0258
v  0.0075 0.0533 -0.0279
v  0.0112 0.0540 -0.0282
# 104 vertices

vn -0.8201 0.4793 0.3124
vn -0.6129 0.7862 0.0786
vn -0.8600 0.4570 -0.2269
vn -0.9902 0.0663 0.1228
vn -0.8446 0.1566 0.5119
vn -0.1192 0.5487 0.8275
vn -0.2908 0.8639 0.4111
vn -0.5509 0.5746 0.6054
vn 0.0390 0.9639 0.2633
vn 0.1328 0.9905 -0.0346
vn 0.1374 0.9249 -0.3546
vn 0.1006 0.9948 0.0164
vn -0.1147 0.7943 -0.5965
vn -0.4157 0.8613 -0.2921
vn 0.5400 0.8409 0.0344
vn -0.2456 0.9645 0.0974
vn 0.1334 0.9828 -0.1278
vn 0.3237 0.8700 0.3719
vn -0.8839 -0.2318 0.4061
vn -0.5611 -0.2697 0.7826
vn 0.1817 0.0877 0.9794
vn 0.3272 0.6870 0.6488
vn -0.1852 0.1443 0.9720
vn -0.5578 0.1475 0.8168
vn -0.2499 -0.2074 0.9458
vn 0.1487 -0.3037 0.9411
vn -0.0522 -0.4895 0.8705
vn -0.4111 -0.5388 0.7353
vn 0.2968 -0.4671 0.8329
vn -0.9577 -0.2461 -0.1493
vn -0.9210 0.0825 -0.3806
vn -0.5296 0.4552 -0.7157
vn -0.1812 0.1620 -0.9700
vn -0.2730 -0.2164 -0.9374
vn -0.6082 0.0830 -0.7894
vn -0.7762 -0.1926 -0.6004
vn -0.7775 -0.4396 -0.4498
vn -0.5221 -0.3227 -0.7895
vn -0.2773 -0.7630 -0.5839
vn -0.0453 -0.6367 -0.7698
vn -0.7228 -0.4285 0.5421
vn -0.8112 -0.5746 0.1088
vn -0.5942 -0.6338 0.4952
vn -0.3170 -0.9001 0.2988
vn -0.3122 -0.9464 -0.0824
vn -0.0488 -0.7067 0.7058
vn 0.1118 -0.9051 0.4102
vn -0.5403 -0.7866 -0.2989
vn 0.1263 -0.9886 -0.0821
vn 0.4699 -0.8459 -0.2521
vn 0.0831 -0.9567 -0.2788
vn 0.3883 -0.9166 0.0950
vn 0.5451 0.7970 0.2601
vn -0.0893 0.9958 0.0202
vn 0.8100 0.4345 0.3938
vn 0.7063 0.7078 0.0146
vn 0.3609 0.7472 -0.5581
vn 0.2139 0.9725 -0.0920
vn -0.3183 0.6246 0.7131
vn -0.2936 0.7527 -0.5892
vn -0.0371 0.9625 0.2688
vn 0.7111 0.6227 -0.3266
vn 0.9952 0.0944 0.0273
vn 0.8612 0.1667 -0.4802
vn 0.8903 -0.3280 -0.3157
vn 0.4801 0.3091 0.8210
vn 0.8451 0.0716 0.5297
vn 0.6163 -0.1890 0.7645
vn 0.9324 -0.2395 0.2706
vn 0.7620 -0.4634 0.4524
vn 0.4904 -0.4793 0.7279
vn 0.9201 -0.3899 0.0369
vn 0.2861 -0.5800 0.7627
vn 0.1908 0.1482 -0.9704
vn 0.0454 0.5201 -0.8529
vn 0.1768 -0.1991 -0.9639
vn 0.4521 0.3614 -0.8155
vn 0.6061 -0.0841 -0.7910
vn 0.3204 -0.4038 -0.8569
vn 0.6915 -0.4459 -0.5683
vn 0.2958 -0.8184 -0.4926
vn 0.1721 -0.9596 -0.2224
vn -0.3308 -0.8571 -0.3949
vn -0.0070 -0.9889 -0.1487
vn 0.0391 -0.9462 -0.3212
vn 0.7009 -0.7127 0.0275
vn 0.5866 -0.7406 -0.3276
vn 0.2118 -0.8267 -0.5213
vn 0.5011 -0.8392 0.2111
vn 0.5002 -0.6636 0.5563
vn 0.1859 -0.9786 0.0884
vn -0.1613 -0.9851 -0.0603
vn -0.2386 0.3681 0.8987
vn -0.7867 0.0105 -0.6173
vn 0.9816 -0.1713 -0.0845
vn -0.0753 0.6650 0.7430
vn -0.8575 -0.0888 -0.5067
vn 0.9393 -0.3430 -0.0114
vn 0.2680 0.7767 0.5700
vn -0.9690 -0.1893 -0.1589
vn 0.7794 -0.6231 -0.0660
vn 0.0557 0.9983 -0.0170
vn -0.6630 -0.2124 -0.7178
vn 0.6890 -0.0143 -0.7246
# 104 vertex normals

vt 0.4053 0.4906 0.0000
vt 0.3945 0.4020 0.0000
vt 0.4818 0.4236 0.0000
vt 0.4951 0.5236 0.0000
vt 0.4317 0.5253 0.0000
vt 0.2772 0.5563 0.0000
vt 0.2797 0.4826 0.0000
vt 0.3256 0.5186 0.0000
vt 0.2228 0.4841 0.0000
vt 0.1500 0.4955 0.0000
vt 0.2501 0.3919 0.0000
vt 0.4256 0.2178 0.0000
vt 0.5060 0.2513 0.0000
vt 0.4456 0.3167 0.0000
vt 0.3214 0.3244 0.0000
vt 0.3402 0.3963 0.0000
vt 0.2557 0.2693 0.0000
vt 0.2959 0.2531 0.0000
vt 0.5144 0.6090 0.0000
vt 0.4367 0.6620 0.0000
vt 0.2791 0.6643 0.0000
vt 0.1893 0.5738 0.0000
vt 0.3279 0.6090 0.0000
vt 0.3792 0.5771 0.0000
vt 0.4044 0.6646 0.0000
vt 0.3507 0.7295 0.0000
vt 0.4326 0.7868 0.0000
vt 0.5087 0.7498 0.0000
vt 0.3679 0.8092 0.0000
vt 0.5941 0.5486 0.0000
vt 0.5392 0.4704 0.0000
vt 0.5411 0.3277 0.0000
vt 0.6186 0.3120 0.0000
vt 0.6694 0.3881 0.0000
vt 0.5875 0.3671 0.0000
vt 0.6383 0.4640 0.0000
vt 0.7102 0.5620 0.0000
vt 0.6895 0.4346 0.0000
vt 0.7843 0.5091 0.0000
vt 0.7897 0.4624 0.0000
vt 0.5378 0.6806 0.0000
vt 0.6600 0.6776 0.0000
vt 0.5854 0.7419 0.0000
vt 0.6026 0.8146 0.0000
vt 0.7058 0.7326 0.0000
vt 0.4972 0.8434 0.0000
vt 0.4995 0.8690 0.0000
vt 0.7732 0.6086 0.0000
vt 0.8361 0.5321 0.0000
vt 0.8909 0.5592 0.0000
vt 0.9355 0.5606 0.0000
vt 0.8841 0.6113 0.0000
vt 0.8855 0.5034 0.0000
vt 0.9589 0.5984 0.0000
vt 0.1056 0.5708 0.0000
vt 0.0821 0.4873 0.0000
vt 0.1193 0.6598 0.0000
vt 0.0157 0.5993 0.0000
vt 0.5725 0.1567 0.0000
vt 0.5325 0.0856 0.0000
vt 0.4637 0.1459 0.0000
vt 0.1406 0.4282 0.0000
vt 0.1165 0.3693 0.0000
vt 0.4984 0.0359 0.0000
vt 0.3896 0.0868 0.0000
vt 0.1377 0.3597 0.0000
vt 0.3849 0.1149 0.0000
vt 0.6246 0.0858 0.0000
vt 0.6029 0.0156 0.0000
vt 0.0623 0.7754 0.0000
vt 0.7100 0.1219 0.0000
vt 0.7835 0.0177 0.0000
vt 0.8520 0.1924 0.0000
vt 0.2123 0.6489 0.0000
vt 0.1650 0.7211 0.0000
vt 0.2366 0.7522 0.0000
vt 0.1717 0.8313 0.0000
vt 0.2693 0.8541 0.0000
vt 0.3343 0.8255 0.0000
vt 0.1826 0.9146 0.0000
vt 0.4093 0.8357 0.0000
vt 0.9223 0.1409 0.0000
vt 0.6408 0.2589 0.0000
vt 0.5812 0.2389 0.0000
vt 0.7204 0.3015 0.0000
vt 0.6311 0.1964 0.0000
vt 0.7274 0.2130 0.0000
vt 0.7806 0.3177 0.0000
vt 0.8469 0.2576 0.0000
vt 0.9121 0.5125 0.0000
vt 0.9798 0.4143 0.0000
vt 0.9407 0.4512 0.0000
vt 0.9245 0.3903 0.0000
vt 0.9790 0.5027 0.0000
vt 0.3443 0.9764 0.0000
vt 0.9021 0.3403 0.0000
vt 0.8535 0.3934 0.0000
vt 0.9843 0.3040 0.0000
vt 0.4203 0.9309 0.0000
vt 0.4390 0.9746 0.0000
vt 0.4055 0.8812 0.0000
vt 0.5159 0.9254 0.0000
vt 0.8596 0.4667 0.0000
vt 0.9096 0.4734 0.0000
vt 0.6907 0.9678 0.0000
vt 0.6695 0.9409 0.0000
vt 0.7527 0.9428 0.0000
vt 0.7549 0.9553 0.0000
vt 0.6787 0.9247 0.0000
vt 0.7561 0.9311 0.0000
vt 0.6943 0.9005 0.0000
vt 0.7570 0.9165 0.0000
vt 0.8091 0.9443 0.0000
vt 0.8078 0.9564 0.0000
vt 0.8117 0.9328 0.0000
vt 0.8082 0.9187 0.0000
vt 0.8795 0.9440 0.0000
vt 0.8756 0.9598 0.0000
vt 0.8746 0.9302 0.0000
vt 0.8746 0.9137 0.0000
vt 0.9475 0.9472 0.0000
vt 0.9466 0.9728 0.0000
vt 0.9542 0.9251 0.0000
vt 0.9458 0.9046 0.0000
vt 0.9710 0.9094 0.0000
# 125 texture coords

g Apple_01
usemtl _Apple_01default
s 1
f 1/1/1 2/2/2 3/3/3 
f 4/4/4 5/5/5 1/1/1 
f 1/1/1 3/3/3 4/4/4 
f 6/6/6 7/7/7 8/8/8 
f 6/6/6 9/9/9 7/7/7 
f 10/10/10 11/11/11 9/9/9 
f 12/12/12 13/13/13 14/14/14 
f 11/11/11 15/15/15 16/16/16 
f 16/16/16 2/2/2 7/7/7 
f 8/8/8 7/7/7 2/2/2 
f 9/9/9 16/16/16 7/7/7 
f 1/1/1 5/5/5 8/8/8 
f 1/1/1 8/8/8 2/2/2 
f 2/2/2 16/16/16 14/14/14 
f 3/3/3 2/2/2 14/14/14 
f 16/16/16 15/15/15 12/12/12 
f 15/15/15 11/11/11 17/17/17 
f 11/11/11 16/16/16 9/9/9 
f 12/12/12 14/14/14 16/16/16 
f 18/18/18 12/12/12 15/15/15 
f 17/17/17 18/18/18 15/15/15 
f 5/5/5 4/4/4 19/19/19 
f 20/20/20 5/5/5 19/19/19 
f 6/6/6 21/21/21 22/22/22 
f 9/9/9 6/6/6 22/22/22 
f 6/6/6 23/23/23 21/21/21 
f 6/6/6 24/24/24 23/23/23 
f 5/5/5 24/24/24 8/8/8 
f 24/24/24 6/6/6 8/8/8 
f 23/23/23 24/24/24 25/25/25 
f 5/5/5 20/20/20 24/24/24 
f 25/25/25 24/24/24 20/20/20 
f 21/21/21 23/23/23 25/25/25 
f 26/26/26 21/21/21 25/25/25 
f 27/27/27 20/20/20 28/28/28 
f 26/26/26 25/25/25 27/27/27 
f 29/29/29 26/26/26 27/27/27 
f 25/25/25 20/20/20 27/27/27 
f 30/30/30 4/4/4 31/31/31 
f 4/4/4 3/3/3 31/31/31 
f 32/32/32 3/3/3 14/14/14 
f 13/13/13 32/32/32 14/14/14 
f 33/33/33 34/34/34 35/35/35 
f 33/33/33 35/35/35 32/32/32 
f 32/32/32 31/31/31 3/3/3 
f 36/36/36 31/31/31 35/35/35 
f 32/32/32 35/35/35 31/31/31 
f 31/31/31 36/36/36 30/30/30 
f 37/37/37 30/30/30 36/36/36 
f 38/38/38 35/35/35 34/34/34 
f 36/36/36 35/35/35 38/38/38 
f 39/39/39 37/37/37 38/38/38 
f 38/38/38 37/37/37 36/36/36 
f 40/40/40 39/39/39 38/38/38 
f 30/30/30 19/19/19 4/4/4 
f 41/41/41 28/28/28 20/20/20 
f 41/41/41 20/20/20 19/19/19 
f 30/30/30 42/42/42 19/19/19 
f 41/41/41 19/19/19 42/42/42 
f 42/42/42 43/43/43 41/41/41 
f 44/44/44 43/43/43 42/42/42 
f 44/44/44 42/42/42 45/45/45 
f 43/43/43 28/28/28 41/41/41 
f 28/28/28 46/46/46 27/27/27 
f 46/46/46 28/28/28 44/44/44 
f 43/43/43 44/44/44 28/28/28 
f 44/44/44 47/47/47 46/46/46 
f 30/30/30 37/37/37 42/42/42 
f 42/42/42 37/37/37 48/48/48 
f 39/39/39 48/48/48 37/37/37 
f 49/49/49 48/48/48 39/39/39 
f 50/50/50 51/51/51 45/52/45 
f 50/50/50 49/49/49 52/53/52 
f 45/45/45 42/42/42 48/48/48 
f 44/54/44 45/52/45 51/51/51 
f 45/52/45 48/48/48 50/50/50 
f 49/49/49 50/50/50 48/48/48 
f 53/55/53 54/56/54 10/10/10 
f 10/10/10 9/9/9 53/55/53 
f 53/55/53 9/9/9 22/22/22 
f 55/57/55 56/58/56 53/55/53 
f 55/57/55 53/55/53 22/22/22 
f 57/59/57 13/13/13 12/12/12 
f 58/60/58 57/59/57 12/12/12 
f 58/60/58 12/12/12 59/61/59 
f 60/62/60 54/56/54 61/63/61 
f 54/56/54 60/62/60 10/10/10 
f 58/60/58 59/61/59 54/64/54 
f 54/64/54 59/61/59 61/65/61 
f 60/62/60 11/11/11 10/10/10 
f 60/62/60 17/66/17 11/11/11 
f 61/65/61 59/61/59 18/67/18 
f 59/61/59 12/12/12 18/67/18 
f 60/62/60 61/63/61 17/66/17 
f 53/55/53 56/58/56 54/56/54 
f 62/68/62 58/60/58 56/69/56 
f 56/69/56 58/60/58 54/64/54 
f 63/70/63 56/58/56 55/57/55 
f 62/68/62 57/59/57 58/60/58 
f 64/71/64 57/59/57 62/68/62 
f 63/72/63 62/68/62 56/69/56 
f 64/71/64 62/68/62 63/72/63 
f 65/73/65 64/71/64 63/72/63 
f 22/22/22 66/74/66 55/57/55 
f 66/74/66 22/22/22 21/21/21 
f 67/75/67 55/57/55 66/74/66 
f 21/21/21 68/76/68 66/74/66 
f 69/77/69 67/75/67 68/76/68 
f 70/78/70 69/77/69 68/76/68 
f 66/74/66 68/76/68 67/75/67 
f 68/76/68 71/79/71 70/78/70 
f 72/80/72 69/77/69 70/78/70 
f 71/79/71 68/76/68 26/26/26 
f 71/79/71 26/26/26 29/29/29 
f 73/81/73 29/29/29 27/27/27 
f 63/70/63 55/57/55 67/75/67 
f 69/77/69 63/70/63 67/75/67 
f 72/80/72 63/70/63 69/77/69 
f 72/82/72 65/73/65 63/72/63 
f 74/83/74 33/33/33 75/84/75 
f 13/13/13 57/59/57 75/84/75 
f 13/13/13 75/84/75 32/32/32 
f 33/33/33 32/32/32 75/84/75 
f 74/83/74 76/85/76 33/33/33 
f 75/84/75 57/59/57 77/86/77 
f 75/84/75 77/86/77 74/83/74 
f 76/85/76 34/34/34 33/33/33 
f 77/86/77 78/87/78 74/83/74 
f 77/86/77 57/59/57 64/71/64 
f 78/87/78 77/86/77 64/71/64 
f 78/87/78 79/88/79 76/85/76 
f 76/85/76 74/83/74 78/87/78 
f 79/88/79 78/87/78 80/89/80 
f 79/88/79 34/34/34 76/85/76 
f 34/34/34 79/88/79 40/40/40 
f 38/38/38 34/34/34 40/40/40 
f 78/87/78 64/71/64 65/73/65 
f 78/87/78 65/73/65 80/89/80 
f 81/90/81 51/51/51 50/50/50 
f 82/91/82 83/92/83 84/93/84 
f 82/91/82 85/94/85 83/92/83 
f 86/95/86 72/80/72 70/78/70 
f 87/96/87 88/97/88 80/89/80 
f 86/98/86 87/96/87 65/73/65 
f 80/89/80 65/73/65 87/96/87 
f 84/93/84 87/96/87 86/98/86 
f 86/95/86 89/99/89 82/100/82 
f 86/98/86 82/91/82 84/93/84 
f 90/101/90 73/81/73 46/46/46 
f 46/46/46 47/47/47 90/101/90 
f 71/79/71 73/81/73 90/101/90 
f 73/81/73 27/27/27 46/46/46 
f 47/47/47 44/44/44 85/102/85 
f 51/51/51 85/94/85 44/54/44 
f 89/99/89 47/47/47 85/102/85 
f 89/99/89 90/101/90 47/47/47 
f 82/100/82 89/99/89 85/102/85 
f 70/78/70 71/79/71 90/101/90 
f 89/99/89 86/95/86 70/78/70 
f 90/101/90 89/99/89 70/78/70 
f 88/97/88 91/103/91 40/40/40 
f 91/103/91 49/49/49 39/39/39 
f 91/103/91 39/39/39 40/40/40 
f 88/97/88 92/104/92 91/103/91 
f 91/103/91 52/53/52 49/49/49 
f 81/90/81 50/50/50 52/53/52 
f 92/104/92 52/53/52 91/103/91 
f 88/97/88 40/40/40 79/88/79 
f 87/96/87 84/93/84 88/97/88 
f 84/93/84 92/104/92 88/97/88 
f 79/88/79 80/89/80 88/97/88 
f 72/82/72 86/98/86 65/73/65 
f 85/94/85 51/51/51 81/90/81 83/92/83 
f 26/26/26 68/76/68 21/21/21 
f 81/90/81 52/53/52 92/104/92 
f 83/92/83 92/104/92 84/93/84 
f 92/104/92 83/92/83 81/90/81 
f 29/29/29 73/81/73 71/79/71 
f 18/105/18 17/106/17 93/107/93 94/108/94 
f 17/106/17 61/109/61 95/110/95 93/107/93 
f 61/109/61 18/111/18 94/112/94 95/110/95 
f 94/108/94 93/107/93 96/113/96 97/114/97 
f 93/107/93 95/110/95 98/115/98 96/113/96 
f 95/110/95 94/112/94 97/116/97 98/115/98 
f 97/114/97 96/113/96 99/117/99 100/118/100 
f 96/113/96 98/115/98 101/119/101 99/117/99 
f 98/115/98 97/116/97 100/120/100 101/119/101 
f 100/118/100 99/117/99 102/121/102 103/122/103 
f 99/117/99 101/119/101 104/123/104 102/121/102 
f 101/119/101 100/120/100 103/124/103 104/123/104 
f 102/125/102 104/123/104 103/124/103 
# 13 polygons - 178 triangles

