# 3ds Max Wavefront OBJ Exporter v0.97b - (c)2007 guruware
# File Created: 26.05.2016 02:02:19

mtllib Passionfruit_01.mtl

#
# object Passionfruit_01
#

v  0.0177 0.0104 0.0404
v  0.0116 -0.0043 0.0422
v  0.0331 -0.0059 0.0340
v  0.0017 -0.0128 0.0402
v  -0.0037 0.0011 0.0428
v  0.0353 0.0124 0.0315
v  0.0165 0.0233 0.0352
v  -0.0010 0.0171 0.0401
v  0.0220 -0.0227 0.0307
v  0.0076 -0.0261 0.0314
v  -0.0093 -0.0265 0.0298
v  0.0117 -0.0401 0.0145
v  0.0344 -0.0229 0.0234
v  0.0259 -0.0360 0.0134
v  -0.0038 -0.0358 0.0209
v  -0.0059 -0.0412 0.0120
v  0.0485 0.0027 0.0169
v  0.0422 0.0196 0.0184
v  0.0498 -0.0097 0.0103
v  0.0431 -0.0252 0.0086
v  0.0439 -0.0154 0.0186
v  0.0497 -0.0001 -0.0012
v  0.0488 0.0168 0.0030
v  -0.0165 0.0001 0.0407
v  -0.0165 0.0190 0.0366
v  -0.0303 0.0055 0.0348
v  -0.0111 -0.0156 0.0371
v  -0.0225 -0.0215 0.0294
v  -0.0206 -0.0346 0.0161
v  -0.0341 -0.0225 0.0212
v  -0.0368 -0.0063 0.0295
v  -0.0383 0.0117 0.0279
v  -0.0490 0.0064 0.0155
v  -0.0367 -0.0287 0.0085
v  -0.0484 -0.0110 0.0105
v  -0.0504 0.0006 -0.0011
v  0.0253 0.0279 0.0274
v  0.0100 0.0344 0.0250
v  -0.0049 0.0298 0.0315
v  -0.0043 0.0386 0.0168
v  0.0389 0.0281 0.0104
v  0.0268 0.0364 0.0095
v  0.0203 0.0416 -0.0076
v  0.0378 0.0323 -0.0057
v  0.0096 0.0409 0.0082
v  -0.0098 0.0419 0.0022
v  0.0037 0.0438 -0.0068
v  -0.0209 0.0344 0.0184
v  -0.0255 0.0239 0.0298
v  -0.0392 0.0246 0.0165
v  -0.0329 0.0350 -0.0040
v  -0.0449 0.0240 -0.0024
v  -0.0484 0.0151 0.0077
v  -0.0502 0.0084 -0.0100
v  -0.0420 0.0232 -0.0189
v  -0.0171 0.0414 -0.0073
v  0.0025 0.0405 -0.0236
v  -0.0202 0.0376 -0.0204
v  0.0286 -0.0382 -0.0000
v  0.0460 -0.0221 -0.0061
v  -0.0074 -0.0438 -0.0008
v  0.0120 -0.0432 -0.0081
v  0.0296 -0.0352 -0.0139
v  0.0241 -0.0309 -0.0255
v  -0.0129 -0.0408 -0.0142
v  0.0504 -0.0048 -0.0125
v  0.0496 0.0142 -0.0083
v  0.0423 -0.0193 -0.0194
v  0.0483 0.0102 -0.0171
v  0.0449 -0.0018 -0.0244
v  0.0340 -0.0115 -0.0331
v  0.0012 -0.0356 -0.0256
v  0.0042 -0.0262 -0.0345
v  0.0137 -0.0109 -0.0399
v  -0.0267 -0.0380 0.0004
v  -0.0192 -0.0350 -0.0219
v  -0.0407 -0.0265 -0.0120
v  -0.0356 -0.0255 -0.0205
v  -0.0440 -0.0237 -0.0009
v  -0.0496 -0.0111 -0.0100
v  -0.0396 -0.0118 -0.0272
v  -0.0248 -0.0215 -0.0319
v  -0.0092 -0.0126 -0.0397
v  0.0376 0.0234 -0.0245
v  0.0191 0.0361 -0.0249
v  0.0375 0.0298 -0.0152
v  0.0358 0.0107 -0.0332
v  0.0231 0.0240 -0.0343
v  0.0208 0.0074 -0.0405
v  0.0078 0.0256 -0.0382
v  0.0024 0.0097 -0.0428
v  -0.0146 0.0165 -0.0405
v  -0.0117 0.0312 -0.0332
v  -0.0352 0.0145 -0.0319
v  -0.0236 -0.0063 -0.0375
v  -0.0296 0.0309 -0.0234
v  -0.0460 0.0084 -0.0215
# 97 vertices

vn 0.2637 0.1972 0.9442
vn 0.1762 -0.1709 0.9694
vn 0.5528 -0.1849 0.8125
vn -0.0060 -0.3963 0.9181
vn -0.0837 -0.0058 0.9965
vn 0.6096 0.2657 0.7468
vn 0.2257 0.5450 0.8075
vn -0.0382 0.3626 0.9312
vn 0.2978 -0.5666 0.7683
vn 0.0831 -0.6404 0.7635
vn -0.1656 -0.6552 0.7371
vn 0.1524 -0.8973 0.4143
vn 0.5358 -0.5713 0.6217
vn 0.3957 -0.8205 0.4126
vn -0.0916 -0.7841 0.6138
vn -0.1276 -0.9219 0.3657
vn 0.9096 0.0372 0.4139
vn 0.7557 0.4708 0.4553
vn 0.9600 -0.1769 0.2172
vn 0.7512 -0.6179 0.2321
vn 0.7881 -0.3019 0.5364
vn 0.9989 -0.0259 0.0379
vn 0.9287 0.3541 0.1105
vn -0.2828 -0.0663 0.9569
vn -0.2672 0.4039 0.8749
vn -0.4815 0.0925 0.8715
vn -0.2178 -0.4314 0.8755
vn -0.3645 -0.5496 0.7517
vn -0.3485 -0.7992 0.4897
vn -0.5795 -0.5746 0.5779
vn -0.6281 -0.2430 0.7392
vn -0.6651 0.2670 0.6974
vn -0.9152 0.1004 0.3903
vn -0.6369 -0.7057 0.3104
vn -0.9016 -0.3036 0.3081
vn -0.9992 -0.0183 0.0364
vn 0.4135 0.6874 0.5971
vn 0.1337 0.8387 0.5279
vn -0.0937 0.7158 0.6920
vn -0.0810 0.9234 0.3752
vn 0.6609 0.6962 0.2803
vn 0.3940 0.8762 0.2774
vn 0.3094 0.9481 -0.0734
vn 0.6526 0.7562 -0.0474
vn 0.1192 0.9596 0.2550
vn -0.1672 0.9700 0.1765
vn 0.0186 0.9996 -0.0234
vn -0.3297 0.8524 0.4058
vn -0.4173 0.5839 0.6963
vn -0.6540 0.6371 0.4078
vn -0.5268 0.8499 0.0101
vn -0.8140 0.5808 -0.0019
vn -0.9177 0.3546 0.1789
vn -0.9726 0.1576 -0.1711
vn -0.7429 0.5396 -0.3962
vn -0.2628 0.9643 -0.0335
vn 0.0203 0.8903 -0.4550
vn -0.3225 0.8676 -0.3785
vn 0.4685 -0.8827 0.0380
vn 0.8524 -0.5063 -0.1302
vn -0.1222 -0.9919 0.0350
vn 0.1598 -0.9715 -0.1754
vn 0.4973 -0.8018 -0.3313
vn 0.3516 -0.6806 -0.6428
vn -0.2168 -0.9230 -0.3179
vn 0.9733 -0.1416 -0.1809
vn 0.9441 0.3064 -0.1220
vn 0.7389 -0.4719 -0.4810
vn 0.8915 0.2219 -0.3948
vn 0.8032 -0.0817 -0.5900
vn 0.5163 -0.2991 -0.8025
vn 0.0025 -0.7936 -0.6085
vn 0.0414 -0.5516 -0.8331
vn 0.1698 -0.2733 -0.9468
vn -0.4546 -0.8890 0.0559
vn -0.3173 -0.7789 -0.5410
vn -0.7028 -0.6579 -0.2707
vn -0.5805 -0.6205 -0.5273
vn -0.8068 -0.5866 0.0702
vn -0.9426 -0.2510 -0.2201
vn -0.6833 -0.2619 -0.6816
vn -0.3537 -0.4928 -0.7950
vn -0.1282 -0.2717 -0.9538
vn 0.6574 0.5170 -0.5482
vn 0.3172 0.7954 -0.5164
vn 0.6521 0.6895 -0.3152
vn 0.5924 0.1817 -0.7849
vn 0.3666 0.4860 -0.7933
vn 0.2814 0.0744 -0.9567
vn 0.1089 0.4935 -0.8629
vn 0.0084 0.0743 -0.9972
vn -0.2398 0.2393 -0.9409
vn -0.2034 0.6438 -0.7377
vn -0.5617 0.2462 -0.7899
vn -0.3554 -0.1384 -0.9244
vn -0.4966 0.6952 -0.5197
vn -0.8462 0.1059 -0.5223
# 97 vertex normals

vt 0.6988 0.4195 -0.6037
vt 0.7434 0.4895 -0.6037
vt 0.6415 0.5181 -0.6037
vt 0.7871 0.5340 -0.6037
vt 0.8306 0.4629 0.6037
vt 0.5451 0.4205 -0.7363
vt 0.4922 0.3069 -0.7363
vt 0.5722 0.2914 -0.7363
vt 0.4865 0.2071 -0.7363
vt 0.5563 0.1267 0.7363
vt 0.6952 0.5833 -0.6037
vt 0.7491 0.5972 -0.6037
vt 0.8129 0.6195 -0.6037
vt 0.7180 0.6723 -0.6037
vt 0.6425 0.6000 -0.6037
vt 0.6703 0.6589 -0.6037
vt 0.7769 0.6599 -0.6037
vt 0.7723 0.6973 -0.6037
vt 0.5246 0.5364 -0.6037
vt 0.5937 0.4426 -0.6037
vt 0.5016 0.5483 -0.7363
vt 0.4630 0.4587 -0.7363
vt 0.5437 0.6024 -0.6037
vt 0.5981 0.6452 -0.6037
vt 0.5925 0.5925 -0.6037
vt 0.4062 0.6062 -0.7363
vt 0.4018 0.5126 -0.7363
vt 0.9018 0.5059 -0.6037
vt 0.4756 0.0714 -0.7363
vt 0.4198 0.1637 -0.7363
vt 0.3807 0.0766 -0.7363
vt 0.8394 0.5689 -0.6037
vt 0.8713 0.6293 -0.6037
vt 0.8315 0.6942 -0.6037
vt 0.9060 0.6803 -0.6037
vt 0.9743 0.6198 -0.6037
vt 0.3314 0.0097 -0.7363
vt 0.3291 0.1030 -0.7363
vt 0.2562 0.0942 -0.7363
vt 0.8886 0.7392 -0.6037
vt 0.9895 0.7411 -0.6037
vt 0.2032 0.0222 -0.7363
vt 0.1790 0.1054 -0.7363
vt 0.4633 0.3606 -0.7363
vt 0.4189 0.3057 -0.7363
vt 0.4167 0.2365 -0.7363
vt 0.3627 0.2749 -0.7363
vt 0.4122 0.4406 -0.7363
vt 0.3863 0.3893 -0.7363
vt 0.3201 0.3863 -0.7363
vt 0.3477 0.4479 -0.7363
vt 0.3567 0.3326 -0.7363
vt 0.3098 0.2842 -0.7363
vt 0.3023 0.3357 -0.7363
vt 0.3375 0.2197 -0.7363
vt 0.3667 0.1661 -0.7363
vt 0.2947 0.1619 -0.7363
vt 0.2541 0.2288 -0.7363
vt 0.2308 0.1828 -0.7363
vt 0.2434 0.1368 -0.7363
vt 0.1732 0.1536 -0.7363
vt 0.1892 0.2184 -0.7363
vt 0.2721 0.2790 -0.7363
vt 0.2524 0.3546 -0.7363
vt 0.2304 0.2879 -0.7363
vt 0.6486 0.7003 -0.6037
vt 0.5593 0.6903 -0.6037
vt 0.7631 0.7416 -0.6037
vt 0.6937 0.7444 -0.6037
vt 0.6247 0.7437 -0.6037
vt 0.6204 0.7941 -0.6037
vt 0.7679 0.7933 -0.6037
vt 0.4715 0.6952 -0.6037
vt 0.4752 0.6255 -0.6037
vt 0.3323 0.6413 -0.7363
vt 0.3538 0.5362 -0.7363
vt 0.5417 0.7466 -0.6037
vt 0.3111 0.5561 -0.7363
vt 0.2506 0.6089 -0.7363
vt 0.4558 0.7682 -0.6037
vt 0.5227 0.8310 -0.6037
vt 0.7043 0.8227 -0.6037
vt 0.6749 0.8698 -0.6037
vt 0.5976 0.9214 0.4910
vt 0.8316 0.7575 -0.6037
vt 0.7840 0.8319 -0.6037
vt 0.8818 0.8241 -0.6037
vt 0.8563 0.8572 -0.6037
vt 0.9143 0.7860 -0.6037
vt 0.9637 0.8509 -0.6037
vt 0.1019 0.0934 -0.7363
vt 0.8891 0.9261 -0.6037
vt 0.8011 0.9036 -0.6037
vt 0.7180 0.9543 -0.6037
vt 0.2788 0.4842 -0.7363
vt 0.2645 0.4072 -0.7363
vt 0.3143 0.4613 -0.7363
vt 0.2255 0.5202 -0.7363
vt 0.1429 0.6046 -0.7363
vt 0.2259 0.4457 -0.7363
vt 0.1604 0.4794 -0.7363
vt 0.1974 0.3981 -0.7363
vt 0.1313 0.4060 -0.7363
vt 0.1404 0.3330 -0.7363
vt 0.1976 0.3288 -0.7363
vt 0.0562 0.5053 0.5989
vt 0.0093 0.3795 -0.7363
vt 0.1410 0.2497 -0.7363
vt 0.0395 0.2887 -0.7363
vt 0.0429 0.1829 -0.7363
vt 0.2032 0.2639 -0.7363
vt 0.1442 0.1910 -0.7363
vt 0.7996 0.9838 -0.6037
# 113 texture coords

g Passionfruit_01
usemtl _Passionfruit_01default
s 1
f 1/1/1 2/2/2 3/3/3 
f 4/4/4 2/2/2 5/5/5 
f 6/6/6 7/7/7 1/8/1 
f 8/9/8 5/10/5 1/8/1 
f 1/8/1 7/7/7 8/9/8 
f 2/2/2 1/1/1 5/5/5 
f 9/11/9 4/4/4 10/12/10 
f 4/4/4 11/13/11 10/12/10 
f 12/14/12 9/11/9 10/12/10 
f 13/15/13 9/11/9 14/16/14 
f 14/16/14 9/11/9 12/14/12 
f 12/14/12 10/12/10 15/17/15 
f 12/14/12 15/17/15 16/18/16 
f 3/3/3 17/19/17 6/20/6 
f 6/6/6 17/21/17 18/22/18 
f 19/23/19 17/19/17 3/3/3 
f 20/24/20 21/25/21 13/15/13 
f 19/23/19 3/3/3 21/25/21 
f 13/15/13 21/25/21 3/3/3 
f 17/21/17 22/26/22 23/27/23 
f 23/27/23 18/22/18 17/21/17 
f 9/11/9 3/3/3 2/2/2 
f 9/11/9 13/15/13 3/3/3 
f 4/4/4 9/11/9 2/2/2 
f 3/3/3 6/20/6 1/1/1 
f 24/28/24 4/4/4 5/5/5 
f 5/10/5 8/9/8 24/29/24 
f 24/29/24 8/9/8 25/30/25 
f 24/29/24 25/30/25 26/31/26 
f 27/32/27 28/33/28 11/13/11 
f 15/17/15 11/13/11 29/34/29 
f 15/17/15 10/12/10 11/13/11 
f 29/34/29 11/13/11 28/33/28 
f 28/33/28 30/35/30 29/34/29 
f 27/32/27 24/28/24 31/36/31 
f 24/28/24 27/32/27 4/4/4 
f 4/4/4 27/32/27 11/13/11 
f 28/33/28 27/32/27 31/36/31 
f 26/31/26 31/37/31 24/29/24 
f 30/35/30 28/33/28 31/36/31 
f 31/37/31 26/31/26 32/38/32 
f 31/37/31 32/38/32 33/39/33 
f 34/40/34 30/35/30 35/41/35 
f 35/41/35 30/35/30 31/36/31 
f 31/37/31 33/39/33 35/42/35 
f 33/39/33 36/43/36 35/42/35 
f 37/44/37 7/7/7 6/6/6 
f 38/45/38 7/7/7 37/44/37 
f 8/9/8 7/7/7 39/46/39 
f 38/45/38 39/46/39 7/7/7 
f 39/46/39 38/45/38 40/47/40 
f 6/6/6 18/22/18 37/44/37 
f 37/44/37 18/22/18 41/48/41 
f 41/48/41 42/49/42 37/44/37 
f 23/27/23 41/48/41 18/22/18 
f 43/50/43 42/49/42 44/51/44 
f 44/51/44 42/49/42 41/48/41 
f 41/48/41 23/27/23 44/51/44 
f 42/49/42 45/52/45 38/45/38 
f 37/44/37 42/49/42 38/45/38 
f 45/52/45 42/49/42 43/50/43 
f 45/52/45 40/47/40 38/45/38 
f 46/53/46 40/47/40 45/52/45 
f 47/54/47 46/53/46 45/52/45 
f 47/54/47 45/52/45 43/50/43 
f 25/30/25 8/9/8 39/46/39 
f 48/55/48 49/56/49 39/46/39 
f 49/56/49 25/30/25 39/46/39 
f 49/56/49 26/31/26 25/30/25 
f 49/56/49 32/38/32 26/31/26 
f 48/55/48 39/46/39 40/47/40 
f 48/55/48 50/57/50 49/56/49 
f 32/38/32 49/56/49 50/57/50 
f 48/55/48 40/47/40 46/53/46 
f 51/58/51 48/55/48 46/53/46 
f 51/58/51 50/57/50 48/55/48 
f 50/57/50 51/58/51 52/59/52 
f 53/60/53 33/39/33 50/57/50 
f 33/39/33 32/38/32 50/57/50 
f 54/61/54 33/39/33 53/60/53 
f 36/43/36 33/39/33 54/61/54 
f 51/58/51 55/62/55 52/59/52 
f 53/60/53 50/57/50 52/59/52 
f 54/61/54 53/60/53 52/59/52 
f 54/61/54 52/59/52 55/62/55 
f 46/53/46 56/63/56 51/58/51 
f 46/53/46 47/54/47 56/63/56 
f 57/64/57 58/65/58 56/63/56 
f 58/65/58 51/58/51 56/63/56 
f 59/66/59 20/24/20 14/16/14 
f 14/16/14 20/24/20 13/15/13 
f 60/67/60 20/24/20 59/66/59 
f 59/66/59 14/16/14 12/14/12 
f 61/68/61 62/69/62 12/14/12 
f 16/18/16 61/68/61 12/14/12 
f 62/69/62 63/70/63 59/66/59 
f 64/71/64 63/70/63 62/69/62 
f 62/69/62 59/66/59 12/14/12 
f 65/72/65 62/69/62 61/68/61 
f 20/24/20 60/67/60 19/23/19 
f 20/24/20 19/23/19 21/25/21 
f 66/73/66 22/74/22 60/67/60 
f 17/19/17 19/23/19 22/74/22 
f 66/75/66 67/76/67 22/26/22 
f 60/67/60 22/74/22 19/23/19 
f 67/76/67 23/27/23 22/26/22 
f 60/67/60 59/66/59 63/70/63 
f 68/77/68 60/67/60 63/70/63 
f 69/78/69 66/75/66 70/79/70 
f 66/73/66 68/77/68 70/80/70 
f 71/81/71 70/80/70 68/77/68 
f 68/77/68 66/73/66 60/67/60 
f 64/71/64 71/81/71 68/77/68 
f 63/70/63 64/71/64 68/77/68 
f 62/69/62 72/82/72 64/71/64 
f 64/71/64 72/82/72 73/83/73 
f 72/82/72 62/69/62 65/72/65 
f 73/83/73 74/84/74 71/81/71 
f 64/71/64 73/83/73 71/81/71 
f 15/17/15 29/34/29 16/18/16 
f 61/68/61 16/18/16 75/85/75 
f 75/85/75 29/34/29 34/40/34 
f 75/85/75 16/18/16 29/34/29 
f 29/34/29 30/35/30 34/40/34 
f 65/72/65 61/68/61 75/85/75 
f 76/86/76 77/87/77 78/88/78 
f 76/86/76 65/72/65 77/87/77 
f 77/87/77 65/72/65 75/85/75 
f 79/89/79 75/85/75 34/40/34 
f 79/89/79 34/40/34 35/41/35 
f 79/89/79 77/87/77 75/85/75 
f 77/87/77 79/89/79 80/90/80 
f 80/91/80 35/42/35 36/43/36 
f 79/89/79 35/41/35 80/90/80 
f 78/88/78 77/87/77 81/92/81 
f 81/92/81 82/93/82 78/88/78 
f 77/87/77 80/90/80 81/92/81 
f 76/86/76 72/82/72 65/72/65 
f 82/93/82 72/82/72 76/86/76 
f 78/88/78 82/93/82 76/86/76 
f 73/83/73 72/82/72 82/93/82 
f 82/93/82 83/94/83 73/83/73 
f 66/75/66 69/78/69 67/76/67 
f 67/76/67 44/51/44 23/27/23 
f 84/95/84 85/96/85 86/97/86 
f 84/95/84 86/97/86 67/76/67 
f 86/97/86 44/51/44 67/76/67 
f 69/78/69 84/95/84 67/76/67 
f 43/50/43 44/51/44 86/97/86 
f 87/98/87 69/78/69 70/79/70 
f 70/79/70 71/99/71 87/98/87 
f 87/98/87 84/95/84 69/78/69 
f 88/100/88 84/95/84 87/98/87 
f 89/101/89 88/100/88 87/98/87 
f 88/100/88 85/96/85 84/95/84 
f 89/101/89 90/102/90 88/100/88 
f 91/103/91 92/104/92 90/102/90 
f 86/97/86 85/96/85 43/50/43 
f 85/96/85 57/64/57 43/50/43 
f 88/100/88 90/102/90 85/96/85 
f 57/64/57 90/102/90 93/105/93 
f 90/102/90 92/104/92 93/105/93 
f 90/102/90 57/64/57 85/96/85 
f 89/101/89 71/99/71 74/106/74 
f 71/99/71 89/101/89 87/98/87 
f 91/103/91 89/101/89 74/106/74 
f 83/94/83 74/84/74 73/83/73 
f 91/103/91 74/106/74 83/107/83 
f 90/102/90 89/101/89 91/103/91 
f 94/108/94 95/109/95 81/110/81 
f 92/104/92 95/109/95 94/108/94 
f 94/108/94 55/62/55 96/111/96 
f 80/91/80 54/61/54 97/112/97 
f 54/61/54 80/91/80 36/43/36 
f 97/112/97 54/61/54 55/62/55 
f 94/108/94 97/112/97 55/62/55 
f 94/108/94 81/110/81 97/112/97 
f 97/112/97 81/110/81 80/91/80 
f 96/111/96 51/58/51 58/65/58 
f 96/111/96 58/65/58 93/105/93 
f 51/58/51 96/111/96 55/62/55 
f 93/105/93 58/65/58 57/64/57 
f 94/108/94 96/111/96 93/105/93 
f 92/104/92 94/108/94 93/105/93 
f 92/104/92 83/107/83 95/109/95 
f 91/103/91 83/107/83 92/104/92 
f 95/113/95 83/94/83 82/93/82 
f 81/92/81 95/113/95 82/93/82 
f 43/50/43 57/64/57 47/54/47 
f 57/64/57 56/63/56 47/54/47 
# 0 polygons - 190 triangles

