# 3ds Max Wavefront OBJ Exporter v0.97b - (c)2007 guruware
# File Created: 29.05.2016 00:06:12

#
# object Kiwi_cut
#

v  -0.0020 -0.0279 0.0147
v  -0.0099 -0.0264 0.0029
v  0.0111 -0.0261 0.0135
v  0.0218 0.0193 0.0158
v  0.0126 0.0208 -0.0016
v  0.0085 0.0267 0.0168
v  -0.0073 0.0205 -0.0062
v  -0.0116 0.0033 -0.0145
v  -0.0192 0.0118 -0.0074
v  0.0129 -0.0152 -0.0088
v  -0.0008 -0.0061 -0.0177
v  0.0153 0.0017 -0.0128
v  0.0292 0.0076 0.0180
v  -0.0006 0.0077 0.0175
v  -0.0053 -0.0104 0.0167
v  -0.0280 0.0090 0.0042
v  -0.0259 -0.0078 -0.0033
v  -0.0322 -0.0050 0.0136
v  0.0288 -0.0069 0.0166
v  0.0235 -0.0058 -0.0049
v  0.0310 0.0019 0.0160
v  0.0196 -0.0194 0.0153
v  -0.0027 0.0159 -0.0117
v  0.0220 0.0126 -0.0018
v  0.0034 0.0213 -0.0056
v  -0.0195 0.0232 0.0115
v  -0.0140 0.0255 0.0156
v  -0.0315 0.0046 0.0137
v  -0.0219 -0.0003 -0.0093
v  -0.0253 -0.0183 0.0151
v  -0.0164 -0.0204 -0.0040
v  0.0193 -0.0181 0.0017
v  0.0098 -0.0227 -0.0033
v  -0.0159 -0.0083 -0.0131
v  -0.0055 -0.0189 -0.0120
v  -0.0151 -0.0262 0.0151
v  -0.0266 0.0167 0.0143
v  0.0189 0.0064 -0.0095
v  -0.0008 -0.0220 -0.0077
v  -0.0213 0.0171 0.0004
# 40 vertices

vn 0.0349 -0.9882 -0.1490
vn -0.2264 -0.9362 -0.2689
vn 0.3651 -0.9141 -0.1766
vn 0.6989 0.6830 -0.2121
vn 0.4001 0.7803 -0.4807
vn 0.2034 0.9547 -0.2170
vn -0.2220 0.8139 -0.5369
vn -0.3037 0.2258 -0.9256
vn -0.5591 0.4478 -0.6977
vn 0.4635 -0.4904 -0.7380
vn 0.0612 -0.1172 -0.9912
vn 0.4302 0.0968 -0.8975
vn 0.1031 -0.0133 0.9946
vn -0.0704 0.0057 0.9975
vn -0.0404 -0.0525 0.9978
vn -0.8847 0.2960 -0.3602
vn -0.8406 -0.2641 -0.4729
vn -0.9335 -0.1856 -0.3069
vn 0.9027 -0.3791 -0.2035
vn 0.8164 -0.2110 -0.5375
vn 0.9475 0.1202 -0.2964
vn 0.0281 -0.1416 0.9895
vn -0.0364 0.5216 -0.8524
vn 0.7619 0.4745 -0.4408
vn 0.1663 0.8086 -0.5643
vn -0.4962 0.8649 -0.0758
vn -0.2038 0.9625 -0.1793
vn -0.0950 0.0233 0.9952
vn -0.1162 0.0109 0.9932
vn -0.7018 0.0812 -0.7078
vn -0.7352 -0.6312 -0.2471
vn -0.5346 -0.7002 -0.4731
vn 0.7065 -0.6418 -0.2981
vn 0.3386 -0.8271 -0.4486
vn -0.4815 -0.2448 -0.8416
vn -0.1102 -0.6416 -0.7591
vn -0.2038 0.0047 0.9790
vn -0.0870 -0.0065 0.9962
vn -0.4359 -0.8835 -0.1713
vn -0.9469 0.1836 -0.2639
vn -0.7990 0.5774 -0.1682
vn 0.5551 0.3342 -0.7617
vn 0.0778 -0.8238 -0.5615
vn -0.0062 0.0818 0.9966
vn 0.7862 0.4104 -0.4620
vn 0.2523 0.3306 0.9094
vn 0.7277 -0.6810 -0.0812
vn 0.0486 -0.0973 0.9941
vn 0.5926 -0.0936 0.8001
vn -0.6227 0.6504 -0.4351
vn -0.0226 -0.0868 0.9960
vn 0.0274 -0.1394 0.9899
vn -0.0951 -0.0108 0.9954
vn 0.1397 -0.4183 0.8975
# 54 vertex normals

vt 0.4430 0.6537 0.0000
vt 0.3531 0.5862 0.0000
vt 0.5606 0.5682 0.0000
vt 0.5029 0.0864 0.0000
vt 0.3849 0.1688 0.0000
vt 0.3687 0.0310 0.0000
vt 0.2498 0.2232 0.0000
vt 0.2689 0.3550 0.0000
vt 0.1951 0.3140 0.0000
vt 0.4672 0.4214 0.0000
vt 0.3562 0.3862 0.0000
vt 0.4349 0.3115 0.0000
vt 0.9802 0.7962 0.0000
vt 0.7552 0.7919 0.0000
vt 0.7229 0.6543 0.0000
vt 0.1002 0.3498 0.0000
vt 0.1869 0.4716 0.0000
vt 0.0651 0.5045 0.0000
vt 0.6669 0.3010 0.0000
vt 0.5174 0.3371 0.0000
vt 0.6328 0.2256 0.0000
vt 0.9135 0.5899 0.0000
vt 0.2968 0.2539 0.0000
vt 0.4688 0.2096 0.0000
vt 0.3180 0.1937 0.0000
vt 0.1061 0.1889 0.0000
vt 0.1198 0.1308 0.0000
vt 0.6496 0.9230 0.0000
vt 0.5206 0.7624 0.0000
vt 0.2101 0.4017 0.0000
vt 0.1788 0.6320 0.0000
vt 0.2897 0.5332 0.0000
vt 0.5482 0.4381 0.0000
vt 0.4756 0.4846 0.0000
vt 0.2696 0.4341 0.0000
vt 0.3550 0.4794 0.0000
vt 0.5172 0.6878 0.0000
vt 0.5736 0.5902 0.0000
vt 0.3013 0.6713 0.0000
vt 0.0339 0.4091 0.0000
vt 0.0440 0.2583 0.0000
vt 0.4495 0.2725 0.0000
vt 0.3965 0.4988 0.0000
vt 0.8207 0.9361 0.0000
vt 0.6158 0.1654 0.0000
vt 0.6337 0.4850 0.0000
vt 0.9802 0.6871 0.0000
vt 0.9944 0.7522 0.0000
vt 0.1468 0.2723 0.0000
vt 0.6513 0.5335 0.0000
vt 0.7512 0.5221 0.0000
vt 0.5555 0.8558 0.0000
vt 0.8519 0.5323 0.0000
# 53 texture coords

g Kiwi_cut
s 1
f 1/1/1 2/2/2 3/3/3 
f 4/4/4 5/5/5 6/6/6 
f 7/7/7 8/8/8 9/9/9 
f 10/10/10 11/11/11 12/12/12 
s 2
f 13/13/13 14/14/14 15/15/15 
s 1
f 16/16/16 17/17/17 18/18/18 
f 19/19/19 20/20/20 21/21/21 
s 2
f 13/13/13 15/15/15 22/22/22 
s 1
f 23/23/23 12/12/12 11/11/11 
f 5/5/5 4/4/4 24/24/24 
f 25/25/25 7/7/7 26/26/26 27/27/27 
s 2
f 27/28/28 28/29/29 15/15/15 
s 1
f 8/8/8 29/30/30 9/9/9 
f 30/31/31 18/18/18 17/17/17 31/32/32 
f 20/20/20 19/19/19 32/33/33 
f 2/2/2 33/34/34 3/3/3 
f 34/35/35 8/8/8 11/11/11 35/36/36 
f 11/11/11 10/10/10 35/36/36 
s 2
f 28/29/29 18/37/37 30/38/38 15/15/15 
s 1
f 2/2/2 1/1/1 36/39/39 30/31/31 
f 28/40/40 16/16/16 18/18/18 
f 26/26/26 37/41/41 27/27/27 
f 20/20/20 38/42/42 24/24/24 21/21/21 
f 10/10/10 12/12/12 20/20/20 
f 31/32/32 17/17/17 34/35/35 35/36/36 
f 39/43/43 33/34/34 2/2/2 
f 23/23/23 25/25/25 5/5/5 12/12/12 
s 2
f 13/13/13 6/44/44 14/14/14 
s 1
f 25/25/25 27/27/27 6/6/6 
f 17/17/17 16/16/16 29/30/30 
f 4/4/4 13/45/45 21/21/21 24/24/24 
s 2
f 4/4/46 6/6/44 13/45/13 
s 1
f 10/10/10 20/20/20 32/33/33 
f 39/43/43 10/10/10 33/34/34 
f 31/32/32 2/2/2 30/31/31 
f 31/32/32 39/43/43 2/2/2 
f 19/19/19 22/46/47 32/33/33 
s 2
f 19/47/48 21/48/49 13/13/13 22/22/22 
s 1
f 16/16/16 28/40/40 37/41/41 40/49/50 
f 9/9/9 16/16/16 40/49/50 7/7/7 
s 2
f 15/15/15 36/50/51 1/51/52 22/22/22 
s 1
f 25/25/25 6/6/6 5/5/5 
f 5/5/5 24/24/24 38/42/42 
f 32/33/33 3/3/3 33/34/34 
f 10/10/10 32/33/33 33/34/34 
s 2
f 28/29/29 27/28/28 37/52/53 
s 1
f 8/8/8 7/7/7 23/23/23 11/11/11 
f 7/7/7 25/25/25 23/23/23 
f 32/33/33 22/46/47 3/3/3 
s 2
f 22/22/22 1/51/52 3/53/54 
s 1
f 16/16/16 9/9/9 29/30/30 
f 17/17/17 29/30/30 34/35/35 
f 8/8/8 34/35/35 29/30/30 
s 2
f 6/44/44 27/28/28 14/14/14 
f 14/14/14 27/28/28 15/15/15 
s 1
f 20/20/20 12/12/12 38/42/42 
f 5/5/5 38/42/42 12/12/12 
f 7/7/7 40/49/50 26/26/26 
f 26/26/26 40/49/50 37/41/41 
s 2
f 15/15/15 30/38/38 36/50/51 
s 1
f 35/36/36 39/43/43 31/32/32 
f 39/43/43 35/36/36 10/10/10 
# 14 polygons - 48 triangles

