# 3ds Max Wavefront OBJ Exporter v0.97b - (c)2007 guruware
# File Created: 25.05.2016 23:13:08

mtllib Avocado_02.mtl

#
# object Avocado_02
#

v  -0.0342 -0.0043 0.0283
v  -0.0432 -0.0101 0.0152
v  -0.0350 -0.0191 0.0257
v  -0.0335 -0.0314 0.0212
v  -0.0239 -0.0158 0.0373
v  -0.0405 0.0162 -0.0007
v  -0.0368 0.0184 -0.0160
v  -0.0428 0.0020 -0.0139
v  -0.0385 0.0005 -0.0252
v  -0.0397 -0.0338 -0.0077
v  -0.0314 -0.0467 -0.0055
v  -0.0363 -0.0378 0.0071
v  -0.0433 -0.0237 0.0054
v  -0.0301 -0.0216 -0.0350
v  -0.0329 -0.0351 -0.0237
v  -0.0423 -0.0186 -0.0168
v  -0.0241 -0.0514 -0.0148
v  -0.0233 -0.0391 -0.0306
v  -0.0455 -0.0064 -0.0001
v  -0.0428 0.0064 0.0085
v  -0.0355 0.0174 0.0212
v  -0.0279 0.0091 0.0324
v  -0.0197 0.0070 0.0391
v  -0.0141 -0.0061 0.0430
v  -0.0103 0.0110 0.0425
v  -0.0234 0.0209 0.0309
v  -0.0076 0.0240 0.0380
v  -0.0353 0.0268 0.0065
v  -0.0289 0.0351 0.0121
v  -0.0254 0.0349 0.0210
v  -0.0251 0.0441 0.0064
v  -0.0317 0.0343 -0.0036
v  -0.0286 0.0351 -0.0137
v  -0.0227 0.0491 -0.0047
v  -0.0164 0.0504 0.0127
v  -0.0104 0.0581 0.0042
v  -0.0157 0.0537 -0.0096
v  -0.0126 0.0386 0.0271
v  0.0018 0.0217 0.0402
v  -0.0017 0.0327 0.0349
v  -0.0082 0.0500 0.0169
v  -0.0020 0.0474 0.0224
v  0.0063 0.0385 0.0315
v  0.0118 0.0210 0.0403
v  0.0173 0.0280 0.0333
v  0.0089 0.0458 0.0225
v  0.0017 0.0465 0.0087
v  0.0023 0.0583 0.0051
v  0.0141 0.0504 0.0153
v  0.0122 0.0574 0.0088
v  0.0203 0.0397 0.0238
v  0.0303 0.0375 0.0167
v  -0.0249 -0.0353 0.0290
v  -0.0254 -0.0457 0.0176
v  -0.0108 -0.0464 0.0275
v  -0.0103 -0.0178 0.0426
v  -0.0137 -0.0315 0.0367
v  0.0050 -0.0444 0.0313
v  0.0030 -0.0349 0.0380
v  0.0002 -0.0254 0.0423
v  0.0135 -0.0250 0.0420
v  -0.0197 -0.0569 -0.0052
v  -0.0232 -0.0529 0.0078
v  -0.0127 -0.0555 0.0140
v  -0.0059 -0.0613 -0.0041
v  0.0016 -0.0604 0.0065
v  -0.0006 -0.0562 0.0164
v  -0.0106 -0.0556 -0.0203
v  0.0052 -0.0599 -0.0130
v  0.0133 -0.0588 0.0002
v  0.0004 -0.0504 0.0249
v  0.0169 -0.0355 0.0349
v  0.0115 -0.0540 0.0186
v  0.0215 -0.0284 0.0354
v  0.0217 -0.0437 0.0236
v  0.0284 -0.0374 0.0219
v  0.0246 -0.0525 -0.0068
v  0.0267 -0.0476 0.0094
v  0.0368 -0.0330 0.0139
v  -0.0023 -0.0129 0.0448
v  0.0061 -0.0024 0.0463
v  -0.0016 0.0061 0.0447
v  0.0118 -0.0128 0.0449
v  0.0101 0.0109 0.0446
v  0.0191 0.0053 0.0410
v  0.0256 0.0146 0.0337
v  0.0231 -0.0127 0.0386
v  0.0322 -0.0230 0.0278
v  0.0340 -0.0151 0.0304
v  0.0332 0.0057 0.0304
v  0.0356 -0.0015 0.0272
v  0.0407 0.0106 0.0195
v  0.0392 -0.0106 0.0224
v  0.0444 -0.0090 0.0111
v  0.0307 0.0249 0.0271
v  0.0383 0.0257 0.0131
v  0.0414 -0.0201 0.0161
v  -0.0253 0.0081 -0.0374
v  -0.0290 0.0195 -0.0272
v  -0.0150 0.0229 -0.0349
v  -0.0210 0.0355 -0.0243
v  -0.0033 -0.0417 -0.0369
v  -0.0083 -0.0335 -0.0399
v  -0.0161 -0.0180 -0.0430
v  -0.0025 -0.0223 -0.0447
v  -0.0198 -0.0029 -0.0425
v  -0.0024 -0.0088 -0.0463
v  -0.0053 0.0157 -0.0426
v  0.0080 0.0007 -0.0451
v  0.0049 0.0217 -0.0405
v  0.0154 -0.0171 -0.0431
v  0.0217 -0.0012 -0.0404
v  0.0149 0.0139 -0.0402
v  0.0318 0.0058 -0.0323
v  -0.0166 0.0474 -0.0169
v  -0.0092 0.0336 -0.0323
v  -0.0099 0.0471 -0.0231
v  -0.0035 0.0560 -0.0171
v  0.0022 0.0462 -0.0275
v  -0.0014 0.0613 -0.0020
v  0.0067 0.0596 -0.0084
v  0.0128 0.0279 -0.0335
v  0.0125 0.0391 -0.0270
v  0.0016 0.0313 -0.0357
v  0.0106 0.0506 -0.0199
v  0.0209 0.0442 -0.0188
v  0.0301 0.0428 -0.0093
v  0.0312 0.0299 -0.0205
v  0.0243 0.0216 -0.0305
v  0.0381 0.0261 -0.0066
v  0.0197 0.0571 -0.0005
v  0.0207 0.0524 -0.0127
v  0.0237 0.0500 0.0099
v  0.0322 0.0396 0.0037
v  0.0337 0.0349 -0.0033
v  -0.0018 -0.0536 -0.0247
v  0.0087 -0.0477 -0.0310
v  0.0152 -0.0523 -0.0225
v  0.0157 -0.0348 -0.0379
v  0.0330 -0.0215 -0.0320
v  0.0289 -0.0372 -0.0264
v  0.0258 -0.0465 -0.0192
v  0.0353 -0.0409 -0.0063
v  0.0417 -0.0213 -0.0143
v  0.0409 0.0069 -0.0205
v  0.0329 -0.0079 -0.0334
v  0.0430 -0.0246 0.0007
v  0.0426 0.0140 0.0057
v  0.0455 0.0001 0.0027
v  0.0331 0.0156 -0.0270
v  0.0425 0.0101 -0.0078
v  0.0441 -0.0044 -0.0120
# 152 vertices

vn -0.7628 0.0521 0.6445
vn -0.9259 -0.0247 0.3770
vn -0.7741 -0.2021 0.5999
vn -0.7826 -0.3944 0.4817
vn -0.5523 -0.1508 0.8199
vn -0.9421 0.3345 -0.0213
vn -0.8600 0.3792 -0.3414
vn -0.9568 0.1669 -0.2381
vn -0.8327 0.1320 -0.5377
vn -0.8924 -0.4298 -0.1377
vn -0.7639 -0.6407 -0.0772
vn -0.8255 -0.5163 0.2279
vn -0.9509 -0.2686 0.1536
vn -0.6467 -0.2061 -0.7343
vn -0.7540 -0.4567 -0.4722
vn -0.9313 -0.1577 -0.3284
vn -0.5832 -0.7289 -0.3586
vn -0.4797 -0.5384 -0.6929
vn -0.9993 0.0368 -0.0086
vn -0.9553 0.2127 0.2053
vn -0.8242 0.3092 0.4745
vn -0.6522 0.2034 0.7302
vn -0.5061 0.1861 0.8422
vn -0.3431 -0.0112 0.9392
vn -0.2834 0.2560 0.9242
vn -0.5428 0.3816 0.7482
vn -0.2846 0.4092 0.8669
vn -0.8793 0.4526 0.1483
vn -0.8274 0.5015 0.2529
vn -0.6496 0.5271 0.5479
vn -0.7786 0.5928 0.2059
vn -0.8731 0.4829 -0.0669
vn -0.7856 0.4966 -0.3691
vn -0.7375 0.6651 -0.1174
vn -0.5025 0.7158 0.4849
vn -0.3620 0.8969 0.2538
vn -0.5367 0.7842 -0.3116
vn -0.3760 0.5924 0.7125
vn -0.0526 0.3853 0.9213
vn -0.1262 0.5153 0.8477
vn -0.0466 0.8068 0.5889
vn 0.0080 0.8843 0.4669
vn 0.1731 0.6223 0.7634
vn 0.2859 0.3975 0.8719
vn 0.4283 0.4649 0.7748
vn 0.1259 0.8391 0.5293
vn 0.1330 0.7444 0.6544
vn 0.0809 0.8268 0.5567
vn 0.0506 0.7661 0.6407
vn 0.0225 0.8438 0.5362
vn 0.4096 0.6160 0.6729
vn 0.7111 0.5515 0.4360
vn -0.5555 -0.4670 0.6881
vn -0.6014 -0.6496 0.4651
vn -0.2610 -0.6774 0.6877
vn -0.2698 -0.2210 0.9372
vn -0.3077 -0.4251 0.8512
vn 0.1010 -0.6601 0.7444
vn -0.0118 -0.5126 0.8586
vn -0.0795 -0.3296 0.9408
vn 0.2939 -0.3144 0.9026
vn -0.4580 -0.8873 -0.0544
vn -0.5646 -0.7868 0.2493
vn -0.2827 -0.8720 0.3996
vn -0.1383 -0.9901 -0.0240
vn -0.0146 -0.9721 0.2341
vn -0.0555 -0.8877 0.4570
vn -0.2566 -0.8353 -0.4862
vn 0.1517 -0.9488 -0.2770
vn 0.3667 -0.9275 0.0732
vn -0.0285 -0.7742 0.6323
vn 0.4089 -0.5347 0.7396
vn 0.3136 -0.8228 0.4740
vn 0.5961 -0.3459 0.7246
vn 0.5396 -0.6362 0.5514
vn 0.6815 -0.5147 0.5203
vn 0.6013 -0.7943 -0.0870
vn 0.6566 -0.7063 0.2646
vn 0.8133 -0.4771 0.3331
vn -0.1096 -0.1178 0.9870
vn 0.0723 0.0187 0.9972
vn -0.1270 0.1511 0.9803
vn 0.2567 -0.1088 0.9604
vn 0.2034 0.2234 0.9533
vn 0.5029 0.1178 0.8563
vn 0.5445 0.2576 0.7982
vn 0.5694 -0.0946 0.8166
vn 0.7093 -0.3391 0.6180
vn 0.7275 -0.1777 0.6627
vn 0.7070 0.0866 0.7018
vn 0.7736 0.0057 0.6337
vn 0.8952 0.1629 0.4148
vn 0.8642 -0.0692 0.4983
vn 0.9726 -0.0566 0.2257
vn 0.6481 0.3672 0.6672
vn 0.8967 0.3742 0.2365
vn 0.8939 -0.2438 0.3762
vn -0.5638 0.2648 -0.7823
vn -0.6776 0.4037 -0.6147
vn -0.3994 0.4276 -0.8109
vn -0.5912 0.4939 -0.6376
vn -0.0935 -0.5583 -0.8243
vn -0.2305 -0.3935 -0.8899
vn -0.3251 -0.1855 -0.9273
vn -0.0196 -0.2389 -0.9708
vn -0.4067 0.0740 -0.9106
vn -0.0396 -0.0060 -0.9992
vn -0.1630 0.3138 -0.9354
vn 0.1756 0.1117 -0.9781
vn 0.1610 0.3939 -0.9049
vn 0.3235 -0.1391 -0.9360
vn 0.4565 0.0946 -0.8847
vn 0.3821 0.3064 -0.8718
vn 0.6485 0.2096 -0.7318
vn -0.5882 0.6208 -0.5183
vn -0.3047 0.4450 -0.8421
vn -0.3863 0.6129 -0.6893
vn -0.1584 0.8317 -0.5322
vn 0.0778 0.5993 -0.7967
vn -0.0448 0.9983 0.0365
vn 0.1739 0.9509 -0.2559
vn 0.3866 0.4657 -0.7960
vn 0.4052 0.4791 -0.7787
vn 0.0441 0.4766 -0.8780
vn 0.3051 0.6825 -0.6642
vn 0.5278 0.5021 -0.6850
vn 0.8125 0.5198 -0.2639
vn 0.7089 0.4301 -0.5590
vn 0.5048 0.4100 -0.7597
vn 0.9185 0.3631 -0.1567
vn 0.5095 0.8602 0.0190
vn 0.5383 0.6988 -0.4710
vn 0.6250 0.6640 0.4105
vn 0.8628 0.5012 0.0666
vn 0.8956 0.4413 -0.0556
vn -0.0293 -0.8040 -0.5938
vn 0.2165 -0.6787 -0.7018
vn 0.3781 -0.7806 -0.4977
vn 0.3414 -0.4303 -0.8357
vn 0.7230 -0.2208 -0.6546
vn 0.6764 -0.4942 -0.5461
vn 0.6350 -0.6567 -0.4069
vn 0.8308 -0.5483 -0.0952
vn 0.9279 -0.2307 -0.2928
vn 0.8970 0.1671 -0.4092
vn 0.7066 -0.0046 -0.7076
vn 0.9570 -0.2896 0.0169
vn 0.9677 0.2460 0.0554
vn 0.9972 0.0695 0.0277
vn 0.6809 0.3324 -0.6526
vn 0.9655 0.2230 -0.1348
vn 0.9718 -0.0133 -0.2356
# 152 vertex normals

vt 0.2385 0.8086 0.0000
vt 0.2798 0.7629 0.0000
vt 0.2953 0.8208 0.0000
vt 0.3447 0.8319 0.0000
vt 0.2619 0.8738 0.0000
vt 0.2174 0.6690 0.0000
vt 0.2361 0.6096 0.0000
vt 0.2904 0.6464 0.0000
vt 0.3153 0.6120 0.0000
vt 0.3970 0.7301 0.0000
vt 0.4456 0.7631 0.0000
vt 0.3874 0.7882 0.0000
vt 0.3394 0.7560 0.0000
vt 0.4156 0.6137 0.0000
vt 0.4402 0.6798 0.0000
vt 0.3639 0.6746 0.0000
vt 0.4930 0.7436 0.0000
vt 0.4806 0.6594 0.0000
vt 0.2921 0.7065 0.0000
vt 0.2354 0.7149 0.0000
vt 0.1746 0.7425 0.0000
vt 0.1781 0.8061 0.0000
vt 0.1669 0.8479 0.0000
vt 0.2080 0.8973 0.0000
vt 0.1355 0.8726 0.0000
vt 0.1302 0.7849 0.0000
vt 0.0819 0.8364 0.0000
vt 0.1624 0.6727 0.0000
vt 0.1170 0.6794 0.0000
vt 0.0983 0.7163 0.0000
vt 0.0940 0.6410 0.0000
vt 0.1536 0.6231 0.0000
vt 0.1699 0.5826 0.0000
vt 0.0979 0.5874 0.0000
vt 0.0455 0.6510 0.0000
vt 0.0249 0.5944 0.0000
vt 0.0842 0.5534 0.0000
vt 0.0476 0.7543 0.0000
vt 0.0680 0.8773 0.0000
vt 0.0385 0.8254 0.0000
vt 0.0116 0.6744 0.0000
vt 0.4346 0.0754 0.0000
vt 0.4861 0.0142 0.0000
vt 0.4849 0.0713 0.0000
vt 0.5607 0.0288 0.0000
vt 0.5565 0.0706 0.0000
vt 0.6474 0.0729 0.0000
vt 0.6095 0.1029 0.0000
vt 0.6377 0.0308 0.0000
vt 0.5140 0.1043 0.0000
vt 0.4505 0.1161 0.0000
vt 0.4148 0.1583 0.0000
vt 0.4922 0.1450 0.0000
vt 0.4564 0.1691 0.0000
vt 0.3754 0.1268 0.0000
vt 0.5532 0.1352 0.0000
vt 0.5632 0.1820 0.0000
vt 0.3489 0.8750 0.0000
vt 0.4072 0.8503 0.0000
vt 0.4046 0.9193 0.0000
vt 0.2549 0.9304 0.0000
vt 0.3234 0.9230 0.0000
vt 0.4056 0.9861 0.0000
vt 0.3460 0.9893 0.0000
vt 0.2853 0.9789 0.0000
vt 0.8510 0.1459 0.0000
vt 0.8772 0.0975 0.0000
vt 0.9173 0.1536 0.0000
vt 0.4981 0.7924 0.0000
vt 0.4531 0.8298 0.0000
vt 0.4662 0.8765 0.0000
vt 0.9663 0.4464 0.0000
vt 0.9597 0.3828 0.0000
vt 0.9835 0.3395 0.0000
vt 0.5423 0.8300 0.0000
vt 0.4853 0.9223 0.0000
vt 0.5522 0.7324 0.0000
vt 0.9074 0.4616 0.0000
vt 0.9092 0.3915 0.0000
vt 0.9228 0.5351 0.0000
vt 0.4410 0.9526 0.0000
vt 0.8806 0.2008 0.0000
vt 0.9481 0.2257 0.0000
vt 0.9799 0.2799 0.0000
vt 0.9361 0.3096 0.0000
vt 0.8461 0.1904 0.0000
vt 0.8845 0.2650 0.0000
vt 0.8493 0.2631 0.0000
vt 0.8554 0.3968 0.0000
vt 0.8661 0.3271 0.0000
vt 0.8111 0.2873 0.0000
vt 0.8192 0.0523 0.0000
vt 0.7612 0.0674 0.0000
vt 0.7282 0.0259 0.0000
vt 0.2212 0.9551 0.0000
vt 0.1367 0.9175 0.0000
vt 0.8024 0.1067 0.0000
vt 0.6968 0.0677 0.0000
vt 0.7159 0.1102 0.0000
vt 0.6673 0.1363 0.0000
vt 0.7859 0.1520 0.0000
vt 0.8019 0.2196 0.0000
vt 0.7737 0.2039 0.0000
vt 0.6974 0.1745 0.0000
vt 0.7184 0.1967 0.0000
vt 0.6622 0.2114 0.0000
vt 0.7430 0.2293 0.0000
vt 0.7191 0.2702 0.0000
vt 0.6210 0.1569 0.0000
vt 0.6034 0.2149 0.0000
vt 0.7653 0.2648 0.0000
vt 0.3154 0.5397 0.0000
vt 0.2525 0.5589 0.0000
vt 0.2541 0.4943 0.0000
vt 0.1861 0.5315 0.0000
vt 0.5507 0.6122 0.0000
vt 0.5102 0.5862 0.0000
vt 0.4371 0.5554 0.0000
vt 0.4901 0.5285 0.0000
vt 0.3711 0.5338 0.0000
vt 0.4293 0.4833 0.0000
vt 0.3073 0.4524 0.0000
vt 0.5821 0.5089 0.0000
vt 0.4954 0.5171 0.0000
vt 0.4941 0.4640 0.0000
vt 0.6691 0.5122 0.0000
vt 0.6942 0.5874 0.0000
vt 0.6097 0.5688 0.0000
vt 0.6132 0.4623 0.0000
vt 0.5430 0.4526 0.0000
vt 0.6062 0.4058 0.0000
vt 0.1227 0.5336 0.0000
vt 0.2023 0.4751 0.0000
vt 0.1326 0.4953 0.0000
vt 0.0770 0.4900 0.0000
vt 0.1358 0.4410 0.0000
vt 0.0138 0.5361 0.0000
vt 0.3817 0.1868 0.0000
vt 0.4032 0.2284 0.0000
vt 0.3614 0.2721 0.0000
vt 0.4883 0.4096 0.0000
vt 0.3968 0.3504 0.0000
vt 0.4502 0.3601 0.0000
vt 0.4459 0.4333 0.0000
vt 0.2172 0.4276 0.0000
vt 0.4201 0.3003 0.0000
vt 0.4668 0.3063 0.0000
vt 0.5054 0.2697 0.0000
vt 0.5307 0.3306 0.0000
vt 0.5361 0.3886 0.0000
vt 0.5720 0.2846 0.0000
vt 0.4577 0.2132 0.0000
vt 0.4558 0.2657 0.0000
vt 0.5037 0.1869 0.0000
vt 0.5382 0.2277 0.0000
vt 0.5446 0.2598 0.0000
vt 0.8122 0.5718 0.0000
vt 0.8806 0.5256 0.0000
vt 0.8243 0.5146 0.0000
vt 0.8452 0.4710 0.0000
vt 0.7531 0.5112 0.0000
vt 0.7071 0.4382 0.0000
vt 0.7693 0.4451 0.0000
vt 0.8158 0.4355 0.0000
vt 0.8092 0.3725 0.0000
vt 0.7289 0.3672 0.0000
vt 0.6204 0.3550 0.0000
vt 0.6573 0.4257 0.0000
vt 0.7625 0.3248 0.0000
vt 0.6342 0.2567 0.0000
vt 0.6771 0.2868 0.0000
vt 0.5758 0.3728 0.0000
vt 0.6267 0.3088 0.0000
vt 0.6716 0.3424 0.0000
# 174 texture coords

g Avocado_02
usemtl _Avocado_02default
s 1
f 1/1/1 2/2/2 3/3/3 
f 3/3/3 2/2/2 4/4/4 
f 5/5/5 1/1/1 3/3/3 
f 6/6/6 7/7/7 8/8/8 
f 9/9/9 8/8/8 7/7/7 
f 10/10/10 11/11/11 12/12/12 
f 13/13/13 10/10/10 12/12/12 
f 14/14/14 15/15/15 16/16/16 
f 15/15/15 10/10/10 16/16/16 
f 17/17/17 10/10/10 15/15/15 
f 10/10/10 17/17/17 11/11/11 
f 18/18/18 17/17/17 15/15/15 
f 2/2/2 19/19/19 13/13/13 
f 10/10/10 13/13/13 16/16/16 
f 13/13/13 19/19/19 16/16/16 
f 1/1/1 20/20/20 2/2/2 
f 21/21/21 20/20/20 1/1/1 
f 19/19/19 20/20/20 8/8/8 
f 8/8/8 20/20/20 6/6/6 
f 2/2/2 20/20/20 19/19/19 
f 4/4/4 2/2/2 13/13/13 
f 4/4/4 13/13/13 12/12/12 
f 16/16/16 8/8/8 9/9/9 
f 9/9/9 14/14/14 16/16/16 
f 8/8/8 16/16/16 19/19/19 
f 22/22/22 21/21/21 1/1/1 
f 23/23/23 24/24/24 25/25/25 
f 1/1/1 23/23/23 22/22/22 
f 22/22/22 23/23/23 26/26/26 
f 23/23/23 1/1/1 5/5/5 
f 5/5/5 24/24/24 23/23/23 
f 25/25/25 27/27/27 23/23/23 
f 28/28/28 21/21/21 29/29/29 
f 30/30/30 31/31/31 29/29/29 
f 6/6/6 28/28/28 32/32/32 
f 32/32/32 7/7/7 6/6/6 
f 28/28/28 29/29/29 32/32/32 
f 33/33/33 32/32/32 34/34/34 
f 33/33/33 7/7/7 32/32/32 
f 29/29/29 31/31/31 32/32/32 
f 30/30/30 35/35/35 31/31/31 
f 34/34/34 32/32/32 31/31/31 
f 35/35/35 36/36/36 31/31/31 
f 36/36/36 34/34/34 31/31/31 
f 36/36/36 37/37/37 34/34/34 
f 21/21/21 28/28/28 20/20/20 
f 21/21/21 26/26/26 30/30/30 
f 22/22/22 26/26/26 21/21/21 
f 28/28/28 6/6/6 20/20/20 
f 29/29/29 21/21/21 30/30/30 
f 27/27/27 38/38/38 26/26/26 
f 26/26/26 38/38/38 30/30/30 
f 25/25/25 39/39/39 27/27/27 
f 38/38/38 27/27/27 40/40/40 
f 26/26/26 23/23/23 27/27/27 
f 41/41/41 30/30/30 38/38/38 
f 41/42/41 38/43/38 42/44/42 
f 42/44/42 38/43/38 40/45/40 
f 40/45/40 43/46/43 42/44/42 
f 44/47/44 45/48/45 43/46/43 
f 39/49/39 43/46/43 40/45/40 
f 39/39/39 40/40/40 27/27/27 
f 39/49/39 44/47/44 43/46/43 
f 30/30/30 41/41/41 35/35/35 
f 35/35/35 41/41/41 36/36/36 
f 46/50/46 47/51/47 42/44/42 
f 48/52/48 41/42/41 47/51/47 
f 46/50/46 49/53/49 47/51/47 
f 46/50/46 42/44/42 43/46/43 
f 42/44/42 47/51/47 41/42/41 
f 50/54/50 47/51/47 49/53/49 
f 48/52/48 36/55/36 41/42/41 
f 46/50/46 51/56/51 49/53/49 
f 51/56/51 46/50/46 45/48/45 
f 46/50/46 43/46/43 45/48/45 
f 51/56/51 52/57/52 49/53/49 
f 53/58/53 4/4/4 54/59/54 
f 4/4/4 12/12/12 54/59/54 
f 53/58/53 54/59/54 55/60/55 
f 4/4/4 53/58/53 3/3/3 
f 3/3/3 53/58/53 5/5/5 
f 56/61/56 24/24/24 5/5/5 
f 5/5/5 53/58/53 57/62/57 
f 57/62/57 56/61/56 5/5/5 
f 57/62/57 53/58/53 55/60/55 
f 55/60/55 58/63/58 59/64/59 
f 59/64/59 60/65/60 57/62/57 
f 59/64/59 57/62/57 55/60/55 
f 61/66/61 60/67/60 59/68/59 
f 57/62/57 60/65/60 56/61/56 
f 62/69/62 63/70/63 11/11/11 
f 17/17/17 62/69/62 11/11/11 
f 54/59/54 12/12/12 63/70/63 
f 11/11/11 63/70/63 12/12/12 
f 63/70/63 64/71/64 54/59/54 
f 62/69/62 64/71/64 63/70/63 
f 65/72/65 66/73/66 67/74/67 
f 62/69/62 65/75/65 64/71/64 
f 64/71/64 65/75/65 67/76/67 
f 62/69/62 17/17/17 68/77/68 
f 68/77/68 65/75/65 62/69/62 
f 69/78/69 70/79/70 65/72/65 
f 65/72/65 70/79/70 66/73/66 
f 69/78/69 65/72/65 68/80/68 
f 64/71/64 55/60/55 54/59/54 
f 71/81/71 55/60/55 67/76/67 
f 71/81/71 58/63/58 55/60/55 
f 67/76/67 55/60/55 64/71/64 
f 72/82/72 59/68/59 58/83/58 
f 72/82/72 61/66/61 59/68/59 
f 71/84/71 73/85/73 58/83/58 
f 73/85/73 71/84/71 67/74/67 
f 74/86/74 72/82/72 75/87/75 
f 73/85/73 75/87/75 58/83/58 
f 75/87/75 72/82/72 58/83/58 
f 76/88/76 74/86/74 75/87/75 
f 66/73/66 73/85/73 67/74/67 
f 77/89/77 78/90/78 70/79/70 
f 78/90/78 73/85/73 70/79/70 
f 78/90/78 75/87/75 73/85/73 
f 70/79/70 73/85/73 66/73/66 
f 78/90/78 79/91/79 76/88/76 
f 78/90/78 76/88/76 75/87/75 
f 80/92/80 81/93/81 82/94/82 
f 24/24/24 80/95/80 82/96/82 
f 82/96/82 25/25/25 24/24/24 
f 56/61/56 80/95/80 24/24/24 
f 83/97/83 81/93/81 80/92/80 
f 60/65/60 80/95/80 56/61/56 
f 60/67/60 83/97/83 80/92/80 
f 61/66/61 83/97/83 60/67/60 
f 39/49/39 82/94/82 84/98/84 
f 84/98/84 82/94/82 81/93/81 
f 39/39/39 25/25/25 82/96/82 
f 85/99/85 44/47/44 84/98/84 
f 86/100/86 44/47/44 85/99/85 
f 61/66/61 74/86/74 87/101/87 
f 88/102/88 89/103/89 87/101/87 
f 87/101/87 83/97/83 61/66/61 
f 85/99/85 87/101/87 90/104/90 
f 87/101/87 85/99/85 83/97/83 
f 85/99/85 84/98/84 81/93/81 
f 81/93/81 83/97/83 85/99/85 
f 87/101/87 89/103/89 91/105/91 
f 92/106/92 91/105/91 93/107/93 
f 90/104/90 86/100/86 85/99/85 
f 94/108/94 92/106/92 93/107/93 
f 91/105/91 90/104/90 87/101/87 
f 90/104/90 91/105/91 92/106/92 
f 44/47/44 39/49/39 84/98/84 
f 95/109/95 45/48/45 86/100/86 
f 51/56/51 95/109/95 52/57/52 
f 95/109/95 51/56/51 45/48/45 
f 45/48/45 44/47/44 86/100/86 
f 52/57/52 95/109/95 96/110/96 
f 95/109/95 86/100/86 90/104/90 
f 92/106/92 95/109/95 90/104/90 
f 88/102/88 74/86/74 76/88/76 
f 72/82/72 74/86/74 61/66/61 
f 87/101/87 74/86/74 88/102/88 
f 97/111/97 88/102/88 79/91/79 
f 88/102/88 76/88/76 79/91/79 
f 93/107/93 89/103/89 88/102/88 
f 88/102/88 97/111/97 93/107/93 
f 93/107/93 91/105/91 89/103/89 
f 98/112/98 99/113/99 100/114/100 
f 98/112/98 9/9/9 99/113/99 
f 100/114/100 99/113/99 101/115/101 
f 99/113/99 9/9/9 7/7/7 
f 15/15/15 14/14/14 18/18/18 
f 102/116/102 18/18/18 103/117/103 
f 103/117/103 14/14/14 104/118/104 
f 103/117/103 18/18/18 14/14/14 
f 105/119/105 103/117/103 104/118/104 
f 98/112/98 14/14/14 9/9/9 
f 106/120/106 104/118/104 14/14/14 
f 106/120/106 14/14/14 98/112/98 
f 106/120/106 107/121/107 104/118/104 
f 107/121/107 106/120/106 108/122/108 
f 108/122/108 106/120/106 98/112/98 
f 109/123/109 108/124/108 110/125/110 
f 108/122/108 98/112/98 100/114/100 
f 111/126/111 105/127/105 107/128/107 
f 107/121/107 105/119/105 104/118/104 
f 109/123/109 111/126/111 107/128/107 
f 107/128/107 108/124/108 109/123/109 
f 111/126/111 109/123/109 112/129/112 
f 113/130/113 112/129/112 109/123/109 
f 113/130/113 109/123/109 110/125/110 
f 114/131/114 112/129/112 113/130/113 
f 101/115/101 33/33/33 115/132/115 
f 99/113/99 7/7/7 33/33/33 
f 101/115/101 99/113/99 33/33/33 
f 100/114/100 101/115/101 116/133/116 
f 117/134/117 101/115/101 115/132/115 
f 118/135/118 115/132/115 37/37/37 
f 118/135/118 117/134/117 115/132/115 
f 101/115/101 117/134/117 116/133/116 
f 115/132/115 34/34/34 37/37/37 
f 115/132/115 33/33/33 34/34/34 
f 117/134/117 119/136/119 116/133/116 
f 118/135/118 119/136/119 117/134/117 
f 37/37/37 36/36/36 120/137/120 
f 48/52/48 120/138/120 36/55/36 
f 120/137/120 118/135/118 37/37/37 
f 120/138/120 121/139/121 118/140/118 
f 110/125/110 122/141/122 113/130/113 
f 119/142/119 123/143/123 124/144/124 
f 122/141/122 110/125/110 124/144/124 
f 108/122/108 100/114/100 124/145/124 
f 116/133/116 124/145/124 100/114/100 
f 124/145/124 116/133/116 119/136/119 
f 110/125/110 108/124/108 124/144/124 
f 123/143/123 122/141/122 124/144/124 
f 125/146/125 126/147/126 123/143/123 
f 125/146/125 119/142/119 118/140/118 
f 123/143/123 119/142/119 125/146/125 
f 127/148/127 128/149/128 126/147/126 
f 123/143/123 129/150/129 122/141/122 
f 128/149/128 123/143/123 126/147/126 
f 129/150/129 123/143/123 128/149/128 
f 130/151/130 128/149/128 127/148/127 
f 121/139/121 131/152/131 132/153/132 
f 131/152/131 121/139/121 48/52/48 
f 120/138/120 48/52/48 121/139/121 
f 48/52/48 50/54/50 131/152/131 
f 50/54/50 48/52/48 47/51/47 
f 133/154/133 50/54/50 49/53/49 
f 49/53/49 52/57/52 133/154/133 
f 133/154/133 134/155/134 131/152/131 
f 133/154/133 52/57/52 134/155/134 
f 133/154/133 131/152/131 50/54/50 
f 118/140/118 121/139/121 125/146/125 
f 126/147/126 125/146/125 132/153/132 
f 125/146/125 121/139/121 132/153/132 
f 132/153/132 131/152/131 127/148/127 
f 127/148/127 131/152/131 134/155/134 
f 134/155/134 135/156/135 127/148/127 
f 127/148/127 126/147/126 132/153/132 
f 113/130/113 122/141/122 129/150/129 
f 114/131/114 113/130/113 129/150/129 
f 102/157/102 136/158/136 68/80/68 
f 102/157/102 137/159/137 136/158/136 
f 68/77/68 17/17/17 18/18/18 
f 102/116/102 68/77/68 18/18/18 
f 77/89/77 69/78/69 138/160/138 
f 138/160/138 69/78/69 136/158/136 
f 68/80/68 136/158/136 69/78/69 
f 137/159/137 138/160/138 136/158/136 
f 139/161/139 137/159/137 102/157/102 
f 139/161/139 105/127/105 111/126/111 
f 139/161/139 111/126/111 140/162/140 
f 139/161/139 102/157/102 105/127/105 
f 103/117/103 105/119/105 102/116/102 
f 137/159/137 141/163/141 138/160/138 
f 138/160/138 141/163/141 142/164/142 
f 139/161/139 141/163/141 137/159/137 
f 141/163/141 143/165/143 142/164/142 
f 141/163/141 139/161/139 140/162/140 
f 140/162/140 144/166/144 141/163/141 
f 145/167/145 140/162/140 146/168/146 
f 70/79/70 69/78/69 77/89/77 
f 77/89/77 142/164/142 143/165/143 
f 142/164/142 77/89/77 138/160/138 
f 78/90/78 77/89/77 143/165/143 
f 78/90/78 143/165/143 79/91/79 
f 143/165/143 144/166/144 147/169/147 
f 143/165/143 147/169/147 79/91/79 
f 144/166/144 143/165/143 141/163/141 
f 111/126/111 112/129/112 146/168/146 
f 146/168/146 140/162/140 111/126/111 
f 130/151/130 96/110/96 148/170/148 
f 149/171/149 94/108/94 147/169/147 
f 149/171/149 148/170/148 92/106/92 
f 149/171/149 92/106/92 94/108/94 
f 150/172/150 128/149/128 145/167/145 
f 145/167/145 128/149/128 130/151/130 
f 129/150/129 128/149/128 150/172/150 
f 127/148/127 135/156/135 130/151/130 
f 130/151/130 151/173/151 145/167/145 
f 151/173/151 130/151/130 148/170/148 
f 152/174/152 151/173/151 149/171/149 
f 145/167/145 152/174/152 144/166/144 
f 152/174/152 149/171/149 147/169/147 
f 144/166/144 152/174/152 147/169/147 
f 140/162/140 145/167/145 144/166/144 
f 151/173/151 148/170/148 149/171/149 
f 145/167/145 151/173/151 152/174/152 
f 92/106/92 96/110/96 95/109/95 
f 135/156/135 134/155/134 130/151/130 
f 130/151/130 134/155/134 96/110/96 
f 134/155/134 52/57/52 96/110/96 
f 96/110/96 92/106/92 148/170/148 
f 97/111/97 79/91/79 147/169/147 
f 147/169/147 94/108/94 97/111/97 
f 97/111/97 94/108/94 93/107/93 
f 146/168/146 112/129/112 114/131/114 
f 145/167/145 146/168/146 114/131/114 
f 150/172/150 114/131/114 129/150/129 
f 114/131/114 150/172/150 145/167/145 
# 0 polygons - 300 triangles

